<svg width="596" height="372" viewBox="0 0 596 372" fill="none" xmlns="http://www.w3.org/2000/svg">
<rect x="0.5" y="0.5" width="595" height="371" fill="white" stroke="black"/>
<path d="M86.3272 66H84.5659C84.4617 65.4934 84.2794 65.0483 84.019 64.6648C83.7633 64.2812 83.4508 63.9593 83.0815 63.6989C82.7169 63.4337 82.3121 63.2348 81.867 63.1023C81.4219 62.9697 80.9579 62.9034 80.475 62.9034C79.5943 62.9034 78.7965 63.1259 78.0815 63.571C77.3713 64.0161 76.8055 64.6719 76.3841 65.5384C75.9674 66.4048 75.7591 67.4678 75.7591 68.7273C75.7591 69.9867 75.9674 71.0497 76.3841 71.9162C76.8055 72.7827 77.3713 73.4384 78.0815 73.8835C78.7965 74.3286 79.5943 74.5511 80.475 74.5511C80.9579 74.5511 81.4219 74.4848 81.867 74.3523C82.3121 74.2197 82.7169 74.0232 83.0815 73.7628C83.4508 73.4976 83.7633 73.1733 84.019 72.7898C84.2794 72.4015 84.4617 71.9564 84.5659 71.4545H86.3272C86.1947 72.1979 85.9532 72.8632 85.6028 73.4503C85.2524 74.0374 84.8168 74.5369 84.296 74.9489C83.7752 75.3561 83.1904 75.6662 82.5417 75.8793C81.8978 76.0923 81.2089 76.1989 80.475 76.1989C79.2344 76.1989 78.1312 75.8958 77.1653 75.2898C76.1994 74.6837 75.4395 73.822 74.8855 72.7045C74.3315 71.5871 74.0545 70.2614 74.0545 68.7273C74.0545 67.1932 74.3315 65.8674 74.8855 64.75C75.4395 63.6326 76.1994 62.7708 77.1653 62.1648C78.1312 61.5587 79.2344 61.2557 80.475 61.2557C81.2089 61.2557 81.8978 61.3622 82.5417 61.5753C83.1904 61.7884 83.7752 62.1009 84.296 62.5128C84.8168 62.92 85.2524 63.4171 85.6028 64.0043C85.9532 64.5866 86.1947 65.2519 86.3272 66ZM92.1564 76.2557C91.4651 76.2557 90.8378 76.1255 90.2743 75.8651C89.7109 75.5999 89.2634 75.2188 88.932 74.7216C88.6006 74.2197 88.4348 73.6136 88.4348 72.9034C88.4348 72.2784 88.5579 71.7718 88.8042 71.3835C89.0504 70.9905 89.3794 70.6828 89.7914 70.4602C90.2033 70.2377 90.6578 70.072 91.155 69.9631C91.6569 69.8494 92.1612 69.7595 92.6678 69.6932C93.3307 69.608 93.8681 69.544 94.28 69.5014C94.6967 69.4541 94.9997 69.3759 95.1891 69.267C95.3832 69.1581 95.4803 68.9687 95.4803 68.6989V68.642C95.4803 67.9413 95.2885 67.3968 94.905 67.0085C94.5262 66.6203 93.9509 66.4261 93.1792 66.4261C92.379 66.4261 91.7516 66.6013 91.2971 66.9517C90.8425 67.3021 90.5229 67.6761 90.3382 68.0739L88.7473 67.5057C89.0314 66.8428 89.4102 66.3267 89.8837 65.9574C90.3619 65.5833 90.8828 65.3229 91.4462 65.1761C92.0144 65.0246 92.5731 64.9489 93.1223 64.9489C93.4727 64.9489 93.8752 64.9915 94.3297 65.0767C94.789 65.1572 95.2317 65.3253 95.6578 65.581C96.0887 65.8366 96.4462 66.2225 96.7303 66.7386C97.0144 67.2547 97.1564 67.946 97.1564 68.8125V76H95.4803V74.5227H95.3951C95.2814 74.7595 95.092 75.0128 94.8269 75.2827C94.5617 75.5526 94.209 75.7822 93.7686 75.9716C93.3283 76.161 92.7909 76.2557 92.1564 76.2557ZM92.4121 74.75C93.075 74.75 93.6337 74.6198 94.0882 74.3594C94.5475 74.099 94.8932 73.7628 95.1252 73.3509C95.3619 72.9389 95.4803 72.5057 95.4803 72.0511V70.517C95.4093 70.6023 95.253 70.6804 95.0115 70.7514C94.7748 70.8177 94.5002 70.8769 94.1877 70.929C93.8799 70.9763 93.5792 71.0189 93.2857 71.0568C92.9969 71.09 92.7625 71.1184 92.5826 71.142C92.147 71.1989 91.7398 71.2912 91.361 71.419C90.9869 71.5421 90.6839 71.7292 90.4519 71.9801C90.2246 72.2263 90.111 72.5625 90.111 72.9886C90.111 73.571 90.3264 74.0114 90.7573 74.3097C91.1929 74.6032 91.7445 74.75 92.4121 74.75ZM101.892 61.4545V76H100.216V61.4545H101.892ZM106.638 61.4545V76H104.962V61.4545H106.638ZM123.515 65.0909C123.43 64.3712 123.084 63.8125 122.478 63.4148C121.872 63.017 121.128 62.8182 120.248 62.8182C119.604 62.8182 119.04 62.9223 118.557 63.1307C118.079 63.339 117.705 63.6255 117.435 63.9901C117.17 64.3546 117.037 64.7689 117.037 65.233C117.037 65.6212 117.13 65.955 117.314 66.2344C117.504 66.509 117.745 66.7386 118.039 66.9233C118.332 67.1032 118.64 67.2524 118.962 67.3707C119.284 67.4844 119.58 67.5767 119.85 67.6477L121.327 68.0455C121.706 68.1449 122.127 68.2822 122.591 68.4574C123.06 68.6326 123.508 68.8717 123.934 69.1747C124.365 69.473 124.72 69.8565 124.999 70.3253C125.278 70.794 125.418 71.3693 125.418 72.0511C125.418 72.8371 125.212 73.5473 124.8 74.1818C124.393 74.8163 123.796 75.3205 123.01 75.6946C122.229 76.0687 121.28 76.2557 120.162 76.2557C119.121 76.2557 118.219 76.0876 117.456 75.7514C116.699 75.4152 116.102 74.9465 115.667 74.3452C115.236 73.7438 114.992 73.0455 114.935 72.25H116.753C116.801 72.7992 116.985 73.2538 117.307 73.6136C117.634 73.9687 118.046 74.2339 118.543 74.4091C119.045 74.5795 119.585 74.6648 120.162 74.6648C120.835 74.6648 121.439 74.5559 121.974 74.3381C122.509 74.1155 122.932 73.8078 123.245 73.4148C123.557 73.017 123.714 72.553 123.714 72.0227C123.714 71.5398 123.579 71.1468 123.309 70.8438C123.039 70.5407 122.684 70.2945 122.243 70.1051C121.803 69.9157 121.327 69.75 120.816 69.608L119.026 69.0966C117.89 68.7699 116.99 68.3035 116.327 67.6974C115.664 67.0914 115.333 66.2983 115.333 65.3182C115.333 64.5038 115.553 63.7936 115.993 63.1875C116.439 62.5767 117.035 62.1032 117.783 61.767C118.536 61.4261 119.376 61.2557 120.305 61.2557C121.242 61.2557 122.075 61.4238 122.805 61.7599C123.534 62.0914 124.111 62.5459 124.537 63.1236C124.968 63.7012 125.196 64.357 125.219 65.0909H123.515ZM132.831 65.0909V66.5114H127.178V65.0909H132.831ZM128.825 62.4773H130.502V72.875C130.502 73.3485 130.57 73.7036 130.708 73.9403C130.85 74.1723 131.03 74.3286 131.247 74.4091C131.47 74.4848 131.704 74.5227 131.95 74.5227C132.135 74.5227 132.287 74.5133 132.405 74.4943C132.523 74.4706 132.618 74.4517 132.689 74.4375L133.03 75.9432C132.916 75.9858 132.758 76.0284 132.554 76.071C132.351 76.1184 132.093 76.142 131.78 76.142C131.307 76.142 130.843 76.0402 130.388 75.8366C129.938 75.633 129.564 75.3229 129.266 74.9062C128.972 74.4896 128.825 73.964 128.825 73.3295V62.4773ZM138.563 76.2557C137.871 76.2557 137.244 76.1255 136.681 75.8651C136.117 75.5999 135.67 75.2188 135.338 74.7216C135.007 74.2197 134.841 73.6136 134.841 72.9034C134.841 72.2784 134.964 71.7718 135.21 71.3835C135.457 70.9905 135.786 70.6828 136.198 70.4602C136.61 70.2377 137.064 70.072 137.561 69.9631C138.063 69.8494 138.567 69.7595 139.074 69.6932C139.737 69.608 140.274 69.544 140.686 69.5014C141.103 69.4541 141.406 69.3759 141.595 69.267C141.789 69.1581 141.887 68.9687 141.887 68.6989V68.642C141.887 67.9413 141.695 67.3968 141.311 67.0085C140.932 66.6203 140.357 66.4261 139.585 66.4261C138.785 66.4261 138.158 66.6013 137.703 66.9517C137.249 67.3021 136.929 67.6761 136.744 68.0739L135.154 67.5057C135.438 66.8428 135.816 66.3267 136.29 65.9574C136.768 65.5833 137.289 65.3229 137.852 65.1761C138.421 65.0246 138.979 64.9489 139.529 64.9489C139.879 64.9489 140.281 64.9915 140.736 65.0767C141.195 65.1572 141.638 65.3253 142.064 65.581C142.495 65.8366 142.852 66.2225 143.137 66.7386C143.421 67.2547 143.563 67.946 143.563 68.8125V76H141.887V74.5227H141.801C141.688 74.7595 141.498 75.0128 141.233 75.2827C140.968 75.5526 140.615 75.7822 140.175 75.9716C139.735 76.161 139.197 76.2557 138.563 76.2557ZM138.818 74.75C139.481 74.75 140.04 74.6198 140.494 74.3594C140.954 74.099 141.299 73.7628 141.531 73.3509C141.768 72.9389 141.887 72.5057 141.887 72.0511V70.517C141.816 70.6023 141.659 70.6804 141.418 70.7514C141.181 70.8177 140.906 70.8769 140.594 70.929C140.286 70.9763 139.985 71.0189 139.692 71.0568C139.403 71.09 139.169 71.1184 138.989 71.142C138.553 71.1989 138.146 71.2912 137.767 71.419C137.393 71.5421 137.09 71.7292 136.858 71.9801C136.631 72.2263 136.517 72.5625 136.517 72.9886C136.517 73.571 136.733 74.0114 137.164 74.3097C137.599 74.6032 138.151 74.75 138.818 74.75ZM151.054 76.2273C150.031 76.2273 149.15 75.9858 148.412 75.5028C147.673 75.0199 147.105 74.3546 146.707 73.5071C146.309 72.6596 146.111 71.6913 146.111 70.6023C146.111 69.4943 146.314 68.5166 146.721 67.669C147.133 66.8168 147.706 66.1515 148.44 65.6733C149.179 65.1903 150.041 64.9489 151.025 64.9489C151.792 64.9489 152.484 65.0909 153.099 65.375C153.715 65.6591 154.219 66.0568 154.612 66.5682C155.005 67.0795 155.249 67.6761 155.344 68.358H153.667C153.54 67.8608 153.256 67.4205 152.815 67.0369C152.38 66.6487 151.792 66.4545 151.054 66.4545C150.4 66.4545 149.827 66.625 149.335 66.9659C148.847 67.3021 148.466 67.7779 148.192 68.3935C147.922 69.0043 147.787 69.7216 147.787 70.5455C147.787 71.3883 147.919 72.1222 148.184 72.7472C148.454 73.3722 148.833 73.8575 149.321 74.2031C149.813 74.5488 150.391 74.7216 151.054 74.7216C151.489 74.7216 151.885 74.6458 152.24 74.4943C152.595 74.3428 152.896 74.125 153.142 73.8409C153.388 73.5568 153.563 73.2159 153.667 72.8182H155.344C155.249 73.4621 155.015 74.0421 154.64 74.5582C154.271 75.0696 153.781 75.4768 153.17 75.7798C152.564 76.0781 151.859 76.2273 151.054 76.2273ZM159.356 72.0227L159.328 69.9489H159.669L164.442 65.0909H166.515L161.43 70.233H161.288L159.356 72.0227ZM157.794 76V61.4545H159.47V76H157.794ZM164.726 76L160.464 70.6023L161.657 69.4375L166.856 76H164.726Z" fill="black"/>
<path d="M61.5 99.5H180.5V277C180.5 283.351 175.351 288.5 169 288.5H73C66.6487 288.5 61.5 283.351 61.5 277V99.5Z" fill="white" stroke="black"/>
<rect x="284.5" y="57.5" width="281" height="43" fill="white" stroke="black"/>
<path d="M385.099 84L381.121 69.4545H382.911L385.951 81.3011H386.093L389.19 69.4545H391.178L394.275 81.3011H394.417L397.457 69.4545H399.246L395.269 84H393.451L390.241 72.4091H390.127L386.917 84H385.099ZM404.772 84.2273C403.721 84.2273 402.814 83.9953 402.052 83.5312C401.294 83.0625 400.71 82.4091 400.298 81.571C399.89 80.7282 399.687 79.7481 399.687 78.6307C399.687 77.5133 399.89 76.5284 400.298 75.6761C400.71 74.8191 401.282 74.1515 402.016 73.6733C402.755 73.1903 403.617 72.9489 404.602 72.9489C405.17 72.9489 405.731 73.0436 406.285 73.233C406.839 73.4223 407.343 73.7301 407.798 74.1562C408.252 74.5777 408.614 75.1364 408.884 75.8324C409.154 76.5284 409.289 77.3854 409.289 78.4034V79.1136H400.88V77.6648H407.585C407.585 77.0492 407.461 76.5 407.215 76.017C406.974 75.5341 406.628 75.1529 406.178 74.8736C405.733 74.5942 405.208 74.4545 404.602 74.4545C403.934 74.4545 403.356 74.6203 402.869 74.9517C402.386 75.2784 402.014 75.7045 401.754 76.2301C401.493 76.7557 401.363 77.3191 401.363 77.9205V78.8864C401.363 79.7102 401.505 80.4086 401.789 80.9815C402.078 81.5497 402.478 81.983 402.989 82.2812C403.501 82.5748 404.095 82.7216 404.772 82.7216C405.212 82.7216 405.61 82.66 405.965 82.5369C406.325 82.4091 406.635 82.2197 406.896 81.9688C407.156 81.7131 407.357 81.3958 407.499 81.017L409.119 81.4716C408.948 82.0208 408.662 82.5038 408.259 82.9205C407.857 83.3324 407.36 83.6544 406.768 83.8864C406.176 84.1136 405.511 84.2273 404.772 84.2273ZM412.066 84V69.4545H413.742V74.8239H413.884C414.007 74.6345 414.178 74.393 414.396 74.0994C414.618 73.8011 414.935 73.536 415.347 73.304C415.764 73.0672 416.327 72.9489 417.038 72.9489C417.956 72.9489 418.766 73.1785 419.467 73.6378C420.167 74.0971 420.714 74.7481 421.107 75.5909C421.5 76.4337 421.697 77.428 421.697 78.5739C421.697 79.7292 421.5 80.7306 421.107 81.5781C420.714 82.4209 420.17 83.0743 419.474 83.5384C418.778 83.9976 417.975 84.2273 417.066 84.2273C416.365 84.2273 415.804 84.1113 415.383 83.8793C414.961 83.6425 414.637 83.375 414.41 83.0767C414.183 82.7737 414.007 82.5227 413.884 82.3239H413.685V84H412.066ZM413.714 78.5455C413.714 79.3693 413.835 80.0961 414.076 80.7259C414.317 81.3509 414.67 81.8409 415.134 82.196C415.598 82.5464 416.166 82.7216 416.839 82.7216C417.54 82.7216 418.124 82.5369 418.593 82.1676C419.067 81.7936 419.422 81.2917 419.658 80.6619C419.9 80.0275 420.021 79.322 420.021 78.5455C420.021 77.7784 419.902 77.0871 419.665 76.4716C419.433 75.8513 419.081 75.3613 418.607 75.0014C418.138 74.6368 417.549 74.4545 416.839 74.4545C416.157 74.4545 415.584 74.6274 415.12 74.973C414.656 75.3139 414.306 75.7921 414.069 76.4077C413.832 77.0185 413.714 77.7311 413.714 78.5455ZM430.71 84H428.863L434.204 69.4545H436.022L441.363 84H439.516L435.17 71.7557H435.056L430.71 84ZM431.391 78.3182H438.835V79.8807H431.391V78.3182ZM443.629 84V69.4545H448.543C449.684 69.4545 450.617 69.6605 451.342 70.0724C452.071 70.4796 452.611 71.0312 452.961 71.7273C453.311 72.4233 453.487 73.1998 453.487 74.0568C453.487 74.9138 453.311 75.6927 452.961 76.3935C452.615 77.0942 452.08 77.6529 451.356 78.0696C450.631 78.4815 449.703 78.6875 448.572 78.6875H445.049V77.125H448.515C449.296 77.125 449.924 76.9901 450.397 76.7202C450.871 76.4503 451.214 76.0857 451.427 75.6264C451.645 75.1624 451.754 74.6392 451.754 74.0568C451.754 73.4744 451.645 72.9536 451.427 72.4943C451.214 72.035 450.868 71.6752 450.39 71.4148C449.912 71.1496 449.277 71.017 448.487 71.017H445.39V84H443.629ZM458.085 69.4545V84H456.324V69.4545H458.085ZM469.117 75.5341L467.611 75.9602C467.516 75.7093 467.377 75.4654 467.192 75.2287C467.012 74.9872 466.766 74.7884 466.453 74.6321C466.141 74.4759 465.741 74.3977 465.253 74.3977C464.586 74.3977 464.029 74.5516 463.584 74.8594C463.144 75.1624 462.924 75.5483 462.924 76.017C462.924 76.4337 463.075 76.7628 463.378 77.0043C463.681 77.2457 464.155 77.447 464.799 77.608L466.418 78.0057C467.393 78.2424 468.12 78.6046 468.598 79.0923C469.077 79.5753 469.316 80.1979 469.316 80.9602C469.316 81.5852 469.136 82.1439 468.776 82.6364C468.421 83.1288 467.924 83.517 467.284 83.8011C466.645 84.0852 465.902 84.2273 465.054 84.2273C463.942 84.2273 463.021 83.9858 462.292 83.5028C461.562 83.0199 461.101 82.3144 460.907 81.3864L462.498 80.9886C462.649 81.5758 462.935 82.0161 463.357 82.3097C463.783 82.6032 464.339 82.75 465.026 82.75C465.807 82.75 466.427 82.5843 466.887 82.2528C467.351 81.9167 467.583 81.5142 467.583 81.0455C467.583 80.6667 467.45 80.3494 467.185 80.0938C466.92 79.8333 466.513 79.6392 465.963 79.5114L464.145 79.0852C463.146 78.8485 462.412 78.4815 461.944 77.9844C461.48 77.4825 461.248 76.8551 461.248 76.1023C461.248 75.4867 461.42 74.9422 461.766 74.4688C462.116 73.9953 462.592 73.6236 463.194 73.3537C463.8 73.0838 464.486 72.9489 465.253 72.9489C466.333 72.9489 467.18 73.1856 467.796 73.6591C468.416 74.1326 468.856 74.7576 469.117 75.5341Z" fill="black"/>
<path d="M369.733 246.818H371.205L374.665 255.27H374.784L378.244 246.818H379.716V257H378.562V249.264H378.463L375.281 257H374.168L370.986 249.264H370.886V257H369.733V246.818ZM382.029 257V249.364H383.202V257H382.029ZM382.626 248.091C382.397 248.091 382.2 248.013 382.034 247.857C381.872 247.701 381.79 247.514 381.79 247.295C381.79 247.077 381.872 246.889 382.034 246.734C382.2 246.578 382.397 246.5 382.626 246.5C382.854 246.5 383.05 246.578 383.212 246.734C383.378 246.889 383.461 247.077 383.461 247.295C383.461 247.514 383.378 247.701 383.212 247.857C383.05 248.013 382.854 248.091 382.626 248.091ZM388.453 257.159C387.738 257.159 387.121 256.99 386.604 256.652C386.087 256.314 385.689 255.848 385.411 255.255C385.132 254.662 384.993 253.984 384.993 253.222C384.993 252.446 385.136 251.762 385.421 251.168C385.709 250.572 386.11 250.106 386.624 249.771C387.141 249.433 387.744 249.264 388.434 249.264C388.971 249.264 389.454 249.364 389.885 249.562C390.316 249.761 390.669 250.04 390.944 250.398C391.219 250.756 391.39 251.173 391.456 251.651H390.283C390.194 251.303 389.995 250.994 389.686 250.726C389.382 250.454 388.971 250.318 388.453 250.318C387.996 250.318 387.595 250.437 387.25 250.676C386.909 250.911 386.642 251.245 386.45 251.675C386.261 252.103 386.167 252.605 386.167 253.182C386.167 253.772 386.259 254.286 386.445 254.723C386.634 255.161 386.899 255.5 387.24 255.742C387.585 255.984 387.989 256.105 388.453 256.105C388.758 256.105 389.035 256.052 389.284 255.946C389.532 255.84 389.743 255.688 389.915 255.489C390.087 255.29 390.21 255.051 390.283 254.773H391.456C391.39 255.223 391.226 255.629 390.964 255.991C390.706 256.349 390.363 256.634 389.935 256.846C389.511 257.055 389.017 257.159 388.453 257.159ZM393.172 257V249.364H394.305V250.517H394.385C394.524 250.139 394.776 249.833 395.14 249.597C395.505 249.362 395.916 249.244 396.373 249.244C396.459 249.244 396.567 249.246 396.696 249.249C396.826 249.253 396.923 249.258 396.99 249.264V250.457C396.95 250.447 396.859 250.433 396.716 250.413C396.577 250.389 396.43 250.378 396.274 250.378C395.903 250.378 395.571 250.456 395.279 250.612C394.991 250.764 394.762 250.976 394.593 251.248C394.428 251.516 394.345 251.823 394.345 252.168V257H393.172ZM401.25 257.159C400.561 257.159 399.956 256.995 399.436 256.667C398.919 256.339 398.514 255.88 398.223 255.29C397.934 254.7 397.79 254.01 397.79 253.222C397.79 252.426 397.934 251.732 398.223 251.138C398.514 250.545 398.919 250.085 399.436 249.756C399.956 249.428 400.561 249.264 401.25 249.264C401.94 249.264 402.543 249.428 403.06 249.756C403.58 250.085 403.985 250.545 404.273 251.138C404.565 251.732 404.711 252.426 404.711 253.222C404.711 254.01 404.565 254.7 404.273 255.29C403.985 255.88 403.58 256.339 403.06 256.667C402.543 256.995 401.94 257.159 401.25 257.159ZM401.25 256.105C401.774 256.105 402.205 255.971 402.543 255.702C402.881 255.434 403.131 255.081 403.294 254.643C403.456 254.206 403.537 253.732 403.537 253.222C403.537 252.711 403.456 252.236 403.294 251.795C403.131 251.354 402.881 250.998 402.543 250.726C402.205 250.454 401.774 250.318 401.25 250.318C400.727 250.318 400.296 250.454 399.958 250.726C399.62 250.998 399.369 251.354 399.207 251.795C399.045 252.236 398.963 252.711 398.963 253.222C398.963 253.732 399.045 254.206 399.207 254.643C399.369 255.081 399.62 255.434 399.958 255.702C400.296 255.971 400.727 256.105 401.25 256.105ZM409.823 249.364V250.358H405.865V249.364H409.823ZM407.019 247.534H408.192V254.812C408.192 255.144 408.24 255.393 408.336 255.558C408.436 255.721 408.561 255.83 408.714 255.886C408.87 255.939 409.034 255.966 409.206 255.966C409.335 255.966 409.441 255.959 409.524 255.946C409.607 255.929 409.673 255.916 409.723 255.906L409.962 256.96C409.882 256.99 409.771 257.02 409.629 257.05C409.486 257.083 409.306 257.099 409.087 257.099C408.755 257.099 408.431 257.028 408.112 256.886C407.798 256.743 407.536 256.526 407.327 256.234C407.121 255.943 407.019 255.575 407.019 255.131V247.534ZM413.835 257.179C413.351 257.179 412.912 257.088 412.517 256.906C412.123 256.72 411.81 256.453 411.578 256.105C411.346 255.754 411.23 255.33 411.23 254.832C411.23 254.395 411.316 254.04 411.488 253.768C411.66 253.493 411.891 253.278 412.179 253.122C412.468 252.966 412.786 252.85 413.134 252.774C413.485 252.695 413.838 252.632 414.193 252.585C414.657 252.526 415.033 252.481 415.321 252.451C415.613 252.418 415.825 252.363 415.958 252.287C416.093 252.211 416.161 252.078 416.161 251.889V251.849C416.161 251.359 416.027 250.978 415.759 250.706C415.494 250.434 415.091 250.298 414.551 250.298C413.99 250.298 413.551 250.421 413.233 250.666C412.915 250.911 412.691 251.173 412.562 251.452L411.448 251.054C411.647 250.59 411.912 250.229 412.244 249.97C412.579 249.708 412.943 249.526 413.338 249.423C413.735 249.317 414.126 249.264 414.511 249.264C414.756 249.264 415.038 249.294 415.356 249.354C415.677 249.41 415.987 249.528 416.286 249.707C416.587 249.886 416.838 250.156 417.036 250.517C417.235 250.878 417.335 251.362 417.335 251.969V257H416.161V255.966H416.102C416.022 256.132 415.89 256.309 415.704 256.498C415.518 256.687 415.271 256.848 414.963 256.98C414.655 257.113 414.279 257.179 413.835 257.179ZM414.014 256.125C414.478 256.125 414.869 256.034 415.187 255.852C415.508 255.669 415.75 255.434 415.913 255.146C416.079 254.857 416.161 254.554 416.161 254.236V253.162C416.112 253.222 416.002 253.276 415.833 253.326C415.668 253.372 415.475 253.414 415.257 253.45C415.041 253.483 414.831 253.513 414.625 253.54C414.423 253.563 414.259 253.583 414.133 253.599C413.828 253.639 413.543 253.704 413.278 253.793C413.016 253.879 412.804 254.01 412.642 254.186C412.482 254.358 412.403 254.594 412.403 254.892C412.403 255.3 412.554 255.608 412.855 255.817C413.16 256.022 413.546 256.125 414.014 256.125ZM424.885 251.074L423.831 251.372C423.765 251.196 423.667 251.026 423.538 250.86C423.412 250.691 423.24 250.552 423.021 250.442C422.802 250.333 422.522 250.278 422.181 250.278C421.713 250.278 421.324 250.386 421.012 250.602C420.704 250.814 420.55 251.084 420.55 251.412C420.55 251.704 420.656 251.934 420.868 252.103C421.08 252.272 421.412 252.413 421.863 252.526L422.996 252.804C423.679 252.97 424.188 253.223 424.522 253.565C424.857 253.903 425.025 254.339 425.025 254.872C425.025 255.31 424.899 255.701 424.647 256.045C424.398 256.39 424.05 256.662 423.603 256.861C423.155 257.06 422.635 257.159 422.042 257.159C421.263 257.159 420.618 256.99 420.108 256.652C419.597 256.314 419.274 255.82 419.138 255.17L420.252 254.892C420.358 255.303 420.558 255.611 420.853 255.817C421.152 256.022 421.541 256.125 422.022 256.125C422.569 256.125 423.003 256.009 423.324 255.777C423.649 255.542 423.811 255.26 423.811 254.932C423.811 254.667 423.719 254.445 423.533 254.266C423.347 254.083 423.062 253.947 422.678 253.858L421.405 253.56C420.706 253.394 420.192 253.137 419.864 252.789C419.539 252.438 419.377 251.999 419.377 251.472C419.377 251.041 419.498 250.66 419.74 250.328C419.985 249.997 420.318 249.737 420.739 249.548C421.163 249.359 421.644 249.264 422.181 249.264C422.936 249.264 423.53 249.43 423.961 249.761C424.395 250.093 424.703 250.53 424.885 251.074ZM427.884 254.216L427.865 252.764H428.103L431.444 249.364H432.896L429.336 252.963H429.237L427.884 254.216ZM426.791 257V246.818H427.964V257H426.791ZM431.643 257L428.66 253.222L429.495 252.406L433.134 257H431.643ZM442.201 253.818H443.554L444.687 255.31L444.985 255.707L446.676 257.955H445.324L444.21 256.463L443.931 256.085L442.201 253.818ZM447.093 251.909C447.093 252.983 446.9 253.911 446.512 254.693C446.124 255.475 445.592 256.079 444.916 256.503C444.24 256.927 443.467 257.139 442.599 257.139C441.731 257.139 440.958 256.927 440.282 256.503C439.606 256.079 439.074 255.475 438.686 254.693C438.299 253.911 438.105 252.983 438.105 251.909C438.105 250.835 438.299 249.907 438.686 249.125C439.074 248.343 439.606 247.74 440.282 247.315C440.958 246.891 441.731 246.679 442.599 246.679C443.467 246.679 444.24 246.891 444.916 247.315C445.592 247.74 446.124 248.343 446.512 249.125C446.9 249.907 447.093 250.835 447.093 251.909ZM445.9 251.909C445.9 251.027 445.753 250.283 445.458 249.677C445.166 249.07 444.77 248.611 444.27 248.3C443.772 247.988 443.216 247.832 442.599 247.832C441.983 247.832 441.424 247.988 440.924 248.3C440.426 248.611 440.03 249.07 439.735 249.677C439.444 250.283 439.298 251.027 439.298 251.909C439.298 252.791 439.444 253.535 439.735 254.141C440.03 254.748 440.426 255.207 440.924 255.518C441.424 255.83 441.983 255.986 442.599 255.986C443.216 255.986 443.772 255.83 444.27 255.518C444.77 255.207 445.166 254.748 445.458 254.141C445.753 253.535 445.9 252.791 445.9 251.909ZM453.82 253.878V249.364H454.993V257H453.82V255.707H453.74C453.561 256.095 453.283 256.425 452.905 256.697C452.527 256.965 452.05 257.099 451.473 257.099C450.996 257.099 450.572 256.995 450.201 256.786C449.829 256.574 449.538 256.256 449.326 255.832C449.114 255.404 449.007 254.866 449.007 254.216V249.364H450.181V254.136C450.181 254.693 450.337 255.137 450.648 255.469C450.963 255.8 451.364 255.966 451.851 255.966C452.143 255.966 452.44 255.891 452.741 255.742C453.046 255.593 453.301 255.364 453.507 255.056C453.716 254.748 453.82 254.355 453.82 253.878ZM460.344 257.159C459.608 257.159 458.973 256.997 458.44 256.672C457.91 256.344 457.5 255.886 457.212 255.3C456.927 254.71 456.784 254.024 456.784 253.241C456.784 252.459 456.927 251.77 457.212 251.173C457.5 250.573 457.901 250.106 458.415 249.771C458.932 249.433 459.535 249.264 460.225 249.264C460.622 249.264 461.015 249.33 461.403 249.463C461.791 249.596 462.144 249.811 462.462 250.109C462.78 250.404 463.034 250.795 463.222 251.283C463.411 251.77 463.506 252.37 463.506 253.082V253.58H457.619V252.565H462.313C462.313 252.134 462.227 251.75 462.054 251.412C461.885 251.074 461.643 250.807 461.328 250.612C461.017 250.416 460.649 250.318 460.225 250.318C459.757 250.318 459.353 250.434 459.012 250.666C458.673 250.895 458.413 251.193 458.231 251.561C458.049 251.929 457.958 252.323 457.958 252.744V253.42C457.958 253.997 458.057 254.486 458.256 254.887C458.458 255.285 458.738 255.588 459.096 255.797C459.454 256.002 459.87 256.105 460.344 256.105C460.652 256.105 460.931 256.062 461.179 255.976C461.431 255.886 461.648 255.754 461.83 255.578C462.013 255.399 462.154 255.177 462.253 254.912L463.387 255.23C463.267 255.615 463.067 255.953 462.785 256.244C462.503 256.533 462.155 256.758 461.741 256.92C461.327 257.08 460.861 257.159 460.344 257.159ZM470.103 253.878V249.364H471.276V257H470.103V255.707H470.024C469.845 256.095 469.566 256.425 469.188 256.697C468.811 256.965 468.333 257.099 467.757 257.099C467.279 257.099 466.855 256.995 466.484 256.786C466.113 256.574 465.821 256.256 465.609 255.832C465.397 255.404 465.291 254.866 465.291 254.216V249.364H466.464V254.136C466.464 254.693 466.62 255.137 466.931 255.469C467.246 255.8 467.647 255.966 468.134 255.966C468.426 255.966 468.723 255.891 469.024 255.742C469.329 255.593 469.584 255.364 469.79 255.056C469.999 254.748 470.103 254.355 470.103 253.878ZM476.627 257.159C475.891 257.159 475.257 256.997 474.723 256.672C474.193 256.344 473.783 255.886 473.495 255.3C473.21 254.71 473.067 254.024 473.067 253.241C473.067 252.459 473.21 251.77 473.495 251.173C473.783 250.573 474.184 250.106 474.698 249.771C475.215 249.433 475.818 249.264 476.508 249.264C476.906 249.264 477.298 249.33 477.686 249.463C478.074 249.596 478.427 249.811 478.745 250.109C479.063 250.404 479.317 250.795 479.506 251.283C479.695 251.77 479.789 252.37 479.789 253.082V253.58H473.903V252.565H478.596C478.596 252.134 478.51 251.75 478.337 251.412C478.168 251.074 477.926 250.807 477.612 250.612C477.3 250.416 476.932 250.318 476.508 250.318C476.04 250.318 475.636 250.434 475.295 250.666C474.957 250.895 474.696 251.193 474.514 251.561C474.332 251.929 474.241 252.323 474.241 252.744V253.42C474.241 253.997 474.34 254.486 474.539 254.887C474.741 255.285 475.021 255.588 475.379 255.797C475.737 256.002 476.153 256.105 476.627 256.105C476.935 256.105 477.214 256.062 477.462 255.976C477.714 255.886 477.931 255.754 478.114 255.578C478.296 255.399 478.437 255.177 478.536 254.912L479.67 255.23C479.55 255.615 479.35 255.953 479.068 256.244C478.786 256.533 478.438 256.758 478.024 256.92C477.61 257.08 477.144 257.159 476.627 257.159Z" fill="black"/>
<rect x="285.5" y="197.5" width="281" height="43" fill="white" stroke="black"/>
<path d="M387.211 319.912V318.818H394.848V319.912H391.646V329H390.413V319.912H387.211ZM397.8 329.179C397.316 329.179 396.876 329.088 396.482 328.906C396.088 328.72 395.774 328.453 395.542 328.105C395.31 327.754 395.194 327.33 395.194 326.832C395.194 326.395 395.281 326.04 395.453 325.768C395.625 325.493 395.856 325.278 396.144 325.122C396.432 324.966 396.751 324.85 397.099 324.774C397.45 324.695 397.803 324.632 398.157 324.585C398.622 324.526 398.998 324.481 399.286 324.451C399.578 324.418 399.79 324.363 399.922 324.287C400.058 324.211 400.126 324.078 400.126 323.889V323.849C400.126 323.359 399.992 322.978 399.724 322.706C399.458 322.434 399.056 322.298 398.515 322.298C397.955 322.298 397.516 322.421 397.198 322.666C396.88 322.911 396.656 323.173 396.527 323.452L395.413 323.054C395.612 322.59 395.877 322.229 396.209 321.97C396.543 321.708 396.908 321.526 397.302 321.423C397.7 321.317 398.091 321.264 398.476 321.264C398.721 321.264 399.003 321.294 399.321 321.354C399.642 321.41 399.952 321.528 400.251 321.707C400.552 321.886 400.802 322.156 401.001 322.517C401.2 322.878 401.3 323.362 401.3 323.969V329H400.126V327.966H400.067C399.987 328.132 399.854 328.309 399.669 328.498C399.483 328.687 399.236 328.848 398.928 328.98C398.62 329.113 398.244 329.179 397.8 329.179ZM397.979 328.125C398.443 328.125 398.834 328.034 399.152 327.852C399.473 327.669 399.715 327.434 399.878 327.146C400.043 326.857 400.126 326.554 400.126 326.236V325.162C400.077 325.222 399.967 325.276 399.798 325.326C399.632 325.372 399.44 325.414 399.221 325.45C399.006 325.483 398.796 325.513 398.59 325.54C398.388 325.563 398.224 325.583 398.098 325.599C397.793 325.639 397.508 325.704 397.243 325.793C396.981 325.879 396.769 326.01 396.606 326.186C396.447 326.358 396.368 326.594 396.368 326.892C396.368 327.3 396.519 327.608 396.82 327.817C397.125 328.022 397.511 328.125 397.979 328.125ZM408.85 323.074L407.796 323.372C407.73 323.196 407.632 323.026 407.503 322.86C407.377 322.691 407.205 322.552 406.986 322.442C406.767 322.333 406.487 322.278 406.146 322.278C405.678 322.278 405.289 322.386 404.977 322.602C404.669 322.814 404.515 323.084 404.515 323.412C404.515 323.704 404.621 323.934 404.833 324.103C405.045 324.272 405.377 324.413 405.827 324.526L406.961 324.804C407.644 324.97 408.152 325.223 408.487 325.565C408.822 325.903 408.989 326.339 408.989 326.872C408.989 327.31 408.863 327.701 408.612 328.045C408.363 328.39 408.015 328.662 407.567 328.861C407.12 329.06 406.6 329.159 406.006 329.159C405.228 329.159 404.583 328.99 404.072 328.652C403.562 328.314 403.239 327.82 403.103 327.17L404.217 326.892C404.323 327.303 404.523 327.611 404.818 327.817C405.116 328.022 405.506 328.125 405.987 328.125C406.533 328.125 406.968 328.009 407.289 327.777C407.614 327.542 407.776 327.26 407.776 326.932C407.776 326.667 407.683 326.445 407.498 326.266C407.312 326.083 407.027 325.947 406.643 325.858L405.37 325.56C404.671 325.394 404.157 325.137 403.829 324.789C403.504 324.438 403.342 323.999 403.342 323.472C403.342 323.041 403.463 322.66 403.705 322.328C403.95 321.997 404.283 321.737 404.704 321.548C405.128 321.359 405.609 321.264 406.146 321.264C406.901 321.264 407.495 321.43 407.925 321.761C408.36 322.093 408.668 322.53 408.85 323.074ZM411.849 326.216L411.829 324.764H412.068L415.409 321.364H416.861L413.301 324.963H413.202L411.849 326.216ZM410.756 329V318.818H411.929V329H410.756ZM415.608 329L412.625 325.222L413.46 324.406L417.099 329H415.608ZM426.166 325.818H427.518L428.652 327.31L428.95 327.707L430.641 329.955H429.288L428.175 328.463L427.896 328.085L426.166 325.818ZM431.058 323.909C431.058 324.983 430.864 325.911 430.477 326.693C430.089 327.475 429.557 328.079 428.881 328.503C428.205 328.927 427.432 329.139 426.564 329.139C425.696 329.139 424.923 328.927 424.247 328.503C423.571 328.079 423.039 327.475 422.651 326.693C422.263 325.911 422.07 324.983 422.07 323.909C422.07 322.835 422.263 321.907 422.651 321.125C423.039 320.343 423.571 319.74 424.247 319.315C424.923 318.891 425.696 318.679 426.564 318.679C427.432 318.679 428.205 318.891 428.881 319.315C429.557 319.74 430.089 320.343 430.477 321.125C430.864 321.907 431.058 322.835 431.058 323.909ZM429.865 323.909C429.865 323.027 429.718 322.283 429.423 321.677C429.131 321.07 428.735 320.611 428.234 320.3C427.737 319.988 427.18 319.832 426.564 319.832C425.947 319.832 425.389 319.988 424.888 320.3C424.391 320.611 423.995 321.07 423.7 321.677C423.409 322.283 423.263 323.027 423.263 323.909C423.263 324.791 423.409 325.535 423.7 326.141C423.995 326.748 424.391 327.207 424.888 327.518C425.389 327.83 425.947 327.986 426.564 327.986C427.18 327.986 427.737 327.83 428.234 327.518C428.735 327.207 429.131 326.748 429.423 326.141C429.718 325.535 429.865 324.791 429.865 323.909ZM437.785 325.878V321.364H438.958V329H437.785V327.707H437.705C437.526 328.095 437.248 328.425 436.87 328.697C436.492 328.965 436.015 329.099 435.438 329.099C434.961 329.099 434.537 328.995 434.165 328.786C433.794 328.574 433.503 328.256 433.29 327.832C433.078 327.404 432.972 326.866 432.972 326.216V321.364H434.146V326.136C434.146 326.693 434.301 327.137 434.613 327.469C434.928 327.8 435.329 327.966 435.816 327.966C436.108 327.966 436.404 327.891 436.706 327.742C437.011 327.593 437.266 327.364 437.472 327.056C437.68 326.748 437.785 326.355 437.785 325.878ZM444.309 329.159C443.573 329.159 442.938 328.997 442.405 328.672C441.874 328.344 441.465 327.886 441.177 327.3C440.892 326.71 440.749 326.024 440.749 325.241C440.749 324.459 440.892 323.77 441.177 323.173C441.465 322.573 441.866 322.106 442.38 321.771C442.897 321.433 443.5 321.264 444.189 321.264C444.587 321.264 444.98 321.33 445.368 321.463C445.756 321.596 446.108 321.811 446.427 322.109C446.745 322.404 446.998 322.795 447.187 323.283C447.376 323.77 447.471 324.37 447.471 325.082V325.58H441.584V324.565H446.278C446.278 324.134 446.191 323.75 446.019 323.412C445.85 323.074 445.608 322.807 445.293 322.612C444.982 322.416 444.614 322.318 444.189 322.318C443.722 322.318 443.318 322.434 442.976 322.666C442.638 322.895 442.378 323.193 442.196 323.561C442.014 323.929 441.922 324.323 441.922 324.744V325.42C441.922 325.997 442.022 326.486 442.221 326.887C442.423 327.285 442.703 327.588 443.061 327.797C443.419 328.002 443.835 328.105 444.309 328.105C444.617 328.105 444.895 328.062 445.144 327.976C445.396 327.886 445.613 327.754 445.795 327.578C445.978 327.399 446.118 327.177 446.218 326.912L447.351 327.23C447.232 327.615 447.032 327.953 446.75 328.244C446.468 328.533 446.12 328.758 445.706 328.92C445.291 329.08 444.826 329.159 444.309 329.159ZM454.068 325.878V321.364H455.241V329H454.068V327.707H453.988C453.809 328.095 453.531 328.425 453.153 328.697C452.775 328.965 452.298 329.099 451.721 329.099C451.244 329.099 450.82 328.995 450.449 328.786C450.077 328.574 449.786 328.256 449.574 327.832C449.362 327.404 449.256 326.866 449.256 326.216V321.364H450.429V326.136C450.429 326.693 450.585 327.137 450.896 327.469C451.211 327.8 451.612 327.966 452.099 327.966C452.391 327.966 452.688 327.891 452.989 327.742C453.294 327.593 453.549 327.364 453.755 327.056C453.964 326.748 454.068 326.355 454.068 325.878ZM460.592 329.159C459.856 329.159 459.221 328.997 458.688 328.672C458.158 328.344 457.748 327.886 457.46 327.3C457.175 326.71 457.032 326.024 457.032 325.241C457.032 324.459 457.175 323.77 457.46 323.173C457.748 322.573 458.149 322.106 458.663 321.771C459.18 321.433 459.783 321.264 460.473 321.264C460.87 321.264 461.263 321.33 461.651 321.463C462.039 321.596 462.392 321.811 462.71 322.109C463.028 322.404 463.282 322.795 463.471 323.283C463.659 323.77 463.754 324.37 463.754 325.082V325.58H457.868V324.565H462.561C462.561 324.134 462.475 323.75 462.302 323.412C462.133 323.074 461.891 322.807 461.576 322.612C461.265 322.416 460.897 322.318 460.473 322.318C460.005 322.318 459.601 322.434 459.26 322.666C458.922 322.895 458.661 323.193 458.479 323.561C458.297 323.929 458.206 324.323 458.206 324.744V325.42C458.206 325.997 458.305 326.486 458.504 326.887C458.706 327.285 458.986 327.588 459.344 327.797C459.702 328.002 460.118 328.105 460.592 328.105C460.9 328.105 461.179 328.062 461.427 327.976C461.679 327.886 461.896 327.754 462.078 327.578C462.261 327.399 462.402 327.177 462.501 326.912L463.635 327.23C463.515 327.615 463.315 327.953 463.033 328.244C462.751 328.533 462.403 328.758 461.989 328.92C461.575 329.08 461.109 329.159 460.592 329.159Z" fill="black"/>
<rect x="285.5" y="266.5" width="281" height="43" fill="white" stroke="black"/>
<path d="M403.101 188V177.818H406.541C407.337 177.818 407.99 177.954 408.5 178.226C409.011 178.494 409.389 178.864 409.634 179.335C409.879 179.805 410.002 180.34 410.002 180.94C410.002 181.54 409.879 182.072 409.634 182.536C409.389 183 409.012 183.365 408.505 183.63C407.998 183.892 407.35 184.023 406.561 184.023H403.777V182.909H406.522C407.065 182.909 407.503 182.83 407.834 182.67C408.169 182.511 408.411 182.286 408.56 181.994C408.712 181.699 408.789 181.348 408.789 180.94C408.789 180.533 408.712 180.176 408.56 179.871C408.407 179.567 408.164 179.331 407.829 179.165C407.494 178.996 407.052 178.912 406.502 178.912H404.334V188H403.101ZM407.894 183.426L410.399 188H408.968L406.502 183.426H407.894ZM415.017 188.159C414.281 188.159 413.646 187.997 413.113 187.672C412.582 187.344 412.173 186.886 411.885 186.3C411.6 185.71 411.457 185.024 411.457 184.241C411.457 183.459 411.6 182.77 411.885 182.173C412.173 181.573 412.574 181.106 413.088 180.771C413.605 180.433 414.208 180.264 414.897 180.264C415.295 180.264 415.688 180.33 416.076 180.463C416.464 180.596 416.816 180.811 417.135 181.109C417.453 181.404 417.706 181.795 417.895 182.283C418.084 182.77 418.179 183.37 418.179 184.082V184.58H412.292V183.565H416.986C416.986 183.134 416.899 182.75 416.727 182.412C416.558 182.074 416.316 181.807 416.001 181.612C415.69 181.416 415.322 181.318 414.897 181.318C414.43 181.318 414.026 181.434 413.684 181.666C413.346 181.895 413.086 182.193 412.904 182.561C412.722 182.929 412.63 183.323 412.63 183.744V184.42C412.63 184.997 412.73 185.486 412.929 185.887C413.131 186.285 413.411 186.588 413.769 186.797C414.127 187.002 414.543 187.105 415.017 187.105C415.325 187.105 415.603 187.062 415.852 186.976C416.104 186.886 416.321 186.754 416.503 186.578C416.686 186.399 416.826 186.177 416.926 185.912L418.059 186.23C417.94 186.615 417.74 186.953 417.458 187.244C417.176 187.533 416.828 187.758 416.414 187.92C415.999 188.08 415.534 188.159 415.017 188.159ZM421.137 183.406V188H419.964V180.364H421.097V181.557H421.196C421.375 181.169 421.647 180.857 422.012 180.622C422.376 180.384 422.847 180.264 423.424 180.264C423.941 180.264 424.393 180.37 424.781 180.582C425.169 180.791 425.47 181.109 425.686 181.537C425.901 181.961 426.009 182.498 426.009 183.148V188H424.836V183.227C424.836 182.627 424.68 182.16 424.368 181.825C424.057 181.487 423.629 181.318 423.086 181.318C422.711 181.318 422.376 181.399 422.081 181.562C421.79 181.724 421.559 181.961 421.39 182.273C421.221 182.584 421.137 182.962 421.137 183.406ZM431.036 188.159C430.4 188.159 429.838 187.998 429.351 187.677C428.864 187.352 428.483 186.895 428.208 186.305C427.933 185.711 427.795 185.01 427.795 184.202C427.795 183.4 427.933 182.704 428.208 182.114C428.483 181.524 428.866 181.068 429.356 180.746C429.847 180.425 430.413 180.264 431.056 180.264C431.554 180.264 431.946 180.347 432.235 180.513C432.526 180.675 432.748 180.861 432.901 181.07C433.057 181.275 433.178 181.444 433.264 181.577H433.363V177.818H434.536V188H433.403V186.827H433.264C433.178 186.966 433.055 187.142 432.896 187.354C432.737 187.562 432.51 187.75 432.215 187.915C431.92 188.078 431.527 188.159 431.036 188.159ZM431.196 187.105C431.666 187.105 432.064 186.982 432.389 186.737C432.714 186.489 432.96 186.146 433.13 185.708C433.299 185.267 433.383 184.759 433.383 184.182C433.383 183.612 433.3 183.113 433.134 182.685C432.969 182.254 432.724 181.92 432.399 181.681C432.074 181.439 431.673 181.318 431.196 181.318C430.698 181.318 430.284 181.446 429.953 181.701C429.625 181.953 429.378 182.296 429.212 182.73C429.05 183.161 428.968 183.645 428.968 184.182C428.968 184.725 429.051 185.219 429.217 185.663C429.386 186.104 429.634 186.455 429.963 186.717C430.294 186.976 430.705 187.105 431.196 187.105ZM440.05 188.159C439.314 188.159 438.679 187.997 438.146 187.672C437.616 187.344 437.206 186.886 436.918 186.3C436.633 185.71 436.49 185.024 436.49 184.241C436.49 183.459 436.633 182.77 436.918 182.173C437.206 181.573 437.607 181.106 438.121 180.771C438.638 180.433 439.241 180.264 439.931 180.264C440.328 180.264 440.721 180.33 441.109 180.463C441.497 180.596 441.85 180.811 442.168 181.109C442.486 181.404 442.74 181.795 442.929 182.283C443.117 182.77 443.212 183.37 443.212 184.082V184.58H437.326V183.565H442.019C442.019 183.134 441.933 182.75 441.76 182.412C441.591 182.074 441.349 181.807 441.034 181.612C440.723 181.416 440.355 181.318 439.931 181.318C439.463 181.318 439.059 181.434 438.718 181.666C438.38 181.895 438.119 182.193 437.937 182.561C437.755 182.929 437.664 183.323 437.664 183.744V184.42C437.664 184.997 437.763 185.486 437.962 185.887C438.164 186.285 438.444 186.588 438.802 186.797C439.16 187.002 439.576 187.105 440.05 187.105C440.358 187.105 440.637 187.062 440.885 186.976C441.137 186.886 441.354 186.754 441.536 186.578C441.719 186.399 441.86 186.177 441.959 185.912L443.093 186.23C442.973 186.615 442.773 186.953 442.491 187.244C442.209 187.533 441.861 187.758 441.447 187.92C441.033 188.08 440.567 188.159 440.05 188.159ZM444.997 188V180.364H446.13V181.517H446.21C446.349 181.139 446.601 180.833 446.965 180.597C447.33 180.362 447.741 180.244 448.198 180.244C448.285 180.244 448.392 180.246 448.522 180.249C448.651 180.253 448.749 180.258 448.815 180.264V181.457C448.775 181.447 448.684 181.433 448.541 181.413C448.402 181.389 448.255 181.378 448.099 181.378C447.728 181.378 447.396 181.456 447.105 181.612C446.816 181.764 446.588 181.976 446.419 182.248C446.253 182.516 446.17 182.823 446.17 183.168V188H444.997Z" fill="black"/>
<rect x="284.5" y="127.5" width="281" height="43" fill="white" stroke="black"/>
</svg>
