<svg width="840" height="447" viewBox="0 0 840 447" fill="none" xmlns="http://www.w3.org/2000/svg">
<rect x="0.5" y="0.5" width="839" height="446" fill="white" stroke="black"/>
<path d="M58 108H256V386H58V108Z" fill="#C4C4C4" stroke="black" stroke-width="2"/>
<rect x="321" y="108" width="198" height="278" fill="#C4C4C4" stroke="black" stroke-width="2"/>
<rect x="584.298" y="108" width="198" height="278" fill="#C4C4C4" stroke="black" stroke-width="2"/>
<path d="M326.244 48.5455C326.244 50.5398 325.884 52.2633 325.164 53.7159C324.444 55.1686 323.456 56.2888 322.2 57.0767C320.945 57.8646 319.51 58.2585 317.898 58.2585C316.285 58.2585 314.851 57.8646 313.595 57.0767C312.339 56.2888 311.352 55.1686 310.631 53.7159C309.911 52.2633 309.551 50.5398 309.551 48.5455C309.551 46.5511 309.911 44.8277 310.631 43.375C311.352 41.9223 312.339 40.8021 313.595 40.0142C314.851 39.2263 316.285 38.8324 317.898 38.8324C319.51 38.8324 320.945 39.2263 322.2 40.0142C323.456 40.8021 324.444 41.9223 325.164 43.375C325.884 44.8277 326.244 46.5511 326.244 48.5455ZM324.028 48.5455C324.028 46.9081 323.754 45.5263 323.207 44.3999C322.665 43.2734 321.929 42.4209 321 41.8423C320.077 41.2637 319.043 40.9744 317.898 40.9744C316.753 40.9744 315.716 41.2637 314.786 41.8423C313.863 42.4209 313.127 43.2734 312.58 44.3999C312.038 45.5263 311.767 46.9081 311.767 48.5455C311.767 50.1828 312.038 51.5646 312.58 52.6911C313.127 53.8175 313.863 54.67 314.786 55.2486C315.716 55.8272 316.753 56.1165 317.898 56.1165C319.043 56.1165 320.077 55.8272 321 55.2486C321.929 54.67 322.665 53.8175 323.207 52.6911C323.754 51.5646 324.028 50.1828 324.028 48.5455ZM329.799 63.3182V43.8182H331.904V46.071H332.163C332.323 45.8248 332.544 45.5109 332.827 45.1293C333.117 44.7415 333.529 44.3968 334.065 44.0952C334.606 43.7874 335.339 43.6335 336.262 43.6335C337.456 43.6335 338.509 43.9321 339.42 44.5291C340.331 45.1262 341.042 45.9725 341.553 47.0682C342.063 48.1638 342.319 49.4564 342.319 50.946C342.319 52.4479 342.063 53.7498 341.553 54.8516C341.042 55.9472 340.334 56.7966 339.429 57.3999C338.524 57.9969 337.481 58.2955 336.299 58.2955C335.388 58.2955 334.659 58.1446 334.111 57.843C333.563 57.5353 333.141 57.1875 332.846 56.7997C332.55 56.4058 332.323 56.0795 332.163 55.821H331.978V63.3182H329.799ZM331.941 50.9091C331.941 51.9801 332.098 52.925 332.412 53.7436C332.726 54.5561 333.184 55.1932 333.788 55.6548C334.391 56.1103 335.129 56.3381 336.004 56.3381C336.915 56.3381 337.675 56.098 338.284 55.6179C338.9 55.1316 339.361 54.4792 339.669 53.6605C339.983 52.8357 340.14 51.9186 340.14 50.9091C340.14 49.9119 339.986 49.0133 339.678 48.2131C339.377 47.4067 338.918 46.7696 338.303 46.3018C337.693 45.8279 336.927 45.5909 336.004 45.5909C335.117 45.5909 334.372 45.8156 333.769 46.2649C333.166 46.7081 332.71 47.3298 332.403 48.13C332.095 48.924 331.941 49.8504 331.941 50.9091ZM351.589 58.2955C350.222 58.2955 349.044 57.9938 348.053 57.3906C347.068 56.7812 346.308 55.9318 345.772 54.8423C345.243 53.7467 344.978 52.4725 344.978 51.0199C344.978 49.5672 345.243 48.2869 345.772 47.179C346.308 46.0649 347.052 45.197 348.006 44.5753C348.967 43.9474 350.087 43.6335 351.367 43.6335C352.106 43.6335 352.835 43.7566 353.555 44.0028C354.276 44.2491 354.931 44.6491 355.522 45.2031C356.113 45.7509 356.584 46.4773 356.935 47.3821C357.286 48.2869 357.461 49.401 357.461 50.7244V51.6477H346.529V49.7642H355.245C355.245 48.964 355.085 48.25 354.765 47.6222C354.451 46.9943 354.002 46.4988 353.417 46.1357C352.838 45.7725 352.155 45.5909 351.367 45.5909C350.499 45.5909 349.748 45.8063 349.114 46.2372C348.487 46.6619 348.003 47.2159 347.665 47.8991C347.326 48.5824 347.157 49.3149 347.157 50.0966V51.3523C347.157 52.4233 347.342 53.3312 347.711 54.076C348.086 54.8146 348.607 55.3778 349.271 55.7656C349.936 56.1473 350.709 56.3381 351.589 56.3381C352.161 56.3381 352.678 56.258 353.14 56.098C353.608 55.9318 354.011 55.6856 354.349 55.3594C354.688 55.027 354.95 54.6146 355.134 54.1222L357.239 54.7131C357.018 55.4271 356.645 56.0549 356.122 56.5966C355.599 57.1321 354.953 57.5507 354.183 57.8523C353.414 58.1477 352.549 58.2955 351.589 58.2955ZM360.776 58V43.8182H362.881V45.9602H363.028C363.287 45.2585 363.755 44.6892 364.432 44.2521C365.109 43.8151 365.872 43.5966 366.722 43.5966C366.882 43.5966 367.082 43.5997 367.322 43.6058C367.562 43.612 367.743 43.6212 367.866 43.6335V45.8494C367.793 45.831 367.623 45.8033 367.359 45.7663C367.1 45.7232 366.826 45.7017 366.537 45.7017C365.848 45.7017 365.232 45.8464 364.69 46.1357C364.155 46.4188 363.73 46.8127 363.416 47.3175C363.108 47.8161 362.955 48.3854 362.955 49.0256V58H360.776ZM374.623 58.3324C373.724 58.3324 372.908 58.1631 372.176 57.8246C371.443 57.4799 370.862 56.9844 370.431 56.3381C370 55.6856 369.785 54.8977 369.785 53.9744C369.785 53.1619 369.945 52.5033 370.265 51.9986C370.585 51.4877 371.013 51.0876 371.548 50.7983C372.084 50.509 372.675 50.2936 373.321 50.152C373.973 50.0043 374.629 49.8873 375.287 49.8011C376.149 49.6903 376.848 49.6072 377.383 49.5518C377.925 49.4903 378.319 49.3887 378.565 49.2472C378.818 49.1056 378.944 48.8594 378.944 48.5085V48.4347C378.944 47.5237 378.694 46.8158 378.196 46.3111C377.703 45.8063 376.956 45.554 375.952 45.554C374.912 45.554 374.096 45.7817 373.506 46.2372C372.915 46.6927 372.499 47.179 372.259 47.696L370.191 46.9574C370.56 46.0956 371.053 45.4247 371.668 44.9446C372.29 44.4583 372.967 44.1198 373.699 43.929C374.438 43.732 375.164 43.6335 375.878 43.6335C376.334 43.6335 376.857 43.6889 377.448 43.7997C378.045 43.9044 378.621 44.1229 379.175 44.4553C379.735 44.7876 380.199 45.2893 380.569 45.9602C380.938 46.6312 381.123 47.5298 381.123 48.6562V58H378.944V56.0795H378.833C378.685 56.3873 378.439 56.7166 378.094 57.0675C377.75 57.4183 377.291 57.7169 376.719 57.9631C376.146 58.2093 375.448 58.3324 374.623 58.3324ZM374.955 56.375C375.817 56.375 376.543 56.2057 377.134 55.8672C377.731 55.5286 378.18 55.0916 378.482 54.5561C378.79 54.0206 378.944 53.4574 378.944 52.8665V50.8722C378.851 50.983 378.648 51.0845 378.334 51.1768C378.027 51.263 377.67 51.34 377.263 51.4077C376.863 51.4692 376.472 51.5246 376.091 51.5739C375.715 51.617 375.411 51.6539 375.177 51.6847C374.61 51.7585 374.081 51.8786 373.589 52.0447C373.102 52.2048 372.708 52.4479 372.407 52.7741C372.111 53.0942 371.964 53.5312 371.964 54.0852C371.964 54.8423 372.244 55.4148 372.804 55.8026C373.37 56.1842 374.087 56.375 374.955 56.375ZM391.267 43.8182V45.6648H383.918V43.8182H391.267ZM386.06 40.4205H388.239V53.9375C388.239 54.553 388.328 55.0147 388.507 55.3224C388.691 55.6241 388.925 55.8272 389.208 55.9318C389.498 56.0303 389.802 56.0795 390.123 56.0795C390.363 56.0795 390.56 56.0672 390.713 56.0426C390.867 56.0118 390.99 55.9872 391.083 55.9688L391.526 57.9261C391.378 57.9815 391.172 58.0369 390.907 58.0923C390.643 58.1539 390.307 58.1847 389.901 58.1847C389.285 58.1847 388.682 58.0523 388.091 57.7876C387.507 57.523 387.02 57.1198 386.632 56.5781C386.251 56.0365 386.06 55.3532 386.06 54.5284V40.4205ZM394.545 58V43.8182H396.724V58H394.545ZM395.653 41.4545C395.228 41.4545 394.862 41.3099 394.554 41.0206C394.253 40.7313 394.102 40.3835 394.102 39.9773C394.102 39.571 394.253 39.2232 394.554 38.9339C394.862 38.6446 395.228 38.5 395.653 38.5C396.078 38.5 396.441 38.6446 396.743 38.9339C397.05 39.2232 397.204 39.571 397.204 39.9773C397.204 40.3835 397.05 40.7313 396.743 41.0206C396.441 41.3099 396.078 41.4545 395.653 41.4545ZM402.894 49.4688V58H400.715V43.8182H402.82V46.0341H403.005C403.337 45.3139 403.842 44.7353 404.519 44.2983C405.196 43.8551 406.07 43.6335 407.141 43.6335C408.101 43.6335 408.942 43.8305 409.662 44.2244C410.382 44.6122 410.942 45.2031 411.342 45.9972C411.742 46.785 411.942 47.7822 411.942 48.9886V58H409.763V49.1364C409.763 48.0223 409.474 47.1544 408.895 46.5327C408.317 45.9048 407.523 45.5909 406.513 45.5909C405.818 45.5909 405.196 45.7417 404.648 46.0433C404.107 46.3449 403.679 46.785 403.365 47.3636C403.051 47.9422 402.894 48.6439 402.894 49.4688ZM421.648 63.6136C420.596 63.6136 419.691 63.4782 418.934 63.2074C418.177 62.9427 417.546 62.5919 417.041 62.1548C416.543 61.724 416.146 61.2623 415.85 60.7699L417.586 59.5511C417.783 59.8097 418.032 60.1051 418.334 60.4375C418.635 60.776 419.048 61.0684 419.571 61.3146C420.1 61.567 420.793 61.6932 421.648 61.6932C422.793 61.6932 423.738 61.4162 424.483 60.8622C425.228 60.3082 425.6 59.4403 425.6 58.2585V55.3778H425.415C425.255 55.6364 425.028 55.9564 424.732 56.3381C424.443 56.7135 424.024 57.049 423.477 57.3445C422.935 57.6338 422.202 57.7784 421.279 57.7784C420.134 57.7784 419.106 57.5076 418.195 56.9659C417.29 56.4242 416.573 55.6364 416.044 54.6023C415.521 53.5682 415.259 52.3125 415.259 50.8352C415.259 49.3826 415.515 48.1177 416.026 47.0405C416.536 45.9571 417.247 45.12 418.158 44.5291C419.069 43.9321 420.122 43.6335 421.316 43.6335C422.239 43.6335 422.972 43.7874 423.513 44.0952C424.061 44.3968 424.48 44.7415 424.769 45.1293C425.065 45.5109 425.292 45.8248 425.452 46.071H425.674V43.8182H427.779V58.4062C427.779 59.625 427.502 60.616 426.948 61.3793C426.4 62.1487 425.662 62.7119 424.732 63.0689C423.809 63.4321 422.781 63.6136 421.648 63.6136ZM421.575 55.821C422.449 55.821 423.187 55.621 423.79 55.2209C424.394 54.8208 424.852 54.2453 425.166 53.4943C425.48 52.7434 425.637 51.8447 425.637 50.7983C425.637 49.7765 425.483 48.8748 425.175 48.093C424.868 47.3113 424.412 46.6989 423.809 46.2557C423.206 45.8125 422.461 45.5909 421.575 45.5909C420.651 45.5909 419.882 45.8248 419.266 46.2926C418.657 46.7604 418.198 47.3883 417.891 48.1761C417.589 48.964 417.438 49.8381 417.438 50.7983C417.438 51.7831 417.592 52.6541 417.9 53.4112C418.214 54.1622 418.675 54.7531 419.285 55.1839C419.9 55.6087 420.664 55.821 421.575 55.821ZM449.717 43.8182C449.606 42.8826 449.156 42.1562 448.369 41.6392C447.581 41.1222 446.614 40.8636 445.469 40.8636C444.632 40.8636 443.9 40.9991 443.272 41.2699C442.65 41.5407 442.164 41.9131 441.813 42.3871C441.469 42.861 441.296 43.3996 441.296 44.0028C441.296 44.5076 441.416 44.9415 441.656 45.3047C441.902 45.6617 442.216 45.9602 442.598 46.2003C442.98 46.4342 443.38 46.6281 443.798 46.782C444.217 46.9297 444.602 47.0497 444.952 47.142L446.873 47.6591C447.365 47.7884 447.913 47.9669 448.516 48.1946C449.126 48.4223 449.707 48.7332 450.261 49.1271C450.821 49.5149 451.283 50.0135 451.646 50.6229C452.009 51.2322 452.191 51.9801 452.191 52.8665C452.191 53.8883 451.923 54.8116 451.388 55.6364C450.858 56.4612 450.083 57.1167 449.061 57.603C448.045 58.0893 446.811 58.3324 445.359 58.3324C444.004 58.3324 442.832 58.1139 441.841 57.6768C440.856 57.2398 440.08 56.6304 439.514 55.8487C438.954 55.067 438.637 54.1591 438.563 53.125H440.927C440.988 53.839 441.228 54.4299 441.647 54.8977C442.072 55.3594 442.607 55.7041 443.254 55.9318C443.906 56.1534 444.608 56.2642 445.359 56.2642C446.233 56.2642 447.018 56.1226 447.713 55.8395C448.409 55.5502 448.96 55.1501 449.366 54.6392C449.772 54.1222 449.975 53.5189 449.975 52.8295C449.975 52.2017 449.8 51.6908 449.449 51.2969C449.098 50.9029 448.636 50.5829 448.064 50.3366C447.491 50.0904 446.873 49.875 446.208 49.6903L443.881 49.0256C442.404 48.6009 441.235 47.9946 440.373 47.2067C439.511 46.4188 439.08 45.3878 439.08 44.1136C439.08 43.0549 439.366 42.1316 439.939 41.3438C440.518 40.5497 441.293 39.9342 442.266 39.4972C443.244 39.054 444.337 38.8324 445.543 38.8324C446.762 38.8324 447.845 39.0509 448.793 39.4879C449.741 39.9188 450.492 40.5097 451.046 41.2607C451.606 42.0116 451.902 42.8641 451.933 43.8182H449.717ZM457.064 63.3182C456.694 63.3182 456.365 63.2874 456.076 63.2259C455.787 63.1705 455.586 63.1151 455.476 63.0597L456.03 61.1392C456.559 61.2746 457.027 61.3239 457.433 61.2869C457.839 61.25 458.199 61.0684 458.513 60.7422C458.833 60.4221 459.126 59.902 459.39 59.1818L459.797 58.0739L454.552 43.8182H456.916L460.831 55.1193H460.979L464.893 43.8182H467.257L461.237 60.0682C460.966 60.8007 460.631 61.407 460.231 61.8871C459.831 62.3733 459.366 62.7334 458.836 62.9673C458.313 63.2012 457.722 63.3182 457.064 63.3182ZM480.178 46.9943L478.221 47.5483C478.098 47.2221 477.916 46.9051 477.676 46.5973C477.442 46.2834 477.122 46.0249 476.716 45.8217C476.31 45.6186 475.79 45.517 475.156 45.517C474.288 45.517 473.565 45.7171 472.986 46.1172C472.414 46.5111 472.127 47.0128 472.127 47.6222C472.127 48.1638 472.324 48.5916 472.718 48.9055C473.112 49.2195 473.728 49.4811 474.565 49.6903L476.67 50.2074C477.938 50.5152 478.883 50.986 479.504 51.62C480.126 52.2479 480.437 53.0573 480.437 54.0483C480.437 54.8608 480.203 55.5871 479.735 56.2273C479.274 56.8674 478.627 57.3722 477.796 57.7415C476.965 58.1108 475.999 58.2955 474.897 58.2955C473.451 58.2955 472.253 57.9815 471.306 57.3537C470.358 56.7259 469.758 55.8087 469.505 54.6023L471.573 54.0852C471.77 54.8485 472.143 55.4209 472.691 55.8026C473.244 56.1842 473.968 56.375 474.86 56.375C475.876 56.375 476.682 56.1596 477.279 55.7287C477.883 55.2917 478.184 54.7685 478.184 54.1591C478.184 53.6667 478.012 53.2543 477.667 52.9219C477.322 52.5833 476.793 52.331 476.079 52.1648L473.715 51.6108C472.417 51.303 471.463 50.826 470.853 50.1797C470.25 49.5272 469.948 48.7116 469.948 47.733C469.948 46.9328 470.173 46.2249 470.622 45.6094C471.078 44.9938 471.696 44.5107 472.478 44.1598C473.266 43.8089 474.159 43.6335 475.156 43.6335C476.559 43.6335 477.661 43.9413 478.461 44.5568C479.267 45.1723 479.84 45.9848 480.178 46.9943ZM489.885 43.8182V45.6648H482.535V43.8182H489.885ZM484.677 40.4205H486.856V53.9375C486.856 54.553 486.945 55.0147 487.124 55.3224C487.309 55.6241 487.542 55.8272 487.826 55.9318C488.115 56.0303 488.42 56.0795 488.74 56.0795C488.98 56.0795 489.177 56.0672 489.331 56.0426C489.484 56.0118 489.608 55.9872 489.7 55.9688L490.143 57.9261C489.995 57.9815 489.789 58.0369 489.525 58.0923C489.26 58.1539 488.924 58.1847 488.518 58.1847C487.903 58.1847 487.299 58.0523 486.708 57.7876C486.124 57.523 485.637 57.1198 485.25 56.5781C484.868 56.0365 484.677 55.3532 484.677 54.5284V40.4205ZM498.956 58.2955C497.589 58.2955 496.411 57.9938 495.42 57.3906C494.435 56.7812 493.675 55.9318 493.139 54.8423C492.61 53.7467 492.345 52.4725 492.345 51.0199C492.345 49.5672 492.61 48.2869 493.139 47.179C493.675 46.0649 494.42 45.197 495.374 44.5753C496.334 43.9474 497.454 43.6335 498.734 43.6335C499.473 43.6335 500.202 43.7566 500.923 44.0028C501.643 44.2491 502.298 44.6491 502.889 45.2031C503.48 45.7509 503.951 46.4773 504.302 47.3821C504.653 48.2869 504.828 49.401 504.828 50.7244V51.6477H493.896V49.7642H502.612C502.612 48.964 502.452 48.25 502.132 47.6222C501.818 46.9943 501.369 46.4988 500.784 46.1357C500.205 45.7725 499.522 45.5909 498.734 45.5909C497.866 45.5909 497.116 45.8063 496.482 46.2372C495.854 46.6619 495.371 47.2159 495.032 47.8991C494.693 48.5824 494.524 49.3149 494.524 50.0966V51.3523C494.524 52.4233 494.709 53.3312 495.078 54.076C495.454 54.8146 495.974 55.3778 496.638 55.7656C497.303 56.1473 498.076 56.3381 498.956 56.3381C499.528 56.3381 500.045 56.258 500.507 56.098C500.975 55.9318 501.378 55.6856 501.717 55.3594C502.055 55.027 502.317 54.6146 502.501 54.1222L504.607 54.7131C504.385 55.4271 504.013 56.0549 503.489 56.5966C502.966 57.1321 502.32 57.5507 501.55 57.8523C500.781 58.1477 499.916 58.2955 498.956 58.2955ZM508.143 58V43.8182H510.248V46.0341H510.433C510.728 45.277 511.205 44.6892 511.864 44.2706C512.522 43.8459 513.313 43.6335 514.237 43.6335C515.172 43.6335 515.951 43.8459 516.572 44.2706C517.2 44.6892 517.69 45.277 518.04 46.0341H518.188C518.551 45.3016 519.096 44.7199 519.822 44.2891C520.549 43.852 521.42 43.6335 522.435 43.6335C523.703 43.6335 524.741 44.0305 525.547 44.8246C526.353 45.6125 526.756 46.8404 526.756 48.5085V58H524.577V48.5085C524.577 47.4621 524.291 46.7143 523.719 46.2649C523.146 45.8156 522.472 45.5909 521.697 45.5909C520.7 45.5909 519.927 45.8925 519.379 46.4957C518.831 47.0928 518.558 47.8499 518.558 48.767V58H516.342V48.2869C516.342 47.4806 516.08 46.8312 515.557 46.3388C515.034 45.8402 514.36 45.5909 513.535 45.5909C512.969 45.5909 512.439 45.7417 511.947 46.0433C511.46 46.3449 511.067 46.7635 510.765 47.299C510.469 47.8284 510.322 48.4408 510.322 49.1364V58H508.143Z" fill="black"/>
<rect x="57.5" y="107.5" width="199" height="69" fill="white" stroke="black"/>
<path d="M141.65 138H139.36C139.225 137.341 138.988 136.763 138.65 136.264C138.317 135.766 137.911 135.347 137.431 135.009C136.957 134.664 136.431 134.405 135.852 134.233C135.273 134.061 134.67 133.974 134.042 133.974C132.897 133.974 131.86 134.264 130.931 134.842C130.007 135.421 129.272 136.273 128.724 137.4C128.182 138.526 127.912 139.908 127.912 141.545C127.912 143.183 128.182 144.565 128.724 145.691C129.272 146.817 130.007 147.67 130.931 148.249C131.86 148.827 132.897 149.116 134.042 149.116C134.67 149.116 135.273 149.03 135.852 148.858C136.431 148.686 136.957 148.43 137.431 148.092C137.911 147.747 138.317 147.325 138.65 146.827C138.988 146.322 139.225 145.743 139.36 145.091H141.65C141.478 146.057 141.164 146.922 140.708 147.685C140.253 148.449 139.687 149.098 139.01 149.634C138.333 150.163 137.572 150.566 136.729 150.843C135.892 151.12 134.996 151.259 134.042 151.259C132.43 151.259 130.995 150.865 129.74 150.077C128.484 149.289 127.496 148.169 126.776 146.716C126.056 145.263 125.696 143.54 125.696 141.545C125.696 139.551 126.056 137.828 126.776 136.375C127.496 134.922 128.484 133.802 129.74 133.014C130.995 132.226 132.43 131.832 134.042 131.832C134.996 131.832 135.892 131.971 136.729 132.248C137.572 132.525 138.333 132.931 139.01 133.467C139.687 133.996 140.253 134.642 140.708 135.406C141.164 136.163 141.478 137.027 141.65 138ZM150.816 151.295C149.536 151.295 148.413 150.991 147.446 150.381C146.486 149.772 145.735 148.92 145.193 147.824C144.658 146.728 144.39 145.448 144.39 143.983C144.39 142.506 144.658 141.216 145.193 140.114C145.735 139.013 146.486 138.157 147.446 137.548C148.413 136.938 149.536 136.634 150.816 136.634C152.097 136.634 153.217 136.938 154.177 137.548C155.143 138.157 155.894 139.013 156.43 140.114C156.972 141.216 157.242 142.506 157.242 143.983C157.242 145.448 156.972 146.728 156.43 147.824C155.894 148.92 155.143 149.772 154.177 150.381C153.217 150.991 152.097 151.295 150.816 151.295ZM150.816 149.338C151.789 149.338 152.589 149.089 153.217 148.59C153.845 148.092 154.309 147.436 154.611 146.624C154.913 145.811 155.063 144.931 155.063 143.983C155.063 143.035 154.913 142.152 154.611 141.333C154.309 140.514 153.845 139.853 153.217 139.348C152.589 138.843 151.789 138.591 150.816 138.591C149.844 138.591 149.044 138.843 148.416 139.348C147.788 139.853 147.323 140.514 147.021 141.333C146.72 142.152 146.569 143.035 146.569 143.983C146.569 144.931 146.72 145.811 147.021 146.624C147.323 147.436 147.788 148.092 148.416 148.59C149.044 149.089 149.844 149.338 150.816 149.338ZM165.924 151.295C164.742 151.295 163.699 150.997 162.794 150.4C161.889 149.797 161.181 148.947 160.67 147.852C160.159 146.75 159.904 145.448 159.904 143.946C159.904 142.456 160.159 141.164 160.67 140.068C161.181 138.973 161.892 138.126 162.803 137.529C163.714 136.932 164.766 136.634 165.961 136.634C166.884 136.634 167.613 136.787 168.149 137.095C168.69 137.397 169.103 137.741 169.386 138.129C169.675 138.511 169.9 138.825 170.06 139.071H170.245V132.091H172.424V151H170.319V148.821H170.06C169.9 149.08 169.672 149.406 169.377 149.8C169.081 150.187 168.66 150.535 168.112 150.843C167.564 151.145 166.835 151.295 165.924 151.295ZM166.219 149.338C167.093 149.338 167.832 149.11 168.435 148.655C169.038 148.193 169.497 147.556 169.811 146.744C170.125 145.925 170.282 144.98 170.282 143.909C170.282 142.85 170.128 141.924 169.82 141.13C169.512 140.33 169.057 139.708 168.453 139.265C167.85 138.816 167.105 138.591 166.219 138.591C165.296 138.591 164.526 138.828 163.911 139.302C163.301 139.77 162.843 140.407 162.535 141.213C162.234 142.013 162.083 142.912 162.083 143.909C162.083 144.919 162.237 145.836 162.544 146.661C162.858 147.479 163.32 148.132 163.929 148.618C164.545 149.098 165.308 149.338 166.219 149.338ZM182.663 151.295C181.297 151.295 180.118 150.994 179.127 150.391C178.142 149.781 177.382 148.932 176.846 147.842C176.317 146.747 176.052 145.473 176.052 144.02C176.052 142.567 176.317 141.287 176.846 140.179C177.382 139.065 178.127 138.197 179.081 137.575C180.041 136.947 181.161 136.634 182.441 136.634C183.18 136.634 183.909 136.757 184.63 137.003C185.35 137.249 186.005 137.649 186.596 138.203C187.187 138.751 187.658 139.477 188.009 140.382C188.36 141.287 188.535 142.401 188.535 143.724V144.648H177.603V142.764H186.319C186.319 141.964 186.159 141.25 185.839 140.622C185.525 139.994 185.076 139.499 184.491 139.136C183.913 138.772 183.229 138.591 182.441 138.591C181.574 138.591 180.823 138.806 180.189 139.237C179.561 139.662 179.078 140.216 178.739 140.899C178.4 141.582 178.231 142.315 178.231 143.097V144.352C178.231 145.423 178.416 146.331 178.785 147.076C179.161 147.815 179.681 148.378 180.346 148.766C181.01 149.147 181.783 149.338 182.663 149.338C183.235 149.338 183.752 149.258 184.214 149.098C184.682 148.932 185.085 148.686 185.424 148.359C185.762 148.027 186.024 147.615 186.208 147.122L188.314 147.713C188.092 148.427 187.72 149.055 187.196 149.597C186.673 150.132 186.027 150.551 185.257 150.852C184.488 151.148 183.623 151.295 182.663 151.295Z" fill="black"/>
<rect x="57.5" y="107.5" width="199" height="69" fill="white" stroke="black"/>
<path d="M141.65 138H139.36C139.225 137.341 138.988 136.763 138.65 136.264C138.317 135.766 137.911 135.347 137.431 135.009C136.957 134.664 136.431 134.405 135.852 134.233C135.273 134.061 134.67 133.974 134.042 133.974C132.897 133.974 131.86 134.264 130.931 134.842C130.007 135.421 129.272 136.273 128.724 137.4C128.182 138.526 127.912 139.908 127.912 141.545C127.912 143.183 128.182 144.565 128.724 145.691C129.272 146.817 130.007 147.67 130.931 148.249C131.86 148.827 132.897 149.116 134.042 149.116C134.67 149.116 135.273 149.03 135.852 148.858C136.431 148.686 136.957 148.43 137.431 148.092C137.911 147.747 138.317 147.325 138.65 146.827C138.988 146.322 139.225 145.743 139.36 145.091H141.65C141.478 146.057 141.164 146.922 140.708 147.685C140.253 148.449 139.687 149.098 139.01 149.634C138.333 150.163 137.572 150.566 136.729 150.843C135.892 151.12 134.996 151.259 134.042 151.259C132.43 151.259 130.995 150.865 129.74 150.077C128.484 149.289 127.496 148.169 126.776 146.716C126.056 145.263 125.696 143.54 125.696 141.545C125.696 139.551 126.056 137.828 126.776 136.375C127.496 134.922 128.484 133.802 129.74 133.014C130.995 132.226 132.43 131.832 134.042 131.832C134.996 131.832 135.892 131.971 136.729 132.248C137.572 132.525 138.333 132.931 139.01 133.467C139.687 133.996 140.253 134.642 140.708 135.406C141.164 136.163 141.478 137.027 141.65 138ZM150.816 151.295C149.536 151.295 148.413 150.991 147.446 150.381C146.486 149.772 145.735 148.92 145.193 147.824C144.658 146.728 144.39 145.448 144.39 143.983C144.39 142.506 144.658 141.216 145.193 140.114C145.735 139.013 146.486 138.157 147.446 137.548C148.413 136.938 149.536 136.634 150.816 136.634C152.097 136.634 153.217 136.938 154.177 137.548C155.143 138.157 155.894 139.013 156.43 140.114C156.972 141.216 157.242 142.506 157.242 143.983C157.242 145.448 156.972 146.728 156.43 147.824C155.894 148.92 155.143 149.772 154.177 150.381C153.217 150.991 152.097 151.295 150.816 151.295ZM150.816 149.338C151.789 149.338 152.589 149.089 153.217 148.59C153.845 148.092 154.309 147.436 154.611 146.624C154.913 145.811 155.063 144.931 155.063 143.983C155.063 143.035 154.913 142.152 154.611 141.333C154.309 140.514 153.845 139.853 153.217 139.348C152.589 138.843 151.789 138.591 150.816 138.591C149.844 138.591 149.044 138.843 148.416 139.348C147.788 139.853 147.323 140.514 147.021 141.333C146.72 142.152 146.569 143.035 146.569 143.983C146.569 144.931 146.72 145.811 147.021 146.624C147.323 147.436 147.788 148.092 148.416 148.59C149.044 149.089 149.844 149.338 150.816 149.338ZM165.924 151.295C164.742 151.295 163.699 150.997 162.794 150.4C161.889 149.797 161.181 148.947 160.67 147.852C160.159 146.75 159.904 145.448 159.904 143.946C159.904 142.456 160.159 141.164 160.67 140.068C161.181 138.973 161.892 138.126 162.803 137.529C163.714 136.932 164.766 136.634 165.961 136.634C166.884 136.634 167.613 136.787 168.149 137.095C168.69 137.397 169.103 137.741 169.386 138.129C169.675 138.511 169.9 138.825 170.06 139.071H170.245V132.091H172.424V151H170.319V148.821H170.06C169.9 149.08 169.672 149.406 169.377 149.8C169.081 150.187 168.66 150.535 168.112 150.843C167.564 151.145 166.835 151.295 165.924 151.295ZM166.219 149.338C167.093 149.338 167.832 149.11 168.435 148.655C169.038 148.193 169.497 147.556 169.811 146.744C170.125 145.925 170.282 144.98 170.282 143.909C170.282 142.85 170.128 141.924 169.82 141.13C169.512 140.33 169.057 139.708 168.453 139.265C167.85 138.816 167.105 138.591 166.219 138.591C165.296 138.591 164.526 138.828 163.911 139.302C163.301 139.77 162.843 140.407 162.535 141.213C162.234 142.013 162.083 142.912 162.083 143.909C162.083 144.919 162.237 145.836 162.544 146.661C162.858 147.479 163.32 148.132 163.929 148.618C164.545 149.098 165.308 149.338 166.219 149.338ZM182.663 151.295C181.297 151.295 180.118 150.994 179.127 150.391C178.142 149.781 177.382 148.932 176.846 147.842C176.317 146.747 176.052 145.473 176.052 144.02C176.052 142.567 176.317 141.287 176.846 140.179C177.382 139.065 178.127 138.197 179.081 137.575C180.041 136.947 181.161 136.634 182.441 136.634C183.18 136.634 183.909 136.757 184.63 137.003C185.35 137.249 186.005 137.649 186.596 138.203C187.187 138.751 187.658 139.477 188.009 140.382C188.36 141.287 188.535 142.401 188.535 143.724V144.648H177.603V142.764H186.319C186.319 141.964 186.159 141.25 185.839 140.622C185.525 139.994 185.076 139.499 184.491 139.136C183.913 138.772 183.229 138.591 182.441 138.591C181.574 138.591 180.823 138.806 180.189 139.237C179.561 139.662 179.078 140.216 178.739 140.899C178.4 141.582 178.231 142.315 178.231 143.097V144.352C178.231 145.423 178.416 146.331 178.785 147.076C179.161 147.815 179.681 148.378 180.346 148.766C181.01 149.147 181.783 149.338 182.663 149.338C183.235 149.338 183.752 149.258 184.214 149.098C184.682 148.932 185.085 148.686 185.424 148.359C185.762 148.027 186.024 147.615 186.208 147.122L188.314 147.713C188.092 148.427 187.72 149.055 187.196 149.597C186.673 150.132 186.027 150.551 185.257 150.852C184.488 151.148 183.623 151.295 182.663 151.295Z" fill="black"/>
<rect x="57.5" y="177.5" width="199" height="69" fill="white" stroke="black"/>
<path d="M134.96 206.818C134.849 205.883 134.4 205.156 133.612 204.639C132.824 204.122 131.858 203.864 130.713 203.864C129.876 203.864 129.143 203.999 128.515 204.27C127.893 204.541 127.407 204.913 127.056 205.387C126.712 205.861 126.539 206.4 126.539 207.003C126.539 207.508 126.659 207.942 126.899 208.305C127.146 208.662 127.46 208.96 127.841 209.2C128.223 209.434 128.623 209.628 129.041 209.782C129.46 209.93 129.845 210.05 130.196 210.142L132.116 210.659C132.608 210.788 133.156 210.967 133.759 211.195C134.369 211.422 134.951 211.733 135.505 212.127C136.065 212.515 136.526 213.013 136.889 213.623C137.253 214.232 137.434 214.98 137.434 215.866C137.434 216.888 137.166 217.812 136.631 218.636C136.102 219.461 135.326 220.117 134.304 220.603C133.289 221.089 132.054 221.332 130.602 221.332C129.248 221.332 128.075 221.114 127.084 220.677C126.099 220.24 125.324 219.63 124.757 218.849C124.197 218.067 123.88 217.159 123.806 216.125H126.17C126.232 216.839 126.472 217.43 126.89 217.898C127.315 218.359 127.85 218.704 128.497 218.932C129.149 219.153 129.851 219.264 130.602 219.264C131.476 219.264 132.261 219.123 132.956 218.839C133.652 218.55 134.203 218.15 134.609 217.639C135.015 217.122 135.218 216.519 135.218 215.83C135.218 215.202 135.043 214.691 134.692 214.297C134.341 213.903 133.88 213.583 133.307 213.337C132.735 213.09 132.116 212.875 131.451 212.69L129.125 212.026C127.647 211.601 126.478 210.995 125.616 210.207C124.754 209.419 124.323 208.388 124.323 207.114C124.323 206.055 124.61 205.132 125.182 204.344C125.761 203.55 126.536 202.934 127.509 202.497C128.487 202.054 129.58 201.832 130.786 201.832C132.005 201.832 133.089 202.051 134.036 202.488C134.984 202.919 135.735 203.51 136.289 204.261C136.849 205.012 137.145 205.864 137.176 206.818H134.96ZM147.071 206.818V208.665H139.722V206.818H147.071ZM141.864 203.42H144.043V216.938C144.043 217.553 144.132 218.015 144.31 218.322C144.495 218.624 144.729 218.827 145.012 218.932C145.301 219.03 145.606 219.08 145.926 219.08C146.166 219.08 146.363 219.067 146.517 219.043C146.671 219.012 146.794 218.987 146.886 218.969L147.33 220.926C147.182 220.982 146.976 221.037 146.711 221.092C146.446 221.154 146.111 221.185 145.705 221.185C145.089 221.185 144.486 221.052 143.895 220.788C143.31 220.523 142.824 220.12 142.436 219.578C142.055 219.036 141.864 218.353 141.864 217.528V203.42ZM154.522 221.332C153.623 221.332 152.808 221.163 152.075 220.825C151.343 220.48 150.761 219.984 150.33 219.338C149.899 218.686 149.684 217.898 149.684 216.974C149.684 216.162 149.844 215.503 150.164 214.999C150.484 214.488 150.912 214.088 151.448 213.798C151.983 213.509 152.574 213.294 153.22 213.152C153.873 213.004 154.528 212.887 155.187 212.801C156.049 212.69 156.747 212.607 157.283 212.552C157.824 212.49 158.218 212.389 158.465 212.247C158.717 212.106 158.843 211.859 158.843 211.509V211.435C158.843 210.524 158.594 209.816 158.095 209.311C157.603 208.806 156.855 208.554 155.852 208.554C154.811 208.554 153.996 208.782 153.405 209.237C152.814 209.693 152.399 210.179 152.158 210.696L150.09 209.957C150.46 209.096 150.952 208.425 151.568 207.945C152.189 207.458 152.866 207.12 153.599 206.929C154.337 206.732 155.064 206.634 155.778 206.634C156.233 206.634 156.756 206.689 157.347 206.8C157.944 206.904 158.52 207.123 159.074 207.455C159.634 207.788 160.099 208.289 160.468 208.96C160.837 209.631 161.022 210.53 161.022 211.656V221H158.843V219.08H158.732C158.585 219.387 158.338 219.717 157.994 220.067C157.649 220.418 157.19 220.717 156.618 220.963C156.046 221.209 155.347 221.332 154.522 221.332ZM154.854 219.375C155.716 219.375 156.443 219.206 157.033 218.867C157.631 218.529 158.08 218.092 158.381 217.556C158.689 217.021 158.843 216.457 158.843 215.866V213.872C158.751 213.983 158.548 214.085 158.234 214.177C157.926 214.263 157.569 214.34 157.163 214.408C156.763 214.469 156.372 214.525 155.99 214.574C155.615 214.617 155.31 214.654 155.076 214.685C154.51 214.759 153.98 214.879 153.488 215.045C153.002 215.205 152.608 215.448 152.306 215.774C152.011 216.094 151.863 216.531 151.863 217.085C151.863 217.842 152.143 218.415 152.703 218.803C153.27 219.184 153.987 219.375 154.854 219.375ZM170.761 221.295C169.431 221.295 168.286 220.982 167.326 220.354C166.366 219.726 165.627 218.861 165.11 217.759C164.593 216.657 164.334 215.399 164.334 213.983C164.334 212.543 164.599 211.272 165.128 210.17C165.664 209.062 166.409 208.197 167.363 207.575C168.323 206.947 169.443 206.634 170.724 206.634C171.721 206.634 172.619 206.818 173.42 207.188C174.22 207.557 174.875 208.074 175.386 208.739C175.897 209.403 176.214 210.179 176.337 211.065H174.158C173.992 210.419 173.623 209.847 173.05 209.348C172.484 208.843 171.721 208.591 170.761 208.591C169.911 208.591 169.166 208.812 168.526 209.256C167.892 209.693 167.397 210.311 167.04 211.112C166.689 211.906 166.513 212.838 166.513 213.909C166.513 215.005 166.686 215.959 167.03 216.771C167.381 217.584 167.874 218.215 168.508 218.664C169.148 219.113 169.899 219.338 170.761 219.338C171.327 219.338 171.841 219.24 172.302 219.043C172.764 218.846 173.155 218.562 173.475 218.193C173.795 217.824 174.023 217.381 174.158 216.864H176.337C176.214 217.701 175.909 218.455 175.423 219.126C174.943 219.79 174.306 220.32 173.512 220.714C172.724 221.102 171.807 221.295 170.761 221.295ZM181.554 215.83L181.517 213.134H181.96L188.165 206.818H190.861L184.25 213.503H184.065L181.554 215.83ZM179.523 221V202.091H181.702V221H179.523ZM188.534 221L182.994 213.983L184.545 212.469L191.304 221H188.534Z" fill="black"/>
<rect x="57.5" y="247.5" width="199" height="69" fill="white" stroke="black"/>
<path d="M126.853 291V272.091H129.143V280.511H139.225V272.091H141.515V291H139.225V282.543H129.143V291H126.853ZM151.75 291.295C150.383 291.295 149.205 290.994 148.214 290.391C147.229 289.781 146.469 288.932 145.933 287.842C145.404 286.747 145.139 285.473 145.139 284.02C145.139 282.567 145.404 281.287 145.933 280.179C146.469 279.065 147.213 278.197 148.168 277.575C149.128 276.947 150.248 276.634 151.528 276.634C152.267 276.634 152.996 276.757 153.717 277.003C154.437 277.249 155.092 277.649 155.683 278.203C156.274 278.751 156.745 279.477 157.096 280.382C157.447 281.287 157.622 282.401 157.622 283.724V284.648H146.69V282.764H155.406C155.406 281.964 155.246 281.25 154.926 280.622C154.612 279.994 154.163 279.499 153.578 279.136C152.999 278.772 152.316 278.591 151.528 278.591C150.66 278.591 149.909 278.806 149.275 279.237C148.648 279.662 148.164 280.216 147.826 280.899C147.487 281.582 147.318 282.315 147.318 283.097V284.352C147.318 285.423 147.503 286.331 147.872 287.076C148.248 287.815 148.768 288.378 149.432 288.766C150.097 289.147 150.87 289.338 151.75 289.338C152.322 289.338 152.839 289.258 153.301 289.098C153.769 288.932 154.172 288.686 154.511 288.359C154.849 288.027 155.111 287.615 155.295 287.122L157.4 287.713C157.179 288.427 156.806 289.055 156.283 289.597C155.76 290.132 155.114 290.551 154.344 290.852C153.575 291.148 152.71 291.295 151.75 291.295ZM165.11 291.332C164.211 291.332 163.396 291.163 162.663 290.825C161.931 290.48 161.349 289.984 160.918 289.338C160.487 288.686 160.272 287.898 160.272 286.974C160.272 286.162 160.432 285.503 160.752 284.999C161.072 284.488 161.5 284.088 162.035 283.798C162.571 283.509 163.162 283.294 163.808 283.152C164.461 283.004 165.116 282.887 165.775 282.801C166.637 282.69 167.335 282.607 167.871 282.552C168.412 282.49 168.806 282.389 169.052 282.247C169.305 282.106 169.431 281.859 169.431 281.509V281.435C169.431 280.524 169.182 279.816 168.683 279.311C168.191 278.806 167.443 278.554 166.44 278.554C165.399 278.554 164.584 278.782 163.993 279.237C163.402 279.693 162.986 280.179 162.746 280.696L160.678 279.957C161.047 279.096 161.54 278.425 162.155 277.945C162.777 277.458 163.454 277.12 164.187 276.929C164.925 276.732 165.652 276.634 166.366 276.634C166.821 276.634 167.344 276.689 167.935 276.8C168.532 276.904 169.108 277.123 169.662 277.455C170.222 277.788 170.687 278.289 171.056 278.96C171.425 279.631 171.61 280.53 171.61 281.656V291H169.431V289.08H169.32C169.172 289.387 168.926 289.717 168.582 290.067C168.237 290.418 167.778 290.717 167.206 290.963C166.633 291.209 165.935 291.332 165.11 291.332ZM165.442 289.375C166.304 289.375 167.03 289.206 167.621 288.867C168.218 288.529 168.668 288.092 168.969 287.556C169.277 287.021 169.431 286.457 169.431 285.866V283.872C169.339 283.983 169.136 284.085 168.822 284.177C168.514 284.263 168.157 284.34 167.751 284.408C167.351 284.469 166.96 284.525 166.578 284.574C166.203 284.617 165.898 284.654 165.664 284.685C165.098 284.759 164.568 284.879 164.076 285.045C163.59 285.205 163.196 285.448 162.894 285.774C162.599 286.094 162.451 286.531 162.451 287.085C162.451 287.842 162.731 288.415 163.291 288.803C163.857 289.184 164.574 289.375 165.442 289.375ZM175.587 296.318V276.818H177.692V279.071H177.951C178.111 278.825 178.332 278.511 178.616 278.129C178.905 277.741 179.317 277.397 179.853 277.095C180.394 276.787 181.127 276.634 182.05 276.634C183.244 276.634 184.297 276.932 185.208 277.529C186.119 278.126 186.83 278.973 187.341 280.068C187.852 281.164 188.107 282.456 188.107 283.946C188.107 285.448 187.852 286.75 187.341 287.852C186.83 288.947 186.122 289.797 185.217 290.4C184.312 290.997 183.269 291.295 182.087 291.295C181.176 291.295 180.447 291.145 179.899 290.843C179.351 290.535 178.929 290.187 178.634 289.8C178.339 289.406 178.111 289.08 177.951 288.821H177.766V296.318H175.587ZM177.729 283.909C177.729 284.98 177.886 285.925 178.2 286.744C178.514 287.556 178.973 288.193 179.576 288.655C180.179 289.11 180.918 289.338 181.792 289.338C182.703 289.338 183.463 289.098 184.072 288.618C184.688 288.132 185.149 287.479 185.457 286.661C185.771 285.836 185.928 284.919 185.928 283.909C185.928 282.912 185.774 282.013 185.466 281.213C185.165 280.407 184.706 279.77 184.091 279.302C183.481 278.828 182.715 278.591 181.792 278.591C180.905 278.591 180.16 278.816 179.557 279.265C178.954 279.708 178.499 280.33 178.191 281.13C177.883 281.924 177.729 282.85 177.729 283.909Z" fill="black"/>
<rect x="57.5" y="317.5" width="199" height="69" fill="white" stroke="black"/>
<path d="M136.408 361H130.573V342.091H136.667C138.501 342.091 140.071 342.469 141.376 343.227C142.68 343.978 143.681 345.058 144.376 346.467C145.072 347.871 145.42 349.551 145.42 351.509C145.42 353.478 145.069 355.174 144.367 356.596C143.665 358.012 142.644 359.101 141.302 359.864C139.96 360.621 138.329 361 136.408 361ZM132.863 358.969H136.26C137.824 358.969 139.12 358.667 140.148 358.064C141.175 357.461 141.942 356.602 142.447 355.488C142.951 354.374 143.204 353.047 143.204 351.509C143.204 349.982 142.954 348.668 142.456 347.566C141.957 346.458 141.212 345.609 140.221 345.018C139.23 344.421 137.996 344.122 136.519 344.122H132.863V358.969ZM153.138 361.332C152.24 361.332 151.424 361.163 150.692 360.825C149.959 360.48 149.377 359.984 148.947 359.338C148.516 358.686 148.3 357.898 148.3 356.974C148.3 356.162 148.46 355.503 148.78 354.999C149.1 354.488 149.528 354.088 150.064 353.798C150.599 353.509 151.19 353.294 151.836 353.152C152.489 353.004 153.144 352.887 153.803 352.801C154.665 352.69 155.363 352.607 155.899 352.552C156.441 352.49 156.835 352.389 157.081 352.247C157.333 352.106 157.459 351.859 157.459 351.509V351.435C157.459 350.524 157.21 349.816 156.711 349.311C156.219 348.806 155.471 348.554 154.468 348.554C153.428 348.554 152.612 348.782 152.021 349.237C151.43 349.693 151.015 350.179 150.775 350.696L148.706 349.957C149.076 349.096 149.568 348.425 150.184 347.945C150.805 347.458 151.483 347.12 152.215 346.929C152.954 346.732 153.68 346.634 154.394 346.634C154.849 346.634 155.373 346.689 155.964 346.8C156.561 346.904 157.136 347.123 157.69 347.455C158.25 347.788 158.715 348.289 159.084 348.96C159.454 349.631 159.638 350.53 159.638 351.656V361H157.459V359.08H157.349C157.201 359.387 156.955 359.717 156.61 360.067C156.265 360.418 155.807 360.717 155.234 360.963C154.662 361.209 153.963 361.332 153.138 361.332ZM153.471 359.375C154.332 359.375 155.059 359.206 155.65 358.867C156.247 358.529 156.696 358.092 156.998 357.556C157.305 357.021 157.459 356.457 157.459 355.866V353.872C157.367 353.983 157.164 354.085 156.85 354.177C156.542 354.263 156.185 354.34 155.779 354.408C155.379 354.469 154.988 354.525 154.606 354.574C154.231 354.617 153.926 354.654 153.692 354.685C153.126 354.759 152.597 354.879 152.104 355.045C151.618 355.205 151.224 355.448 150.922 355.774C150.627 356.094 150.479 356.531 150.479 357.085C150.479 357.842 150.759 358.415 151.319 358.803C151.886 359.184 152.603 359.375 153.471 359.375ZM169.783 346.818V348.665H162.434V346.818H169.783ZM164.576 343.42H166.755V356.938C166.755 357.553 166.844 358.015 167.022 358.322C167.207 358.624 167.441 358.827 167.724 358.932C168.013 359.03 168.318 359.08 168.638 359.08C168.878 359.08 169.075 359.067 169.229 359.043C169.383 359.012 169.506 358.987 169.598 358.969L170.042 360.926C169.894 360.982 169.688 361.037 169.423 361.092C169.158 361.154 168.823 361.185 168.417 361.185C167.801 361.185 167.198 361.052 166.607 360.788C166.022 360.523 165.536 360.12 165.148 359.578C164.766 359.036 164.576 358.353 164.576 357.528V343.42ZM177.234 361.332C176.335 361.332 175.52 361.163 174.787 360.825C174.055 360.48 173.473 359.984 173.042 359.338C172.611 358.686 172.396 357.898 172.396 356.974C172.396 356.162 172.556 355.503 172.876 354.999C173.196 354.488 173.624 354.088 174.159 353.798C174.695 353.509 175.286 353.294 175.932 353.152C176.585 353.004 177.24 352.887 177.899 352.801C178.761 352.69 179.459 352.607 179.995 352.552C180.536 352.49 180.93 352.389 181.176 352.247C181.429 352.106 181.555 351.859 181.555 351.509V351.435C181.555 350.524 181.306 349.816 180.807 349.311C180.315 348.806 179.567 348.554 178.564 348.554C177.523 348.554 176.708 348.782 176.117 349.237C175.526 349.693 175.11 350.179 174.87 350.696L172.802 349.957C173.172 349.096 173.664 348.425 174.279 347.945C174.901 347.458 175.578 347.12 176.311 346.929C177.049 346.732 177.776 346.634 178.49 346.634C178.945 346.634 179.468 346.689 180.059 346.8C180.656 346.904 181.232 347.123 181.786 347.455C182.346 347.788 182.811 348.289 183.18 348.96C183.549 349.631 183.734 350.53 183.734 351.656V361H181.555V359.08H181.444C181.297 359.387 181.05 359.717 180.706 360.067C180.361 360.418 179.902 360.717 179.33 360.963C178.757 361.209 178.059 361.332 177.234 361.332ZM177.566 359.375C178.428 359.375 179.154 359.206 179.745 358.867C180.342 358.529 180.792 358.092 181.093 357.556C181.401 357.021 181.555 356.457 181.555 355.866V353.872C181.463 353.983 181.26 354.085 180.946 354.177C180.638 354.263 180.281 354.34 179.875 354.408C179.475 354.469 179.084 354.525 178.702 354.574C178.327 354.617 178.022 354.654 177.788 354.685C177.222 354.759 176.692 354.879 176.2 355.045C175.714 355.205 175.32 355.448 175.018 355.774C174.723 356.094 174.575 356.531 174.575 357.085C174.575 357.842 174.855 358.415 175.415 358.803C175.981 359.184 176.699 359.375 177.566 359.375Z" fill="black"/>
<rect x="320.5" y="107.5" width="199" height="69" fill="white" stroke="black"/>
<path d="M404.65 138H402.36C402.225 137.341 401.988 136.763 401.65 136.264C401.317 135.766 400.911 135.347 400.431 135.009C399.957 134.664 399.431 134.405 398.852 134.233C398.273 134.061 397.67 133.974 397.042 133.974C395.897 133.974 394.86 134.264 393.931 134.842C393.007 135.421 392.272 136.273 391.724 137.4C391.182 138.526 390.912 139.908 390.912 141.545C390.912 143.183 391.182 144.565 391.724 145.691C392.272 146.817 393.007 147.67 393.931 148.249C394.86 148.827 395.897 149.116 397.042 149.116C397.67 149.116 398.273 149.03 398.852 148.858C399.431 148.686 399.957 148.43 400.431 148.092C400.911 147.747 401.317 147.325 401.65 146.827C401.988 146.322 402.225 145.743 402.36 145.091H404.65C404.478 146.057 404.164 146.922 403.708 147.685C403.253 148.449 402.687 149.098 402.01 149.634C401.333 150.163 400.572 150.566 399.729 150.843C398.892 151.12 397.996 151.259 397.042 151.259C395.43 151.259 393.995 150.865 392.74 150.077C391.484 149.289 390.496 148.169 389.776 146.716C389.056 145.263 388.696 143.54 388.696 141.545C388.696 139.551 389.056 137.828 389.776 136.375C390.496 134.922 391.484 133.802 392.74 133.014C393.995 132.226 395.43 131.832 397.042 131.832C397.996 131.832 398.892 131.971 399.729 132.248C400.572 132.525 401.333 132.931 402.01 133.467C402.687 133.996 403.253 134.642 403.708 135.406C404.164 136.163 404.478 137.027 404.65 138ZM413.816 151.295C412.536 151.295 411.413 150.991 410.446 150.381C409.486 149.772 408.735 148.92 408.193 147.824C407.658 146.728 407.39 145.448 407.39 143.983C407.39 142.506 407.658 141.216 408.193 140.114C408.735 139.013 409.486 138.157 410.446 137.548C411.413 136.938 412.536 136.634 413.816 136.634C415.097 136.634 416.217 136.938 417.177 137.548C418.143 138.157 418.894 139.013 419.43 140.114C419.972 141.216 420.242 142.506 420.242 143.983C420.242 145.448 419.972 146.728 419.43 147.824C418.894 148.92 418.143 149.772 417.177 150.381C416.217 150.991 415.097 151.295 413.816 151.295ZM413.816 149.338C414.789 149.338 415.589 149.089 416.217 148.59C416.845 148.092 417.309 147.436 417.611 146.624C417.913 145.811 418.063 144.931 418.063 143.983C418.063 143.035 417.913 142.152 417.611 141.333C417.309 140.514 416.845 139.853 416.217 139.348C415.589 138.843 414.789 138.591 413.816 138.591C412.844 138.591 412.044 138.843 411.416 139.348C410.788 139.853 410.323 140.514 410.021 141.333C409.72 142.152 409.569 143.035 409.569 143.983C409.569 144.931 409.72 145.811 410.021 146.624C410.323 147.436 410.788 148.092 411.416 148.59C412.044 149.089 412.844 149.338 413.816 149.338ZM428.924 151.295C427.742 151.295 426.699 150.997 425.794 150.4C424.889 149.797 424.181 148.947 423.67 147.852C423.159 146.75 422.904 145.448 422.904 143.946C422.904 142.456 423.159 141.164 423.67 140.068C424.181 138.973 424.892 138.126 425.803 137.529C426.714 136.932 427.766 136.634 428.961 136.634C429.884 136.634 430.613 136.787 431.149 137.095C431.69 137.397 432.103 137.741 432.386 138.129C432.675 138.511 432.9 138.825 433.06 139.071H433.245V132.091H435.424V151H433.319V148.821H433.06C432.9 149.08 432.672 149.406 432.377 149.8C432.081 150.187 431.66 150.535 431.112 150.843C430.564 151.145 429.835 151.295 428.924 151.295ZM429.219 149.338C430.093 149.338 430.832 149.11 431.435 148.655C432.038 148.193 432.497 147.556 432.811 146.744C433.125 145.925 433.282 144.98 433.282 143.909C433.282 142.85 433.128 141.924 432.82 141.13C432.512 140.33 432.057 139.708 431.453 139.265C430.85 138.816 430.105 138.591 429.219 138.591C428.296 138.591 427.526 138.828 426.911 139.302C426.301 139.77 425.843 140.407 425.535 141.213C425.234 142.013 425.083 142.912 425.083 143.909C425.083 144.919 425.237 145.836 425.544 146.661C425.858 147.479 426.32 148.132 426.929 148.618C427.545 149.098 428.308 149.338 429.219 149.338ZM445.663 151.295C444.297 151.295 443.118 150.994 442.127 150.391C441.142 149.781 440.382 148.932 439.846 147.842C439.317 146.747 439.052 145.473 439.052 144.02C439.052 142.567 439.317 141.287 439.846 140.179C440.382 139.065 441.127 138.197 442.081 137.575C443.041 136.947 444.161 136.634 445.441 136.634C446.18 136.634 446.909 136.757 447.63 137.003C448.35 137.249 449.005 137.649 449.596 138.203C450.187 138.751 450.658 139.477 451.009 140.382C451.36 141.287 451.535 142.401 451.535 143.724V144.648H440.603V142.764H449.319C449.319 141.964 449.159 141.25 448.839 140.622C448.525 139.994 448.076 139.499 447.491 139.136C446.913 138.772 446.229 138.591 445.441 138.591C444.574 138.591 443.823 138.806 443.189 139.237C442.561 139.662 442.078 140.216 441.739 140.899C441.4 141.582 441.231 142.315 441.231 143.097V144.352C441.231 145.423 441.416 146.331 441.785 147.076C442.161 147.815 442.681 148.378 443.346 148.766C444.01 149.147 444.783 149.338 445.663 149.338C446.235 149.338 446.752 149.258 447.214 149.098C447.682 148.932 448.085 148.686 448.424 148.359C448.762 148.027 449.024 147.615 449.208 147.122L451.314 147.713C451.092 148.427 450.72 149.055 450.196 149.597C449.673 150.132 449.027 150.551 448.257 150.852C447.488 151.148 446.623 151.295 445.663 151.295Z" fill="black"/>
<rect x="320.5" y="177.5" width="199" height="69" fill="white" stroke="black"/>
<path d="M397.96 206.818C397.849 205.883 397.4 205.156 396.612 204.639C395.824 204.122 394.858 203.864 393.713 203.864C392.876 203.864 392.143 203.999 391.515 204.27C390.893 204.541 390.407 204.913 390.056 205.387C389.712 205.861 389.539 206.4 389.539 207.003C389.539 207.508 389.659 207.942 389.899 208.305C390.146 208.662 390.46 208.96 390.841 209.2C391.223 209.434 391.623 209.628 392.041 209.782C392.46 209.93 392.845 210.05 393.196 210.142L395.116 210.659C395.608 210.788 396.156 210.967 396.759 211.195C397.369 211.422 397.951 211.733 398.505 212.127C399.065 212.515 399.526 213.013 399.889 213.623C400.253 214.232 400.434 214.98 400.434 215.866C400.434 216.888 400.166 217.812 399.631 218.636C399.102 219.461 398.326 220.117 397.304 220.603C396.289 221.089 395.054 221.332 393.602 221.332C392.248 221.332 391.075 221.114 390.084 220.677C389.099 220.24 388.324 219.63 387.757 218.849C387.197 218.067 386.88 217.159 386.806 216.125H389.17C389.232 216.839 389.472 217.43 389.89 217.898C390.315 218.359 390.85 218.704 391.497 218.932C392.149 219.153 392.851 219.264 393.602 219.264C394.476 219.264 395.261 219.123 395.956 218.839C396.652 218.55 397.203 218.15 397.609 217.639C398.015 217.122 398.218 216.519 398.218 215.83C398.218 215.202 398.043 214.691 397.692 214.297C397.341 213.903 396.88 213.583 396.307 213.337C395.735 213.09 395.116 212.875 394.451 212.69L392.125 212.026C390.647 211.601 389.478 210.995 388.616 210.207C387.754 209.419 387.323 208.388 387.323 207.114C387.323 206.055 387.61 205.132 388.182 204.344C388.761 203.55 389.536 202.934 390.509 202.497C391.487 202.054 392.58 201.832 393.786 201.832C395.005 201.832 396.089 202.051 397.036 202.488C397.984 202.919 398.735 203.51 399.289 204.261C399.849 205.012 400.145 205.864 400.176 206.818H397.96ZM410.071 206.818V208.665H402.722V206.818H410.071ZM404.864 203.42H407.043V216.938C407.043 217.553 407.132 218.015 407.31 218.322C407.495 218.624 407.729 218.827 408.012 218.932C408.301 219.03 408.606 219.08 408.926 219.08C409.166 219.08 409.363 219.067 409.517 219.043C409.671 219.012 409.794 218.987 409.886 218.969L410.33 220.926C410.182 220.982 409.976 221.037 409.711 221.092C409.446 221.154 409.111 221.185 408.705 221.185C408.089 221.185 407.486 221.052 406.895 220.788C406.31 220.523 405.824 220.12 405.436 219.578C405.055 219.036 404.864 218.353 404.864 217.528V203.42ZM417.522 221.332C416.623 221.332 415.808 221.163 415.075 220.825C414.343 220.48 413.761 219.984 413.33 219.338C412.899 218.686 412.684 217.898 412.684 216.974C412.684 216.162 412.844 215.503 413.164 214.999C413.484 214.488 413.912 214.088 414.448 213.798C414.983 213.509 415.574 213.294 416.22 213.152C416.873 213.004 417.528 212.887 418.187 212.801C419.049 212.69 419.747 212.607 420.283 212.552C420.824 212.49 421.218 212.389 421.465 212.247C421.717 212.106 421.843 211.859 421.843 211.509V211.435C421.843 210.524 421.594 209.816 421.095 209.311C420.603 208.806 419.855 208.554 418.852 208.554C417.811 208.554 416.996 208.782 416.405 209.237C415.814 209.693 415.399 210.179 415.158 210.696L413.09 209.957C413.46 209.096 413.952 208.425 414.568 207.945C415.189 207.458 415.866 207.12 416.599 206.929C417.337 206.732 418.064 206.634 418.778 206.634C419.233 206.634 419.756 206.689 420.347 206.8C420.944 206.904 421.52 207.123 422.074 207.455C422.634 207.788 423.099 208.289 423.468 208.96C423.837 209.631 424.022 210.53 424.022 211.656V221H421.843V219.08H421.732C421.585 219.387 421.338 219.717 420.994 220.067C420.649 220.418 420.19 220.717 419.618 220.963C419.046 221.209 418.347 221.332 417.522 221.332ZM417.854 219.375C418.716 219.375 419.443 219.206 420.033 218.867C420.631 218.529 421.08 218.092 421.381 217.556C421.689 217.021 421.843 216.457 421.843 215.866V213.872C421.751 213.983 421.548 214.085 421.234 214.177C420.926 214.263 420.569 214.34 420.163 214.408C419.763 214.469 419.372 214.525 418.99 214.574C418.615 214.617 418.31 214.654 418.076 214.685C417.51 214.759 416.98 214.879 416.488 215.045C416.002 215.205 415.608 215.448 415.306 215.774C415.011 216.094 414.863 216.531 414.863 217.085C414.863 217.842 415.143 218.415 415.703 218.803C416.27 219.184 416.987 219.375 417.854 219.375ZM433.761 221.295C432.431 221.295 431.286 220.982 430.326 220.354C429.366 219.726 428.627 218.861 428.11 217.759C427.593 216.657 427.334 215.399 427.334 213.983C427.334 212.543 427.599 211.272 428.128 210.17C428.664 209.062 429.409 208.197 430.363 207.575C431.323 206.947 432.443 206.634 433.724 206.634C434.721 206.634 435.619 206.818 436.42 207.188C437.22 207.557 437.875 208.074 438.386 208.739C438.897 209.403 439.214 210.179 439.337 211.065H437.158C436.992 210.419 436.623 209.847 436.05 209.348C435.484 208.843 434.721 208.591 433.761 208.591C432.911 208.591 432.166 208.812 431.526 209.256C430.892 209.693 430.397 210.311 430.04 211.112C429.689 211.906 429.513 212.838 429.513 213.909C429.513 215.005 429.686 215.959 430.03 216.771C430.381 217.584 430.874 218.215 431.508 218.664C432.148 219.113 432.899 219.338 433.761 219.338C434.327 219.338 434.841 219.24 435.302 219.043C435.764 218.846 436.155 218.562 436.475 218.193C436.795 217.824 437.023 217.381 437.158 216.864H439.337C439.214 217.701 438.909 218.455 438.423 219.126C437.943 219.79 437.306 220.32 436.512 220.714C435.724 221.102 434.807 221.295 433.761 221.295ZM444.554 215.83L444.517 213.134H444.96L451.165 206.818H453.861L447.25 213.503H447.065L444.554 215.83ZM442.523 221V202.091H444.702V221H442.523ZM451.534 221L445.994 213.983L447.545 212.469L454.304 221H451.534Z" fill="black"/>
<rect x="320.5" y="247.5" width="199" height="69" fill="white" stroke="black"/>
<path d="M389.853 291V272.091H392.143V280.511H402.225V272.091H404.515V291H402.225V282.543H392.143V291H389.853ZM414.75 291.295C413.383 291.295 412.205 290.994 411.214 290.391C410.229 289.781 409.469 288.932 408.933 287.842C408.404 286.747 408.139 285.473 408.139 284.02C408.139 282.567 408.404 281.287 408.933 280.179C409.469 279.065 410.213 278.197 411.168 277.575C412.128 276.947 413.248 276.634 414.528 276.634C415.267 276.634 415.996 276.757 416.717 277.003C417.437 277.249 418.092 277.649 418.683 278.203C419.274 278.751 419.745 279.477 420.096 280.382C420.447 281.287 420.622 282.401 420.622 283.724V284.648H409.69V282.764H418.406C418.406 281.964 418.246 281.25 417.926 280.622C417.612 279.994 417.163 279.499 416.578 279.136C415.999 278.772 415.316 278.591 414.528 278.591C413.66 278.591 412.909 278.806 412.275 279.237C411.648 279.662 411.164 280.216 410.826 280.899C410.487 281.582 410.318 282.315 410.318 283.097V284.352C410.318 285.423 410.503 286.331 410.872 287.076C411.248 287.815 411.768 288.378 412.432 288.766C413.097 289.147 413.87 289.338 414.75 289.338C415.322 289.338 415.839 289.258 416.301 289.098C416.769 288.932 417.172 288.686 417.511 288.359C417.849 288.027 418.111 287.615 418.295 287.122L420.4 287.713C420.179 288.427 419.806 289.055 419.283 289.597C418.76 290.132 418.114 290.551 417.344 290.852C416.575 291.148 415.71 291.295 414.75 291.295ZM428.11 291.332C427.211 291.332 426.396 291.163 425.663 290.825C424.931 290.48 424.349 289.984 423.918 289.338C423.487 288.686 423.272 287.898 423.272 286.974C423.272 286.162 423.432 285.503 423.752 284.999C424.072 284.488 424.5 284.088 425.035 283.798C425.571 283.509 426.162 283.294 426.808 283.152C427.461 283.004 428.116 282.887 428.775 282.801C429.637 282.69 430.335 282.607 430.871 282.552C431.412 282.49 431.806 282.389 432.052 282.247C432.305 282.106 432.431 281.859 432.431 281.509V281.435C432.431 280.524 432.182 279.816 431.683 279.311C431.191 278.806 430.443 278.554 429.44 278.554C428.399 278.554 427.584 278.782 426.993 279.237C426.402 279.693 425.986 280.179 425.746 280.696L423.678 279.957C424.047 279.096 424.54 278.425 425.155 277.945C425.777 277.458 426.454 277.12 427.187 276.929C427.925 276.732 428.652 276.634 429.366 276.634C429.821 276.634 430.344 276.689 430.935 276.8C431.532 276.904 432.108 277.123 432.662 277.455C433.222 277.788 433.687 278.289 434.056 278.96C434.425 279.631 434.61 280.53 434.61 281.656V291H432.431V289.08H432.32C432.172 289.387 431.926 289.717 431.582 290.067C431.237 290.418 430.778 290.717 430.206 290.963C429.633 291.209 428.935 291.332 428.11 291.332ZM428.442 289.375C429.304 289.375 430.03 289.206 430.621 288.867C431.218 288.529 431.668 288.092 431.969 287.556C432.277 287.021 432.431 286.457 432.431 285.866V283.872C432.339 283.983 432.136 284.085 431.822 284.177C431.514 284.263 431.157 284.34 430.751 284.408C430.351 284.469 429.96 284.525 429.578 284.574C429.203 284.617 428.898 284.654 428.664 284.685C428.098 284.759 427.568 284.879 427.076 285.045C426.59 285.205 426.196 285.448 425.894 285.774C425.599 286.094 425.451 286.531 425.451 287.085C425.451 287.842 425.731 288.415 426.291 288.803C426.857 289.184 427.574 289.375 428.442 289.375ZM438.587 296.318V276.818H440.692V279.071H440.951C441.111 278.825 441.332 278.511 441.616 278.129C441.905 277.741 442.317 277.397 442.853 277.095C443.394 276.787 444.127 276.634 445.05 276.634C446.244 276.634 447.297 276.932 448.208 277.529C449.119 278.126 449.83 278.973 450.341 280.068C450.852 281.164 451.107 282.456 451.107 283.946C451.107 285.448 450.852 286.75 450.341 287.852C449.83 288.947 449.122 289.797 448.217 290.4C447.312 290.997 446.269 291.295 445.087 291.295C444.176 291.295 443.447 291.145 442.899 290.843C442.351 290.535 441.929 290.187 441.634 289.8C441.339 289.406 441.111 289.08 440.951 288.821H440.766V296.318H438.587ZM440.729 283.909C440.729 284.98 440.886 285.925 441.2 286.744C441.514 287.556 441.973 288.193 442.576 288.655C443.179 289.11 443.918 289.338 444.792 289.338C445.703 289.338 446.463 289.098 447.072 288.618C447.688 288.132 448.149 287.479 448.457 286.661C448.771 285.836 448.928 284.919 448.928 283.909C448.928 282.912 448.774 282.013 448.466 281.213C448.165 280.407 447.706 279.77 447.091 279.302C446.481 278.828 445.715 278.591 444.792 278.591C443.905 278.591 443.16 278.816 442.557 279.265C441.954 279.708 441.499 280.33 441.191 281.13C440.883 281.924 440.729 282.85 440.729 283.909Z" fill="black"/>
<rect x="320.5" y="317.5" width="199" height="69" fill="white" stroke="black"/>
<path d="M399.408 361H393.573V342.091H399.667C401.501 342.091 403.071 342.469 404.376 343.227C405.68 343.978 406.681 345.058 407.376 346.467C408.072 347.871 408.42 349.551 408.42 351.509C408.42 353.478 408.069 355.174 407.367 356.596C406.665 358.012 405.644 359.101 404.302 359.864C402.96 360.621 401.329 361 399.408 361ZM395.863 358.969H399.26C400.824 358.969 402.12 358.667 403.148 358.064C404.175 357.461 404.942 356.602 405.447 355.488C405.951 354.374 406.204 353.047 406.204 351.509C406.204 349.982 405.954 348.668 405.456 347.566C404.957 346.458 404.212 345.609 403.221 345.018C402.23 344.421 400.996 344.122 399.519 344.122H395.863V358.969ZM416.138 361.332C415.24 361.332 414.424 361.163 413.692 360.825C412.959 360.48 412.377 359.984 411.947 359.338C411.516 358.686 411.3 357.898 411.3 356.974C411.3 356.162 411.46 355.503 411.78 354.999C412.1 354.488 412.528 354.088 413.064 353.798C413.599 353.509 414.19 353.294 414.836 353.152C415.489 353.004 416.144 352.887 416.803 352.801C417.665 352.69 418.363 352.607 418.899 352.552C419.441 352.49 419.835 352.389 420.081 352.247C420.333 352.106 420.459 351.859 420.459 351.509V351.435C420.459 350.524 420.21 349.816 419.711 349.311C419.219 348.806 418.471 348.554 417.468 348.554C416.428 348.554 415.612 348.782 415.021 349.237C414.43 349.693 414.015 350.179 413.775 350.696L411.706 349.957C412.076 349.096 412.568 348.425 413.184 347.945C413.805 347.458 414.483 347.12 415.215 346.929C415.954 346.732 416.68 346.634 417.394 346.634C417.849 346.634 418.373 346.689 418.964 346.8C419.561 346.904 420.136 347.123 420.69 347.455C421.25 347.788 421.715 348.289 422.084 348.96C422.454 349.631 422.638 350.53 422.638 351.656V361H420.459V359.08H420.349C420.201 359.387 419.955 359.717 419.61 360.067C419.265 360.418 418.807 360.717 418.234 360.963C417.662 361.209 416.963 361.332 416.138 361.332ZM416.471 359.375C417.332 359.375 418.059 359.206 418.65 358.867C419.247 358.529 419.696 358.092 419.998 357.556C420.305 357.021 420.459 356.457 420.459 355.866V353.872C420.367 353.983 420.164 354.085 419.85 354.177C419.542 354.263 419.185 354.34 418.779 354.408C418.379 354.469 417.988 354.525 417.606 354.574C417.231 354.617 416.926 354.654 416.692 354.685C416.126 354.759 415.597 354.879 415.104 355.045C414.618 355.205 414.224 355.448 413.922 355.774C413.627 356.094 413.479 356.531 413.479 357.085C413.479 357.842 413.759 358.415 414.319 358.803C414.886 359.184 415.603 359.375 416.471 359.375ZM432.783 346.818V348.665H425.434V346.818H432.783ZM427.576 343.42H429.755V356.938C429.755 357.553 429.844 358.015 430.022 358.322C430.207 358.624 430.441 358.827 430.724 358.932C431.013 359.03 431.318 359.08 431.638 359.08C431.878 359.08 432.075 359.067 432.229 359.043C432.383 359.012 432.506 358.987 432.598 358.969L433.042 360.926C432.894 360.982 432.688 361.037 432.423 361.092C432.158 361.154 431.823 361.185 431.417 361.185C430.801 361.185 430.198 361.052 429.607 360.788C429.022 360.523 428.536 360.12 428.148 359.578C427.766 359.036 427.576 358.353 427.576 357.528V343.42ZM440.234 361.332C439.335 361.332 438.52 361.163 437.787 360.825C437.055 360.48 436.473 359.984 436.042 359.338C435.611 358.686 435.396 357.898 435.396 356.974C435.396 356.162 435.556 355.503 435.876 354.999C436.196 354.488 436.624 354.088 437.159 353.798C437.695 353.509 438.286 353.294 438.932 353.152C439.585 353.004 440.24 352.887 440.899 352.801C441.761 352.69 442.459 352.607 442.995 352.552C443.536 352.49 443.93 352.389 444.176 352.247C444.429 352.106 444.555 351.859 444.555 351.509V351.435C444.555 350.524 444.306 349.816 443.807 349.311C443.315 348.806 442.567 348.554 441.564 348.554C440.523 348.554 439.708 348.782 439.117 349.237C438.526 349.693 438.11 350.179 437.87 350.696L435.802 349.957C436.172 349.096 436.664 348.425 437.279 347.945C437.901 347.458 438.578 347.12 439.311 346.929C440.049 346.732 440.776 346.634 441.49 346.634C441.945 346.634 442.468 346.689 443.059 346.8C443.656 346.904 444.232 347.123 444.786 347.455C445.346 347.788 445.811 348.289 446.18 348.96C446.549 349.631 446.734 350.53 446.734 351.656V361H444.555V359.08H444.444C444.297 359.387 444.05 359.717 443.706 360.067C443.361 360.418 442.902 360.717 442.33 360.963C441.757 361.209 441.059 361.332 440.234 361.332ZM440.566 359.375C441.428 359.375 442.154 359.206 442.745 358.867C443.342 358.529 443.792 358.092 444.093 357.556C444.401 357.021 444.555 356.457 444.555 355.866V353.872C444.463 353.983 444.26 354.085 443.946 354.177C443.638 354.263 443.281 354.34 442.875 354.408C442.475 354.469 442.084 354.525 441.702 354.574C441.327 354.617 441.022 354.654 440.788 354.685C440.222 354.759 439.692 354.879 439.2 355.045C438.714 355.205 438.32 355.448 438.018 355.774C437.723 356.094 437.575 356.531 437.575 357.085C437.575 357.842 437.855 358.415 438.415 358.803C438.981 359.184 439.699 359.375 440.566 359.375Z" fill="black"/>
<rect x="583.5" y="107.5" width="199" height="69" fill="white" stroke="black"/>
<path d="M667.65 138H665.36C665.225 137.341 664.988 136.763 664.65 136.264C664.317 135.766 663.911 135.347 663.431 135.009C662.957 134.664 662.431 134.405 661.852 134.233C661.273 134.061 660.67 133.974 660.042 133.974C658.897 133.974 657.86 134.264 656.931 134.842C656.007 135.421 655.272 136.273 654.724 137.4C654.182 138.526 653.912 139.908 653.912 141.545C653.912 143.183 654.182 144.565 654.724 145.691C655.272 146.817 656.007 147.67 656.931 148.249C657.86 148.827 658.897 149.116 660.042 149.116C660.67 149.116 661.273 149.03 661.852 148.858C662.431 148.686 662.957 148.43 663.431 148.092C663.911 147.747 664.317 147.325 664.65 146.827C664.988 146.322 665.225 145.743 665.36 145.091H667.65C667.478 146.057 667.164 146.922 666.708 147.685C666.253 148.449 665.687 149.098 665.01 149.634C664.333 150.163 663.572 150.566 662.729 150.843C661.892 151.12 660.996 151.259 660.042 151.259C658.43 151.259 656.995 150.865 655.74 150.077C654.484 149.289 653.496 148.169 652.776 146.716C652.056 145.263 651.696 143.54 651.696 141.545C651.696 139.551 652.056 137.828 652.776 136.375C653.496 134.922 654.484 133.802 655.74 133.014C656.995 132.226 658.43 131.832 660.042 131.832C660.996 131.832 661.892 131.971 662.729 132.248C663.572 132.525 664.333 132.931 665.01 133.467C665.687 133.996 666.253 134.642 666.708 135.406C667.164 136.163 667.478 137.027 667.65 138ZM676.816 151.295C675.536 151.295 674.413 150.991 673.446 150.381C672.486 149.772 671.735 148.92 671.193 147.824C670.658 146.728 670.39 145.448 670.39 143.983C670.39 142.506 670.658 141.216 671.193 140.114C671.735 139.013 672.486 138.157 673.446 137.548C674.413 136.938 675.536 136.634 676.816 136.634C678.097 136.634 679.217 136.938 680.177 137.548C681.143 138.157 681.894 139.013 682.43 140.114C682.972 141.216 683.242 142.506 683.242 143.983C683.242 145.448 682.972 146.728 682.43 147.824C681.894 148.92 681.143 149.772 680.177 150.381C679.217 150.991 678.097 151.295 676.816 151.295ZM676.816 149.338C677.789 149.338 678.589 149.089 679.217 148.59C679.845 148.092 680.309 147.436 680.611 146.624C680.913 145.811 681.063 144.931 681.063 143.983C681.063 143.035 680.913 142.152 680.611 141.333C680.309 140.514 679.845 139.853 679.217 139.348C678.589 138.843 677.789 138.591 676.816 138.591C675.844 138.591 675.044 138.843 674.416 139.348C673.788 139.853 673.323 140.514 673.021 141.333C672.72 142.152 672.569 143.035 672.569 143.983C672.569 144.931 672.72 145.811 673.021 146.624C673.323 147.436 673.788 148.092 674.416 148.59C675.044 149.089 675.844 149.338 676.816 149.338ZM691.924 151.295C690.742 151.295 689.699 150.997 688.794 150.4C687.889 149.797 687.181 148.947 686.67 147.852C686.159 146.75 685.904 145.448 685.904 143.946C685.904 142.456 686.159 141.164 686.67 140.068C687.181 138.973 687.892 138.126 688.803 137.529C689.714 136.932 690.766 136.634 691.961 136.634C692.884 136.634 693.613 136.787 694.149 137.095C694.69 137.397 695.103 137.741 695.386 138.129C695.675 138.511 695.9 138.825 696.06 139.071H696.245V132.091H698.424V151H696.319V148.821H696.06C695.9 149.08 695.672 149.406 695.377 149.8C695.081 150.187 694.66 150.535 694.112 150.843C693.564 151.145 692.835 151.295 691.924 151.295ZM692.219 149.338C693.093 149.338 693.832 149.11 694.435 148.655C695.038 148.193 695.497 147.556 695.811 146.744C696.125 145.925 696.282 144.98 696.282 143.909C696.282 142.85 696.128 141.924 695.82 141.13C695.512 140.33 695.057 139.708 694.453 139.265C693.85 138.816 693.105 138.591 692.219 138.591C691.296 138.591 690.526 138.828 689.911 139.302C689.301 139.77 688.843 140.407 688.535 141.213C688.234 142.013 688.083 142.912 688.083 143.909C688.083 144.919 688.237 145.836 688.544 146.661C688.858 147.479 689.32 148.132 689.929 148.618C690.545 149.098 691.308 149.338 692.219 149.338ZM708.663 151.295C707.297 151.295 706.118 150.994 705.127 150.391C704.142 149.781 703.382 148.932 702.846 147.842C702.317 146.747 702.052 145.473 702.052 144.02C702.052 142.567 702.317 141.287 702.846 140.179C703.382 139.065 704.127 138.197 705.081 137.575C706.041 136.947 707.161 136.634 708.441 136.634C709.18 136.634 709.909 136.757 710.63 137.003C711.35 137.249 712.005 137.649 712.596 138.203C713.187 138.751 713.658 139.477 714.009 140.382C714.36 141.287 714.535 142.401 714.535 143.724V144.648H703.603V142.764H712.319C712.319 141.964 712.159 141.25 711.839 140.622C711.525 139.994 711.076 139.499 710.491 139.136C709.913 138.772 709.229 138.591 708.441 138.591C707.574 138.591 706.823 138.806 706.189 139.237C705.561 139.662 705.078 140.216 704.739 140.899C704.4 141.582 704.231 142.315 704.231 143.097V144.352C704.231 145.423 704.416 146.331 704.785 147.076C705.161 147.815 705.681 148.378 706.346 148.766C707.01 149.147 707.783 149.338 708.663 149.338C709.235 149.338 709.752 149.258 710.214 149.098C710.682 148.932 711.085 148.686 711.424 148.359C711.762 148.027 712.024 147.615 712.208 147.122L714.314 147.713C714.092 148.427 713.72 149.055 713.196 149.597C712.673 150.132 712.027 150.551 711.257 150.852C710.488 151.148 709.623 151.295 708.663 151.295Z" fill="black"/>
<rect x="583.5" y="177.5" width="199" height="69" fill="white" stroke="black"/>
<path d="M660.96 206.818C660.849 205.883 660.4 205.156 659.612 204.639C658.824 204.122 657.858 203.864 656.713 203.864C655.876 203.864 655.143 203.999 654.515 204.27C653.893 204.541 653.407 204.913 653.056 205.387C652.712 205.861 652.539 206.4 652.539 207.003C652.539 207.508 652.659 207.942 652.899 208.305C653.146 208.662 653.46 208.96 653.841 209.2C654.223 209.434 654.623 209.628 655.041 209.782C655.46 209.93 655.845 210.05 656.196 210.142L658.116 210.659C658.608 210.788 659.156 210.967 659.759 211.195C660.369 211.422 660.951 211.733 661.505 212.127C662.065 212.515 662.526 213.013 662.889 213.623C663.253 214.232 663.434 214.98 663.434 215.866C663.434 216.888 663.166 217.812 662.631 218.636C662.102 219.461 661.326 220.117 660.304 220.603C659.289 221.089 658.054 221.332 656.602 221.332C655.248 221.332 654.075 221.114 653.084 220.677C652.099 220.24 651.324 219.63 650.757 218.849C650.197 218.067 649.88 217.159 649.806 216.125H652.17C652.232 216.839 652.472 217.43 652.89 217.898C653.315 218.359 653.85 218.704 654.497 218.932C655.149 219.153 655.851 219.264 656.602 219.264C657.476 219.264 658.261 219.123 658.956 218.839C659.652 218.55 660.203 218.15 660.609 217.639C661.015 217.122 661.218 216.519 661.218 215.83C661.218 215.202 661.043 214.691 660.692 214.297C660.341 213.903 659.88 213.583 659.307 213.337C658.735 213.09 658.116 212.875 657.451 212.69L655.125 212.026C653.647 211.601 652.478 210.995 651.616 210.207C650.754 209.419 650.323 208.388 650.323 207.114C650.323 206.055 650.61 205.132 651.182 204.344C651.761 203.55 652.536 202.934 653.509 202.497C654.487 202.054 655.58 201.832 656.786 201.832C658.005 201.832 659.089 202.051 660.036 202.488C660.984 202.919 661.735 203.51 662.289 204.261C662.849 205.012 663.145 205.864 663.176 206.818H660.96ZM673.071 206.818V208.665H665.722V206.818H673.071ZM667.864 203.42H670.043V216.938C670.043 217.553 670.132 218.015 670.31 218.322C670.495 218.624 670.729 218.827 671.012 218.932C671.301 219.03 671.606 219.08 671.926 219.08C672.166 219.08 672.363 219.067 672.517 219.043C672.671 219.012 672.794 218.987 672.886 218.969L673.33 220.926C673.182 220.982 672.976 221.037 672.711 221.092C672.446 221.154 672.111 221.185 671.705 221.185C671.089 221.185 670.486 221.052 669.895 220.788C669.31 220.523 668.824 220.12 668.436 219.578C668.055 219.036 667.864 218.353 667.864 217.528V203.42ZM680.522 221.332C679.623 221.332 678.808 221.163 678.075 220.825C677.343 220.48 676.761 219.984 676.33 219.338C675.899 218.686 675.684 217.898 675.684 216.974C675.684 216.162 675.844 215.503 676.164 214.999C676.484 214.488 676.912 214.088 677.448 213.798C677.983 213.509 678.574 213.294 679.22 213.152C679.873 213.004 680.528 212.887 681.187 212.801C682.049 212.69 682.747 212.607 683.283 212.552C683.824 212.49 684.218 212.389 684.465 212.247C684.717 212.106 684.843 211.859 684.843 211.509V211.435C684.843 210.524 684.594 209.816 684.095 209.311C683.603 208.806 682.855 208.554 681.852 208.554C680.811 208.554 679.996 208.782 679.405 209.237C678.814 209.693 678.399 210.179 678.158 210.696L676.09 209.957C676.46 209.096 676.952 208.425 677.568 207.945C678.189 207.458 678.866 207.12 679.599 206.929C680.337 206.732 681.064 206.634 681.778 206.634C682.233 206.634 682.756 206.689 683.347 206.8C683.944 206.904 684.52 207.123 685.074 207.455C685.634 207.788 686.099 208.289 686.468 208.96C686.837 209.631 687.022 210.53 687.022 211.656V221H684.843V219.08H684.732C684.585 219.387 684.338 219.717 683.994 220.067C683.649 220.418 683.19 220.717 682.618 220.963C682.046 221.209 681.347 221.332 680.522 221.332ZM680.854 219.375C681.716 219.375 682.443 219.206 683.033 218.867C683.631 218.529 684.08 218.092 684.381 217.556C684.689 217.021 684.843 216.457 684.843 215.866V213.872C684.751 213.983 684.548 214.085 684.234 214.177C683.926 214.263 683.569 214.34 683.163 214.408C682.763 214.469 682.372 214.525 681.99 214.574C681.615 214.617 681.31 214.654 681.076 214.685C680.51 214.759 679.98 214.879 679.488 215.045C679.002 215.205 678.608 215.448 678.306 215.774C678.011 216.094 677.863 216.531 677.863 217.085C677.863 217.842 678.143 218.415 678.703 218.803C679.27 219.184 679.987 219.375 680.854 219.375ZM696.761 221.295C695.431 221.295 694.286 220.982 693.326 220.354C692.366 219.726 691.627 218.861 691.11 217.759C690.593 216.657 690.334 215.399 690.334 213.983C690.334 212.543 690.599 211.272 691.128 210.17C691.664 209.062 692.409 208.197 693.363 207.575C694.323 206.947 695.443 206.634 696.724 206.634C697.721 206.634 698.619 206.818 699.42 207.188C700.22 207.557 700.875 208.074 701.386 208.739C701.897 209.403 702.214 210.179 702.337 211.065H700.158C699.992 210.419 699.623 209.847 699.05 209.348C698.484 208.843 697.721 208.591 696.761 208.591C695.911 208.591 695.166 208.812 694.526 209.256C693.892 209.693 693.397 210.311 693.04 211.112C692.689 211.906 692.513 212.838 692.513 213.909C692.513 215.005 692.686 215.959 693.03 216.771C693.381 217.584 693.874 218.215 694.508 218.664C695.148 219.113 695.899 219.338 696.761 219.338C697.327 219.338 697.841 219.24 698.302 219.043C698.764 218.846 699.155 218.562 699.475 218.193C699.795 217.824 700.023 217.381 700.158 216.864H702.337C702.214 217.701 701.909 218.455 701.423 219.126C700.943 219.79 700.306 220.32 699.512 220.714C698.724 221.102 697.807 221.295 696.761 221.295ZM707.554 215.83L707.517 213.134H707.96L714.165 206.818H716.861L710.25 213.503H710.065L707.554 215.83ZM705.523 221V202.091H707.702V221H705.523ZM714.534 221L708.994 213.983L710.545 212.469L717.304 221H714.534Z" fill="black"/>
<rect x="583.5" y="247.5" width="199" height="69" fill="white" stroke="black"/>
<path d="M652.853 291V272.091H655.143V280.511H665.225V272.091H667.515V291H665.225V282.543H655.143V291H652.853ZM677.75 291.295C676.383 291.295 675.205 290.994 674.214 290.391C673.229 289.781 672.469 288.932 671.933 287.842C671.404 286.747 671.139 285.473 671.139 284.02C671.139 282.567 671.404 281.287 671.933 280.179C672.469 279.065 673.213 278.197 674.168 277.575C675.128 276.947 676.248 276.634 677.528 276.634C678.267 276.634 678.996 276.757 679.717 277.003C680.437 277.249 681.092 277.649 681.683 278.203C682.274 278.751 682.745 279.477 683.096 280.382C683.447 281.287 683.622 282.401 683.622 283.724V284.648H672.69V282.764H681.406C681.406 281.964 681.246 281.25 680.926 280.622C680.612 279.994 680.163 279.499 679.578 279.136C678.999 278.772 678.316 278.591 677.528 278.591C676.66 278.591 675.909 278.806 675.275 279.237C674.648 279.662 674.164 280.216 673.826 280.899C673.487 281.582 673.318 282.315 673.318 283.097V284.352C673.318 285.423 673.503 286.331 673.872 287.076C674.248 287.815 674.768 288.378 675.432 288.766C676.097 289.147 676.87 289.338 677.75 289.338C678.322 289.338 678.839 289.258 679.301 289.098C679.769 288.932 680.172 288.686 680.511 288.359C680.849 288.027 681.111 287.615 681.295 287.122L683.4 287.713C683.179 288.427 682.806 289.055 682.283 289.597C681.76 290.132 681.114 290.551 680.344 290.852C679.575 291.148 678.71 291.295 677.75 291.295ZM691.11 291.332C690.211 291.332 689.396 291.163 688.663 290.825C687.931 290.48 687.349 289.984 686.918 289.338C686.487 288.686 686.272 287.898 686.272 286.974C686.272 286.162 686.432 285.503 686.752 284.999C687.072 284.488 687.5 284.088 688.035 283.798C688.571 283.509 689.162 283.294 689.808 283.152C690.461 283.004 691.116 282.887 691.775 282.801C692.637 282.69 693.335 282.607 693.871 282.552C694.412 282.49 694.806 282.389 695.052 282.247C695.305 282.106 695.431 281.859 695.431 281.509V281.435C695.431 280.524 695.182 279.816 694.683 279.311C694.191 278.806 693.443 278.554 692.44 278.554C691.399 278.554 690.584 278.782 689.993 279.237C689.402 279.693 688.986 280.179 688.746 280.696L686.678 279.957C687.047 279.096 687.54 278.425 688.155 277.945C688.777 277.458 689.454 277.12 690.187 276.929C690.925 276.732 691.652 276.634 692.366 276.634C692.821 276.634 693.344 276.689 693.935 276.8C694.532 276.904 695.108 277.123 695.662 277.455C696.222 277.788 696.687 278.289 697.056 278.96C697.425 279.631 697.61 280.53 697.61 281.656V291H695.431V289.08H695.32C695.172 289.387 694.926 289.717 694.582 290.067C694.237 290.418 693.778 290.717 693.206 290.963C692.633 291.209 691.935 291.332 691.11 291.332ZM691.442 289.375C692.304 289.375 693.03 289.206 693.621 288.867C694.218 288.529 694.668 288.092 694.969 287.556C695.277 287.021 695.431 286.457 695.431 285.866V283.872C695.339 283.983 695.136 284.085 694.822 284.177C694.514 284.263 694.157 284.34 693.751 284.408C693.351 284.469 692.96 284.525 692.578 284.574C692.203 284.617 691.898 284.654 691.664 284.685C691.098 284.759 690.568 284.879 690.076 285.045C689.59 285.205 689.196 285.448 688.894 285.774C688.599 286.094 688.451 286.531 688.451 287.085C688.451 287.842 688.731 288.415 689.291 288.803C689.857 289.184 690.574 289.375 691.442 289.375ZM701.587 296.318V276.818H703.692V279.071H703.951C704.111 278.825 704.332 278.511 704.616 278.129C704.905 277.741 705.317 277.397 705.853 277.095C706.394 276.787 707.127 276.634 708.05 276.634C709.244 276.634 710.297 276.932 711.208 277.529C712.119 278.126 712.83 278.973 713.341 280.068C713.852 281.164 714.107 282.456 714.107 283.946C714.107 285.448 713.852 286.75 713.341 287.852C712.83 288.947 712.122 289.797 711.217 290.4C710.312 290.997 709.269 291.295 708.087 291.295C707.176 291.295 706.447 291.145 705.899 290.843C705.351 290.535 704.929 290.187 704.634 289.8C704.339 289.406 704.111 289.08 703.951 288.821H703.766V296.318H701.587ZM703.729 283.909C703.729 284.98 703.886 285.925 704.2 286.744C704.514 287.556 704.973 288.193 705.576 288.655C706.179 289.11 706.918 289.338 707.792 289.338C708.703 289.338 709.463 289.098 710.072 288.618C710.688 288.132 711.149 287.479 711.457 286.661C711.771 285.836 711.928 284.919 711.928 283.909C711.928 282.912 711.774 282.013 711.466 281.213C711.165 280.407 710.706 279.77 710.091 279.302C709.481 278.828 708.715 278.591 707.792 278.591C706.905 278.591 706.16 278.816 705.557 279.265C704.954 279.708 704.499 280.33 704.191 281.13C703.883 281.924 703.729 282.85 703.729 283.909Z" fill="black"/>
<rect x="583.5" y="317.5" width="199" height="69" fill="white" stroke="black"/>
<path d="M662.408 361H656.573V342.091H662.667C664.501 342.091 666.071 342.469 667.376 343.227C668.68 343.978 669.681 345.058 670.376 346.467C671.072 347.871 671.42 349.551 671.42 351.509C671.42 353.478 671.069 355.174 670.367 356.596C669.665 358.012 668.644 359.101 667.302 359.864C665.96 360.621 664.329 361 662.408 361ZM658.863 358.969H662.26C663.824 358.969 665.12 358.667 666.148 358.064C667.175 357.461 667.942 356.602 668.447 355.488C668.951 354.374 669.204 353.047 669.204 351.509C669.204 349.982 668.954 348.668 668.456 347.566C667.957 346.458 667.212 345.609 666.221 345.018C665.23 344.421 663.996 344.122 662.519 344.122H658.863V358.969ZM679.138 361.332C678.24 361.332 677.424 361.163 676.692 360.825C675.959 360.48 675.377 359.984 674.947 359.338C674.516 358.686 674.3 357.898 674.3 356.974C674.3 356.162 674.46 355.503 674.78 354.999C675.1 354.488 675.528 354.088 676.064 353.798C676.599 353.509 677.19 353.294 677.836 353.152C678.489 353.004 679.144 352.887 679.803 352.801C680.665 352.69 681.363 352.607 681.899 352.552C682.441 352.49 682.835 352.389 683.081 352.247C683.333 352.106 683.459 351.859 683.459 351.509V351.435C683.459 350.524 683.21 349.816 682.711 349.311C682.219 348.806 681.471 348.554 680.468 348.554C679.428 348.554 678.612 348.782 678.021 349.237C677.43 349.693 677.015 350.179 676.775 350.696L674.706 349.957C675.076 349.096 675.568 348.425 676.184 347.945C676.805 347.458 677.483 347.12 678.215 346.929C678.954 346.732 679.68 346.634 680.394 346.634C680.849 346.634 681.373 346.689 681.964 346.8C682.561 346.904 683.136 347.123 683.69 347.455C684.25 347.788 684.715 348.289 685.084 348.96C685.454 349.631 685.638 350.53 685.638 351.656V361H683.459V359.08H683.349C683.201 359.387 682.955 359.717 682.61 360.067C682.265 360.418 681.807 360.717 681.234 360.963C680.662 361.209 679.963 361.332 679.138 361.332ZM679.471 359.375C680.332 359.375 681.059 359.206 681.65 358.867C682.247 358.529 682.696 358.092 682.998 357.556C683.305 357.021 683.459 356.457 683.459 355.866V353.872C683.367 353.983 683.164 354.085 682.85 354.177C682.542 354.263 682.185 354.34 681.779 354.408C681.379 354.469 680.988 354.525 680.606 354.574C680.231 354.617 679.926 354.654 679.692 354.685C679.126 354.759 678.597 354.879 678.104 355.045C677.618 355.205 677.224 355.448 676.922 355.774C676.627 356.094 676.479 356.531 676.479 357.085C676.479 357.842 676.759 358.415 677.319 358.803C677.886 359.184 678.603 359.375 679.471 359.375ZM695.783 346.818V348.665H688.434V346.818H695.783ZM690.576 343.42H692.755V356.938C692.755 357.553 692.844 358.015 693.022 358.322C693.207 358.624 693.441 358.827 693.724 358.932C694.013 359.03 694.318 359.08 694.638 359.08C694.878 359.08 695.075 359.067 695.229 359.043C695.383 359.012 695.506 358.987 695.598 358.969L696.042 360.926C695.894 360.982 695.688 361.037 695.423 361.092C695.158 361.154 694.823 361.185 694.417 361.185C693.801 361.185 693.198 361.052 692.607 360.788C692.022 360.523 691.536 360.12 691.148 359.578C690.766 359.036 690.576 358.353 690.576 357.528V343.42ZM703.234 361.332C702.335 361.332 701.52 361.163 700.787 360.825C700.055 360.48 699.473 359.984 699.042 359.338C698.611 358.686 698.396 357.898 698.396 356.974C698.396 356.162 698.556 355.503 698.876 354.999C699.196 354.488 699.624 354.088 700.159 353.798C700.695 353.509 701.286 353.294 701.932 353.152C702.585 353.004 703.24 352.887 703.899 352.801C704.761 352.69 705.459 352.607 705.995 352.552C706.536 352.49 706.93 352.389 707.176 352.247C707.429 352.106 707.555 351.859 707.555 351.509V351.435C707.555 350.524 707.306 349.816 706.807 349.311C706.315 348.806 705.567 348.554 704.564 348.554C703.523 348.554 702.708 348.782 702.117 349.237C701.526 349.693 701.11 350.179 700.87 350.696L698.802 349.957C699.172 349.096 699.664 348.425 700.279 347.945C700.901 347.458 701.578 347.12 702.311 346.929C703.049 346.732 703.776 346.634 704.49 346.634C704.945 346.634 705.468 346.689 706.059 346.8C706.656 346.904 707.232 347.123 707.786 347.455C708.346 347.788 708.811 348.289 709.18 348.96C709.549 349.631 709.734 350.53 709.734 351.656V361H707.555V359.08H707.444C707.297 359.387 707.05 359.717 706.706 360.067C706.361 360.418 705.902 360.717 705.33 360.963C704.757 361.209 704.059 361.332 703.234 361.332ZM703.566 359.375C704.428 359.375 705.154 359.206 705.745 358.867C706.342 358.529 706.792 358.092 707.093 357.556C707.401 357.021 707.555 356.457 707.555 355.866V353.872C707.463 353.983 707.26 354.085 706.946 354.177C706.638 354.263 706.281 354.34 705.875 354.408C705.475 354.469 705.084 354.525 704.702 354.574C704.327 354.617 704.022 354.654 703.788 354.685C703.222 354.759 702.692 354.879 702.2 355.045C701.714 355.205 701.32 355.448 701.018 355.774C700.723 356.094 700.575 356.531 700.575 357.085C700.575 357.842 700.855 358.415 701.415 358.803C701.981 359.184 702.699 359.375 703.566 359.375Z" fill="black"/>
</svg>
