<svg width="840" height="447" viewBox="0 0 840 447" fill="none" xmlns="http://www.w3.org/2000/svg">
<rect x="0.5" y="0.5" width="839" height="446" fill="white" stroke="black"/>
<path d="M366.055 62V40.1818H373.427C375.139 40.1818 376.538 40.4908 377.625 41.1087C378.718 41.7195 379.528 42.5469 380.054 43.5909C380.579 44.6349 380.842 45.7997 380.842 47.0852C380.842 48.3707 380.579 49.5391 380.054 50.5902C379.535 51.6413 378.733 52.4794 377.646 53.1044C376.559 53.7223 375.167 54.0312 373.47 54.0312H368.186V51.6875H373.385C374.557 51.6875 375.498 51.4851 376.208 51.0803C376.918 50.6754 377.433 50.1286 377.753 49.4396C378.079 48.7436 378.243 47.9588 378.243 47.0852C378.243 46.2116 378.079 45.4304 377.753 44.7415C377.433 44.0526 376.915 43.5128 376.197 43.1222C375.48 42.7244 374.528 42.5256 373.342 42.5256H368.697V62H366.055ZM384.757 62V45.6364H387.186V48.108H387.357C387.655 47.2983 388.195 46.6413 388.976 46.1371C389.757 45.6328 390.638 45.3807 391.618 45.3807C391.803 45.3807 392.033 45.3842 392.31 45.3913C392.587 45.3984 392.797 45.4091 392.939 45.4233V47.9801C392.854 47.9588 392.658 47.9268 392.353 47.8842C392.055 47.8345 391.739 47.8097 391.405 47.8097C390.609 47.8097 389.899 47.9766 389.274 48.3104C388.656 48.6371 388.166 49.0916 387.804 49.674C387.449 50.2493 387.271 50.9062 387.271 51.6449V62H384.757ZM402.069 62.3409C400.592 62.3409 399.296 61.9893 398.18 61.2862C397.073 60.5831 396.206 59.5994 395.581 58.3352C394.963 57.071 394.654 55.5937 394.654 53.9034C394.654 52.1989 394.963 50.7109 395.581 49.4396C396.206 48.1683 397.073 47.1811 398.18 46.478C399.296 45.7749 400.592 45.4233 402.069 45.4233C403.546 45.4233 404.839 45.7749 405.947 46.478C407.062 47.1811 407.928 48.1683 408.546 49.4396C409.171 50.7109 409.484 52.1989 409.484 53.9034C409.484 55.5937 409.171 57.071 408.546 58.3352C407.928 59.5994 407.062 60.5831 405.947 61.2862C404.839 61.9893 403.546 62.3409 402.069 62.3409ZM402.069 60.0824C403.191 60.0824 404.114 59.7947 404.839 59.2195C405.563 58.6442 406.1 57.8878 406.448 56.9503C406.796 56.0128 406.97 54.9972 406.97 53.9034C406.97 52.8097 406.796 51.7905 406.448 50.8459C406.1 49.9013 405.563 49.1378 404.839 48.5554C404.114 47.973 403.191 47.6818 402.069 47.6818C400.947 47.6818 400.024 47.973 399.299 48.5554C398.575 49.1378 398.038 49.9013 397.69 50.8459C397.342 51.7905 397.168 52.8097 397.168 53.9034C397.168 54.9972 397.342 56.0128 397.69 56.9503C398.038 57.8878 398.575 58.6442 399.299 59.2195C400.024 59.7947 400.947 60.0824 402.069 60.0824ZM419.969 62.3409C418.435 62.3409 417.114 61.9787 416.006 61.2543C414.898 60.5298 414.046 59.532 413.449 58.2607C412.853 56.9893 412.555 55.5369 412.555 53.9034C412.555 52.2415 412.86 50.7749 413.471 49.5036C414.089 48.2251 414.948 47.2273 416.049 46.5099C417.157 45.7855 418.449 45.4233 419.927 45.4233C421.077 45.4233 422.114 45.6364 423.038 46.0625C423.961 46.4886 424.717 47.0852 425.307 47.8523C425.896 48.6193 426.262 49.5142 426.404 50.5369H423.89C423.698 49.7912 423.272 49.1307 422.611 48.5554C421.958 47.973 421.077 47.6818 419.969 47.6818C418.989 47.6818 418.13 47.9375 417.391 48.4489C416.66 48.9531 416.088 49.6669 415.676 50.5902C415.271 51.5064 415.069 52.5824 415.069 53.8182C415.069 55.0824 415.268 56.1832 415.665 57.1207C416.07 58.0582 416.638 58.7862 417.37 59.3047C418.109 59.8232 418.975 60.0824 419.969 60.0824C420.623 60.0824 421.216 59.9688 421.748 59.7415C422.281 59.5142 422.732 59.1875 423.101 58.7614C423.471 58.3352 423.734 57.8239 423.89 57.2273H426.404C426.262 58.1932 425.91 59.0632 425.349 59.8374C424.795 60.6044 424.06 61.2152 423.144 61.6697C422.235 62.1172 421.177 62.3409 419.969 62.3409ZM436.94 62.3409C435.364 62.3409 434.003 61.9929 432.86 61.2969C431.724 60.5938 430.847 59.6136 430.229 58.3565C429.618 57.0923 429.312 55.6222 429.312 53.946C429.312 52.2699 429.618 50.7926 430.229 49.5142C430.847 48.2287 431.706 47.2273 432.807 46.5099C433.915 45.7855 435.207 45.4233 436.685 45.4233C437.537 45.4233 438.378 45.5653 439.209 45.8494C440.04 46.1335 440.797 46.5952 441.479 47.2344C442.16 47.8665 442.704 48.7045 443.109 49.7486C443.513 50.7926 443.716 52.0781 443.716 53.6051V54.6705H431.102V52.4972H441.159C441.159 51.5739 440.974 50.75 440.605 50.0256C440.243 49.3011 439.724 48.7294 439.05 48.3104C438.382 47.8913 437.594 47.6818 436.685 47.6818C435.683 47.6818 434.817 47.9304 434.085 48.4276C433.361 48.9176 432.803 49.5568 432.413 50.3452C432.022 51.1335 431.827 51.9787 431.827 52.8807V54.3295C431.827 55.5653 432.04 56.6129 432.466 57.4723C432.899 58.3246 433.499 58.9744 434.266 59.4219C435.033 59.8622 435.925 60.0824 436.94 60.0824C437.601 60.0824 438.197 59.9901 438.73 59.8054C439.27 59.6136 439.735 59.3295 440.126 58.9531C440.516 58.5696 440.818 58.0937 441.031 57.5256L443.46 58.2074C443.204 59.0312 442.775 59.7557 442.171 60.3807C441.567 60.9986 440.822 61.4815 439.934 61.8295C439.046 62.1705 438.048 62.3409 436.94 62.3409ZM459.131 49.3011L456.873 49.9403C456.731 49.5639 456.521 49.1982 456.244 48.843C455.974 48.4808 455.605 48.1825 455.136 47.9482C454.668 47.7138 454.067 47.5966 453.336 47.5966C452.334 47.5966 451.5 47.8274 450.832 48.2891C450.172 48.7436 449.842 49.3224 449.842 50.0256C449.842 50.6506 450.069 51.1442 450.523 51.5064C450.978 51.8686 451.688 52.1705 452.654 52.4119L455.083 53.0085C456.546 53.3636 457.636 53.907 458.354 54.6385C459.071 55.3629 459.43 56.2969 459.43 57.4403C459.43 58.3778 459.16 59.2159 458.62 59.9545C458.087 60.6932 457.342 61.2756 456.383 61.7017C455.424 62.1278 454.309 62.3409 453.038 62.3409C451.369 62.3409 449.987 61.9787 448.893 61.2543C447.8 60.5298 447.107 59.4716 446.816 58.0795L449.202 57.483C449.43 58.3636 449.859 59.0241 450.491 59.4645C451.131 59.9048 451.965 60.125 452.995 60.125C454.167 60.125 455.097 59.8764 455.786 59.3793C456.482 58.875 456.83 58.2713 456.83 57.5682C456.83 57 456.631 56.5241 456.234 56.1406C455.836 55.75 455.225 55.4588 454.401 55.267L451.674 54.6278C450.175 54.2727 449.074 53.7223 448.371 52.9766C447.675 52.2237 447.327 51.2827 447.327 50.1534C447.327 49.2301 447.587 48.4134 448.105 47.7031C448.631 46.9929 449.344 46.4354 450.246 46.0305C451.155 45.6257 452.185 45.4233 453.336 45.4233C454.955 45.4233 456.226 45.7784 457.15 46.4886C458.08 47.1989 458.741 48.1364 459.131 49.3011ZM474.805 49.3011L472.547 49.9403C472.405 49.5639 472.195 49.1982 471.918 48.843C471.648 48.4808 471.279 48.1825 470.81 47.9482C470.341 47.7138 469.741 47.5966 469.01 47.5966C468.008 47.5966 467.174 47.8274 466.506 48.2891C465.846 48.7436 465.515 49.3224 465.515 50.0256C465.515 50.6506 465.743 51.1442 466.197 51.5064C466.652 51.8686 467.362 52.1705 468.328 52.4119L470.757 53.0085C472.22 53.3636 473.31 53.907 474.027 54.6385C474.745 55.3629 475.103 56.2969 475.103 57.4403C475.103 58.3778 474.834 59.2159 474.294 59.9545C473.761 60.6932 473.015 61.2756 472.057 61.7017C471.098 62.1278 469.983 62.3409 468.711 62.3409C467.042 62.3409 465.661 61.9787 464.567 61.2543C463.473 60.5298 462.781 59.4716 462.49 58.0795L464.876 57.483C465.103 58.3636 465.533 59.0241 466.165 59.4645C466.804 59.9048 467.639 60.125 468.669 60.125C469.841 60.125 470.771 59.8764 471.46 59.3793C472.156 58.875 472.504 58.2713 472.504 57.5682C472.504 57 472.305 56.5241 471.907 56.1406C471.51 55.75 470.899 55.4588 470.075 55.267L467.348 54.6278C465.849 54.2727 464.748 53.7223 464.045 52.9766C463.349 52.2237 463.001 51.2827 463.001 50.1534C463.001 49.2301 463.26 48.4134 463.779 47.7031C464.304 46.9929 465.018 46.4354 465.92 46.0305C466.829 45.6257 467.859 45.4233 469.01 45.4233C470.629 45.4233 471.9 45.7784 472.824 46.4886C473.754 47.1989 474.415 48.1364 474.805 49.3011Z" fill="black"/>
<rect x="88.5" y="107.5" width="159" height="69" fill="white" stroke="black"/>
<path d="M152.65 138H150.361C150.225 137.341 149.988 136.763 149.65 136.264C149.317 135.766 148.911 135.347 148.431 135.009C147.957 134.664 147.431 134.405 146.852 134.233C146.273 134.061 145.67 133.974 145.042 133.974C143.897 133.974 142.86 134.264 141.931 134.842C141.008 135.421 140.272 136.273 139.724 137.4C139.183 138.526 138.912 139.908 138.912 141.545C138.912 143.183 139.183 144.565 139.724 145.691C140.272 146.817 141.008 147.67 141.931 148.249C142.86 148.827 143.897 149.116 145.042 149.116C145.67 149.116 146.273 149.03 146.852 148.858C147.431 148.686 147.957 148.43 148.431 148.092C148.911 147.747 149.317 147.325 149.65 146.827C149.988 146.322 150.225 145.743 150.361 145.091H152.65C152.478 146.057 152.164 146.922 151.709 147.685C151.253 148.449 150.687 149.098 150.01 149.634C149.333 150.163 148.572 150.566 147.729 150.843C146.892 151.12 145.996 151.259 145.042 151.259C143.43 151.259 141.995 150.865 140.74 150.077C139.484 149.289 138.496 148.169 137.776 146.716C137.056 145.263 136.696 143.54 136.696 141.545C136.696 139.551 137.056 137.828 137.776 136.375C138.496 134.922 139.484 133.802 140.74 133.014C141.995 132.226 143.43 131.832 145.042 131.832C145.996 131.832 146.892 131.971 147.729 132.248C148.572 132.525 149.333 132.931 150.01 133.467C150.687 133.996 151.253 134.642 151.709 135.406C152.164 136.163 152.478 137.027 152.65 138ZM161.816 151.295C160.536 151.295 159.413 150.991 158.446 150.381C157.486 149.772 156.735 148.92 156.193 147.824C155.658 146.728 155.39 145.448 155.39 143.983C155.39 142.506 155.658 141.216 156.193 140.114C156.735 139.013 157.486 138.157 158.446 137.548C159.413 136.938 160.536 136.634 161.816 136.634C163.097 136.634 164.217 136.938 165.177 137.548C166.144 138.157 166.894 139.013 167.43 140.114C167.972 141.216 168.242 142.506 168.242 143.983C168.242 145.448 167.972 146.728 167.43 147.824C166.894 148.92 166.144 149.772 165.177 150.381C164.217 150.991 163.097 151.295 161.816 151.295ZM161.816 149.338C162.789 149.338 163.589 149.089 164.217 148.59C164.845 148.092 165.309 147.436 165.611 146.624C165.913 145.811 166.063 144.931 166.063 143.983C166.063 143.035 165.913 142.152 165.611 141.333C165.309 140.514 164.845 139.853 164.217 139.348C163.589 138.843 162.789 138.591 161.816 138.591C160.844 138.591 160.044 138.843 159.416 139.348C158.788 139.853 158.323 140.514 158.022 141.333C157.72 142.152 157.569 143.035 157.569 143.983C157.569 144.931 157.72 145.811 158.022 146.624C158.323 147.436 158.788 148.092 159.416 148.59C160.044 149.089 160.844 149.338 161.816 149.338ZM176.924 151.295C175.742 151.295 174.699 150.997 173.794 150.4C172.889 149.797 172.181 148.947 171.67 147.852C171.159 146.75 170.904 145.448 170.904 143.946C170.904 142.456 171.159 141.164 171.67 140.068C172.181 138.973 172.892 138.126 173.803 137.529C174.714 136.932 175.767 136.634 176.961 136.634C177.884 136.634 178.613 136.787 179.149 137.095C179.691 137.397 180.103 137.741 180.386 138.129C180.675 138.511 180.9 138.825 181.06 139.071H181.245V132.091H183.424V151H181.319V148.821H181.06C180.9 149.08 180.672 149.406 180.377 149.8C180.081 150.187 179.66 150.535 179.112 150.843C178.564 151.145 177.835 151.295 176.924 151.295ZM177.219 149.338C178.093 149.338 178.832 149.11 179.435 148.655C180.038 148.193 180.497 147.556 180.811 146.744C181.125 145.925 181.282 144.98 181.282 143.909C181.282 142.85 181.128 141.924 180.82 141.13C180.512 140.33 180.057 139.708 179.454 139.265C178.85 138.816 178.106 138.591 177.219 138.591C176.296 138.591 175.526 138.828 174.911 139.302C174.302 139.77 173.843 140.407 173.535 141.213C173.234 142.013 173.083 142.912 173.083 143.909C173.083 144.919 173.237 145.836 173.544 146.661C173.858 147.479 174.32 148.132 174.929 148.618C175.545 149.098 176.308 149.338 177.219 149.338ZM193.663 151.295C192.297 151.295 191.118 150.994 190.127 150.391C189.142 149.781 188.382 148.932 187.846 147.842C187.317 146.747 187.052 145.473 187.052 144.02C187.052 142.567 187.317 141.287 187.846 140.179C188.382 139.065 189.127 138.197 190.081 137.575C191.041 136.947 192.161 136.634 193.442 136.634C194.18 136.634 194.91 136.757 195.63 137.003C196.35 137.249 197.005 137.649 197.596 138.203C198.187 138.751 198.658 139.477 199.009 140.382C199.36 141.287 199.535 142.401 199.535 143.724V144.648H188.603V142.764H197.319C197.319 141.964 197.159 141.25 196.839 140.622C196.525 139.994 196.076 139.499 195.491 139.136C194.913 138.772 194.229 138.591 193.442 138.591C192.574 138.591 191.823 138.806 191.189 139.237C190.561 139.662 190.078 140.216 189.739 140.899C189.401 141.582 189.231 142.315 189.231 143.097V144.352C189.231 145.423 189.416 146.331 189.785 147.076C190.161 147.815 190.681 148.378 191.346 148.766C192.01 149.147 192.783 149.338 193.663 149.338C194.236 149.338 194.753 149.258 195.214 149.098C195.682 148.932 196.085 148.686 196.424 148.359C196.762 148.027 197.024 147.615 197.209 147.122L199.314 147.713C199.092 148.427 198.72 149.055 198.196 149.597C197.673 150.132 197.027 150.551 196.258 150.852C195.488 151.148 194.623 151.295 193.663 151.295Z" fill="black"/>
<rect x="340.5" y="107.5" width="159" height="69" fill="white" stroke="black"/>
<path d="M389.853 151V132.091H392.143V140.511H402.226V132.091H404.515V151H402.226V142.543H392.143V151H389.853ZM414.75 151.295C413.384 151.295 412.205 150.994 411.214 150.391C410.229 149.781 409.469 148.932 408.933 147.842C408.404 146.747 408.139 145.473 408.139 144.02C408.139 142.567 408.404 141.287 408.933 140.179C409.469 139.065 410.214 138.197 411.168 137.575C412.128 136.947 413.248 136.634 414.528 136.634C415.267 136.634 415.996 136.757 416.717 137.003C417.437 137.249 418.092 137.649 418.683 138.203C419.274 138.751 419.745 139.477 420.096 140.382C420.447 141.287 420.622 142.401 420.622 143.724V144.648H409.69V142.764H418.406C418.406 141.964 418.246 141.25 417.926 140.622C417.612 139.994 417.163 139.499 416.578 139.136C416 138.772 415.316 138.591 414.528 138.591C413.661 138.591 412.91 138.806 412.276 139.237C411.648 139.662 411.165 140.216 410.826 140.899C410.487 141.582 410.318 142.315 410.318 143.097V144.352C410.318 145.423 410.503 146.331 410.872 147.076C411.248 147.815 411.768 148.378 412.433 148.766C413.097 149.147 413.87 149.338 414.75 149.338C415.322 149.338 415.839 149.258 416.301 149.098C416.769 148.932 417.172 148.686 417.511 148.359C417.849 148.027 418.111 147.615 418.295 147.122L420.401 147.713C420.179 148.427 419.807 149.055 419.283 149.597C418.76 150.132 418.114 150.551 417.344 150.852C416.575 151.148 415.71 151.295 414.75 151.295ZM428.11 151.332C427.211 151.332 426.396 151.163 425.663 150.825C424.931 150.48 424.349 149.984 423.918 149.338C423.487 148.686 423.272 147.898 423.272 146.974C423.272 146.162 423.432 145.503 423.752 144.999C424.072 144.488 424.5 144.088 425.036 143.798C425.571 143.509 426.162 143.294 426.808 143.152C427.461 143.004 428.116 142.887 428.775 142.801C429.637 142.69 430.335 142.607 430.871 142.552C431.412 142.49 431.806 142.389 432.053 142.247C432.305 142.106 432.431 141.859 432.431 141.509V141.435C432.431 140.524 432.182 139.816 431.683 139.311C431.191 138.806 430.443 138.554 429.44 138.554C428.399 138.554 427.584 138.782 426.993 139.237C426.402 139.693 425.987 140.179 425.746 140.696L423.678 139.957C424.048 139.096 424.54 138.425 425.156 137.945C425.777 137.458 426.454 137.12 427.187 136.929C427.925 136.732 428.652 136.634 429.366 136.634C429.821 136.634 430.344 136.689 430.935 136.8C431.532 136.904 432.108 137.123 432.662 137.455C433.222 137.788 433.687 138.289 434.056 138.96C434.425 139.631 434.61 140.53 434.61 141.656V151H432.431V149.08H432.32C432.173 149.387 431.926 149.717 431.582 150.067C431.237 150.418 430.778 150.717 430.206 150.963C429.634 151.209 428.935 151.332 428.11 151.332ZM428.442 149.375C429.304 149.375 430.031 149.206 430.621 148.867C431.219 148.529 431.668 148.092 431.969 147.556C432.277 147.021 432.431 146.457 432.431 145.866V143.872C432.339 143.983 432.136 144.085 431.822 144.177C431.514 144.263 431.157 144.34 430.751 144.408C430.351 144.469 429.96 144.525 429.578 144.574C429.203 144.617 428.898 144.654 428.664 144.685C428.098 144.759 427.568 144.879 427.076 145.045C426.59 145.205 426.196 145.448 425.894 145.774C425.599 146.094 425.451 146.531 425.451 147.085C425.451 147.842 425.731 148.415 426.291 148.803C426.857 149.184 427.575 149.375 428.442 149.375ZM438.587 156.318V136.818H440.692V139.071H440.951C441.111 138.825 441.332 138.511 441.616 138.129C441.905 137.741 442.317 137.397 442.853 137.095C443.394 136.787 444.127 136.634 445.05 136.634C446.244 136.634 447.297 136.932 448.208 137.529C449.119 138.126 449.83 138.973 450.341 140.068C450.852 141.164 451.107 142.456 451.107 143.946C451.107 145.448 450.852 146.75 450.341 147.852C449.83 148.947 449.122 149.797 448.217 150.4C447.312 150.997 446.269 151.295 445.087 151.295C444.176 151.295 443.447 151.145 442.899 150.843C442.351 150.535 441.93 150.187 441.634 149.8C441.339 149.406 441.111 149.08 440.951 148.821H440.766V156.318H438.587ZM440.729 143.909C440.729 144.98 440.886 145.925 441.2 146.744C441.514 147.556 441.973 148.193 442.576 148.655C443.179 149.11 443.918 149.338 444.792 149.338C445.703 149.338 446.463 149.098 447.072 148.618C447.688 148.132 448.149 147.479 448.457 146.661C448.771 145.836 448.928 144.919 448.928 143.909C448.928 142.912 448.774 142.013 448.466 141.213C448.165 140.407 447.706 139.77 447.091 139.302C446.481 138.828 445.715 138.591 444.792 138.591C443.905 138.591 443.161 138.816 442.557 139.265C441.954 139.708 441.499 140.33 441.191 141.13C440.883 141.924 440.729 142.85 440.729 143.909Z" fill="black"/>
<rect x="592.5" y="107.5" width="159" height="69" fill="white" stroke="black"/>
<path d="M651.408 151H645.573V132.091H651.667C653.501 132.091 655.071 132.469 656.376 133.227C657.681 133.978 658.681 135.058 659.376 136.467C660.072 137.871 660.42 139.551 660.42 141.509C660.42 143.478 660.069 145.174 659.367 146.596C658.665 148.012 657.644 149.101 656.302 149.864C654.96 150.621 653.329 151 651.408 151ZM647.863 148.969H651.261C652.824 148.969 654.12 148.667 655.148 148.064C656.176 147.461 656.942 146.602 657.447 145.488C657.951 144.374 658.204 143.047 658.204 141.509C658.204 139.982 657.954 138.668 657.456 137.566C656.957 136.458 656.213 135.609 655.222 135.018C654.231 134.421 652.996 134.122 651.519 134.122H647.863V148.969ZM668.138 151.332C667.24 151.332 666.424 151.163 665.692 150.825C664.959 150.48 664.378 149.984 663.947 149.338C663.516 148.686 663.3 147.898 663.3 146.974C663.3 146.162 663.46 145.503 663.78 144.999C664.101 144.488 664.528 144.088 665.064 143.798C665.599 143.509 666.19 143.294 666.837 143.152C667.489 143.004 668.145 142.887 668.803 142.801C669.665 142.69 670.364 142.607 670.899 142.552C671.441 142.49 671.835 142.389 672.081 142.247C672.333 142.106 672.459 141.859 672.459 141.509V141.435C672.459 140.524 672.21 139.816 671.712 139.311C671.219 138.806 670.471 138.554 669.468 138.554C668.428 138.554 667.612 138.782 667.021 139.237C666.43 139.693 666.015 140.179 665.775 140.696L663.707 139.957C664.076 139.096 664.568 138.425 665.184 137.945C665.806 137.458 666.483 137.12 667.215 136.929C667.954 136.732 668.68 136.634 669.394 136.634C669.85 136.634 670.373 136.689 670.964 136.8C671.561 136.904 672.136 137.123 672.69 137.455C673.25 137.788 673.715 138.289 674.084 138.96C674.454 139.631 674.638 140.53 674.638 141.656V151H672.459V149.08H672.349C672.201 149.387 671.955 149.717 671.61 150.067C671.265 150.418 670.807 150.717 670.234 150.963C669.662 151.209 668.963 151.332 668.138 151.332ZM668.471 149.375C669.333 149.375 670.059 149.206 670.65 148.867C671.247 148.529 671.696 148.092 671.998 147.556C672.306 147.021 672.459 146.457 672.459 145.866V143.872C672.367 143.983 672.164 144.085 671.85 144.177C671.542 144.263 671.185 144.34 670.779 144.408C670.379 144.469 669.988 144.525 669.606 144.574C669.231 144.617 668.926 144.654 668.692 144.685C668.126 144.759 667.597 144.879 667.104 145.045C666.618 145.205 666.224 145.448 665.923 145.774C665.627 146.094 665.479 146.531 665.479 147.085C665.479 147.842 665.759 148.415 666.32 148.803C666.886 149.184 667.603 149.375 668.471 149.375ZM684.783 136.818V138.665H677.434V136.818H684.783ZM679.576 133.42H681.755V146.938C681.755 147.553 681.844 148.015 682.022 148.322C682.207 148.624 682.441 148.827 682.724 148.932C683.013 149.03 683.318 149.08 683.638 149.08C683.878 149.08 684.075 149.067 684.229 149.043C684.383 149.012 684.506 148.987 684.598 148.969L685.042 150.926C684.894 150.982 684.688 151.037 684.423 151.092C684.158 151.154 683.823 151.185 683.417 151.185C682.801 151.185 682.198 151.052 681.607 150.788C681.022 150.523 680.536 150.12 680.148 149.578C679.767 149.036 679.576 148.353 679.576 147.528V133.42ZM692.234 151.332C691.335 151.332 690.52 151.163 689.787 150.825C689.055 150.48 688.473 149.984 688.042 149.338C687.611 148.686 687.396 147.898 687.396 146.974C687.396 146.162 687.556 145.503 687.876 144.999C688.196 144.488 688.624 144.088 689.16 143.798C689.695 143.509 690.286 143.294 690.932 143.152C691.585 143.004 692.24 142.887 692.899 142.801C693.761 142.69 694.459 142.607 694.995 142.552C695.536 142.49 695.93 142.389 696.177 142.247C696.429 142.106 696.555 141.859 696.555 141.509V141.435C696.555 140.524 696.306 139.816 695.807 139.311C695.315 138.806 694.567 138.554 693.564 138.554C692.523 138.554 691.708 138.782 691.117 139.237C690.526 139.693 690.111 140.179 689.87 140.696L687.802 139.957C688.172 139.096 688.664 138.425 689.28 137.945C689.901 137.458 690.578 137.12 691.311 136.929C692.049 136.732 692.776 136.634 693.49 136.634C693.945 136.634 694.468 136.689 695.059 136.8C695.656 136.904 696.232 137.123 696.786 137.455C697.346 137.788 697.811 138.289 698.18 138.96C698.549 139.631 698.734 140.53 698.734 141.656V151H696.555V149.08H696.444C696.297 149.387 696.05 149.717 695.706 150.067C695.361 150.418 694.902 150.717 694.33 150.963C693.758 151.209 693.059 151.332 692.234 151.332ZM692.567 149.375C693.428 149.375 694.155 149.206 694.745 148.867C695.343 148.529 695.792 148.092 696.093 147.556C696.401 147.021 696.555 146.457 696.555 145.866V143.872C696.463 143.983 696.26 144.085 695.946 144.177C695.638 144.263 695.281 144.34 694.875 144.408C694.475 144.469 694.084 144.525 693.702 144.574C693.327 144.617 693.022 144.654 692.788 144.685C692.222 144.759 691.692 144.879 691.2 145.045C690.714 145.205 690.32 145.448 690.018 145.774C689.723 146.094 689.575 146.531 689.575 147.085C689.575 147.842 689.855 148.415 690.415 148.803C690.982 149.184 691.699 149.375 692.567 149.375Z" fill="black"/>
<rect x="153.5" y="247.5" width="227" height="139" fill="white" stroke="black"/>
<path d="M214.948 276.122V274.091H229.13V276.122H223.184V293H220.894V276.122H214.948ZM234.547 284.469V293H232.368V274.091H234.547V281.034H234.732C235.064 280.302 235.563 279.72 236.228 279.289C236.899 278.852 237.791 278.634 238.905 278.634C239.872 278.634 240.718 278.827 241.444 279.215C242.171 279.597 242.734 280.185 243.134 280.979C243.54 281.767 243.743 282.77 243.743 283.989V293H241.564V284.136C241.564 283.01 241.272 282.139 240.687 281.523C240.109 280.902 239.305 280.591 238.277 280.591C237.563 280.591 236.923 280.742 236.357 281.043C235.797 281.345 235.354 281.785 235.027 282.364C234.707 282.942 234.547 283.644 234.547 284.469ZM247.73 293V278.818H249.835V280.96H249.983C250.241 280.259 250.709 279.689 251.386 279.252C252.063 278.815 252.826 278.597 253.676 278.597C253.836 278.597 254.036 278.6 254.276 278.606C254.516 278.612 254.697 278.621 254.821 278.634V280.849C254.747 280.831 254.577 280.803 254.313 280.766C254.054 280.723 253.78 280.702 253.491 280.702C252.802 280.702 252.186 280.846 251.644 281.136C251.109 281.419 250.684 281.813 250.37 282.317C250.063 282.816 249.909 283.385 249.909 284.026V293H247.73ZM262.918 293.295C261.551 293.295 260.373 292.994 259.382 292.391C258.397 291.781 257.637 290.932 257.101 289.842C256.572 288.747 256.307 287.473 256.307 286.02C256.307 284.567 256.572 283.287 257.101 282.179C257.637 281.065 258.381 280.197 259.335 279.575C260.296 278.947 261.416 278.634 262.696 278.634C263.435 278.634 264.164 278.757 264.884 279.003C265.605 279.249 266.26 279.649 266.851 280.203C267.442 280.751 267.913 281.477 268.264 282.382C268.615 283.287 268.79 284.401 268.79 285.724V286.648H257.858V284.764H266.574C266.574 283.964 266.414 283.25 266.094 282.622C265.78 281.994 265.331 281.499 264.746 281.136C264.167 280.772 263.484 280.591 262.696 280.591C261.828 280.591 261.077 280.806 260.443 281.237C259.816 281.662 259.332 282.216 258.994 282.899C258.655 283.582 258.486 284.315 258.486 285.097V286.352C258.486 287.423 258.671 288.331 259.04 289.076C259.416 289.815 259.936 290.378 260.6 290.766C261.265 291.147 262.038 291.338 262.918 291.338C263.49 291.338 264.007 291.258 264.469 291.098C264.937 290.932 265.34 290.686 265.679 290.359C266.017 290.027 266.279 289.615 266.463 289.122L268.568 289.713C268.347 290.427 267.974 291.055 267.451 291.597C266.928 292.132 266.282 292.551 265.512 292.852C264.743 293.148 263.878 293.295 262.918 293.295ZM276.278 293.332C275.379 293.332 274.564 293.163 273.831 292.825C273.099 292.48 272.517 291.984 272.086 291.338C271.655 290.686 271.44 289.898 271.44 288.974C271.44 288.162 271.6 287.503 271.92 286.999C272.24 286.488 272.668 286.088 273.203 285.798C273.739 285.509 274.33 285.294 274.976 285.152C275.629 285.004 276.284 284.887 276.943 284.801C277.804 284.69 278.503 284.607 279.039 284.552C279.58 284.49 279.974 284.389 280.22 284.247C280.473 284.106 280.599 283.859 280.599 283.509V283.435C280.599 282.524 280.35 281.816 279.851 281.311C279.359 280.806 278.611 280.554 277.608 280.554C276.567 280.554 275.752 280.782 275.161 281.237C274.57 281.693 274.154 282.179 273.914 282.696L271.846 281.957C272.215 281.096 272.708 280.425 273.323 279.945C273.945 279.458 274.622 279.12 275.355 278.929C276.093 278.732 276.82 278.634 277.534 278.634C277.989 278.634 278.512 278.689 279.103 278.8C279.7 278.904 280.276 279.123 280.83 279.455C281.39 279.788 281.855 280.289 282.224 280.96C282.593 281.631 282.778 282.53 282.778 283.656V293H280.599V291.08H280.488C280.34 291.387 280.094 291.717 279.75 292.067C279.405 292.418 278.946 292.717 278.374 292.963C277.801 293.209 277.103 293.332 276.278 293.332ZM276.61 291.375C277.472 291.375 278.198 291.206 278.789 290.867C279.386 290.529 279.836 290.092 280.137 289.556C280.445 289.021 280.599 288.457 280.599 287.866V285.872C280.507 285.983 280.304 286.085 279.99 286.177C279.682 286.263 279.325 286.34 278.919 286.408C278.518 286.469 278.128 286.525 277.746 286.574C277.371 286.617 277.066 286.654 276.832 286.685C276.266 286.759 275.736 286.879 275.244 287.045C274.758 287.205 274.364 287.448 274.062 287.774C273.767 288.094 273.619 288.531 273.619 289.085C273.619 289.842 273.899 290.415 274.459 290.803C275.025 291.184 275.742 291.375 276.61 291.375ZM292.11 293.295C290.928 293.295 289.885 292.997 288.98 292.4C288.075 291.797 287.368 290.947 286.857 289.852C286.346 288.75 286.09 287.448 286.09 285.946C286.09 284.456 286.346 283.164 286.857 282.068C287.368 280.973 288.078 280.126 288.989 279.529C289.9 278.932 290.953 278.634 292.147 278.634C293.07 278.634 293.8 278.787 294.335 279.095C294.877 279.397 295.289 279.741 295.573 280.129C295.862 280.511 296.087 280.825 296.247 281.071H296.431V274.091H298.61V293H296.505V290.821H296.247C296.087 291.08 295.859 291.406 295.563 291.8C295.268 292.187 294.846 292.535 294.298 292.843C293.751 293.145 293.021 293.295 292.11 293.295ZM292.406 291.338C293.28 291.338 294.018 291.11 294.622 290.655C295.225 290.193 295.683 289.556 295.997 288.744C296.311 287.925 296.468 286.98 296.468 285.909C296.468 284.85 296.314 283.924 296.006 283.13C295.699 282.33 295.243 281.708 294.64 281.265C294.037 280.816 293.292 280.591 292.406 280.591C291.482 280.591 290.713 280.828 290.097 281.302C289.488 281.77 289.029 282.407 288.722 283.213C288.42 284.013 288.269 284.912 288.269 285.909C288.269 286.919 288.423 287.836 288.731 288.661C289.045 289.479 289.506 290.132 290.116 290.618C290.731 291.098 291.495 291.338 292.406 291.338ZM316.827 274.091V293H314.537V276.491H314.426L309.81 279.557V277.23L314.537 274.091H316.827Z" fill="black"/>
<rect x="202.5" y="320.5" width="129" height="39" fill="white" stroke="black"/>
<path d="M244.96 334.661C244.849 333.726 244.4 332.999 243.612 332.482C242.824 331.965 241.857 331.707 240.713 331.707C239.875 331.707 239.143 331.842 238.515 332.113C237.893 332.384 237.407 332.756 237.056 333.23C236.712 333.704 236.539 334.243 236.539 334.846C236.539 335.351 236.659 335.785 236.899 336.148C237.146 336.505 237.459 336.803 237.841 337.043C238.223 337.277 238.623 337.471 239.041 337.625C239.46 337.773 239.845 337.893 240.195 337.985L242.116 338.502C242.608 338.631 243.156 338.81 243.759 339.038C244.369 339.265 244.95 339.576 245.504 339.97C246.065 340.358 246.526 340.857 246.889 341.466C247.253 342.075 247.434 342.823 247.434 343.71C247.434 344.731 247.166 345.655 246.631 346.48C246.102 347.304 245.326 347.96 244.304 348.446C243.289 348.932 242.054 349.176 240.602 349.176C239.248 349.176 238.075 348.957 237.084 348.52C236.099 348.083 235.324 347.474 234.757 346.692C234.197 345.91 233.88 345.002 233.806 343.968H236.17C236.231 344.682 236.472 345.273 236.89 345.741C237.315 346.203 237.85 346.547 238.497 346.775C239.149 346.997 239.851 347.107 240.602 347.107C241.476 347.107 242.261 346.966 242.956 346.683C243.652 346.393 244.203 345.993 244.609 345.482C245.015 344.965 245.218 344.362 245.218 343.673C245.218 343.045 245.043 342.534 244.692 342.14C244.341 341.746 243.879 341.426 243.307 341.18C242.735 340.934 242.116 340.718 241.451 340.533L239.124 339.869C237.647 339.444 236.478 338.838 235.616 338.05C234.754 337.262 234.323 336.231 234.323 334.957C234.323 333.898 234.61 332.975 235.182 332.187C235.761 331.393 236.536 330.777 237.509 330.34C238.487 329.897 239.58 329.676 240.786 329.676C242.005 329.676 243.088 329.894 244.036 330.331C244.984 330.762 245.735 331.353 246.289 332.104C246.849 332.855 247.145 333.707 247.176 334.661H244.96ZM257.071 334.661V336.508H249.722V334.661H257.071ZM251.864 331.264H254.043V344.781C254.043 345.396 254.132 345.858 254.31 346.166C254.495 346.467 254.729 346.67 255.012 346.775C255.301 346.873 255.606 346.923 255.926 346.923C256.166 346.923 256.363 346.91 256.517 346.886C256.671 346.855 256.794 346.83 256.886 346.812L257.33 348.769C257.182 348.825 256.976 348.88 256.711 348.935C256.446 348.997 256.111 349.028 255.705 349.028C255.089 349.028 254.486 348.895 253.895 348.631C253.31 348.366 252.824 347.963 252.436 347.421C252.054 346.88 251.864 346.196 251.864 345.372V331.264ZM264.522 349.176C263.623 349.176 262.808 349.006 262.075 348.668C261.343 348.323 260.761 347.828 260.33 347.181C259.899 346.529 259.684 345.741 259.684 344.818C259.684 344.005 259.844 343.346 260.164 342.842C260.484 342.331 260.912 341.931 261.447 341.641C261.983 341.352 262.574 341.137 263.22 340.995C263.873 340.847 264.528 340.73 265.187 340.644C266.049 340.533 266.747 340.45 267.283 340.395C267.824 340.333 268.218 340.232 268.464 340.09C268.717 339.949 268.843 339.703 268.843 339.352V339.278C268.843 338.367 268.594 337.659 268.095 337.154C267.603 336.649 266.855 336.397 265.852 336.397C264.811 336.397 263.996 336.625 263.405 337.08C262.814 337.536 262.398 338.022 262.158 338.539L260.09 337.801C260.46 336.939 260.952 336.268 261.567 335.788C262.189 335.301 262.866 334.963 263.599 334.772C264.337 334.575 265.064 334.477 265.778 334.477C266.233 334.477 266.756 334.532 267.347 334.643C267.944 334.747 268.52 334.966 269.074 335.298C269.634 335.631 270.099 336.132 270.468 336.803C270.837 337.474 271.022 338.373 271.022 339.499V348.843H268.843V346.923H268.732C268.585 347.23 268.338 347.56 267.994 347.911C267.649 348.261 267.19 348.56 266.618 348.806C266.045 349.052 265.347 349.176 264.522 349.176ZM264.854 347.218C265.716 347.218 266.442 347.049 267.033 346.71C267.63 346.372 268.08 345.935 268.381 345.399C268.689 344.864 268.843 344.301 268.843 343.71V341.715C268.751 341.826 268.548 341.928 268.234 342.02C267.926 342.106 267.569 342.183 267.163 342.251C266.763 342.312 266.372 342.368 265.99 342.417C265.615 342.46 265.31 342.497 265.076 342.528C264.51 342.602 263.98 342.722 263.488 342.888C263.002 343.048 262.608 343.291 262.306 343.617C262.011 343.937 261.863 344.374 261.863 344.928C261.863 345.685 262.143 346.258 262.703 346.646C263.269 347.027 263.987 347.218 264.854 347.218ZM280.76 349.139C279.431 349.139 278.286 348.825 277.326 348.197C276.366 347.569 275.627 346.704 275.11 345.602C274.593 344.501 274.334 343.242 274.334 341.826C274.334 340.386 274.599 339.115 275.128 338.013C275.664 336.905 276.409 336.04 277.363 335.418C278.323 334.791 279.443 334.477 280.724 334.477C281.721 334.477 282.619 334.661 283.42 335.031C284.22 335.4 284.875 335.917 285.386 336.582C285.897 337.247 286.214 338.022 286.337 338.908H284.158C283.992 338.262 283.623 337.69 283.05 337.191C282.484 336.686 281.721 336.434 280.76 336.434C279.911 336.434 279.166 336.656 278.526 337.099C277.892 337.536 277.397 338.154 277.04 338.955C276.689 339.749 276.513 340.681 276.513 341.752C276.513 342.848 276.686 343.802 277.03 344.614C277.381 345.427 277.874 346.058 278.508 346.507C279.148 346.957 279.899 347.181 280.76 347.181C281.327 347.181 281.841 347.083 282.302 346.886C282.764 346.689 283.155 346.406 283.475 346.036C283.795 345.667 284.023 345.224 284.158 344.707H286.337C286.214 345.544 285.909 346.298 285.423 346.969C284.943 347.634 284.306 348.163 283.512 348.557C282.724 348.945 281.807 349.139 280.76 349.139ZM291.554 343.673L291.517 340.977H291.96L298.165 334.661H300.861L294.25 341.346H294.065L291.554 343.673ZM289.523 348.843V329.934H291.702V348.843H289.523ZM298.534 348.843L292.994 341.826L294.545 340.312L301.304 348.843H298.534Z" fill="black"/>
<rect x="458.5" y="247.5" width="227" height="139" fill="white" stroke="black"/>
<path d="M518.12 276.122V274.091H532.302V276.122H526.356V293H524.066V276.122H518.12ZM537.719 284.469V293H535.54V274.091H537.719V281.034H537.904C538.236 280.302 538.735 279.72 539.4 279.289C540.071 278.852 540.963 278.634 542.077 278.634C543.044 278.634 543.89 278.827 544.616 279.215C545.343 279.597 545.906 280.185 546.306 280.979C546.712 281.767 546.915 282.77 546.915 283.989V293H544.736V284.136C544.736 283.01 544.444 282.139 543.859 281.523C543.281 280.902 542.477 280.591 541.449 280.591C540.735 280.591 540.095 280.742 539.529 281.043C538.969 281.345 538.526 281.785 538.199 282.364C537.879 282.942 537.719 283.644 537.719 284.469ZM550.902 293V278.818H553.007V280.96H553.154C553.413 280.259 553.881 279.689 554.558 279.252C555.235 278.815 555.998 278.597 556.848 278.597C557.008 278.597 557.208 278.6 557.448 278.606C557.688 278.612 557.869 278.621 557.992 278.634V280.849C557.919 280.831 557.749 280.803 557.485 280.766C557.226 280.723 556.952 280.702 556.663 280.702C555.974 280.702 555.358 280.846 554.816 281.136C554.281 281.419 553.856 281.813 553.542 282.317C553.234 282.816 553.081 283.385 553.081 284.026V293H550.902ZM566.09 293.295C564.723 293.295 563.545 292.994 562.554 292.391C561.569 291.781 560.809 290.932 560.273 289.842C559.744 288.747 559.479 287.473 559.479 286.02C559.479 284.567 559.744 283.287 560.273 282.179C560.809 281.065 561.553 280.197 562.507 279.575C563.468 278.947 564.588 278.634 565.868 278.634C566.607 278.634 567.336 278.757 568.056 279.003C568.777 279.249 569.432 279.649 570.023 280.203C570.614 280.751 571.085 281.477 571.436 282.382C571.786 283.287 571.962 284.401 571.962 285.724V286.648H561.03V284.764H569.746C569.746 283.964 569.586 283.25 569.266 282.622C568.952 281.994 568.503 281.499 567.918 281.136C567.339 280.772 566.656 280.591 565.868 280.591C565 280.591 564.249 280.806 563.615 281.237C562.987 281.662 562.504 282.216 562.166 282.899C561.827 283.582 561.658 284.315 561.658 285.097V286.352C561.658 287.423 561.843 288.331 562.212 289.076C562.587 289.815 563.108 290.378 563.772 290.766C564.437 291.147 565.21 291.338 566.09 291.338C566.662 291.338 567.179 291.258 567.641 291.098C568.109 290.932 568.512 290.686 568.85 290.359C569.189 290.027 569.451 289.615 569.635 289.122L571.74 289.713C571.519 290.427 571.146 291.055 570.623 291.597C570.1 292.132 569.454 292.551 568.684 292.852C567.915 293.148 567.05 293.295 566.09 293.295ZM579.45 293.332C578.551 293.332 577.736 293.163 577.003 292.825C576.271 292.48 575.689 291.984 575.258 291.338C574.827 290.686 574.612 289.898 574.612 288.974C574.612 288.162 574.772 287.503 575.092 286.999C575.412 286.488 575.84 286.088 576.375 285.798C576.911 285.509 577.502 285.294 578.148 285.152C578.8 285.004 579.456 284.887 580.115 284.801C580.976 284.69 581.675 284.607 582.21 284.552C582.752 284.49 583.146 284.389 583.392 284.247C583.645 284.106 583.771 283.859 583.771 283.509V283.435C583.771 282.524 583.522 281.816 583.023 281.311C582.531 280.806 581.783 280.554 580.779 280.554C579.739 280.554 578.924 280.782 578.333 281.237C577.742 281.693 577.326 282.179 577.086 282.696L575.018 281.957C575.387 281.096 575.88 280.425 576.495 279.945C577.117 279.458 577.794 279.12 578.527 278.929C579.265 278.732 579.992 278.634 580.706 278.634C581.161 278.634 581.684 278.689 582.275 278.8C582.872 278.904 583.448 279.123 584.002 279.455C584.562 279.788 585.027 280.289 585.396 280.96C585.765 281.631 585.95 282.53 585.95 283.656V293H583.771V291.08H583.66C583.512 291.387 583.266 291.717 582.921 292.067C582.577 292.418 582.118 292.717 581.546 292.963C580.973 293.209 580.275 293.332 579.45 293.332ZM579.782 291.375C580.644 291.375 581.37 291.206 581.961 290.867C582.558 290.529 583.008 290.092 583.309 289.556C583.617 289.021 583.771 288.457 583.771 287.866V285.872C583.679 285.983 583.475 286.085 583.161 286.177C582.854 286.263 582.497 286.34 582.09 286.408C581.69 286.469 581.3 286.525 580.918 286.574C580.542 286.617 580.238 286.654 580.004 286.685C579.438 286.759 578.908 286.879 578.416 287.045C577.929 287.205 577.536 287.448 577.234 287.774C576.938 288.094 576.791 288.531 576.791 289.085C576.791 289.842 577.071 290.415 577.631 290.803C578.197 291.184 578.914 291.375 579.782 291.375ZM595.282 293.295C594.1 293.295 593.057 292.997 592.152 292.4C591.247 291.797 590.539 290.947 590.028 289.852C589.518 288.75 589.262 287.448 589.262 285.946C589.262 284.456 589.518 283.164 590.028 282.068C590.539 280.973 591.25 280.126 592.161 279.529C593.072 278.932 594.125 278.634 595.319 278.634C596.242 278.634 596.972 278.787 597.507 279.095C598.049 279.397 598.461 279.741 598.744 280.129C599.034 280.511 599.258 280.825 599.418 281.071H599.603V274.091H601.782V293H599.677V290.821H599.418C599.258 291.08 599.031 291.406 598.735 291.8C598.44 292.187 598.018 292.535 597.47 292.843C596.922 293.145 596.193 293.295 595.282 293.295ZM595.578 291.338C596.452 291.338 597.19 291.11 597.793 290.655C598.397 290.193 598.855 289.556 599.169 288.744C599.483 287.925 599.64 286.98 599.64 285.909C599.64 284.85 599.486 283.924 599.178 283.13C598.871 282.33 598.415 281.708 597.812 281.265C597.209 280.816 596.464 280.591 595.578 280.591C594.654 280.591 593.885 280.828 593.269 281.302C592.66 281.77 592.201 282.407 591.894 283.213C591.592 284.013 591.441 284.912 591.441 285.909C591.441 286.919 591.595 287.836 591.903 288.661C592.217 289.479 592.678 290.132 593.288 290.618C593.903 291.098 594.667 291.338 595.578 291.338ZM613.351 293V291.338L619.592 284.506C620.325 283.705 620.928 283.01 621.402 282.419C621.876 281.822 622.227 281.262 622.455 280.739C622.689 280.209 622.805 279.655 622.805 279.077C622.805 278.412 622.645 277.836 622.325 277.35C622.011 276.864 621.581 276.488 621.033 276.224C620.485 275.959 619.869 275.827 619.186 275.827C618.46 275.827 617.826 275.978 617.284 276.279C616.749 276.575 616.333 276.99 616.038 277.526C615.748 278.061 615.604 278.689 615.604 279.409H613.425C613.425 278.301 613.68 277.329 614.191 276.491C614.702 275.654 615.398 275.002 616.278 274.534C617.164 274.066 618.158 273.832 619.26 273.832C620.368 273.832 621.35 274.066 622.205 274.534C623.061 275.002 623.732 275.633 624.218 276.427C624.704 277.221 624.948 278.104 624.948 279.077C624.948 279.772 624.821 280.452 624.569 281.117C624.323 281.776 623.892 282.511 623.276 283.324C622.667 284.13 621.821 285.115 620.737 286.278L616.49 290.821V290.969H625.28V293H613.351Z" fill="black"/>
<rect x="507.5" y="320.5" width="129" height="39" fill="white" stroke="black"/>
<path d="M549.96 334.661C549.849 333.726 549.4 332.999 548.612 332.482C547.824 331.965 546.857 331.707 545.713 331.707C544.875 331.707 544.143 331.842 543.515 332.113C542.893 332.384 542.407 332.756 542.056 333.23C541.712 333.704 541.539 334.243 541.539 334.846C541.539 335.351 541.659 335.785 541.899 336.148C542.146 336.505 542.459 336.803 542.841 337.043C543.223 337.277 543.623 337.471 544.041 337.625C544.46 337.773 544.845 337.893 545.195 337.985L547.116 338.502C547.608 338.631 548.156 338.81 548.759 339.038C549.369 339.265 549.95 339.576 550.504 339.97C551.065 340.358 551.526 340.857 551.889 341.466C552.253 342.075 552.434 342.823 552.434 343.71C552.434 344.731 552.166 345.655 551.631 346.48C551.102 347.304 550.326 347.96 549.304 348.446C548.289 348.932 547.054 349.176 545.602 349.176C544.248 349.176 543.075 348.957 542.084 348.52C541.099 348.083 540.324 347.474 539.757 346.692C539.197 345.91 538.88 345.002 538.806 343.968H541.17C541.231 344.682 541.472 345.273 541.89 345.741C542.315 346.203 542.85 346.547 543.497 346.775C544.149 346.997 544.851 347.107 545.602 347.107C546.476 347.107 547.261 346.966 547.956 346.683C548.652 346.393 549.203 345.993 549.609 345.482C550.015 344.965 550.218 344.362 550.218 343.673C550.218 343.045 550.043 342.534 549.692 342.14C549.341 341.746 548.879 341.426 548.307 341.18C547.735 340.934 547.116 340.718 546.451 340.533L544.124 339.869C542.647 339.444 541.478 338.838 540.616 338.05C539.754 337.262 539.323 336.231 539.323 334.957C539.323 333.898 539.61 332.975 540.182 332.187C540.761 331.393 541.536 330.777 542.509 330.34C543.487 329.897 544.58 329.676 545.786 329.676C547.005 329.676 548.088 329.894 549.036 330.331C549.984 330.762 550.735 331.353 551.289 332.104C551.849 332.855 552.145 333.707 552.176 334.661H549.96ZM562.071 334.661V336.508H554.722V334.661H562.071ZM556.864 331.264H559.043V344.781C559.043 345.396 559.132 345.858 559.31 346.166C559.495 346.467 559.729 346.67 560.012 346.775C560.301 346.873 560.606 346.923 560.926 346.923C561.166 346.923 561.363 346.91 561.517 346.886C561.671 346.855 561.794 346.83 561.886 346.812L562.33 348.769C562.182 348.825 561.976 348.88 561.711 348.935C561.446 348.997 561.111 349.028 560.705 349.028C560.089 349.028 559.486 348.895 558.895 348.631C558.31 348.366 557.824 347.963 557.436 347.421C557.054 346.88 556.864 346.196 556.864 345.372V331.264ZM569.522 349.176C568.623 349.176 567.808 349.006 567.075 348.668C566.343 348.323 565.761 347.828 565.33 347.181C564.899 346.529 564.684 345.741 564.684 344.818C564.684 344.005 564.844 343.346 565.164 342.842C565.484 342.331 565.912 341.931 566.447 341.641C566.983 341.352 567.574 341.137 568.22 340.995C568.873 340.847 569.528 340.73 570.187 340.644C571.049 340.533 571.747 340.45 572.283 340.395C572.824 340.333 573.218 340.232 573.464 340.09C573.717 339.949 573.843 339.703 573.843 339.352V339.278C573.843 338.367 573.594 337.659 573.095 337.154C572.603 336.649 571.855 336.397 570.852 336.397C569.811 336.397 568.996 336.625 568.405 337.08C567.814 337.536 567.398 338.022 567.158 338.539L565.09 337.801C565.46 336.939 565.952 336.268 566.567 335.788C567.189 335.301 567.866 334.963 568.599 334.772C569.337 334.575 570.064 334.477 570.778 334.477C571.233 334.477 571.756 334.532 572.347 334.643C572.944 334.747 573.52 334.966 574.074 335.298C574.634 335.631 575.099 336.132 575.468 336.803C575.837 337.474 576.022 338.373 576.022 339.499V348.843H573.843V346.923H573.732C573.585 347.23 573.338 347.56 572.994 347.911C572.649 348.261 572.19 348.56 571.618 348.806C571.045 349.052 570.347 349.176 569.522 349.176ZM569.854 347.218C570.716 347.218 571.442 347.049 572.033 346.71C572.63 346.372 573.08 345.935 573.381 345.399C573.689 344.864 573.843 344.301 573.843 343.71V341.715C573.751 341.826 573.548 341.928 573.234 342.02C572.926 342.106 572.569 342.183 572.163 342.251C571.763 342.312 571.372 342.368 570.99 342.417C570.615 342.46 570.31 342.497 570.076 342.528C569.51 342.602 568.98 342.722 568.488 342.888C568.002 343.048 567.608 343.291 567.306 343.617C567.011 343.937 566.863 344.374 566.863 344.928C566.863 345.685 567.143 346.258 567.703 346.646C568.269 347.027 568.987 347.218 569.854 347.218ZM585.76 349.139C584.431 349.139 583.286 348.825 582.326 348.197C581.366 347.569 580.627 346.704 580.11 345.602C579.593 344.501 579.334 343.242 579.334 341.826C579.334 340.386 579.599 339.115 580.128 338.013C580.664 336.905 581.409 336.04 582.363 335.418C583.323 334.791 584.443 334.477 585.724 334.477C586.721 334.477 587.619 334.661 588.42 335.031C589.22 335.4 589.875 335.917 590.386 336.582C590.897 337.247 591.214 338.022 591.337 338.908H589.158C588.992 338.262 588.623 337.69 588.05 337.191C587.484 336.686 586.721 336.434 585.76 336.434C584.911 336.434 584.166 336.656 583.526 337.099C582.892 337.536 582.397 338.154 582.04 338.955C581.689 339.749 581.513 340.681 581.513 341.752C581.513 342.848 581.686 343.802 582.03 344.614C582.381 345.427 582.874 346.058 583.508 346.507C584.148 346.957 584.899 347.181 585.76 347.181C586.327 347.181 586.841 347.083 587.302 346.886C587.764 346.689 588.155 346.406 588.475 346.036C588.795 345.667 589.023 345.224 589.158 344.707H591.337C591.214 345.544 590.909 346.298 590.423 346.969C589.943 347.634 589.306 348.163 588.512 348.557C587.724 348.945 586.807 349.139 585.76 349.139ZM596.554 343.673L596.517 340.977H596.96L603.165 334.661H605.861L599.25 341.346H599.065L596.554 343.673ZM594.523 348.843V329.934H596.702V348.843H594.523ZM603.534 348.843L597.994 341.826L599.545 340.312L606.304 348.843H603.534Z" fill="black"/>
</svg>
