<svg width="250" height="250" viewBox="0 0 250 250" fill="none" xmlns="http://www.w3.org/2000/svg">
<rect width="250" height="250" fill="white"/>
<path d="M123 196.5L119.5 200" stroke="black"/>
<path d="M65.5 21.5H184.5V199C184.5 205.351 179.351 210.5 173 210.5H77C70.6487 210.5 65.5 205.351 65.5 199V21.5Z" fill="white" stroke="black"/>
<rect x="65.5" y="172.5" width="119" height="27" fill="white" stroke="black"/>
<path d="M89.7654 191.179C89.2815 191.179 88.8423 191.088 88.4479 190.906C88.0535 190.72 87.7403 190.453 87.5083 190.105C87.2762 189.754 87.1602 189.33 87.1602 188.832C87.1602 188.395 87.2464 188.04 87.4188 187.768C87.5911 187.493 87.8215 187.278 88.1098 187.122C88.3982 186.966 88.7164 186.85 89.0644 186.774C89.4157 186.695 89.7687 186.632 90.1233 186.585C90.5873 186.526 90.9635 186.481 91.2519 186.451C91.5435 186.418 91.7557 186.363 91.8882 186.287C92.0241 186.211 92.0921 186.078 92.0921 185.889V185.849C92.0921 185.359 91.9578 184.978 91.6894 184.706C91.4242 184.434 91.0215 184.298 90.4813 184.298C89.9211 184.298 89.482 184.421 89.1638 184.666C88.8456 184.911 88.6219 185.173 88.4926 185.452L87.379 185.054C87.5779 184.59 87.843 184.229 88.1744 183.97C88.5092 183.708 88.8738 183.526 89.2682 183.423C89.6659 183.317 90.057 183.264 90.4415 183.264C90.6868 183.264 90.9685 183.294 91.2867 183.354C91.6082 183.41 91.9181 183.528 92.2164 183.707C92.518 183.886 92.7682 184.156 92.9671 184.517C93.1659 184.878 93.2654 185.362 93.2654 185.969V191H92.0921V189.966H92.0324C91.9529 190.132 91.8203 190.309 91.6347 190.498C91.4491 190.687 91.2021 190.848 90.8939 190.98C90.5857 191.113 90.2095 191.179 89.7654 191.179ZM89.9443 190.125C90.4084 190.125 90.7994 190.034 91.1176 189.852C91.4391 189.669 91.6811 189.434 91.8435 189.146C92.0092 188.857 92.0921 188.554 92.0921 188.236V187.162C92.0423 187.222 91.933 187.276 91.7639 187.326C91.5982 187.372 91.406 187.414 91.1872 187.45C90.9718 187.483 90.7613 187.513 90.5558 187.54C90.3537 187.563 90.1896 187.583 90.0637 187.599C89.7587 187.639 89.4737 187.704 89.2085 187.793C88.9467 187.879 88.7346 188.01 88.5722 188.186C88.4131 188.358 88.3335 188.594 88.3335 188.892C88.3335 189.3 88.4843 189.608 88.786 189.817C89.0909 190.022 89.477 190.125 89.9443 190.125ZM96.5802 186.406V191H95.4069V183.364H96.5404V184.557H96.6398C96.8188 184.169 97.0906 183.857 97.4552 183.622C97.8198 183.384 98.2904 183.264 98.8671 183.264C99.3841 183.264 99.8366 183.37 100.224 183.582C100.612 183.791 100.914 184.109 101.129 184.537C101.345 184.961 101.452 185.498 101.452 186.148V191H100.279V186.227C100.279 185.627 100.123 185.16 99.8117 184.825C99.5001 184.487 99.0726 184.318 98.529 184.318C98.1545 184.318 97.8198 184.399 97.5248 184.562C97.2331 184.724 97.0028 184.961 96.8337 185.273C96.6647 185.584 96.5802 185.962 96.5802 186.406ZM106.699 191.159C106.009 191.159 105.404 190.995 104.884 190.667C104.367 190.339 103.963 189.88 103.671 189.29C103.383 188.7 103.238 188.01 103.238 187.222C103.238 186.426 103.383 185.732 103.671 185.138C103.963 184.545 104.367 184.085 104.884 183.756C105.404 183.428 106.009 183.264 106.699 183.264C107.388 183.264 107.991 183.428 108.508 183.756C109.029 184.085 109.433 184.545 109.721 185.138C110.013 185.732 110.159 186.426 110.159 187.222C110.159 188.01 110.013 188.7 109.721 189.29C109.433 189.88 109.029 190.339 108.508 190.667C107.991 190.995 107.388 191.159 106.699 191.159ZM106.699 190.105C107.222 190.105 107.653 189.971 107.991 189.702C108.329 189.434 108.58 189.081 108.742 188.643C108.904 188.206 108.986 187.732 108.986 187.222C108.986 186.711 108.904 186.236 108.742 185.795C108.58 185.354 108.329 184.998 107.991 184.726C107.653 184.454 107.222 184.318 106.699 184.318C106.175 184.318 105.744 184.454 105.406 184.726C105.068 184.998 104.818 185.354 104.655 185.795C104.493 186.236 104.412 186.711 104.412 187.222C104.412 187.732 104.493 188.206 104.655 188.643C104.818 189.081 105.068 189.434 105.406 189.702C105.744 189.971 106.175 190.105 106.699 190.105ZM113.123 186.406V191H111.95V183.364H113.083V184.557H113.183C113.362 184.169 113.634 183.857 113.998 183.622C114.363 183.384 114.833 183.264 115.41 183.264C115.927 183.264 116.38 183.37 116.767 183.582C117.155 183.791 117.457 184.109 117.672 184.537C117.888 184.961 117.995 185.498 117.995 186.148V191H116.822V186.227C116.822 185.627 116.666 185.16 116.355 184.825C116.043 184.487 115.616 184.318 115.072 184.318C114.697 184.318 114.363 184.399 114.068 184.562C113.776 184.724 113.546 184.961 113.377 185.273C113.208 185.584 113.123 185.962 113.123 186.406ZM120.622 193.864C120.423 193.864 120.245 193.847 120.09 193.814C119.934 193.784 119.826 193.754 119.766 193.724L120.065 192.69C120.35 192.763 120.602 192.79 120.82 192.77C121.039 192.75 121.233 192.652 121.402 192.477C121.574 192.304 121.732 192.024 121.874 191.636L122.093 191.04L119.269 183.364H120.542L122.65 189.449H122.729L124.837 183.364H126.11L122.869 192.114C122.723 192.508 122.542 192.835 122.327 193.093C122.111 193.355 121.861 193.549 121.576 193.675C121.294 193.801 120.976 193.864 120.622 193.864ZM127.659 191V183.364H128.792V184.557H128.892C129.051 184.149 129.308 183.833 129.662 183.607C130.017 183.379 130.443 183.264 130.94 183.264C131.444 183.264 131.863 183.379 132.198 183.607C132.536 183.833 132.799 184.149 132.988 184.557H133.068C133.263 184.162 133.557 183.849 133.948 183.617C134.339 183.382 134.808 183.264 135.355 183.264C136.038 183.264 136.596 183.478 137.03 183.906C137.464 184.33 137.682 184.991 137.682 185.889V191H136.508V185.889C136.508 185.326 136.354 184.923 136.046 184.681C135.738 184.439 135.375 184.318 134.957 184.318C134.42 184.318 134.004 184.481 133.709 184.805C133.414 185.127 133.267 185.535 133.267 186.028V191H132.074V185.77C132.074 185.336 131.933 184.986 131.651 184.721C131.369 184.452 131.006 184.318 130.562 184.318C130.257 184.318 129.972 184.399 129.707 184.562C129.445 184.724 129.233 184.95 129.071 185.238C128.912 185.523 128.832 185.853 128.832 186.227V191H127.659ZM142.929 191.159C142.24 191.159 141.635 190.995 141.114 190.667C140.597 190.339 140.193 189.88 139.901 189.29C139.613 188.7 139.469 188.01 139.469 187.222C139.469 186.426 139.613 185.732 139.901 185.138C140.193 184.545 140.597 184.085 141.114 183.756C141.635 183.428 142.24 183.264 142.929 183.264C143.618 183.264 144.222 183.428 144.739 183.756C145.259 184.085 145.663 184.545 145.952 185.138C146.243 185.732 146.389 186.426 146.389 187.222C146.389 188.01 146.243 188.7 145.952 189.29C145.663 189.88 145.259 190.339 144.739 190.667C144.222 190.995 143.618 191.159 142.929 191.159ZM142.929 190.105C143.453 190.105 143.884 189.971 144.222 189.702C144.56 189.434 144.81 189.081 144.972 188.643C145.135 188.206 145.216 187.732 145.216 187.222C145.216 186.711 145.135 186.236 144.972 185.795C144.81 185.354 144.56 184.998 144.222 184.726C143.884 184.454 143.453 184.318 142.929 184.318C142.405 184.318 141.975 184.454 141.636 184.726C141.298 184.998 141.048 185.354 140.886 185.795C140.723 186.236 140.642 186.711 140.642 187.222C140.642 187.732 140.723 188.206 140.886 188.643C141.048 189.081 141.298 189.434 141.636 189.702C141.975 189.971 142.405 190.105 142.929 190.105ZM152.993 187.878V183.364H154.166V191H152.993V189.707H152.913C152.734 190.095 152.456 190.425 152.078 190.697C151.7 190.965 151.223 191.099 150.646 191.099C150.169 191.099 149.745 190.995 149.373 190.786C149.002 190.574 148.711 190.256 148.498 189.832C148.286 189.404 148.18 188.866 148.18 188.216V183.364H149.354V188.136C149.354 188.693 149.509 189.137 149.821 189.469C150.136 189.8 150.537 189.966 151.024 189.966C151.316 189.966 151.612 189.891 151.914 189.742C152.219 189.593 152.474 189.364 152.68 189.056C152.888 188.748 152.993 188.355 152.993 187.878ZM161.724 185.074L160.67 185.372C160.604 185.196 160.506 185.026 160.377 184.86C160.251 184.691 160.079 184.552 159.86 184.442C159.641 184.333 159.361 184.278 159.02 184.278C158.552 184.278 158.163 184.386 157.851 184.602C157.543 184.814 157.389 185.084 157.389 185.412C157.389 185.704 157.495 185.934 157.707 186.103C157.919 186.272 158.251 186.413 158.701 186.526L159.835 186.804C160.518 186.97 161.026 187.223 161.361 187.565C161.696 187.903 161.863 188.339 161.863 188.872C161.863 189.31 161.737 189.701 161.486 190.045C161.237 190.39 160.889 190.662 160.441 190.861C159.994 191.06 159.474 191.159 158.88 191.159C158.102 191.159 157.457 190.99 156.946 190.652C156.436 190.314 156.113 189.82 155.977 189.17L157.091 188.892C157.197 189.303 157.397 189.611 157.692 189.817C157.991 190.022 158.38 190.125 158.861 190.125C159.407 190.125 159.842 190.009 160.163 189.777C160.488 189.542 160.65 189.26 160.65 188.932C160.65 188.667 160.557 188.445 160.372 188.266C160.186 188.083 159.901 187.947 159.517 187.858L158.244 187.56C157.545 187.394 157.031 187.137 156.703 186.789C156.378 186.438 156.216 185.999 156.216 185.472C156.216 185.041 156.337 184.66 156.579 184.328C156.824 183.997 157.157 183.737 157.578 183.548C158.002 183.359 158.483 183.264 159.02 183.264C159.775 183.264 160.369 183.43 160.799 183.761C161.234 184.093 161.542 184.53 161.724 185.074Z" fill="black"/>
<path d="M130.5 194.5L133.5 197.5" stroke="black"/>
<path d="M96.6885 229.84V230.52H102.948V229.84H96.6885ZM95.6885 232.93V233.62H103.878V232.93H95.6885ZM99.3585 230.26V233.15H100.178V230.26H99.3585ZM96.6885 226.5V230.14H97.5185V226.5H96.6885ZM105.918 230.07V230.75H112.128V230.07H105.918ZM104.888 232.87V233.56H113.078V232.87H104.888ZM105.918 226.57V230.37H106.748V227.26H112.038V226.57H105.918ZM117.747 229.25V229.94H119.457V229.25H117.747ZM120.967 225.74V234.78H121.767V225.74H120.967ZM119.177 225.93V234.33H119.967V225.93H119.177ZM116.117 226.49C114.947 226.49 114.197 227.7 114.197 229.64C114.197 231.58 114.947 232.79 116.117 232.79C117.287 232.79 118.047 231.58 118.047 229.64C118.047 227.7 117.287 226.49 116.117 226.49ZM116.117 227.26C116.837 227.26 117.287 228.18 117.287 229.64C117.287 231.1 116.837 232.02 116.117 232.02C115.407 232.02 114.957 231.1 114.957 229.64C114.957 228.18 115.407 227.26 116.117 227.26ZM127.796 228.8V229.48H130.316V228.8H127.796ZM125.616 226.52V228.13C125.616 229.81 124.596 231.55 123.266 232.21L123.796 232.87C125.226 232.1 126.296 230.16 126.296 228.13V226.52H125.616ZM125.776 226.52V228.13C125.776 230.11 126.826 231.97 128.286 232.71L128.776 232.04C127.466 231.42 126.446 229.78 126.446 228.13V226.52H125.776ZM129.906 225.73V234.79H130.726V225.73H129.906ZM133.585 228.45V229.13H139.725V228.45H133.585ZM132.475 230.34V231.02H140.675V230.34H132.475ZM133.585 226.07V228.79H134.405V226.07H133.585ZM133.525 233.88V234.56H139.775V233.88H133.525ZM133.525 231.92V234.06H134.345V231.92H133.525ZM144.764 234V228.545H145.574V229.398H145.645C145.758 229.107 145.942 228.88 146.195 228.719C146.449 228.556 146.753 228.474 147.108 228.474C147.468 228.474 147.767 228.556 148.006 228.719C148.248 228.88 148.436 229.107 148.571 229.398H148.628C148.767 229.116 148.977 228.892 149.256 228.727C149.536 228.558 149.871 228.474 150.261 228.474C150.749 228.474 151.148 228.627 151.458 228.933C151.768 229.236 151.923 229.708 151.923 230.349V234H151.085V230.349C151.085 229.947 150.975 229.659 150.755 229.487C150.535 229.314 150.275 229.227 149.977 229.227C149.594 229.227 149.297 229.343 149.086 229.575C148.875 229.805 148.77 230.096 148.77 230.449V234H147.918V230.264C147.918 229.954 147.817 229.704 147.616 229.515C147.414 229.323 147.155 229.227 146.838 229.227C146.62 229.227 146.417 229.285 146.227 229.401C146.04 229.517 145.889 229.678 145.773 229.884C145.659 230.088 145.602 230.323 145.602 230.591V234H144.764ZM155.061 234.128C154.715 234.128 154.401 234.063 154.12 233.933C153.838 233.8 153.614 233.609 153.448 233.361C153.283 233.11 153.2 232.807 153.2 232.452C153.2 232.139 153.261 231.886 153.384 231.692C153.508 231.495 153.672 231.341 153.878 231.23C154.084 231.119 154.311 231.036 154.56 230.982C154.811 230.925 155.063 230.88 155.316 230.847C155.648 230.804 155.916 230.772 156.122 230.751C156.331 230.727 156.482 230.688 156.577 230.634C156.674 230.579 156.723 230.484 156.723 230.349V230.321C156.723 229.971 156.627 229.698 156.435 229.504C156.246 229.31 155.958 229.213 155.572 229.213C155.172 229.213 154.858 229.301 154.631 229.476C154.404 229.651 154.244 229.838 154.152 230.037L153.356 229.753C153.498 229.421 153.688 229.163 153.924 228.979C154.163 228.792 154.424 228.661 154.706 228.588C154.99 228.512 155.269 228.474 155.544 228.474C155.719 228.474 155.92 228.496 156.147 228.538C156.377 228.579 156.598 228.663 156.811 228.79C157.027 228.918 157.206 229.111 157.348 229.369C157.49 229.627 157.561 229.973 157.561 230.406V234H156.723V233.261H156.68C156.623 233.38 156.528 233.506 156.396 233.641C156.263 233.776 156.087 233.891 155.867 233.986C155.647 234.08 155.378 234.128 155.061 234.128ZM155.188 233.375C155.52 233.375 155.799 233.31 156.027 233.18C156.256 233.049 156.429 232.881 156.545 232.675C156.663 232.469 156.723 232.253 156.723 232.026V231.259C156.687 231.301 156.609 231.34 156.488 231.376C156.37 231.409 156.233 231.438 156.076 231.464C155.922 231.488 155.772 231.509 155.625 231.528C155.481 231.545 155.364 231.559 155.274 231.571C155.056 231.599 154.852 231.646 154.663 231.71C154.476 231.771 154.324 231.865 154.208 231.99C154.095 232.113 154.038 232.281 154.038 232.494C154.038 232.786 154.146 233.006 154.361 233.155C154.579 233.302 154.855 233.375 155.188 233.375ZM159.09 234V228.545H159.928V234H159.09ZM159.516 227.636C159.353 227.636 159.212 227.581 159.094 227.469C158.978 227.358 158.92 227.224 158.92 227.068C158.92 226.912 158.978 226.778 159.094 226.667C159.212 226.556 159.353 226.5 159.516 226.5C159.68 226.5 159.819 226.556 159.935 226.667C160.054 226.778 160.113 226.912 160.113 227.068C160.113 227.224 160.054 227.358 159.935 227.469C159.819 227.581 159.68 227.636 159.516 227.636ZM162.301 230.719V234H161.463V228.545H162.273V229.398H162.344C162.472 229.121 162.666 228.898 162.926 228.73C163.187 228.56 163.523 228.474 163.935 228.474C164.304 228.474 164.627 228.55 164.904 228.702C165.181 228.851 165.397 229.078 165.551 229.384C165.705 229.687 165.782 230.07 165.782 230.534V234H164.943V230.591C164.943 230.162 164.832 229.829 164.61 229.589C164.387 229.348 164.082 229.227 163.693 229.227C163.426 229.227 163.187 229.285 162.976 229.401C162.768 229.517 162.603 229.687 162.483 229.909C162.362 230.132 162.301 230.402 162.301 230.719ZM167.611 230.932C167.611 230.037 167.727 229.214 167.959 228.464C168.194 227.711 168.527 227.018 168.961 226.386H169.699C169.529 226.621 169.369 226.91 169.22 227.253C169.073 227.594 168.944 227.969 168.833 228.379C168.722 228.786 168.634 229.207 168.57 229.643C168.508 230.078 168.478 230.508 168.478 230.932C168.478 231.495 168.532 232.067 168.641 232.647C168.75 233.227 168.897 233.766 169.081 234.263C169.266 234.76 169.472 235.165 169.699 235.477H168.961C168.527 234.845 168.194 234.154 167.959 233.403C167.727 232.651 167.611 231.827 167.611 230.932ZM172.726 230.932C172.726 231.827 172.609 232.651 172.374 233.403C172.142 234.154 171.81 234.845 171.376 235.477H170.638C170.808 235.243 170.967 234.954 171.114 234.611C171.263 234.27 171.393 233.896 171.504 233.489C171.615 233.079 171.702 232.656 171.763 232.221C171.827 231.783 171.859 231.353 171.859 230.932C171.859 230.368 171.805 229.797 171.696 229.217C171.587 228.637 171.44 228.098 171.256 227.601C171.071 227.104 170.865 226.699 170.638 226.386H171.376C171.81 227.018 172.142 227.711 172.374 228.464C172.609 229.214 172.726 230.037 172.726 230.932ZM180.852 225.73V234.79H181.682V225.73H180.852ZM176.912 226.43C175.582 226.43 174.622 227.66 174.622 229.58C174.622 231.51 175.582 232.74 176.912 232.74C178.252 232.74 179.212 231.51 179.212 229.58C179.212 227.66 178.252 226.43 176.912 226.43ZM176.912 227.18C177.802 227.18 178.412 228.12 178.412 229.58C178.412 231.05 177.802 232.01 176.912 232.01C176.032 232.01 175.412 231.05 175.412 229.58C175.412 228.12 176.032 227.18 176.912 227.18ZM189.611 225.73V234.79H190.441V225.73H189.611ZM190.241 229.33V230.03H191.921V229.33H190.241ZM183.851 231.92V232.61H184.571C186.301 232.61 187.501 232.54 188.911 232.29L188.821 231.6C187.451 231.86 186.271 231.92 184.571 231.92H183.851ZM183.831 226.58V227.26H187.101V229.14H183.851V232.2H184.671V229.82H187.921V226.58H183.831ZM193.55 226.64V227.33H199.37V226.64H193.55ZM192.69 232.83V233.52H200.86V232.83H192.69ZM195.86 229.6V233.17H196.69V229.6H195.86ZM199.06 226.64V227.54C199.06 228.62 199.06 229.89 198.72 231.62L199.55 231.73C199.88 229.9 199.88 228.66 199.88 227.54V226.64H199.06ZM210.822 225.74V234.78H211.652V225.74H210.822ZM211.452 229.45V230.15H213.132V229.45H211.452ZM204.652 227.18V227.86H209.982V227.18H204.652ZM207.352 228.61C206.082 228.61 205.152 229.47 205.152 230.69C205.152 231.91 206.082 232.77 207.352 232.77C208.632 232.77 209.552 231.91 209.552 230.69C209.552 229.47 208.632 228.61 207.352 228.61ZM207.352 229.3C208.172 229.3 208.762 229.87 208.762 230.69C208.762 231.5 208.172 232.08 207.352 232.08C206.532 232.08 205.942 231.5 205.942 230.69C205.942 229.87 206.532 229.3 207.352 229.3ZM206.922 225.85V227.49H207.752V225.85H206.922ZM220.481 225.74V234.78H221.311V225.74H220.481ZM217.831 226.71V226.85C217.831 229.25 216.621 231.17 214.011 232.43L214.451 233.1C217.471 231.62 218.651 229.33 218.651 226.71H217.831ZM214.421 226.71V227.39H218.191V226.71H214.421ZM224.131 229.96V230.64H230.341V229.96H224.131ZM223.101 232.95V233.65H231.291V232.95H223.101ZM226.761 230.25V233.23H227.591V230.25H226.761ZM224.131 226.46V230.26H224.961V227.14H230.251V226.46H224.131ZM241.292 225.74V231.18H242.122V225.74H241.292ZM241.892 228.14V228.83H243.462V228.14H241.892ZM236.442 231.69V234.66H242.122V231.69H236.442ZM241.312 232.36V233.99H237.252V232.36H241.312ZM235.132 226.69V227.37H240.472V226.69H235.132ZM237.802 227.81C236.502 227.81 235.632 228.45 235.632 229.43C235.632 230.41 236.502 231.03 237.802 231.03C239.092 231.03 239.962 230.41 239.962 229.43C239.962 228.45 239.092 227.81 237.802 227.81ZM237.802 228.45C238.612 228.45 239.172 228.83 239.172 229.43C239.172 230.02 238.612 230.4 237.802 230.4C236.972 230.4 236.422 230.02 236.422 229.43C236.422 228.83 236.972 228.45 237.802 228.45ZM237.382 225.66V227.04H238.212V225.66H237.382Z" fill="black"/>
<path d="M130.5 194V221.5" stroke="black"/>
<path d="M130.5 194.5L127.5 197.5" stroke="black"/>
</svg>
