<svg width="250" height="250" viewBox="0 0 250 250" fill="none" xmlns="http://www.w3.org/2000/svg">
<rect width="250" height="250" fill="white"/>
<path d="M65.5 30.5H184.5V208C184.5 214.351 179.351 219.5 173 219.5H77C70.6487 219.5 65.5 214.351 65.5 208V30.5Z" fill="white" stroke="black"/>
<rect x="65.5" y="181.5" width="119" height="27" fill="white" stroke="black"/>
<path d="M89.7654 200.179C89.2815 200.179 88.8423 200.088 88.4479 199.906C88.0535 199.72 87.7403 199.453 87.5083 199.105C87.2762 198.754 87.1602 198.33 87.1602 197.832C87.1602 197.395 87.2464 197.04 87.4188 196.768C87.5911 196.493 87.8215 196.278 88.1098 196.122C88.3982 195.966 88.7164 195.85 89.0644 195.774C89.4157 195.695 89.7687 195.632 90.1233 195.585C90.5873 195.526 90.9635 195.481 91.2519 195.451C91.5435 195.418 91.7557 195.363 91.8882 195.287C92.0241 195.211 92.0921 195.078 92.0921 194.889V194.849C92.0921 194.359 91.9578 193.978 91.6894 193.706C91.4242 193.434 91.0215 193.298 90.4813 193.298C89.9211 193.298 89.482 193.421 89.1638 193.666C88.8456 193.911 88.6219 194.173 88.4926 194.452L87.379 194.054C87.5779 193.59 87.843 193.229 88.1744 192.97C88.5092 192.708 88.8738 192.526 89.2682 192.423C89.6659 192.317 90.057 192.264 90.4415 192.264C90.6868 192.264 90.9685 192.294 91.2867 192.354C91.6082 192.41 91.9181 192.528 92.2164 192.707C92.518 192.886 92.7682 193.156 92.9671 193.517C93.1659 193.878 93.2654 194.362 93.2654 194.969V200H92.0921V198.966H92.0324C91.9529 199.132 91.8203 199.309 91.6347 199.498C91.4491 199.687 91.2021 199.848 90.8939 199.98C90.5857 200.113 90.2095 200.179 89.7654 200.179ZM89.9443 199.125C90.4084 199.125 90.7994 199.034 91.1176 198.852C91.4391 198.669 91.6811 198.434 91.8435 198.146C92.0092 197.857 92.0921 197.554 92.0921 197.236V196.162C92.0423 196.222 91.933 196.276 91.7639 196.326C91.5982 196.372 91.406 196.414 91.1872 196.45C90.9718 196.483 90.7613 196.513 90.5558 196.54C90.3537 196.563 90.1896 196.583 90.0637 196.599C89.7587 196.639 89.4737 196.704 89.2085 196.793C88.9467 196.879 88.7346 197.01 88.5722 197.186C88.4131 197.358 88.3335 197.594 88.3335 197.892C88.3335 198.3 88.4843 198.608 88.786 198.817C89.0909 199.022 89.477 199.125 89.9443 199.125ZM96.5802 195.406V200H95.4069V192.364H96.5404V193.557H96.6398C96.8188 193.169 97.0906 192.857 97.4552 192.622C97.8198 192.384 98.2904 192.264 98.8671 192.264C99.3841 192.264 99.8366 192.37 100.224 192.582C100.612 192.791 100.914 193.109 101.129 193.537C101.345 193.961 101.452 194.498 101.452 195.148V200H100.279V195.227C100.279 194.627 100.123 194.16 99.8117 193.825C99.5001 193.487 99.0726 193.318 98.529 193.318C98.1545 193.318 97.8198 193.399 97.5248 193.562C97.2331 193.724 97.0028 193.961 96.8337 194.273C96.6647 194.584 96.5802 194.962 96.5802 195.406ZM106.699 200.159C106.009 200.159 105.404 199.995 104.884 199.667C104.367 199.339 103.963 198.88 103.671 198.29C103.383 197.7 103.238 197.01 103.238 196.222C103.238 195.426 103.383 194.732 103.671 194.138C103.963 193.545 104.367 193.085 104.884 192.756C105.404 192.428 106.009 192.264 106.699 192.264C107.388 192.264 107.991 192.428 108.508 192.756C109.029 193.085 109.433 193.545 109.721 194.138C110.013 194.732 110.159 195.426 110.159 196.222C110.159 197.01 110.013 197.7 109.721 198.29C109.433 198.88 109.029 199.339 108.508 199.667C107.991 199.995 107.388 200.159 106.699 200.159ZM106.699 199.105C107.222 199.105 107.653 198.971 107.991 198.702C108.329 198.434 108.58 198.081 108.742 197.643C108.904 197.206 108.986 196.732 108.986 196.222C108.986 195.711 108.904 195.236 108.742 194.795C108.58 194.354 108.329 193.998 107.991 193.726C107.653 193.454 107.222 193.318 106.699 193.318C106.175 193.318 105.744 193.454 105.406 193.726C105.068 193.998 104.818 194.354 104.655 194.795C104.493 195.236 104.412 195.711 104.412 196.222C104.412 196.732 104.493 197.206 104.655 197.643C104.818 198.081 105.068 198.434 105.406 198.702C105.744 198.971 106.175 199.105 106.699 199.105ZM113.123 195.406V200H111.95V192.364H113.083V193.557H113.183C113.362 193.169 113.634 192.857 113.998 192.622C114.363 192.384 114.833 192.264 115.41 192.264C115.927 192.264 116.38 192.37 116.767 192.582C117.155 192.791 117.457 193.109 117.672 193.537C117.888 193.961 117.995 194.498 117.995 195.148V200H116.822V195.227C116.822 194.627 116.666 194.16 116.355 193.825C116.043 193.487 115.616 193.318 115.072 193.318C114.697 193.318 114.363 193.399 114.068 193.562C113.776 193.724 113.546 193.961 113.377 194.273C113.208 194.584 113.123 194.962 113.123 195.406ZM120.622 202.864C120.423 202.864 120.245 202.847 120.09 202.814C119.934 202.784 119.826 202.754 119.766 202.724L120.065 201.69C120.35 201.763 120.602 201.79 120.82 201.77C121.039 201.75 121.233 201.652 121.402 201.477C121.574 201.304 121.732 201.024 121.874 200.636L122.093 200.04L119.269 192.364H120.542L122.65 198.449H122.729L124.837 192.364H126.11L122.869 201.114C122.723 201.508 122.542 201.835 122.327 202.093C122.111 202.355 121.861 202.549 121.576 202.675C121.294 202.801 120.976 202.864 120.622 202.864ZM127.659 200V192.364H128.792V193.557H128.892C129.051 193.149 129.308 192.833 129.662 192.607C130.017 192.379 130.443 192.264 130.94 192.264C131.444 192.264 131.863 192.379 132.198 192.607C132.536 192.833 132.799 193.149 132.988 193.557H133.068C133.263 193.162 133.557 192.849 133.948 192.617C134.339 192.382 134.808 192.264 135.355 192.264C136.038 192.264 136.596 192.478 137.03 192.906C137.464 193.33 137.682 193.991 137.682 194.889V200H136.508V194.889C136.508 194.326 136.354 193.923 136.046 193.681C135.738 193.439 135.375 193.318 134.957 193.318C134.42 193.318 134.004 193.481 133.709 193.805C133.414 194.127 133.267 194.535 133.267 195.028V200H132.074V194.77C132.074 194.336 131.933 193.986 131.651 193.721C131.369 193.452 131.006 193.318 130.562 193.318C130.257 193.318 129.972 193.399 129.707 193.562C129.445 193.724 129.233 193.95 129.071 194.238C128.912 194.523 128.832 194.853 128.832 195.227V200H127.659ZM142.929 200.159C142.24 200.159 141.635 199.995 141.114 199.667C140.597 199.339 140.193 198.88 139.901 198.29C139.613 197.7 139.469 197.01 139.469 196.222C139.469 195.426 139.613 194.732 139.901 194.138C140.193 193.545 140.597 193.085 141.114 192.756C141.635 192.428 142.24 192.264 142.929 192.264C143.618 192.264 144.222 192.428 144.739 192.756C145.259 193.085 145.663 193.545 145.952 194.138C146.243 194.732 146.389 195.426 146.389 196.222C146.389 197.01 146.243 197.7 145.952 198.29C145.663 198.88 145.259 199.339 144.739 199.667C144.222 199.995 143.618 200.159 142.929 200.159ZM142.929 199.105C143.453 199.105 143.884 198.971 144.222 198.702C144.56 198.434 144.81 198.081 144.972 197.643C145.135 197.206 145.216 196.732 145.216 196.222C145.216 195.711 145.135 195.236 144.972 194.795C144.81 194.354 144.56 193.998 144.222 193.726C143.884 193.454 143.453 193.318 142.929 193.318C142.405 193.318 141.975 193.454 141.636 193.726C141.298 193.998 141.048 194.354 140.886 194.795C140.723 195.236 140.642 195.711 140.642 196.222C140.642 196.732 140.723 197.206 140.886 197.643C141.048 198.081 141.298 198.434 141.636 198.702C141.975 198.971 142.405 199.105 142.929 199.105ZM152.993 196.878V192.364H154.166V200H152.993V198.707H152.913C152.734 199.095 152.456 199.425 152.078 199.697C151.7 199.965 151.223 200.099 150.646 200.099C150.169 200.099 149.745 199.995 149.373 199.786C149.002 199.574 148.711 199.256 148.498 198.832C148.286 198.404 148.18 197.866 148.18 197.216V192.364H149.354V197.136C149.354 197.693 149.509 198.137 149.821 198.469C150.136 198.8 150.537 198.966 151.024 198.966C151.316 198.966 151.612 198.891 151.914 198.742C152.219 198.593 152.474 198.364 152.68 198.056C152.888 197.748 152.993 197.355 152.993 196.878ZM161.724 194.074L160.67 194.372C160.604 194.196 160.506 194.026 160.377 193.86C160.251 193.691 160.079 193.552 159.86 193.442C159.641 193.333 159.361 193.278 159.02 193.278C158.552 193.278 158.163 193.386 157.851 193.602C157.543 193.814 157.389 194.084 157.389 194.412C157.389 194.704 157.495 194.934 157.707 195.103C157.919 195.272 158.251 195.413 158.701 195.526L159.835 195.804C160.518 195.97 161.026 196.223 161.361 196.565C161.696 196.903 161.863 197.339 161.863 197.872C161.863 198.31 161.737 198.701 161.486 199.045C161.237 199.39 160.889 199.662 160.441 199.861C159.994 200.06 159.474 200.159 158.88 200.159C158.102 200.159 157.457 199.99 156.946 199.652C156.436 199.314 156.113 198.82 155.977 198.17L157.091 197.892C157.197 198.303 157.397 198.611 157.692 198.817C157.991 199.022 158.38 199.125 158.861 199.125C159.407 199.125 159.842 199.009 160.163 198.777C160.488 198.542 160.65 198.26 160.65 197.932C160.65 197.667 160.557 197.445 160.372 197.266C160.186 197.083 159.901 196.947 159.517 196.858L158.244 196.56C157.545 196.394 157.031 196.137 156.703 195.789C156.378 195.438 156.216 194.999 156.216 194.472C156.216 194.041 156.337 193.66 156.579 193.328C156.824 192.997 157.157 192.737 157.578 192.548C158.002 192.359 158.483 192.264 159.02 192.264C159.775 192.264 160.369 192.43 160.799 192.761C161.234 193.093 161.542 193.53 161.724 194.074Z" fill="black"/>
<rect x="65.5" y="154.5" width="119" height="27" fill="white" stroke="black"/>
<path d="M110.914 164.364V165.358H106.797V164.364H110.914ZM108.03 172V163.31C108.03 162.872 108.133 162.508 108.339 162.216C108.544 161.924 108.811 161.705 109.139 161.56C109.467 161.414 109.814 161.341 110.178 161.341C110.466 161.341 110.702 161.364 110.884 161.411C111.066 161.457 111.202 161.5 111.292 161.54L110.954 162.554C110.894 162.534 110.811 162.509 110.705 162.479C110.602 162.45 110.466 162.435 110.297 162.435C109.91 162.435 109.63 162.532 109.457 162.728C109.288 162.924 109.204 163.21 109.204 163.588V172H108.03ZM112.558 172V164.364H113.732V172H112.558ZM113.155 163.091C112.926 163.091 112.729 163.013 112.563 162.857C112.401 162.701 112.32 162.514 112.32 162.295C112.32 162.077 112.401 161.889 112.563 161.734C112.729 161.578 112.926 161.5 113.155 161.5C113.384 161.5 113.579 161.578 113.741 161.734C113.907 161.889 113.99 162.077 113.99 162.295C113.99 162.514 113.907 162.701 113.741 162.857C113.579 163.013 113.384 163.091 113.155 163.091ZM115.881 172V164.364H117.014V165.517H117.094C117.233 165.139 117.485 164.833 117.849 164.597C118.214 164.362 118.625 164.244 119.082 164.244C119.168 164.244 119.276 164.246 119.405 164.249C119.535 164.253 119.632 164.258 119.699 164.264V165.457C119.659 165.447 119.568 165.433 119.425 165.413C119.286 165.389 119.139 165.378 118.983 165.378C118.612 165.378 118.28 165.456 117.988 165.612C117.7 165.764 117.471 165.976 117.302 166.248C117.137 166.516 117.054 166.823 117.054 167.168V172H115.881ZM126.499 166.074L125.445 166.372C125.378 166.196 125.281 166.026 125.151 165.86C125.025 165.691 124.853 165.552 124.634 165.442C124.415 165.333 124.135 165.278 123.794 165.278C123.327 165.278 122.937 165.386 122.626 165.602C122.317 165.814 122.163 166.084 122.163 166.412C122.163 166.704 122.269 166.934 122.482 167.103C122.694 167.272 123.025 167.413 123.476 167.526L124.609 167.804C125.292 167.97 125.801 168.223 126.136 168.565C126.47 168.903 126.638 169.339 126.638 169.872C126.638 170.31 126.512 170.701 126.26 171.045C126.011 171.39 125.663 171.662 125.216 171.861C124.768 172.06 124.248 172.159 123.655 172.159C122.876 172.159 122.231 171.99 121.721 171.652C121.21 171.314 120.887 170.82 120.751 170.17L121.865 169.892C121.971 170.303 122.172 170.611 122.467 170.817C122.765 171.022 123.154 171.125 123.635 171.125C124.182 171.125 124.616 171.009 124.938 170.777C125.262 170.542 125.425 170.26 125.425 169.932C125.425 169.667 125.332 169.445 125.146 169.266C124.961 169.083 124.676 168.947 124.291 168.858L123.018 168.56C122.319 168.394 121.805 168.137 121.477 167.789C121.152 167.438 120.99 166.999 120.99 166.472C120.99 166.041 121.111 165.66 121.353 165.328C121.598 164.997 121.931 164.737 122.352 164.548C122.777 164.359 123.257 164.264 123.794 164.264C124.55 164.264 125.143 164.43 125.574 164.761C126.008 165.093 126.316 165.53 126.499 166.074ZM131.725 164.364V165.358H127.768V164.364H131.725ZM128.921 162.534H130.094V169.812C130.094 170.144 130.142 170.393 130.238 170.558C130.338 170.721 130.464 170.83 130.616 170.886C130.772 170.939 130.936 170.966 131.108 170.966C131.238 170.966 131.344 170.959 131.427 170.946C131.51 170.929 131.576 170.916 131.626 170.906L131.864 171.96C131.785 171.99 131.674 172.02 131.531 172.05C131.389 172.083 131.208 172.099 130.989 172.099C130.658 172.099 130.333 172.028 130.015 171.886C129.7 171.743 129.438 171.526 129.229 171.234C129.024 170.943 128.921 170.575 128.921 170.131V162.534ZM133.907 167.705C133.907 166.452 134.07 165.3 134.395 164.249C134.723 163.195 135.19 162.226 135.797 161.341H136.831C136.592 161.669 136.368 162.073 136.16 162.554C135.954 163.031 135.773 163.557 135.618 164.13C135.462 164.7 135.339 165.29 135.25 165.9C135.164 166.51 135.121 167.111 135.121 167.705C135.121 168.493 135.197 169.294 135.349 170.106C135.502 170.918 135.707 171.672 135.966 172.368C136.224 173.064 136.513 173.631 136.831 174.068H135.797C135.19 173.183 134.723 172.215 134.395 171.165C134.07 170.111 133.907 168.957 133.907 167.705ZM141.068 167.705C141.068 168.957 140.904 170.111 140.576 171.165C140.251 172.215 139.785 173.183 139.179 174.068H138.145C138.383 173.74 138.605 173.336 138.811 172.855C139.02 172.378 139.202 171.854 139.358 171.284C139.513 170.711 139.634 170.119 139.721 169.509C139.81 168.896 139.855 168.295 139.855 167.705C139.855 166.916 139.779 166.115 139.626 165.303C139.474 164.491 139.268 163.737 139.01 163.041C138.751 162.345 138.463 161.778 138.145 161.341H139.179C139.785 162.226 140.251 163.195 140.576 164.249C140.904 165.3 141.068 166.452 141.068 167.705Z" fill="black"/>
<rect x="65.5" y="127.5" width="119" height="27" fill="white" stroke="black"/>
<path d="M101.65 140.074L100.596 140.372C100.53 140.196 100.432 140.026 100.303 139.86C100.177 139.691 100.004 139.552 99.7856 139.442C99.5669 139.333 99.2868 139.278 98.9454 139.278C98.4781 139.278 98.0886 139.386 97.7771 139.602C97.4688 139.814 97.3147 140.084 97.3147 140.412C97.3147 140.704 97.4208 140.934 97.6329 141.103C97.845 141.272 98.1765 141.413 98.6272 141.526L99.7607 141.804C100.444 141.97 100.952 142.223 101.287 142.565C101.622 142.903 101.789 143.339 101.789 143.872C101.789 144.31 101.663 144.701 101.411 145.045C101.163 145.39 100.815 145.662 100.367 145.861C99.9198 146.06 99.3995 146.159 98.8062 146.159C98.0273 146.159 97.3827 145.99 96.8722 145.652C96.3618 145.314 96.0387 144.82 95.9028 144.17L97.0164 143.892C97.1225 144.303 97.323 144.611 97.618 144.817C97.9163 145.022 98.3057 145.125 98.7863 145.125C99.3332 145.125 99.7674 145.009 100.089 144.777C100.414 144.542 100.576 144.26 100.576 143.932C100.576 143.667 100.483 143.445 100.298 143.266C100.112 143.083 99.827 142.947 99.4426 142.858L98.1698 142.56C97.4705 142.394 96.9568 142.137 96.6286 141.789C96.3038 141.438 96.1414 140.999 96.1414 140.472C96.1414 140.041 96.2624 139.66 96.5044 139.328C96.7496 138.997 97.0827 138.737 97.5036 138.548C97.9279 138.359 98.4085 138.264 98.9454 138.264C99.7011 138.264 100.294 138.43 100.725 138.761C101.159 139.093 101.468 139.53 101.65 140.074ZM106.757 146.159C106.021 146.159 105.387 145.997 104.853 145.672C104.323 145.344 103.913 144.886 103.625 144.3C103.34 143.71 103.197 143.024 103.197 142.241C103.197 141.459 103.34 140.77 103.625 140.173C103.913 139.573 104.314 139.106 104.828 138.771C105.345 138.433 105.948 138.264 106.638 138.264C107.035 138.264 107.428 138.33 107.816 138.463C108.204 138.596 108.557 138.811 108.875 139.109C109.193 139.404 109.447 139.795 109.636 140.283C109.824 140.77 109.919 141.37 109.919 142.082V142.58H104.033V141.565H108.726C108.726 141.134 108.64 140.75 108.467 140.412C108.298 140.074 108.056 139.807 107.741 139.612C107.43 139.416 107.062 139.318 106.638 139.318C106.17 139.318 105.766 139.434 105.425 139.666C105.087 139.895 104.826 140.193 104.644 140.561C104.462 140.929 104.371 141.323 104.371 141.744V142.42C104.371 142.997 104.47 143.486 104.669 143.887C104.871 144.285 105.151 144.588 105.509 144.797C105.867 145.002 106.283 145.105 106.757 145.105C107.065 145.105 107.344 145.062 107.592 144.976C107.844 144.886 108.061 144.754 108.244 144.578C108.426 144.399 108.567 144.177 108.666 143.912L109.8 144.23C109.68 144.615 109.48 144.953 109.198 145.244C108.916 145.533 108.568 145.758 108.154 145.92C107.74 146.08 107.274 146.159 106.757 146.159ZM114.806 146.159C114.09 146.159 113.474 145.99 112.957 145.652C112.44 145.314 112.042 144.848 111.763 144.255C111.485 143.662 111.346 142.984 111.346 142.222C111.346 141.446 111.488 140.762 111.773 140.168C112.062 139.572 112.463 139.106 112.976 138.771C113.494 138.433 114.097 138.264 114.786 138.264C115.323 138.264 115.807 138.364 116.238 138.562C116.669 138.761 117.022 139.04 117.297 139.398C117.572 139.756 117.743 140.173 117.809 140.651H116.636C116.546 140.303 116.347 139.994 116.039 139.726C115.734 139.454 115.323 139.318 114.806 139.318C114.349 139.318 113.948 139.437 113.603 139.676C113.262 139.911 112.995 140.245 112.802 140.675C112.614 141.103 112.519 141.605 112.519 142.182C112.519 142.772 112.612 143.286 112.797 143.723C112.986 144.161 113.252 144.5 113.593 144.742C113.938 144.984 114.342 145.105 114.806 145.105C115.111 145.105 115.388 145.052 115.636 144.946C115.885 144.84 116.095 144.688 116.268 144.489C116.44 144.29 116.563 144.051 116.636 143.773H117.809C117.743 144.223 117.579 144.629 117.317 144.991C117.058 145.349 116.715 145.634 116.288 145.846C115.863 146.055 115.369 146.159 114.806 146.159ZM122.626 146.159C121.937 146.159 121.332 145.995 120.812 145.667C120.295 145.339 119.89 144.88 119.599 144.29C119.31 143.7 119.166 143.01 119.166 142.222C119.166 141.426 119.31 140.732 119.599 140.138C119.89 139.545 120.295 139.085 120.812 138.756C121.332 138.428 121.937 138.264 122.626 138.264C123.316 138.264 123.919 138.428 124.436 138.756C124.956 139.085 125.361 139.545 125.649 140.138C125.941 140.732 126.087 141.426 126.087 142.222C126.087 143.01 125.941 143.7 125.649 144.29C125.361 144.88 124.956 145.339 124.436 145.667C123.919 145.995 123.316 146.159 122.626 146.159ZM122.626 145.105C123.15 145.105 123.581 144.971 123.919 144.702C124.257 144.434 124.507 144.081 124.67 143.643C124.832 143.206 124.913 142.732 124.913 142.222C124.913 141.711 124.832 141.236 124.67 140.795C124.507 140.354 124.257 139.998 123.919 139.726C123.581 139.454 123.15 139.318 122.626 139.318C122.103 139.318 121.672 139.454 121.334 139.726C120.996 139.998 120.745 140.354 120.583 140.795C120.421 141.236 120.339 141.711 120.339 142.222C120.339 142.732 120.421 143.206 120.583 143.643C120.745 144.081 120.996 144.434 121.334 144.702C121.672 144.971 122.103 145.105 122.626 145.105ZM129.051 141.406V146H127.878V138.364H129.011V139.557H129.111C129.29 139.169 129.561 138.857 129.926 138.622C130.29 138.384 130.761 138.264 131.338 138.264C131.855 138.264 132.307 138.37 132.695 138.582C133.083 138.791 133.384 139.109 133.6 139.537C133.815 139.961 133.923 140.498 133.923 141.148V146H132.75V141.227C132.75 140.627 132.594 140.16 132.282 139.825C131.971 139.487 131.543 139.318 131 139.318C130.625 139.318 130.29 139.399 129.995 139.562C129.704 139.724 129.473 139.961 129.304 140.273C129.135 140.584 129.051 140.962 129.051 141.406ZM138.951 146.159C138.314 146.159 137.752 145.998 137.265 145.677C136.778 145.352 136.397 144.895 136.122 144.305C135.847 143.711 135.709 143.01 135.709 142.202C135.709 141.4 135.847 140.704 136.122 140.114C136.397 139.524 136.78 139.068 137.27 138.746C137.761 138.425 138.327 138.264 138.97 138.264C139.468 138.264 139.86 138.347 140.149 138.513C140.44 138.675 140.662 138.861 140.815 139.07C140.971 139.275 141.092 139.444 141.178 139.577H141.277V135.818H142.451V146H141.317V144.827H141.178C141.092 144.966 140.969 145.142 140.81 145.354C140.651 145.562 140.424 145.75 140.129 145.915C139.834 146.078 139.441 146.159 138.951 146.159ZM139.11 145.105C139.58 145.105 139.978 144.982 140.303 144.737C140.628 144.489 140.875 144.146 141.044 143.708C141.213 143.267 141.297 142.759 141.297 142.182C141.297 141.612 141.214 141.113 141.049 140.685C140.883 140.254 140.638 139.92 140.313 139.681C139.988 139.439 139.587 139.318 139.11 139.318C138.612 139.318 138.198 139.446 137.867 139.701C137.539 139.953 137.292 140.296 137.126 140.73C136.964 141.161 136.882 141.645 136.882 142.182C136.882 142.725 136.965 143.219 137.131 143.663C137.3 144.104 137.549 144.455 137.877 144.717C138.208 144.976 138.619 145.105 139.11 145.105ZM145.18 141.705C145.18 140.452 145.342 139.3 145.667 138.249C145.995 137.195 146.463 136.226 147.069 135.341H148.103C147.865 135.669 147.641 136.073 147.432 136.554C147.227 137.031 147.046 137.557 146.89 138.13C146.734 138.7 146.612 139.29 146.522 139.9C146.436 140.51 146.393 141.111 146.393 141.705C146.393 142.493 146.469 143.294 146.622 144.106C146.774 144.918 146.98 145.672 147.238 146.368C147.497 147.064 147.785 147.631 148.103 148.068H147.069C146.463 147.183 145.995 146.215 145.667 145.165C145.342 144.111 145.18 142.957 145.18 141.705ZM152.34 141.705C152.34 142.957 152.176 144.111 151.848 145.165C151.523 146.215 151.058 147.183 150.451 148.068H149.417C149.656 147.74 149.878 147.336 150.083 146.855C150.292 146.378 150.474 145.854 150.63 145.284C150.786 144.711 150.907 144.119 150.993 143.509C151.082 142.896 151.127 142.295 151.127 141.705C151.127 140.916 151.051 140.115 150.899 139.303C150.746 138.491 150.541 137.737 150.282 137.041C150.024 136.345 149.735 135.778 149.417 135.341H150.451C151.058 136.226 151.523 137.195 151.848 138.249C152.176 139.3 152.34 140.452 152.34 141.705Z" fill="black"/>
<rect x="65.5" y="100.5" width="119" height="27" fill="white" stroke="black"/>
<path d="M108.565 111.364V112.358H104.607V111.364H108.565ZM105.761 109.534H106.934V116.812C106.934 117.144 106.982 117.393 107.078 117.558C107.178 117.721 107.304 117.83 107.456 117.886C107.612 117.939 107.776 117.966 107.948 117.966C108.078 117.966 108.184 117.959 108.267 117.946C108.349 117.929 108.416 117.916 108.465 117.906L108.704 118.96C108.624 118.99 108.513 119.02 108.371 119.05C108.228 119.083 108.048 119.099 107.829 119.099C107.498 119.099 107.173 119.028 106.855 118.886C106.54 118.743 106.278 118.526 106.069 118.234C105.864 117.943 105.761 117.575 105.761 117.131V109.534ZM111.667 114.406V119H110.494V108.818H111.667V112.557H111.767C111.945 112.162 112.214 111.849 112.572 111.617C112.933 111.382 113.414 111.264 114.014 111.264C114.534 111.264 114.99 111.369 115.381 111.577C115.772 111.783 116.075 112.099 116.291 112.527C116.509 112.951 116.619 113.491 116.619 114.148V119H115.445V114.227C115.445 113.621 115.288 113.152 114.973 112.82C114.662 112.486 114.229 112.318 113.676 112.318C113.291 112.318 112.946 112.399 112.642 112.562C112.34 112.724 112.101 112.961 111.926 113.273C111.753 113.584 111.667 113.962 111.667 114.406ZM118.765 119V111.364H119.939V119H118.765ZM119.362 110.091C119.133 110.091 118.936 110.013 118.77 109.857C118.608 109.701 118.527 109.514 118.527 109.295C118.527 109.077 118.608 108.889 118.77 108.734C118.936 108.578 119.133 108.5 119.362 108.5C119.591 108.5 119.786 108.578 119.949 108.734C120.114 108.889 120.197 109.077 120.197 109.295C120.197 109.514 120.114 109.701 119.949 109.857C119.786 110.013 119.591 110.091 119.362 110.091ZM122.088 119V111.364H123.221V112.517H123.301C123.44 112.139 123.692 111.833 124.056 111.597C124.421 111.362 124.832 111.244 125.289 111.244C125.375 111.244 125.483 111.246 125.612 111.249C125.742 111.253 125.839 111.258 125.906 111.264V112.457C125.866 112.447 125.775 112.433 125.632 112.413C125.493 112.389 125.346 112.378 125.19 112.378C124.819 112.378 124.487 112.456 124.195 112.612C123.907 112.764 123.678 112.976 123.509 113.248C123.344 113.516 123.261 113.823 123.261 114.168V119H122.088ZM129.948 119.159C129.311 119.159 128.749 118.998 128.262 118.677C127.775 118.352 127.394 117.895 127.119 117.305C126.844 116.711 126.706 116.01 126.706 115.202C126.706 114.4 126.844 113.704 127.119 113.114C127.394 112.524 127.777 112.068 128.267 111.746C128.758 111.425 129.325 111.264 129.968 111.264C130.465 111.264 130.857 111.347 131.146 111.513C131.437 111.675 131.66 111.861 131.812 112.07C131.968 112.275 132.089 112.444 132.175 112.577H132.274V108.818H133.448V119H132.314V117.827H132.175C132.089 117.966 131.966 118.142 131.807 118.354C131.648 118.562 131.421 118.75 131.126 118.915C130.831 119.078 130.438 119.159 129.948 119.159ZM130.107 118.105C130.577 118.105 130.975 117.982 131.3 117.737C131.625 117.489 131.872 117.146 132.041 116.708C132.21 116.267 132.294 115.759 132.294 115.182C132.294 114.612 132.211 114.113 132.046 113.685C131.88 113.254 131.635 112.92 131.31 112.681C130.985 112.439 130.584 112.318 130.107 112.318C129.61 112.318 129.195 112.446 128.864 112.701C128.536 112.953 128.289 113.296 128.123 113.73C127.961 114.161 127.879 114.645 127.879 115.182C127.879 115.725 127.962 116.219 128.128 116.663C128.297 117.104 128.546 117.455 128.874 117.717C129.205 117.976 129.616 118.105 130.107 118.105ZM136.177 114.705C136.177 113.452 136.339 112.3 136.664 111.249C136.992 110.195 137.46 109.226 138.066 108.341H139.1C138.862 108.669 138.638 109.073 138.429 109.554C138.224 110.031 138.043 110.557 137.887 111.13C137.731 111.7 137.609 112.29 137.519 112.9C137.433 113.51 137.39 114.111 137.39 114.705C137.39 115.493 137.466 116.294 137.619 117.106C137.771 117.918 137.977 118.672 138.235 119.368C138.494 120.064 138.782 120.631 139.1 121.068H138.066C137.46 120.183 136.992 119.215 136.664 118.165C136.339 117.111 136.177 115.957 136.177 114.705ZM143.337 114.705C143.337 115.957 143.173 117.111 142.845 118.165C142.52 119.215 142.055 120.183 141.448 121.068H140.414C140.653 120.74 140.875 120.336 141.08 119.855C141.289 119.378 141.471 118.854 141.627 118.284C141.783 117.711 141.904 117.119 141.99 116.509C142.08 115.896 142.124 115.295 142.124 114.705C142.124 113.916 142.048 113.115 141.896 112.303C141.743 111.491 141.538 110.737 141.279 110.041C141.021 109.345 140.732 108.778 140.414 108.341H141.448C142.055 109.226 142.52 110.195 142.845 111.249C143.173 112.3 143.337 113.452 143.337 114.705Z" fill="black"/>
<rect x="65.5" y="74.5" width="119" height="27" fill="white" stroke="black"/>
<path d="M75.7417 92.125C75.1792 92.125 74.6948 91.9922 74.2886 91.7266C73.8823 91.4609 73.5698 91.0951 73.3511 90.6289C73.1323 90.1628 73.0229 89.6302 73.0229 89.0312C73.0229 88.4219 73.1349 87.8841 73.3589 87.418C73.5854 86.9492 73.9006 86.5833 74.3042 86.3203C74.7104 86.0547 75.1844 85.9219 75.7261 85.9219C76.1479 85.9219 76.5282 86 76.8667 86.1562C77.2052 86.3125 77.4826 86.5312 77.6987 86.8125C77.9149 87.0937 78.049 87.4219 78.1011 87.7969H77.1792C77.1089 87.5234 76.9526 87.2812 76.7104 87.0703C76.4709 86.8568 76.1479 86.75 75.7417 86.75C75.3823 86.75 75.0672 86.8437 74.7964 87.0312C74.5282 87.2161 74.3185 87.4779 74.1675 87.8164C74.019 88.1523 73.9448 88.5469 73.9448 89C73.9448 89.4635 74.0177 89.8672 74.1636 90.2109C74.312 90.5547 74.5203 90.8216 74.7886 91.0117C75.0594 91.2018 75.3771 91.2969 75.7417 91.2969C75.9813 91.2969 76.1987 91.2552 76.394 91.1719C76.5894 91.0885 76.7547 90.9688 76.8901 90.8125C77.0256 90.6562 77.1219 90.4687 77.1792 90.25H78.1011C78.049 90.6042 77.9201 90.9232 77.7144 91.207C77.5112 91.4883 77.2417 91.7122 76.9058 91.8789C76.5724 92.043 76.1844 92.125 75.7417 92.125ZM81.8862 92.125C81.3446 92.125 80.8693 91.9961 80.4604 91.7383C80.0542 91.4805 79.7365 91.1198 79.5073 90.6562C79.2808 90.1927 79.1675 89.651 79.1675 89.0312C79.1675 88.4062 79.2808 87.8607 79.5073 87.3945C79.7365 86.9284 80.0542 86.5664 80.4604 86.3086C80.8693 86.0508 81.3446 85.9219 81.8862 85.9219C82.4279 85.9219 82.9019 86.0508 83.3081 86.3086C83.717 86.5664 84.0347 86.9284 84.2612 87.3945C84.4904 87.8607 84.605 88.4062 84.605 89.0312C84.605 89.651 84.4904 90.1927 84.2612 90.6562C84.0347 91.1198 83.717 91.4805 83.3081 91.7383C82.9019 91.9961 82.4279 92.125 81.8862 92.125ZM81.8862 91.2969C82.2977 91.2969 82.6362 91.1914 82.9019 90.9805C83.1675 90.7695 83.3641 90.4922 83.4917 90.1484C83.6193 89.8047 83.6831 89.4323 83.6831 89.0312C83.6831 88.6302 83.6193 88.2565 83.4917 87.9102C83.3641 87.5638 83.1675 87.2839 82.9019 87.0703C82.6362 86.8568 82.2977 86.75 81.8862 86.75C81.4748 86.75 81.1362 86.8568 80.8706 87.0703C80.605 87.2839 80.4084 87.5638 80.2808 87.9102C80.1532 88.2565 80.0894 88.6302 80.0894 89.0312C80.0894 89.4323 80.1532 89.8047 80.2808 90.1484C80.4084 90.4922 80.605 90.7695 80.8706 90.9805C81.1362 91.1914 81.4748 91.2969 81.8862 91.2969ZM86.9341 88.3906V92H86.0122V86H86.9028V86.9375H86.981C87.1216 86.6328 87.3351 86.388 87.6216 86.2031C87.908 86.0156 88.2778 85.9219 88.731 85.9219C89.1372 85.9219 89.4927 86.0052 89.7974 86.1719C90.1021 86.3359 90.339 86.5859 90.5083 86.9219C90.6776 87.2552 90.7622 87.6771 90.7622 88.1875V92H89.8403V88.25C89.8403 87.7786 89.7179 87.4115 89.4731 87.1484C89.2284 86.8828 88.8924 86.75 88.4653 86.75C88.1711 86.75 87.908 86.8138 87.6763 86.9414C87.4471 87.069 87.2661 87.2552 87.1333 87.5C87.0005 87.7448 86.9341 88.0417 86.9341 88.3906ZM96.6968 87.3437L95.8687 87.5781C95.8166 87.4401 95.7397 87.306 95.6382 87.1758C95.5392 87.043 95.4038 86.9336 95.2319 86.8477C95.0601 86.7617 94.84 86.7187 94.5718 86.7187C94.2046 86.7187 93.8986 86.8034 93.6538 86.9727C93.4116 87.1393 93.2905 87.3516 93.2905 87.6094C93.2905 87.8385 93.3739 88.0195 93.5405 88.1523C93.7072 88.2852 93.9676 88.3958 94.3218 88.4844L95.2124 88.7031C95.7489 88.8333 96.1486 89.0326 96.4116 89.3008C96.6746 89.5664 96.8062 89.9089 96.8062 90.3281C96.8062 90.6719 96.7072 90.9792 96.5093 91.25C96.314 91.5208 96.0405 91.7344 95.689 91.8906C95.3374 92.0469 94.9285 92.125 94.4624 92.125C93.8504 92.125 93.3439 91.9922 92.9429 91.7266C92.5418 91.4609 92.2879 91.0729 92.1812 90.5625L93.0562 90.3437C93.1395 90.6667 93.297 90.9089 93.5288 91.0703C93.7632 91.2318 94.0692 91.3125 94.4468 91.3125C94.8765 91.3125 95.2176 91.2214 95.4702 91.0391C95.7254 90.8542 95.853 90.6328 95.853 90.375C95.853 90.1667 95.7801 89.9922 95.6343 89.8516C95.4884 89.7083 95.2645 89.6016 94.9624 89.5312L93.9624 89.2969C93.4129 89.1667 93.0093 88.9648 92.7515 88.6914C92.4963 88.4154 92.3687 88.0703 92.3687 87.6562C92.3687 87.3177 92.4637 87.0182 92.6538 86.7578C92.8465 86.4974 93.1082 86.293 93.439 86.1445C93.7723 85.9961 94.1499 85.9219 94.5718 85.9219C95.1655 85.9219 95.6317 86.0521 95.9702 86.3125C96.3114 86.5729 96.5535 86.9167 96.6968 87.3437ZM100.631 92.125C100.09 92.125 99.6144 91.9961 99.2056 91.7383C98.7993 91.4805 98.4816 91.1198 98.2524 90.6562C98.0259 90.1927 97.9126 89.651 97.9126 89.0312C97.9126 88.4062 98.0259 87.8607 98.2524 87.3945C98.4816 86.9284 98.7993 86.5664 99.2056 86.3086C99.6144 86.0508 100.09 85.9219 100.631 85.9219C101.173 85.9219 101.647 86.0508 102.053 86.3086C102.462 86.5664 102.78 86.9284 103.006 87.3945C103.236 87.8607 103.35 88.4062 103.35 89.0312C103.35 89.651 103.236 90.1927 103.006 90.6562C102.78 91.1198 102.462 91.4805 102.053 91.7383C101.647 91.9961 101.173 92.125 100.631 92.125ZM100.631 91.2969C101.043 91.2969 101.381 91.1914 101.647 90.9805C101.913 90.7695 102.109 90.4922 102.237 90.1484C102.364 89.8047 102.428 89.4323 102.428 89.0312C102.428 88.6302 102.364 88.2565 102.237 87.9102C102.109 87.5638 101.913 87.2839 101.647 87.0703C101.381 86.8568 101.043 86.75 100.631 86.75C100.22 86.75 99.8813 86.8568 99.6157 87.0703C99.3501 87.2839 99.1535 87.5638 99.0259 87.9102C98.8983 88.2565 98.8345 88.6302 98.8345 89.0312C98.8345 89.4323 98.8983 89.8047 99.0259 90.1484C99.1535 90.4922 99.3501 90.7695 99.6157 90.9805C99.8813 91.1914 100.22 91.2969 100.631 91.2969ZM105.679 84V92H104.757V84H105.679ZM109.883 92.125C109.305 92.125 108.806 91.9974 108.387 91.7422C107.971 91.4844 107.649 91.125 107.422 90.6641C107.198 90.2005 107.086 89.6615 107.086 89.0469C107.086 88.4323 107.198 87.8906 107.422 87.4219C107.649 86.9505 107.964 86.5833 108.368 86.3203C108.774 86.0547 109.248 85.9219 109.79 85.9219C110.102 85.9219 110.411 85.974 110.715 86.0781C111.02 86.1823 111.297 86.3516 111.547 86.5859C111.797 86.8177 111.997 87.125 112.145 87.5078C112.293 87.8906 112.368 88.362 112.368 88.9219V89.3125H107.743V88.5156H111.43C111.43 88.1771 111.362 87.875 111.227 87.6094C111.094 87.3437 110.904 87.1341 110.657 86.9805C110.412 86.8268 110.123 86.75 109.79 86.75C109.422 86.75 109.105 86.8411 108.836 87.0234C108.571 87.2031 108.366 87.4375 108.223 87.7266C108.08 88.0156 108.008 88.3255 108.008 88.6562V89.1875C108.008 89.6406 108.086 90.0247 108.243 90.3398C108.402 90.6523 108.622 90.8906 108.903 91.0547C109.184 91.2161 109.511 91.2969 109.883 91.2969C110.125 91.2969 110.344 91.263 110.54 91.1953C110.737 91.125 110.908 91.0208 111.051 90.8828C111.194 90.7422 111.305 90.5677 111.383 90.3594L112.274 90.6094C112.18 90.9115 112.023 91.1771 111.801 91.4062C111.58 91.6328 111.306 91.8099 110.981 91.9375C110.655 92.0625 110.29 92.125 109.883 92.125ZM114.442 92.0625C114.249 92.0625 114.084 91.9935 113.946 91.8555C113.808 91.7174 113.739 91.5521 113.739 91.3594C113.739 91.1667 113.808 91.0013 113.946 90.8633C114.084 90.7253 114.249 90.6562 114.442 90.6562C114.635 90.6562 114.8 90.7253 114.938 90.8633C115.076 91.0013 115.145 91.1667 115.145 91.3594C115.145 91.487 115.112 91.6042 115.047 91.7109C114.985 91.8177 114.9 91.9036 114.793 91.9687C114.689 92.0313 114.572 92.0625 114.442 92.0625ZM117.721 84V92H116.799V84H117.721ZM121.847 92.125C121.306 92.125 120.83 91.9961 120.421 91.7383C120.015 91.4805 119.697 91.1198 119.468 90.6562C119.242 90.1927 119.128 89.651 119.128 89.0312C119.128 88.4062 119.242 87.8607 119.468 87.3945C119.697 86.9284 120.015 86.5664 120.421 86.3086C120.83 86.0508 121.306 85.9219 121.847 85.9219C122.389 85.9219 122.863 86.0508 123.269 86.3086C123.678 86.5664 123.996 86.9284 124.222 87.3945C124.451 87.8607 124.566 88.4062 124.566 89.0312C124.566 89.651 124.451 90.1927 124.222 90.6562C123.996 91.1198 123.678 91.4805 123.269 91.7383C122.863 91.9961 122.389 92.125 121.847 92.125ZM121.847 91.2969C122.259 91.2969 122.597 91.1914 122.863 90.9805C123.128 90.7695 123.325 90.4922 123.453 90.1484C123.58 89.8047 123.644 89.4323 123.644 89.0312C123.644 88.6302 123.58 88.2565 123.453 87.9102C123.325 87.5638 123.128 87.2839 122.863 87.0703C122.597 86.8568 122.259 86.75 121.847 86.75C121.436 86.75 121.097 86.8568 120.832 87.0703C120.566 87.2839 120.369 87.5638 120.242 87.9102C120.114 88.2565 120.05 88.6302 120.05 89.0312C120.05 89.4323 120.114 89.8047 120.242 90.1484C120.369 90.4922 120.566 90.7695 120.832 90.9805C121.097 91.1914 121.436 91.2969 121.847 91.2969ZM128.395 94.375C127.95 94.375 127.567 94.3177 127.247 94.2031C126.926 94.0911 126.659 93.9427 126.446 93.7578C126.235 93.5755 126.067 93.3802 125.942 93.1719L126.676 92.6563C126.76 92.7656 126.865 92.8906 126.993 93.0312C127.12 93.1745 127.295 93.2982 127.516 93.4023C127.74 93.5091 128.033 93.5625 128.395 93.5625C128.879 93.5625 129.279 93.4453 129.594 93.2109C129.909 92.9766 130.067 92.6094 130.067 92.1094V90.8906H129.989C129.921 91 129.825 91.1354 129.7 91.2969C129.577 91.4557 129.4 91.5977 129.168 91.7227C128.939 91.8451 128.629 91.9062 128.239 91.9062C127.754 91.9062 127.319 91.7917 126.934 91.5625C126.551 91.3333 126.248 91 126.024 90.5625C125.803 90.125 125.692 89.5937 125.692 88.9687C125.692 88.3542 125.8 87.819 126.016 87.3633C126.232 86.9049 126.533 86.5508 126.918 86.3008C127.304 86.0482 127.749 85.9219 128.254 85.9219C128.645 85.9219 128.955 85.987 129.184 86.1172C129.416 86.2448 129.593 86.3906 129.715 86.5547C129.84 86.7161 129.937 86.849 130.004 86.9531H130.098V86H130.989V92.1719C130.989 92.6875 130.872 93.1068 130.637 93.4297C130.405 93.7552 130.093 93.9935 129.7 94.1445C129.309 94.2982 128.874 94.375 128.395 94.375ZM128.364 91.0781C128.734 91.0781 129.046 90.9935 129.301 90.8242C129.556 90.6549 129.75 90.4115 129.883 90.0938C130.016 89.776 130.083 89.3958 130.083 88.9531C130.083 88.5208 130.017 88.1393 129.887 87.8086C129.757 87.4779 129.564 87.2187 129.309 87.0312C129.054 86.8437 128.739 86.75 128.364 86.75C127.973 86.75 127.648 86.849 127.387 87.0469C127.129 87.2448 126.935 87.5104 126.805 87.8438C126.678 88.1771 126.614 88.5469 126.614 88.9531C126.614 89.3698 126.679 89.7383 126.809 90.0586C126.942 90.3763 127.137 90.6263 127.395 90.8086C127.655 90.9883 127.978 91.0781 128.364 91.0781ZM133.004 88.625C133.004 87.6406 133.132 86.7357 133.387 85.9102C133.645 85.082 134.012 84.3203 134.489 83.625H135.301C135.114 83.8828 134.938 84.2005 134.774 84.5781C134.612 84.9531 134.471 85.3659 134.348 85.8164C134.226 86.2643 134.129 86.7279 134.059 87.207C133.991 87.6862 133.958 88.1589 133.958 88.625C133.958 89.2448 134.017 89.8737 134.137 90.5117C134.257 91.1497 134.418 91.7422 134.622 92.2891C134.825 92.8359 135.051 93.2813 135.301 93.625H134.489C134.012 92.9297 133.645 92.1693 133.387 91.3437C133.132 90.5156 133.004 89.6094 133.004 88.625ZM136.349 86.5V85.7969C136.349 85.5833 136.387 85.3568 136.462 85.1172C136.541 84.875 136.653 84.6419 136.798 84.418C136.947 84.1914 137.125 83.9948 137.333 83.8281L137.833 84.2344C137.669 84.4687 137.526 84.7135 137.404 84.9687C137.284 85.2214 137.224 85.4922 137.224 85.7812V86.5H136.349ZM138.349 86.5V85.7969C138.349 85.5833 138.387 85.3568 138.462 85.1172C138.541 84.875 138.653 84.6419 138.798 84.418C138.947 84.1914 139.125 83.9948 139.333 83.8281L139.833 84.2344C139.669 84.4687 139.526 84.7135 139.404 84.9687C139.284 85.2214 139.224 85.4922 139.224 85.7812V86.5H138.349ZM144.473 86.467V87.226H146.376V86.467H144.473ZM142.614 83.849V85.741C142.614 87.446 141.8 89.228 140.436 90.031L141.008 90.724C142.46 89.833 143.329 87.82 143.329 85.741V83.849H142.614ZM142.79 83.849V85.708C142.79 87.644 143.593 89.624 145.023 90.504L145.551 89.789C144.242 88.997 143.494 87.303 143.494 85.708V83.849H142.79ZM148.125 82.914V92.858H149.005V82.914H148.125ZM146.112 83.123V92.363H146.97V83.123H146.112ZM155.362 85.719V86.467H158.222V85.719H155.362ZM157.936 82.925V90.284H158.849V82.925H157.936ZM152.458 91.89V92.638H159.091V91.89H152.458ZM152.458 89.569V92.275H153.371V89.569H152.458ZM151.16 83.574V88.59H155.648V83.574H154.757V85.334H152.062V83.574H151.16ZM152.062 86.049H154.757V87.842H152.062V86.049ZM168.507 82.914V92.858H169.365V82.914H168.507ZM167.11 86.962V87.71H168.815V86.962H167.11ZM166.582 83.123V92.363H167.429V83.123H166.582ZM161.962 84.564V85.895C161.962 87.116 161.731 88.931 160.598 89.844L161.115 90.471C162.347 89.492 162.6 87.391 162.6 85.895V84.564H161.962ZM162.138 84.564V85.895C162.138 87.116 162.237 89.492 163.513 90.581L163.975 89.921C162.831 88.865 162.765 86.874 162.765 85.895V84.564H162.138ZM164.261 84.564V85.895C164.261 87.05 164.184 88.931 163.04 89.921L163.513 90.581C164.767 89.536 164.888 87.314 164.888 85.895V84.564H164.261ZM164.426 84.564V85.895C164.426 87.446 164.679 89.503 165.9 90.471L166.428 89.844C165.284 88.942 165.053 87.171 165.053 85.895V84.564H164.426ZM160.928 84.124V84.861H163.359V84.124H160.928ZM163.667 84.124V84.861H166.021V84.124H163.667ZM172.021 84V84.7031C172.021 84.9167 171.982 85.1445 171.904 85.3867C171.828 85.6263 171.716 85.8594 171.568 86.0859C171.422 86.3099 171.245 86.5052 171.037 86.6719L170.537 86.2656C170.701 86.0312 170.843 85.7878 170.962 85.5352C171.085 85.2799 171.146 85.0078 171.146 84.7188V84H172.021ZM174.021 84V84.7031C174.021 84.9167 173.982 85.1445 173.904 85.3867C173.828 85.6263 173.716 85.8594 173.568 86.0859C173.422 86.3099 173.245 86.5052 173.037 86.6719L172.537 86.2656C172.701 86.0312 172.843 85.7878 172.962 85.5352C173.085 85.2799 173.146 85.0078 173.146 84.7188V84H174.021ZM177.367 88.625C177.367 89.6094 177.238 90.5156 176.98 91.3437C176.725 92.1693 176.359 92.9297 175.882 93.625H175.07C175.257 93.3672 175.432 93.0495 175.593 92.6719C175.757 92.2969 175.901 91.8854 176.023 91.4375C176.145 90.987 176.24 90.5221 176.308 90.043C176.378 89.5612 176.414 89.0885 176.414 88.625C176.414 88.0052 176.354 87.3763 176.234 86.7383C176.114 86.1003 175.953 85.5078 175.75 84.9609C175.546 84.4141 175.32 83.9687 175.07 83.625H175.882C176.359 84.3203 176.725 85.082 176.98 85.9102C177.238 86.7357 177.367 87.6406 177.367 88.625Z" fill="black"/>
</svg>
