<svg width="250" height="250" viewBox="0 0 250 250" fill="none" xmlns="http://www.w3.org/2000/svg">
<rect width="250" height="250" fill="white"/>
<path d="M100.843 41.1818C100.025 41.1818 99.3203 40.9886 98.7294 40.6023C98.1385 40.2159 97.6839 39.6837 97.3658 39.0057C97.0476 38.3277 96.8885 37.553 96.8885 36.6818C96.8885 35.7955 97.0514 35.0133 97.3771 34.3352C97.7067 33.6534 98.165 33.1212 98.7521 32.7386C99.343 32.3523 100.032 32.1591 100.82 32.1591C101.434 32.1591 101.987 32.2727 102.479 32.5C102.972 32.7273 103.375 33.0455 103.69 33.4545C104.004 33.8636 104.199 34.3409 104.275 34.8864H102.934C102.832 34.4886 102.604 34.1364 102.252 33.8295C101.904 33.5189 101.434 33.3636 100.843 33.3636C100.32 33.3636 99.862 33.5 99.468 33.7727C99.0779 34.0417 98.773 34.4223 98.5533 34.9148C98.3374 35.4034 98.2294 35.9773 98.2294 36.6364C98.2294 37.3106 98.3355 37.8977 98.5476 38.3977C98.7635 38.8977 99.0665 39.286 99.4567 39.5625C99.8506 39.839 100.313 39.9773 100.843 39.9773C101.192 39.9773 101.508 39.9167 101.792 39.7955C102.076 39.6742 102.317 39.5 102.513 39.2727C102.71 39.0455 102.851 38.7727 102.934 38.4545H104.275C104.199 38.9697 104.012 39.4337 103.712 39.8466C103.417 40.2557 103.025 40.5814 102.536 40.8239C102.051 41.0625 101.487 41.1818 100.843 41.1818ZM109.781 41.1818C108.993 41.1818 108.301 40.9943 107.707 40.6193C107.116 40.2443 106.654 39.7197 106.32 39.0455C105.991 38.3712 105.826 37.5833 105.826 36.6818C105.826 35.7727 105.991 34.9792 106.32 34.3011C106.654 33.6231 107.116 33.0966 107.707 32.7216C108.301 32.3466 108.993 32.1591 109.781 32.1591C110.568 32.1591 111.258 32.3466 111.849 32.7216C112.443 33.0966 112.906 33.6231 113.235 34.3011C113.568 34.9792 113.735 35.7727 113.735 36.6818C113.735 37.5833 113.568 38.3712 113.235 39.0455C112.906 39.7197 112.443 40.2443 111.849 40.6193C111.258 40.9943 110.568 41.1818 109.781 41.1818ZM109.781 39.9773C110.379 39.9773 110.871 39.8239 111.258 39.517C111.644 39.2102 111.93 38.8068 112.116 38.3068C112.301 37.8068 112.394 37.2652 112.394 36.6818C112.394 36.0985 112.301 35.5549 112.116 35.0511C111.93 34.5473 111.644 34.1402 111.258 33.8295C110.871 33.5189 110.379 33.3636 109.781 33.3636C109.182 33.3636 108.69 33.5189 108.303 33.8295C107.917 34.1402 107.631 34.5473 107.445 35.0511C107.26 35.5549 107.167 36.0985 107.167 36.6818C107.167 37.2652 107.26 37.8068 107.445 38.3068C107.631 38.8068 107.917 39.2102 108.303 39.517C108.69 39.8239 109.182 39.9773 109.781 39.9773ZM117.123 35.75V41H115.782V32.2727H117.077V33.6364H117.191C117.396 33.1932 117.706 32.8371 118.123 32.5682C118.54 32.2955 119.077 32.1591 119.737 32.1591C120.327 32.1591 120.844 32.2803 121.288 32.5227C121.731 32.7614 122.076 33.125 122.322 33.6136C122.568 34.0985 122.691 34.7121 122.691 35.4545V41H121.35V35.5455C121.35 34.8598 121.172 34.3258 120.816 33.9432C120.46 33.5568 119.971 33.3636 119.35 33.3636C118.922 33.3636 118.54 33.4564 118.202 33.642C117.869 33.8277 117.606 34.0985 117.413 34.4545C117.219 34.8106 117.123 35.2424 117.123 35.75ZM131.323 34.2273L130.119 34.5682C130.043 34.3674 129.931 34.1723 129.783 33.983C129.639 33.7898 129.442 33.6307 129.192 33.5057C128.942 33.3807 128.622 33.3182 128.232 33.3182C127.698 33.3182 127.253 33.4413 126.897 33.6875C126.545 33.9299 126.369 34.2386 126.369 34.6136C126.369 34.947 126.49 35.2102 126.732 35.4034C126.975 35.5966 127.353 35.7576 127.869 35.8864L129.164 36.2045C129.944 36.3939 130.526 36.6837 130.908 37.0739C131.291 37.4602 131.482 37.9583 131.482 38.5682C131.482 39.0682 131.338 39.5152 131.05 39.9091C130.766 40.303 130.369 40.6136 129.857 40.8409C129.346 41.0682 128.751 41.1818 128.073 41.1818C127.183 41.1818 126.446 40.9886 125.863 40.6023C125.28 40.2159 124.91 39.6515 124.755 38.9091L126.028 38.5909C126.149 39.0606 126.378 39.4129 126.715 39.6477C127.056 39.8826 127.501 40 128.05 40C128.675 40 129.172 39.8674 129.539 39.6023C129.91 39.3333 130.096 39.0114 130.096 38.6364C130.096 38.3333 129.99 38.0795 129.778 37.875C129.566 37.6667 129.24 37.5114 128.8 37.4091L127.346 37.0682C126.547 36.8788 125.96 36.5852 125.585 36.1875C125.213 35.786 125.028 35.2841 125.028 34.6818C125.028 34.1894 125.166 33.7538 125.442 33.375C125.723 32.9962 126.103 32.6989 126.585 32.483C127.069 32.267 127.619 32.1591 128.232 32.1591C129.096 32.1591 129.774 32.3485 130.266 32.7273C130.763 33.1061 131.115 33.6061 131.323 34.2273ZM137.046 41.1818C136.258 41.1818 135.567 40.9943 134.972 40.6193C134.381 40.2443 133.919 39.7197 133.586 39.0455C133.256 38.3712 133.092 37.5833 133.092 36.6818C133.092 35.7727 133.256 34.9792 133.586 34.3011C133.919 33.6231 134.381 33.0966 134.972 32.7216C135.567 32.3466 136.258 32.1591 137.046 32.1591C137.834 32.1591 138.523 32.3466 139.114 32.7216C139.709 33.0966 140.171 33.6231 140.501 34.3011C140.834 34.9792 141.001 35.7727 141.001 36.6818C141.001 37.5833 140.834 38.3712 140.501 39.0455C140.171 39.7197 139.709 40.2443 139.114 40.6193C138.523 40.9943 137.834 41.1818 137.046 41.1818ZM137.046 39.9773C137.645 39.9773 138.137 39.8239 138.523 39.517C138.91 39.2102 139.196 38.8068 139.381 38.3068C139.567 37.8068 139.66 37.2652 139.66 36.6818C139.66 36.0985 139.567 35.5549 139.381 35.0511C139.196 34.5473 138.91 34.1402 138.523 33.8295C138.137 33.5189 137.645 33.3636 137.046 33.3636C136.448 33.3636 135.955 33.5189 135.569 33.8295C135.183 34.1402 134.897 34.5473 134.711 35.0511C134.525 35.5549 134.433 36.0985 134.433 36.6818C134.433 37.2652 134.525 37.8068 134.711 38.3068C134.897 38.8068 135.183 39.2102 135.569 39.517C135.955 39.8239 136.448 39.9773 137.046 39.9773ZM144.388 29.3636V41H143.048V29.3636H144.388ZM150.504 41.1818C149.663 41.1818 148.937 40.9962 148.327 40.625C147.721 40.25 147.254 39.7273 146.924 39.0568C146.598 38.3826 146.435 37.5985 146.435 36.7045C146.435 35.8106 146.598 35.0227 146.924 34.3409C147.254 33.6553 147.712 33.1212 148.299 32.7386C148.89 32.3523 149.579 32.1591 150.367 32.1591C150.822 32.1591 151.271 32.2348 151.714 32.3864C152.157 32.5379 152.56 32.7841 152.924 33.125C153.288 33.4621 153.577 33.9091 153.793 34.4659C154.009 35.0227 154.117 35.7083 154.117 36.5227V37.0909H147.39V35.9318H152.754C152.754 35.4394 152.655 35 152.458 34.6136C152.265 34.2273 151.988 33.9223 151.629 33.6989C151.272 33.4754 150.852 33.3636 150.367 33.3636C149.833 33.3636 149.371 33.4962 148.981 33.7614C148.594 34.0227 148.297 34.3636 148.089 34.7841C147.88 35.2045 147.776 35.6553 147.776 36.1364V36.9091C147.776 37.5682 147.89 38.1269 148.117 38.5852C148.348 39.0398 148.668 39.3864 149.077 39.625C149.487 39.8598 149.962 39.9773 150.504 39.9773C150.856 39.9773 151.174 39.928 151.458 39.8295C151.746 39.7273 151.994 39.5758 152.202 39.375C152.411 39.1705 152.572 38.9167 152.685 38.6136L153.981 38.9773C153.844 39.4167 153.615 39.803 153.293 40.1364C152.971 40.4659 152.574 40.7235 152.1 40.9091C151.627 41.0909 151.094 41.1818 150.504 41.1818Z" fill="black"/>
<rect x="45.5" y="66.5" width="159" height="159" fill="white" stroke="black"/>
<path d="M46 107H205M46 146H205M46 185H205" stroke="#9C9C9C"/>
<path d="M111.866 84.958V85.924H114.288V84.958H111.866ZM109.5 81.626V84.034C109.5 86.204 108.464 88.472 106.728 89.494L107.456 90.376C109.304 89.242 110.41 86.68 110.41 84.034V81.626H109.5ZM109.724 81.626V83.992C109.724 86.456 110.746 88.976 112.566 90.096L113.238 89.186C111.572 88.178 110.62 86.022 110.62 83.992V81.626H109.724ZM116.514 80.436V93.092H117.634V80.436H116.514ZM113.952 80.702V92.462H115.044V80.702H113.952ZM125.725 84.006V84.958H129.365V84.006H125.725ZM129.001 80.45V89.816H130.163V80.45H129.001ZM122.029 91.86V92.812H130.471V91.86H122.029ZM122.029 88.906V92.35H123.191V88.906H122.029ZM120.377 81.276V87.66H126.089V81.276H124.955V83.516H121.525V81.276H120.377ZM121.525 84.426H124.955V86.708H121.525V84.426ZM142.453 80.436V93.092H143.545V80.436H142.453ZM140.675 85.588V86.54H142.845V85.588H140.675ZM140.003 80.702V92.462H141.081V80.702H140.003ZM134.123 82.536V84.23C134.123 85.784 133.829 88.094 132.387 89.256L133.045 90.054C134.613 88.808 134.935 86.134 134.935 84.23V82.536H134.123ZM134.347 82.536V84.23C134.347 85.784 134.473 88.808 136.097 90.194L136.685 89.354C135.229 88.01 135.145 85.476 135.145 84.23V82.536H134.347ZM137.049 82.536V84.23C137.049 85.7 136.951 88.094 135.495 89.354L136.097 90.194C137.693 88.864 137.847 86.036 137.847 84.23V82.536H137.049ZM137.259 82.536V84.23C137.259 86.204 137.581 88.822 139.135 90.054L139.807 89.256C138.351 88.108 138.057 85.854 138.057 84.23V82.536H137.259ZM132.807 81.976V82.914H135.901V81.976H132.807ZM136.293 81.976V82.914H139.289V81.976H136.293Z" fill="black"/>
<path d="M108.45 126.14V127.092H116.906V126.14H108.45ZM106.868 128.73V129.696H118.348V128.73H106.868ZM111.992 129.262V134.05H113.14V129.262H111.992ZM108.45 122.178V126.602H109.626V123.13H116.738V122.178H108.45ZM125.725 125.006V125.958H129.365V125.006H125.725ZM129.001 121.45V130.816H130.163V121.45H129.001ZM122.029 132.86V133.812H130.471V132.86H122.029ZM122.029 129.906V133.35H123.191V129.906H122.029ZM120.377 122.276V128.66H126.089V122.276H124.955V124.516H121.525V122.276H120.377ZM121.525 125.426H124.955V127.708H121.525V125.426ZM142.453 121.436V134.092H143.545V121.436H142.453ZM140.675 126.588V127.54H142.845V126.588H140.675ZM140.003 121.702V133.462H141.081V121.702H140.003ZM134.123 123.536V125.23C134.123 126.784 133.829 129.094 132.387 130.256L133.045 131.054C134.613 129.808 134.935 127.134 134.935 125.23V123.536H134.123ZM134.347 123.536V125.23C134.347 126.784 134.473 129.808 136.097 131.194L136.685 130.354C135.229 129.01 135.145 126.476 135.145 125.23V123.536H134.347ZM137.049 123.536V125.23C137.049 126.7 136.951 129.094 135.495 130.354L136.097 131.194C137.693 129.864 137.847 127.036 137.847 125.23V123.536H137.049ZM137.259 123.536V125.23C137.259 127.204 137.581 129.822 139.135 131.054L139.807 130.256C138.351 129.108 138.057 126.854 138.057 125.23V123.536H137.259ZM132.807 122.976V123.914H135.901V122.976H132.807ZM136.293 122.976V123.914H139.289V122.976H136.293Z" fill="black"/>
<path d="M110.032 161.606V162.152C110.032 163.86 108.786 165.428 106.91 166.058L107.484 166.968C109.584 166.24 110.984 164.364 110.984 162.152V161.606H110.032ZM110.242 161.606V162.152C110.242 164.196 111.614 165.96 113.714 166.632L114.26 165.736C112.426 165.148 111.194 163.692 111.194 162.152V161.606H110.242ZM107.232 160.92V161.858H113.98V160.92H107.232ZM110.032 159.38V161.312H111.194V159.38H110.032ZM113.616 163.006V163.972H116.458V163.006H113.616ZM116.136 159.436V168.2H117.298V159.436H116.136ZM112.622 167.36V167.626C112.622 169.348 110.62 170.748 108.38 171.126L108.828 172.05C111.404 171.588 113.616 169.908 113.616 167.626V167.36H112.622ZM112.818 167.36V167.626C112.818 169.964 115.044 171.574 117.606 172.05L118.068 171.126C115.8 170.748 113.812 169.39 113.812 167.626V167.36H112.818ZM125.725 163.006V163.958H129.365V163.006H125.725ZM129.001 159.45V168.816H130.163V159.45H129.001ZM122.029 170.86V171.812H130.471V170.86H122.029ZM122.029 167.906V171.35H123.191V167.906H122.029ZM120.377 160.276V166.66H126.089V160.276H124.955V162.516H121.525V160.276H120.377ZM121.525 163.426H124.955V165.708H121.525V163.426ZM142.453 159.436V172.092H143.545V159.436H142.453ZM140.675 164.588V165.54H142.845V164.588H140.675ZM140.003 159.702V171.462H141.081V159.702H140.003ZM134.123 161.536V163.23C134.123 164.784 133.829 167.094 132.387 168.256L133.045 169.054C134.613 167.808 134.935 165.134 134.935 163.23V161.536H134.123ZM134.347 161.536V163.23C134.347 164.784 134.473 167.808 136.097 169.194L136.685 168.354C135.229 167.01 135.145 164.476 135.145 163.23V161.536H134.347ZM137.049 161.536V163.23C137.049 164.7 136.951 167.094 135.495 168.354L136.097 169.194C137.693 167.864 137.847 165.036 137.847 163.23V161.536H137.049ZM137.259 161.536V163.23C137.259 165.204 137.581 167.822 139.135 169.054L139.807 168.256C138.351 167.108 138.057 164.854 138.057 163.23V161.536H137.259ZM132.807 160.976V161.914H135.901V160.976H132.807ZM136.293 160.976V161.914H139.289V160.976H136.293Z" fill="black"/>
</svg>
