<svg width="250" height="250" viewBox="0 0 250 250" fill="none" xmlns="http://www.w3.org/2000/svg">
<rect width="250" height="250" fill="white"/>
<path d="M65.5 30.5H184.5V208C184.5 214.351 179.351 219.5 173 219.5H77C70.6487 219.5 65.5 214.351 65.5 208V30.5Z" fill="white" stroke="black"/>
<rect x="65.5" y="181.5" width="119" height="27" fill="white" stroke="black"/>
<path d="M89.7654 200.179C89.2815 200.179 88.8423 200.088 88.4479 199.906C88.0535 199.72 87.7403 199.453 87.5083 199.105C87.2762 198.754 87.1602 198.33 87.1602 197.832C87.1602 197.395 87.2464 197.04 87.4188 196.768C87.5911 196.493 87.8215 196.278 88.1098 196.122C88.3982 195.966 88.7164 195.85 89.0644 195.774C89.4157 195.695 89.7687 195.632 90.1233 195.585C90.5873 195.526 90.9635 195.481 91.2519 195.451C91.5435 195.418 91.7557 195.363 91.8882 195.287C92.0241 195.211 92.0921 195.078 92.0921 194.889V194.849C92.0921 194.359 91.9578 193.978 91.6894 193.706C91.4242 193.434 91.0215 193.298 90.4813 193.298C89.9211 193.298 89.482 193.421 89.1638 193.666C88.8456 193.911 88.6219 194.173 88.4926 194.452L87.379 194.054C87.5779 193.59 87.843 193.229 88.1744 192.97C88.5092 192.708 88.8738 192.526 89.2682 192.423C89.6659 192.317 90.057 192.264 90.4415 192.264C90.6868 192.264 90.9685 192.294 91.2867 192.354C91.6082 192.41 91.9181 192.528 92.2164 192.707C92.518 192.886 92.7682 193.156 92.9671 193.517C93.1659 193.878 93.2654 194.362 93.2654 194.969V200H92.0921V198.966H92.0324C91.9529 199.132 91.8203 199.309 91.6347 199.498C91.4491 199.687 91.2021 199.848 90.8939 199.98C90.5857 200.113 90.2095 200.179 89.7654 200.179ZM89.9443 199.125C90.4084 199.125 90.7994 199.034 91.1176 198.852C91.4391 198.669 91.6811 198.434 91.8435 198.146C92.0092 197.857 92.0921 197.554 92.0921 197.236V196.162C92.0423 196.222 91.933 196.276 91.7639 196.326C91.5982 196.372 91.406 196.414 91.1872 196.45C90.9718 196.483 90.7613 196.513 90.5558 196.54C90.3537 196.563 90.1896 196.583 90.0637 196.599C89.7587 196.639 89.4737 196.704 89.2085 196.793C88.9467 196.879 88.7346 197.01 88.5722 197.186C88.4131 197.358 88.3335 197.594 88.3335 197.892C88.3335 198.3 88.4843 198.608 88.786 198.817C89.0909 199.022 89.477 199.125 89.9443 199.125ZM96.5802 195.406V200H95.4069V192.364H96.5404V193.557H96.6398C96.8188 193.169 97.0906 192.857 97.4552 192.622C97.8198 192.384 98.2904 192.264 98.8671 192.264C99.3841 192.264 99.8366 192.37 100.224 192.582C100.612 192.791 100.914 193.109 101.129 193.537C101.345 193.961 101.452 194.498 101.452 195.148V200H100.279V195.227C100.279 194.627 100.123 194.16 99.8117 193.825C99.5001 193.487 99.0726 193.318 98.529 193.318C98.1545 193.318 97.8198 193.399 97.5248 193.562C97.2331 193.724 97.0028 193.961 96.8337 194.273C96.6647 194.584 96.5802 194.962 96.5802 195.406ZM106.699 200.159C106.009 200.159 105.404 199.995 104.884 199.667C104.367 199.339 103.963 198.88 103.671 198.29C103.383 197.7 103.238 197.01 103.238 196.222C103.238 195.426 103.383 194.732 103.671 194.138C103.963 193.545 104.367 193.085 104.884 192.756C105.404 192.428 106.009 192.264 106.699 192.264C107.388 192.264 107.991 192.428 108.508 192.756C109.029 193.085 109.433 193.545 109.721 194.138C110.013 194.732 110.159 195.426 110.159 196.222C110.159 197.01 110.013 197.7 109.721 198.29C109.433 198.88 109.029 199.339 108.508 199.667C107.991 199.995 107.388 200.159 106.699 200.159ZM106.699 199.105C107.222 199.105 107.653 198.971 107.991 198.702C108.329 198.434 108.58 198.081 108.742 197.643C108.904 197.206 108.986 196.732 108.986 196.222C108.986 195.711 108.904 195.236 108.742 194.795C108.58 194.354 108.329 193.998 107.991 193.726C107.653 193.454 107.222 193.318 106.699 193.318C106.175 193.318 105.744 193.454 105.406 193.726C105.068 193.998 104.818 194.354 104.655 194.795C104.493 195.236 104.412 195.711 104.412 196.222C104.412 196.732 104.493 197.206 104.655 197.643C104.818 198.081 105.068 198.434 105.406 198.702C105.744 198.971 106.175 199.105 106.699 199.105ZM113.123 195.406V200H111.95V192.364H113.083V193.557H113.183C113.362 193.169 113.634 192.857 113.998 192.622C114.363 192.384 114.833 192.264 115.41 192.264C115.927 192.264 116.38 192.37 116.767 192.582C117.155 192.791 117.457 193.109 117.672 193.537C117.888 193.961 117.995 194.498 117.995 195.148V200H116.822V195.227C116.822 194.627 116.666 194.16 116.355 193.825C116.043 193.487 115.616 193.318 115.072 193.318C114.697 193.318 114.363 193.399 114.068 193.562C113.776 193.724 113.546 193.961 113.377 194.273C113.208 194.584 113.123 194.962 113.123 195.406ZM120.622 202.864C120.423 202.864 120.245 202.847 120.09 202.814C119.934 202.784 119.826 202.754 119.766 202.724L120.065 201.69C120.35 201.763 120.602 201.79 120.82 201.77C121.039 201.75 121.233 201.652 121.402 201.477C121.574 201.304 121.732 201.024 121.874 200.636L122.093 200.04L119.269 192.364H120.542L122.65 198.449H122.729L124.837 192.364H126.11L122.869 201.114C122.723 201.508 122.542 201.835 122.327 202.093C122.111 202.355 121.861 202.549 121.576 202.675C121.294 202.801 120.976 202.864 120.622 202.864ZM127.659 200V192.364H128.792V193.557H128.892C129.051 193.149 129.308 192.833 129.662 192.607C130.017 192.379 130.443 192.264 130.94 192.264C131.444 192.264 131.863 192.379 132.198 192.607C132.536 192.833 132.799 193.149 132.988 193.557H133.068C133.263 193.162 133.557 192.849 133.948 192.617C134.339 192.382 134.808 192.264 135.355 192.264C136.038 192.264 136.596 192.478 137.03 192.906C137.464 193.33 137.682 193.991 137.682 194.889V200H136.508V194.889C136.508 194.326 136.354 193.923 136.046 193.681C135.738 193.439 135.375 193.318 134.957 193.318C134.42 193.318 134.004 193.481 133.709 193.805C133.414 194.127 133.267 194.535 133.267 195.028V200H132.074V194.77C132.074 194.336 131.933 193.986 131.651 193.721C131.369 193.452 131.006 193.318 130.562 193.318C130.257 193.318 129.972 193.399 129.707 193.562C129.445 193.724 129.233 193.95 129.071 194.238C128.912 194.523 128.832 194.853 128.832 195.227V200H127.659ZM142.929 200.159C142.24 200.159 141.635 199.995 141.114 199.667C140.597 199.339 140.193 198.88 139.901 198.29C139.613 197.7 139.469 197.01 139.469 196.222C139.469 195.426 139.613 194.732 139.901 194.138C140.193 193.545 140.597 193.085 141.114 192.756C141.635 192.428 142.24 192.264 142.929 192.264C143.618 192.264 144.222 192.428 144.739 192.756C145.259 193.085 145.663 193.545 145.952 194.138C146.243 194.732 146.389 195.426 146.389 196.222C146.389 197.01 146.243 197.7 145.952 198.29C145.663 198.88 145.259 199.339 144.739 199.667C144.222 199.995 143.618 200.159 142.929 200.159ZM142.929 199.105C143.453 199.105 143.884 198.971 144.222 198.702C144.56 198.434 144.81 198.081 144.972 197.643C145.135 197.206 145.216 196.732 145.216 196.222C145.216 195.711 145.135 195.236 144.972 194.795C144.81 194.354 144.56 193.998 144.222 193.726C143.884 193.454 143.453 193.318 142.929 193.318C142.405 193.318 141.975 193.454 141.636 193.726C141.298 193.998 141.048 194.354 140.886 194.795C140.723 195.236 140.642 195.711 140.642 196.222C140.642 196.732 140.723 197.206 140.886 197.643C141.048 198.081 141.298 198.434 141.636 198.702C141.975 198.971 142.405 199.105 142.929 199.105ZM152.993 196.878V192.364H154.166V200H152.993V198.707H152.913C152.734 199.095 152.456 199.425 152.078 199.697C151.7 199.965 151.223 200.099 150.646 200.099C150.169 200.099 149.745 199.995 149.373 199.786C149.002 199.574 148.711 199.256 148.498 198.832C148.286 198.404 148.18 197.866 148.18 197.216V192.364H149.354V197.136C149.354 197.693 149.509 198.137 149.821 198.469C150.136 198.8 150.537 198.966 151.024 198.966C151.316 198.966 151.612 198.891 151.914 198.742C152.219 198.593 152.474 198.364 152.68 198.056C152.888 197.748 152.993 197.355 152.993 196.878ZM161.724 194.074L160.67 194.372C160.604 194.196 160.506 194.026 160.377 193.86C160.251 193.691 160.079 193.552 159.86 193.442C159.641 193.333 159.361 193.278 159.02 193.278C158.552 193.278 158.163 193.386 157.851 193.602C157.543 193.814 157.389 194.084 157.389 194.412C157.389 194.704 157.495 194.934 157.707 195.103C157.919 195.272 158.251 195.413 158.701 195.526L159.835 195.804C160.518 195.97 161.026 196.223 161.361 196.565C161.696 196.903 161.863 197.339 161.863 197.872C161.863 198.31 161.737 198.701 161.486 199.045C161.237 199.39 160.889 199.662 160.441 199.861C159.994 200.06 159.474 200.159 158.88 200.159C158.102 200.159 157.457 199.99 156.946 199.652C156.436 199.314 156.113 198.82 155.977 198.17L157.091 197.892C157.197 198.303 157.397 198.611 157.692 198.817C157.991 199.022 158.38 199.125 158.861 199.125C159.407 199.125 159.842 199.009 160.163 198.777C160.488 198.542 160.65 198.26 160.65 197.932C160.65 197.667 160.557 197.445 160.372 197.266C160.186 197.083 159.901 196.947 159.517 196.858L158.244 196.56C157.545 196.394 157.031 196.137 156.703 195.789C156.378 195.438 156.216 194.999 156.216 194.472C156.216 194.041 156.337 193.66 156.579 193.328C156.824 192.997 157.157 192.737 157.578 192.548C158.002 192.359 158.483 192.264 159.02 192.264C159.775 192.264 160.369 192.43 160.799 192.761C161.234 193.093 161.542 193.53 161.724 194.074Z" fill="black"/>
<rect x="65.5" y="154.5" width="119" height="27" fill="white" stroke="black"/>
<path d="M108.565 165.364V166.358H104.607V165.364H108.565ZM105.761 163.534H106.934V170.812C106.934 171.144 106.982 171.393 107.078 171.558C107.178 171.721 107.304 171.83 107.456 171.886C107.612 171.939 107.776 171.966 107.948 171.966C108.078 171.966 108.184 171.959 108.267 171.946C108.349 171.929 108.416 171.916 108.465 171.906L108.704 172.96C108.624 172.99 108.513 173.02 108.371 173.05C108.228 173.083 108.048 173.099 107.829 173.099C107.498 173.099 107.173 173.028 106.855 172.886C106.54 172.743 106.278 172.526 106.069 172.234C105.864 171.943 105.761 171.575 105.761 171.131V163.534ZM111.667 168.406V173H110.494V162.818H111.667V166.557H111.767C111.945 166.162 112.214 165.849 112.572 165.617C112.933 165.382 113.414 165.264 114.014 165.264C114.534 165.264 114.99 165.369 115.381 165.577C115.772 165.783 116.075 166.099 116.291 166.527C116.509 166.951 116.619 167.491 116.619 168.148V173H115.445V168.227C115.445 167.621 115.288 167.152 114.973 166.82C114.662 166.486 114.229 166.318 113.676 166.318C113.291 166.318 112.946 166.399 112.642 166.562C112.34 166.724 112.101 166.961 111.926 167.273C111.753 167.584 111.667 167.962 111.667 168.406ZM118.765 173V165.364H119.939V173H118.765ZM119.362 164.091C119.133 164.091 118.936 164.013 118.77 163.857C118.608 163.701 118.527 163.514 118.527 163.295C118.527 163.077 118.608 162.889 118.77 162.734C118.936 162.578 119.133 162.5 119.362 162.5C119.591 162.5 119.786 162.578 119.949 162.734C120.114 162.889 120.197 163.077 120.197 163.295C120.197 163.514 120.114 163.701 119.949 163.857C119.786 164.013 119.591 164.091 119.362 164.091ZM122.088 173V165.364H123.221V166.517H123.301C123.44 166.139 123.692 165.833 124.056 165.597C124.421 165.362 124.832 165.244 125.289 165.244C125.375 165.244 125.483 165.246 125.612 165.249C125.742 165.253 125.839 165.258 125.906 165.264V166.457C125.866 166.447 125.775 166.433 125.632 166.413C125.493 166.389 125.346 166.378 125.19 166.378C124.819 166.378 124.487 166.456 124.195 166.612C123.907 166.764 123.678 166.976 123.509 167.248C123.344 167.516 123.261 167.823 123.261 168.168V173H122.088ZM129.948 173.159C129.311 173.159 128.749 172.998 128.262 172.677C127.775 172.352 127.394 171.895 127.119 171.305C126.844 170.711 126.706 170.01 126.706 169.202C126.706 168.4 126.844 167.704 127.119 167.114C127.394 166.524 127.777 166.068 128.267 165.746C128.758 165.425 129.325 165.264 129.968 165.264C130.465 165.264 130.857 165.347 131.146 165.513C131.437 165.675 131.66 165.861 131.812 166.07C131.968 166.275 132.089 166.444 132.175 166.577H132.274V162.818H133.448V173H132.314V171.827H132.175C132.089 171.966 131.966 172.142 131.807 172.354C131.648 172.562 131.421 172.75 131.126 172.915C130.831 173.078 130.438 173.159 129.948 173.159ZM130.107 172.105C130.577 172.105 130.975 171.982 131.3 171.737C131.625 171.489 131.872 171.146 132.041 170.708C132.21 170.267 132.294 169.759 132.294 169.182C132.294 168.612 132.211 168.113 132.046 167.685C131.88 167.254 131.635 166.92 131.31 166.681C130.985 166.439 130.584 166.318 130.107 166.318C129.61 166.318 129.195 166.446 128.864 166.701C128.536 166.953 128.289 167.296 128.123 167.73C127.961 168.161 127.879 168.645 127.879 169.182C127.879 169.725 127.962 170.219 128.128 170.663C128.297 171.104 128.546 171.455 128.874 171.717C129.205 171.976 129.616 172.105 130.107 172.105ZM136.177 168.705C136.177 167.452 136.339 166.3 136.664 165.249C136.992 164.195 137.46 163.226 138.066 162.341H139.1C138.862 162.669 138.638 163.073 138.429 163.554C138.224 164.031 138.043 164.557 137.887 165.13C137.731 165.7 137.609 166.29 137.519 166.9C137.433 167.51 137.39 168.111 137.39 168.705C137.39 169.493 137.466 170.294 137.619 171.106C137.771 171.918 137.977 172.672 138.235 173.368C138.494 174.064 138.782 174.631 139.1 175.068H138.066C137.46 174.183 136.992 173.215 136.664 172.165C136.339 171.111 136.177 169.957 136.177 168.705ZM143.337 168.705C143.337 169.957 143.173 171.111 142.845 172.165C142.52 173.215 142.055 174.183 141.448 175.068H140.414C140.653 174.74 140.875 174.336 141.08 173.855C141.289 173.378 141.471 172.854 141.627 172.284C141.783 171.711 141.904 171.119 141.99 170.509C142.08 169.896 142.124 169.295 142.124 168.705C142.124 167.916 142.048 167.115 141.896 166.303C141.743 165.491 141.538 164.737 141.279 164.041C141.021 163.345 140.732 162.778 140.414 162.341H141.448C142.055 163.226 142.52 164.195 142.845 165.249C143.173 166.3 143.337 167.452 143.337 168.705Z" fill="black"/>
</svg>
