<svg width="250" height="250" viewBox="0 0 250 250" fill="none" xmlns="http://www.w3.org/2000/svg">
<rect width="250" height="250" fill="white"/>
<path d="M100.843 40.1818C100.025 40.1818 99.3203 39.9886 98.7294 39.6023C98.1385 39.2159 97.6839 38.6837 97.3658 38.0057C97.0476 37.3277 96.8885 36.553 96.8885 35.6818C96.8885 34.7955 97.0514 34.0133 97.3771 33.3352C97.7067 32.6534 98.165 32.1212 98.7521 31.7386C99.343 31.3523 100.032 31.1591 100.82 31.1591C101.434 31.1591 101.987 31.2727 102.479 31.5C102.972 31.7273 103.375 32.0455 103.69 32.4545C104.004 32.8636 104.199 33.3409 104.275 33.8864H102.934C102.832 33.4886 102.604 33.1364 102.252 32.8295C101.904 32.5189 101.434 32.3636 100.843 32.3636C100.32 32.3636 99.862 32.5 99.468 32.7727C99.0779 33.0417 98.773 33.4223 98.5533 33.9148C98.3374 34.4034 98.2294 34.9773 98.2294 35.6364C98.2294 36.3106 98.3355 36.8977 98.5476 37.3977C98.7635 37.8977 99.0665 38.286 99.4567 38.5625C99.8506 38.839 100.313 38.9773 100.843 38.9773C101.192 38.9773 101.508 38.9167 101.792 38.7955C102.076 38.6742 102.317 38.5 102.513 38.2727C102.71 38.0455 102.851 37.7727 102.934 37.4545H104.275C104.199 37.9697 104.012 38.4337 103.712 38.8466C103.417 39.2557 103.025 39.5814 102.536 39.8239C102.051 40.0625 101.487 40.1818 100.843 40.1818ZM109.781 40.1818C108.993 40.1818 108.301 39.9943 107.707 39.6193C107.116 39.2443 106.654 38.7197 106.32 38.0455C105.991 37.3712 105.826 36.5833 105.826 35.6818C105.826 34.7727 105.991 33.9792 106.32 33.3011C106.654 32.6231 107.116 32.0966 107.707 31.7216C108.301 31.3466 108.993 31.1591 109.781 31.1591C110.568 31.1591 111.258 31.3466 111.849 31.7216C112.443 32.0966 112.906 32.6231 113.235 33.3011C113.568 33.9792 113.735 34.7727 113.735 35.6818C113.735 36.5833 113.568 37.3712 113.235 38.0455C112.906 38.7197 112.443 39.2443 111.849 39.6193C111.258 39.9943 110.568 40.1818 109.781 40.1818ZM109.781 38.9773C110.379 38.9773 110.871 38.8239 111.258 38.517C111.644 38.2102 111.93 37.8068 112.116 37.3068C112.301 36.8068 112.394 36.2652 112.394 35.6818C112.394 35.0985 112.301 34.5549 112.116 34.0511C111.93 33.5473 111.644 33.1402 111.258 32.8295C110.871 32.5189 110.379 32.3636 109.781 32.3636C109.182 32.3636 108.69 32.5189 108.303 32.8295C107.917 33.1402 107.631 33.5473 107.445 34.0511C107.26 34.5549 107.167 35.0985 107.167 35.6818C107.167 36.2652 107.26 36.8068 107.445 37.3068C107.631 37.8068 107.917 38.2102 108.303 38.517C108.69 38.8239 109.182 38.9773 109.781 38.9773ZM117.123 34.75V40H115.782V31.2727H117.077V32.6364H117.191C117.396 32.1932 117.706 31.8371 118.123 31.5682C118.54 31.2955 119.077 31.1591 119.737 31.1591C120.327 31.1591 120.844 31.2803 121.288 31.5227C121.731 31.7614 122.076 32.125 122.322 32.6136C122.568 33.0985 122.691 33.7121 122.691 34.4545V40H121.35V34.5455C121.35 33.8598 121.172 33.3258 120.816 32.9432C120.46 32.5568 119.971 32.3636 119.35 32.3636C118.922 32.3636 118.54 32.4564 118.202 32.642C117.869 32.8277 117.606 33.0985 117.413 33.4545C117.219 33.8106 117.123 34.2424 117.123 34.75ZM131.323 33.2273L130.119 33.5682C130.043 33.3674 129.931 33.1723 129.783 32.983C129.639 32.7898 129.442 32.6307 129.192 32.5057C128.942 32.3807 128.622 32.3182 128.232 32.3182C127.698 32.3182 127.253 32.4413 126.897 32.6875C126.545 32.9299 126.369 33.2386 126.369 33.6136C126.369 33.947 126.49 34.2102 126.732 34.4034C126.975 34.5966 127.353 34.7576 127.869 34.8864L129.164 35.2045C129.944 35.3939 130.526 35.6837 130.908 36.0739C131.291 36.4602 131.482 36.9583 131.482 37.5682C131.482 38.0682 131.338 38.5152 131.05 38.9091C130.766 39.303 130.369 39.6136 129.857 39.8409C129.346 40.0682 128.751 40.1818 128.073 40.1818C127.183 40.1818 126.446 39.9886 125.863 39.6023C125.28 39.2159 124.91 38.6515 124.755 37.9091L126.028 37.5909C126.149 38.0606 126.378 38.4129 126.715 38.6477C127.056 38.8826 127.501 39 128.05 39C128.675 39 129.172 38.8674 129.539 38.6023C129.91 38.3333 130.096 38.0114 130.096 37.6364C130.096 37.3333 129.99 37.0795 129.778 36.875C129.566 36.6667 129.24 36.5114 128.8 36.4091L127.346 36.0682C126.547 35.8788 125.96 35.5852 125.585 35.1875C125.213 34.786 125.028 34.2841 125.028 33.6818C125.028 33.1894 125.166 32.7538 125.442 32.375C125.723 31.9962 126.103 31.6989 126.585 31.483C127.069 31.267 127.619 31.1591 128.232 31.1591C129.096 31.1591 129.774 31.3485 130.266 31.7273C130.763 32.1061 131.115 32.6061 131.323 33.2273ZM137.046 40.1818C136.258 40.1818 135.567 39.9943 134.972 39.6193C134.381 39.2443 133.919 38.7197 133.586 38.0455C133.256 37.3712 133.092 36.5833 133.092 35.6818C133.092 34.7727 133.256 33.9792 133.586 33.3011C133.919 32.6231 134.381 32.0966 134.972 31.7216C135.567 31.3466 136.258 31.1591 137.046 31.1591C137.834 31.1591 138.523 31.3466 139.114 31.7216C139.709 32.0966 140.171 32.6231 140.501 33.3011C140.834 33.9792 141.001 34.7727 141.001 35.6818C141.001 36.5833 140.834 37.3712 140.501 38.0455C140.171 38.7197 139.709 39.2443 139.114 39.6193C138.523 39.9943 137.834 40.1818 137.046 40.1818ZM137.046 38.9773C137.645 38.9773 138.137 38.8239 138.523 38.517C138.91 38.2102 139.196 37.8068 139.381 37.3068C139.567 36.8068 139.66 36.2652 139.66 35.6818C139.66 35.0985 139.567 34.5549 139.381 34.0511C139.196 33.5473 138.91 33.1402 138.523 32.8295C138.137 32.5189 137.645 32.3636 137.046 32.3636C136.448 32.3636 135.955 32.5189 135.569 32.8295C135.183 33.1402 134.897 33.5473 134.711 34.0511C134.525 34.5549 134.433 35.0985 134.433 35.6818C134.433 36.2652 134.525 36.8068 134.711 37.3068C134.897 37.8068 135.183 38.2102 135.569 38.517C135.955 38.8239 136.448 38.9773 137.046 38.9773ZM144.388 28.3636V40H143.048V28.3636H144.388ZM150.504 40.1818C149.663 40.1818 148.937 39.9962 148.327 39.625C147.721 39.25 147.254 38.7273 146.924 38.0568C146.598 37.3826 146.435 36.5985 146.435 35.7045C146.435 34.8106 146.598 34.0227 146.924 33.3409C147.254 32.6553 147.712 32.1212 148.299 31.7386C148.89 31.3523 149.579 31.1591 150.367 31.1591C150.822 31.1591 151.271 31.2348 151.714 31.3864C152.157 31.5379 152.56 31.7841 152.924 32.125C153.288 32.4621 153.577 32.9091 153.793 33.4659C154.009 34.0227 154.117 34.7083 154.117 35.5227V36.0909H147.39V34.9318H152.754C152.754 34.4394 152.655 34 152.458 33.6136C152.265 33.2273 151.988 32.9223 151.629 32.6989C151.272 32.4754 150.852 32.3636 150.367 32.3636C149.833 32.3636 149.371 32.4962 148.981 32.7614C148.594 33.0227 148.297 33.3636 148.089 33.7841C147.88 34.2045 147.776 34.6553 147.776 35.1364V35.9091C147.776 36.5682 147.89 37.1269 148.117 37.5852C148.348 38.0398 148.668 38.3864 149.077 38.625C149.487 38.8598 149.962 38.9773 150.504 38.9773C150.856 38.9773 151.174 38.928 151.458 38.8295C151.746 38.7273 151.994 38.5758 152.202 38.375C152.411 38.1705 152.572 37.9167 152.685 37.6136L153.981 37.9773C153.844 38.4167 153.615 38.803 153.293 39.1364C152.971 39.4659 152.574 39.7235 152.1 39.9091C151.627 40.0909 151.094 40.1818 150.504 40.1818Z" fill="black"/>
<rect x="45.5" y="65.5" width="159" height="159" fill="white" stroke="black"/>
<path d="M46 106H205M46 145H205M46 184H205" stroke="#9C9C9C"/>
<path d="M110.866 84.958V85.924H113.288V84.958H110.866ZM108.5 81.626V84.034C108.5 86.204 107.464 88.472 105.728 89.494L106.456 90.376C108.304 89.242 109.41 86.68 109.41 84.034V81.626H108.5ZM108.724 81.626V83.992C108.724 86.456 109.746 88.976 111.566 90.096L112.238 89.186C110.572 88.178 109.62 86.022 109.62 83.992V81.626H108.724ZM115.514 80.436V93.092H116.634V80.436H115.514ZM112.952 80.702V92.462H114.044V80.702H112.952ZM124.725 84.006V84.958H128.365V84.006H124.725ZM128.001 80.45V89.816H129.163V80.45H128.001ZM121.029 91.86V92.812H129.471V91.86H121.029ZM121.029 88.906V92.35H122.191V88.906H121.029ZM119.377 81.276V87.66H125.089V81.276H123.955V83.516H120.525V81.276H119.377ZM120.525 84.426H123.955V86.708H120.525V84.426ZM141.453 80.436V93.092H142.545V80.436H141.453ZM139.675 85.588V86.54H141.845V85.588H139.675ZM139.003 80.702V92.462H140.081V80.702H139.003ZM133.123 82.536V84.23C133.123 85.784 132.829 88.094 131.387 89.256L132.045 90.054C133.613 88.808 133.935 86.134 133.935 84.23V82.536H133.123ZM133.347 82.536V84.23C133.347 85.784 133.473 88.808 135.097 90.194L135.685 89.354C134.229 88.01 134.145 85.476 134.145 84.23V82.536H133.347ZM136.049 82.536V84.23C136.049 85.7 135.951 88.094 134.495 89.354L135.097 90.194C136.693 88.864 136.847 86.036 136.847 84.23V82.536H136.049ZM136.259 82.536V84.23C136.259 86.204 136.581 88.822 138.135 90.054L138.807 89.256C137.351 88.108 137.057 85.854 137.057 84.23V82.536H136.259ZM131.807 81.976V82.914H134.901V81.976H131.807ZM135.293 81.976V82.914H138.289V81.976H135.293Z" fill="black"/>
<path d="M110.866 201.958V202.924H113.288V201.958H110.866ZM108.5 198.626V201.034C108.5 203.204 107.464 205.472 105.728 206.494L106.456 207.376C108.304 206.242 109.41 203.68 109.41 201.034V198.626H108.5ZM108.724 198.626V200.992C108.724 203.456 109.746 205.976 111.566 207.096L112.238 206.186C110.572 205.178 109.62 203.022 109.62 200.992V198.626H108.724ZM115.514 197.436V210.092H116.634V197.436H115.514ZM112.952 197.702V209.462H114.044V197.702H112.952ZM124.725 201.006V201.958H128.365V201.006H124.725ZM128.001 197.45V206.816H129.163V197.45H128.001ZM121.029 208.86V209.812H129.471V208.86H121.029ZM121.029 205.906V209.35H122.191V205.906H121.029ZM119.377 198.276V204.66H125.089V198.276H123.955V200.516H120.525V198.276H119.377ZM120.525 201.426H123.955V203.708H120.525V201.426ZM141.453 197.436V210.092H142.545V197.436H141.453ZM139.675 202.588V203.54H141.845V202.588H139.675ZM139.003 197.702V209.462H140.081V197.702H139.003ZM133.123 199.536V201.23C133.123 202.784 132.829 205.094 131.387 206.256L132.045 207.054C133.613 205.808 133.935 203.134 133.935 201.23V199.536H133.123ZM133.347 199.536V201.23C133.347 202.784 133.473 205.808 135.097 207.194L135.685 206.354C134.229 205.01 134.145 202.476 134.145 201.23V199.536H133.347ZM136.049 199.536V201.23C136.049 202.7 135.951 205.094 134.495 206.354L135.097 207.194C136.693 205.864 136.847 203.036 136.847 201.23V199.536H136.049ZM136.259 199.536V201.23C136.259 203.204 136.581 205.822 138.135 207.054L138.807 206.256C137.351 205.108 137.057 202.854 137.057 201.23V199.536H136.259ZM131.807 198.976V199.914H134.901V198.976H131.807ZM135.293 198.976V199.914H138.289V198.976H135.293Z" fill="black"/>
<path d="M107.45 126.14V127.092H115.906V126.14H107.45ZM105.868 128.73V129.696H117.348V128.73H105.868ZM110.992 129.262V134.05H112.14V129.262H110.992ZM107.45 122.178V126.602H108.626V123.13H115.738V122.178H107.45ZM124.725 125.006V125.958H128.365V125.006H124.725ZM128.001 121.45V130.816H129.163V121.45H128.001ZM121.029 132.86V133.812H129.471V132.86H121.029ZM121.029 129.906V133.35H122.191V129.906H121.029ZM119.377 122.276V128.66H125.089V122.276H123.955V124.516H120.525V122.276H119.377ZM120.525 125.426H123.955V127.708H120.525V125.426ZM141.453 121.436V134.092H142.545V121.436H141.453ZM139.675 126.588V127.54H141.845V126.588H139.675ZM139.003 121.702V133.462H140.081V121.702H139.003ZM133.123 123.536V125.23C133.123 126.784 132.829 129.094 131.387 130.256L132.045 131.054C133.613 129.808 133.935 127.134 133.935 125.23V123.536H133.123ZM133.347 123.536V125.23C133.347 126.784 133.473 129.808 135.097 131.194L135.685 130.354C134.229 129.01 134.145 126.476 134.145 125.23V123.536H133.347ZM136.049 123.536V125.23C136.049 126.7 135.951 129.094 134.495 130.354L135.097 131.194C136.693 129.864 136.847 127.036 136.847 125.23V123.536H136.049ZM136.259 123.536V125.23C136.259 127.204 136.581 129.822 138.135 131.054L138.807 130.256C137.351 129.108 137.057 126.854 137.057 125.23V123.536H136.259ZM131.807 122.976V123.914H134.901V122.976H131.807ZM135.293 122.976V123.914H138.289V122.976H135.293Z" fill="black"/>
<path d="M109.032 161.606V162.152C109.032 163.86 107.786 165.428 105.91 166.058L106.484 166.968C108.584 166.24 109.984 164.364 109.984 162.152V161.606H109.032ZM109.242 161.606V162.152C109.242 164.196 110.614 165.96 112.714 166.632L113.26 165.736C111.426 165.148 110.194 163.692 110.194 162.152V161.606H109.242ZM106.232 160.92V161.858H112.98V160.92H106.232ZM109.032 159.38V161.312H110.194V159.38H109.032ZM112.616 163.006V163.972H115.458V163.006H112.616ZM115.136 159.436V168.2H116.298V159.436H115.136ZM111.622 167.36V167.626C111.622 169.348 109.62 170.748 107.38 171.126L107.828 172.05C110.404 171.588 112.616 169.908 112.616 167.626V167.36H111.622ZM111.818 167.36V167.626C111.818 169.964 114.044 171.574 116.606 172.05L117.068 171.126C114.8 170.748 112.812 169.39 112.812 167.626V167.36H111.818ZM124.725 163.006V163.958H128.365V163.006H124.725ZM128.001 159.45V168.816H129.163V159.45H128.001ZM121.029 170.86V171.812H129.471V170.86H121.029ZM121.029 167.906V171.35H122.191V167.906H121.029ZM119.377 160.276V166.66H125.089V160.276H123.955V162.516H120.525V160.276H119.377ZM120.525 163.426H123.955V165.708H120.525V163.426ZM141.453 159.436V172.092H142.545V159.436H141.453ZM139.675 164.588V165.54H141.845V164.588H139.675ZM139.003 159.702V171.462H140.081V159.702H139.003ZM133.123 161.536V163.23C133.123 164.784 132.829 167.094 131.387 168.256L132.045 169.054C133.613 167.808 133.935 165.134 133.935 163.23V161.536H133.123ZM133.347 161.536V163.23C133.347 164.784 133.473 167.808 135.097 169.194L135.685 168.354C134.229 167.01 134.145 164.476 134.145 163.23V161.536H133.347ZM136.049 161.536V163.23C136.049 164.7 135.951 167.094 134.495 168.354L135.097 169.194C136.693 167.864 136.847 165.036 136.847 163.23V161.536H136.049ZM136.259 161.536V163.23C136.259 165.204 136.581 167.822 138.135 169.054L138.807 168.256C137.351 167.108 137.057 164.854 137.057 163.23V161.536H136.259ZM131.807 160.976V161.914H134.901V160.976H131.807ZM135.293 160.976V161.914H138.289V160.976H135.293Z" fill="black"/>
</svg>
