<svg width="719" height="418" viewBox="0 0 719 418" fill="none" xmlns="http://www.w3.org/2000/svg">
<rect x="0.5" y="0.5" width="718" height="417" fill="white" stroke="black"/>
<path d="M121.327 92H119.566C119.462 91.4934 119.279 91.0483 119.019 90.6648C118.763 90.2812 118.451 89.9593 118.081 89.6989C117.717 89.4337 117.312 89.2348 116.867 89.1023C116.422 88.9697 115.958 88.9034 115.475 88.9034C114.594 88.9034 113.796 89.1259 113.081 89.571C112.371 90.0161 111.805 90.6719 111.384 91.5384C110.967 92.4048 110.759 93.4678 110.759 94.7273C110.759 95.9867 110.967 97.0497 111.384 97.9162C111.805 98.7827 112.371 99.4384 113.081 99.8835C113.796 100.329 114.594 100.551 115.475 100.551C115.958 100.551 116.422 100.485 116.867 100.352C117.312 100.22 117.717 100.023 118.081 99.7628C118.451 99.4976 118.763 99.1733 119.019 98.7898C119.279 98.4015 119.462 97.9564 119.566 97.4545H121.327C121.195 98.1979 120.953 98.8632 120.603 99.4503C120.252 100.037 119.817 100.537 119.296 100.949C118.775 101.356 118.19 101.666 117.542 101.879C116.898 102.092 116.209 102.199 115.475 102.199C114.234 102.199 113.131 101.896 112.165 101.29C111.199 100.684 110.439 99.822 109.885 98.7045C109.331 97.5871 109.055 96.2614 109.055 94.7273C109.055 93.1932 109.331 91.8674 109.885 90.75C110.439 89.6326 111.199 88.7708 112.165 88.1648C113.131 87.5587 114.234 87.2557 115.475 87.2557C116.209 87.2557 116.898 87.3622 117.542 87.5753C118.19 87.7884 118.775 88.1009 119.296 88.5128C119.817 88.92 120.252 89.4171 120.603 90.0043C120.953 90.5866 121.195 91.2519 121.327 92ZM127.156 102.256C126.465 102.256 125.838 102.125 125.274 101.865C124.711 101.6 124.263 101.219 123.932 100.722C123.601 100.22 123.435 99.6136 123.435 98.9034C123.435 98.2784 123.558 97.7718 123.804 97.3835C124.05 96.9905 124.379 96.6828 124.791 96.4602C125.203 96.2377 125.658 96.072 126.155 95.9631C126.657 95.8494 127.161 95.7595 127.668 95.6932C128.331 95.608 128.868 95.544 129.28 95.5014C129.697 95.4541 130 95.3759 130.189 95.267C130.383 95.1581 130.48 94.9687 130.48 94.6989V94.642C130.48 93.9413 130.289 93.3968 129.905 93.0085C129.526 92.6203 128.951 92.4261 128.179 92.4261C127.379 92.4261 126.752 92.6013 126.297 92.9517C125.843 93.3021 125.523 93.6761 125.338 94.0739L123.747 93.5057C124.031 92.8428 124.41 92.3267 124.884 91.9574C125.362 91.5833 125.883 91.3229 126.446 91.1761C127.014 91.0246 127.573 90.9489 128.122 90.9489C128.473 90.9489 128.875 90.9915 129.33 91.0767C129.789 91.1572 130.232 91.3253 130.658 91.581C131.089 91.8366 131.446 92.2225 131.73 92.7386C132.014 93.2547 132.156 93.946 132.156 94.8125V102H130.48V100.523H130.395C130.281 100.759 130.092 101.013 129.827 101.283C129.562 101.553 129.209 101.782 128.769 101.972C128.328 102.161 127.791 102.256 127.156 102.256ZM127.412 100.75C128.075 100.75 128.634 100.62 129.088 100.359C129.548 100.099 129.893 99.7628 130.125 99.3509C130.362 98.9389 130.48 98.5057 130.48 98.0511V96.517C130.409 96.6023 130.253 96.6804 130.012 96.7514C129.775 96.8177 129.5 96.8769 129.188 96.929C128.88 96.9763 128.579 97.0189 128.286 97.0568C127.997 97.09 127.762 97.1184 127.583 97.142C127.147 97.1989 126.74 97.2912 126.361 97.419C125.987 97.5421 125.684 97.7292 125.452 97.9801C125.225 98.2263 125.111 98.5625 125.111 98.9886C125.111 99.571 125.326 100.011 125.757 100.31C126.193 100.603 126.744 100.75 127.412 100.75ZM136.892 87.4545V102H135.216V87.4545H136.892ZM141.638 87.4545V102H139.962V87.4545H141.638ZM158.515 91.0909C158.43 90.3712 158.084 89.8125 157.478 89.4148C156.872 89.017 156.128 88.8182 155.248 88.8182C154.604 88.8182 154.04 88.9223 153.557 89.1307C153.079 89.339 152.705 89.6255 152.435 89.9901C152.17 90.3546 152.037 90.7689 152.037 91.233C152.037 91.6212 152.13 91.955 152.314 92.2344C152.504 92.509 152.745 92.7386 153.039 92.9233C153.332 93.1032 153.64 93.2524 153.962 93.3707C154.284 93.4844 154.58 93.5767 154.85 93.6477L156.327 94.0455C156.706 94.1449 157.127 94.2822 157.591 94.4574C158.06 94.6326 158.508 94.8717 158.934 95.1747C159.365 95.473 159.72 95.8565 159.999 96.3253C160.278 96.794 160.418 97.3693 160.418 98.0511C160.418 98.8371 160.212 99.5473 159.8 100.182C159.393 100.816 158.796 101.321 158.01 101.695C157.229 102.069 156.28 102.256 155.162 102.256C154.121 102.256 153.219 102.088 152.456 101.751C151.699 101.415 151.102 100.946 150.667 100.345C150.236 99.7438 149.992 99.0455 149.935 98.25H151.753C151.801 98.7992 151.985 99.2538 152.307 99.6136C152.634 99.9687 153.046 100.234 153.543 100.409C154.045 100.58 154.585 100.665 155.162 100.665C155.835 100.665 156.439 100.556 156.974 100.338C157.509 100.116 157.932 99.8078 158.245 99.4148C158.557 99.017 158.714 98.553 158.714 98.0227C158.714 97.5398 158.579 97.1468 158.309 96.8438C158.039 96.5407 157.684 96.2945 157.243 96.1051C156.803 95.9157 156.327 95.75 155.816 95.608L154.026 95.0966C152.89 94.7699 151.99 94.3035 151.327 93.6974C150.664 93.0914 150.333 92.2983 150.333 91.3182C150.333 90.5038 150.553 89.7936 150.993 89.1875C151.439 88.5767 152.035 88.1032 152.783 87.767C153.536 87.4261 154.376 87.2557 155.305 87.2557C156.242 87.2557 157.075 87.4238 157.805 87.7599C158.534 88.0914 159.111 88.5459 159.537 89.1236C159.968 89.7012 160.196 90.357 160.219 91.0909H158.515ZM167.831 91.0909V92.5114H162.178V91.0909H167.831ZM163.825 88.4773H165.502V98.875C165.502 99.3485 165.57 99.7036 165.708 99.9403C165.85 100.172 166.03 100.329 166.247 100.409C166.47 100.485 166.704 100.523 166.95 100.523C167.135 100.523 167.287 100.513 167.405 100.494C167.523 100.471 167.618 100.452 167.689 100.438L168.03 101.943C167.916 101.986 167.758 102.028 167.554 102.071C167.351 102.118 167.093 102.142 166.78 102.142C166.307 102.142 165.843 102.04 165.388 101.837C164.938 101.633 164.564 101.323 164.266 100.906C163.972 100.49 163.825 99.964 163.825 99.3295V88.4773ZM173.563 102.256C172.871 102.256 172.244 102.125 171.681 101.865C171.117 101.6 170.67 101.219 170.338 100.722C170.007 100.22 169.841 99.6136 169.841 98.9034C169.841 98.2784 169.964 97.7718 170.21 97.3835C170.457 96.9905 170.786 96.6828 171.198 96.4602C171.61 96.2377 172.064 96.072 172.561 95.9631C173.063 95.8494 173.567 95.7595 174.074 95.6932C174.737 95.608 175.274 95.544 175.686 95.5014C176.103 95.4541 176.406 95.3759 176.595 95.267C176.789 95.1581 176.887 94.9687 176.887 94.6989V94.642C176.887 93.9413 176.695 93.3968 176.311 93.0085C175.932 92.6203 175.357 92.4261 174.585 92.4261C173.785 92.4261 173.158 92.6013 172.703 92.9517C172.249 93.3021 171.929 93.6761 171.744 94.0739L170.154 93.5057C170.438 92.8428 170.816 92.3267 171.29 91.9574C171.768 91.5833 172.289 91.3229 172.852 91.1761C173.421 91.0246 173.979 90.9489 174.529 90.9489C174.879 90.9489 175.281 90.9915 175.736 91.0767C176.195 91.1572 176.638 91.3253 177.064 91.581C177.495 91.8366 177.852 92.2225 178.137 92.7386C178.421 93.2547 178.563 93.946 178.563 94.8125V102H176.887V100.523H176.801C176.688 100.759 176.498 101.013 176.233 101.283C175.968 101.553 175.615 101.782 175.175 101.972C174.735 102.161 174.197 102.256 173.563 102.256ZM173.818 100.75C174.481 100.75 175.04 100.62 175.494 100.359C175.954 100.099 176.299 99.7628 176.531 99.3509C176.768 98.9389 176.887 98.5057 176.887 98.0511V96.517C176.816 96.6023 176.659 96.6804 176.418 96.7514C176.181 96.8177 175.906 96.8769 175.594 96.929C175.286 96.9763 174.985 97.0189 174.692 97.0568C174.403 97.09 174.169 97.1184 173.989 97.142C173.553 97.1989 173.146 97.2912 172.767 97.419C172.393 97.5421 172.09 97.7292 171.858 97.9801C171.631 98.2263 171.517 98.5625 171.517 98.9886C171.517 99.571 171.733 100.011 172.164 100.31C172.599 100.603 173.151 100.75 173.818 100.75ZM186.054 102.227C185.031 102.227 184.15 101.986 183.412 101.503C182.673 101.02 182.105 100.355 181.707 99.5071C181.309 98.6596 181.111 97.6913 181.111 96.6023C181.111 95.4943 181.314 94.5166 181.721 93.669C182.133 92.8168 182.706 92.1515 183.44 91.6733C184.179 91.1903 185.041 90.9489 186.025 90.9489C186.792 90.9489 187.484 91.0909 188.099 91.375C188.715 91.6591 189.219 92.0568 189.612 92.5682C190.005 93.0795 190.249 93.6761 190.344 94.358H188.667C188.54 93.8608 188.256 93.4205 187.815 93.0369C187.38 92.6487 186.792 92.4545 186.054 92.4545C185.4 92.4545 184.827 92.625 184.335 92.9659C183.847 93.3021 183.466 93.7779 183.192 94.3935C182.922 95.0043 182.787 95.7216 182.787 96.5455C182.787 97.3883 182.919 98.1222 183.184 98.7472C183.454 99.3722 183.833 99.8575 184.321 100.203C184.813 100.549 185.391 100.722 186.054 100.722C186.489 100.722 186.885 100.646 187.24 100.494C187.595 100.343 187.896 100.125 188.142 99.8409C188.388 99.5568 188.563 99.2159 188.667 98.8182H190.344C190.249 99.4621 190.015 100.042 189.64 100.558C189.271 101.07 188.781 101.477 188.17 101.78C187.564 102.078 186.859 102.227 186.054 102.227ZM194.356 98.0227L194.328 95.9489H194.669L199.442 91.0909H201.515L196.43 96.233H196.288L194.356 98.0227ZM192.794 102V87.4545H194.47V102H192.794ZM199.726 102L195.464 96.6023L196.657 95.4375L201.856 102H199.726Z" fill="black"/>
<rect x="436.5" y="124.5" width="216" height="43" fill="white" stroke="black"/>
<path d="M504.099 106L500.121 91.4545H501.911L504.951 103.301H505.093L508.19 91.4545H510.178L513.275 103.301H513.417L516.457 91.4545H518.246L514.269 106H512.451L509.241 94.4091H509.127L505.917 106H504.099ZM523.772 106.227C522.721 106.227 521.814 105.995 521.052 105.531C520.294 105.062 519.71 104.409 519.298 103.571C518.89 102.728 518.687 101.748 518.687 100.631C518.687 99.5133 518.89 98.5284 519.298 97.6761C519.71 96.8191 520.282 96.1515 521.016 95.6733C521.755 95.1903 522.617 94.9489 523.602 94.9489C524.17 94.9489 524.731 95.0436 525.285 95.233C525.839 95.4223 526.343 95.7301 526.798 96.1562C527.252 96.5777 527.614 97.1364 527.884 97.8324C528.154 98.5284 528.289 99.3854 528.289 100.403V101.114H519.88V99.6648H526.585C526.585 99.0492 526.461 98.5 526.215 98.017C525.974 97.5341 525.628 97.1529 525.178 96.8736C524.733 96.5942 524.208 96.4545 523.602 96.4545C522.934 96.4545 522.356 96.6203 521.869 96.9517C521.386 97.2784 521.014 97.7045 520.754 98.2301C520.493 98.7557 520.363 99.3191 520.363 99.9205V100.886C520.363 101.71 520.505 102.409 520.789 102.982C521.078 103.55 521.478 103.983 521.989 104.281C522.501 104.575 523.095 104.722 523.772 104.722C524.212 104.722 524.61 104.66 524.965 104.537C525.325 104.409 525.635 104.22 525.896 103.969C526.156 103.713 526.357 103.396 526.499 103.017L528.119 103.472C527.948 104.021 527.662 104.504 527.259 104.92C526.857 105.332 526.36 105.654 525.768 105.886C525.176 106.114 524.511 106.227 523.772 106.227ZM531.066 106V91.4545H532.742V96.8239H532.884C533.007 96.6345 533.178 96.393 533.396 96.0994C533.618 95.8011 533.935 95.536 534.347 95.304C534.764 95.0672 535.327 94.9489 536.038 94.9489C536.956 94.9489 537.766 95.1785 538.467 95.6378C539.167 96.0971 539.714 96.7481 540.107 97.5909C540.5 98.4337 540.697 99.428 540.697 100.574C540.697 101.729 540.5 102.731 540.107 103.578C539.714 104.421 539.17 105.074 538.474 105.538C537.778 105.998 536.975 106.227 536.066 106.227C535.365 106.227 534.804 106.111 534.383 105.879C533.961 105.643 533.637 105.375 533.41 105.077C533.183 104.774 533.007 104.523 532.884 104.324H532.685V106H531.066ZM532.714 100.545C532.714 101.369 532.835 102.096 533.076 102.726C533.317 103.351 533.67 103.841 534.134 104.196C534.598 104.546 535.166 104.722 535.839 104.722C536.54 104.722 537.124 104.537 537.593 104.168C538.067 103.794 538.422 103.292 538.658 102.662C538.9 102.027 539.021 101.322 539.021 100.545C539.021 99.7784 538.902 99.0871 538.665 98.4716C538.433 97.8513 538.081 97.3613 537.607 97.0014C537.138 96.6368 536.549 96.4545 535.839 96.4545C535.157 96.4545 534.584 96.6274 534.12 96.973C533.656 97.3139 533.306 97.7921 533.069 98.4077C532.832 99.0185 532.714 99.7311 532.714 100.545ZM549.71 106H547.863L553.204 91.4545H555.022L560.363 106H558.516L554.17 93.7557H554.056L549.71 106ZM550.391 100.318H557.835V101.881H550.391V100.318ZM562.629 106V91.4545H567.543C568.684 91.4545 569.617 91.6605 570.342 92.0724C571.071 92.4796 571.611 93.0312 571.961 93.7273C572.311 94.4233 572.487 95.1998 572.487 96.0568C572.487 96.9138 572.311 97.6927 571.961 98.3935C571.615 99.0942 571.08 99.6529 570.356 100.07C569.631 100.482 568.703 100.688 567.572 100.688H564.049V99.125H567.515C568.296 99.125 568.924 98.9901 569.397 98.7202C569.871 98.4503 570.214 98.0857 570.427 97.6264C570.645 97.1624 570.754 96.6392 570.754 96.0568C570.754 95.4744 570.645 94.9536 570.427 94.4943C570.214 94.035 569.868 93.6752 569.39 93.4148C568.912 93.1496 568.277 93.017 567.487 93.017H564.39V106H562.629ZM577.085 91.4545V106H575.324V91.4545H577.085ZM588.117 97.5341L586.611 97.9602C586.516 97.7093 586.377 97.4654 586.192 97.2287C586.012 96.9872 585.766 96.7884 585.453 96.6321C585.141 96.4759 584.741 96.3977 584.253 96.3977C583.586 96.3977 583.029 96.5516 582.584 96.8594C582.144 97.1624 581.924 97.5483 581.924 98.017C581.924 98.4337 582.075 98.7628 582.378 99.0043C582.681 99.2457 583.155 99.447 583.799 99.608L585.418 100.006C586.393 100.242 587.12 100.605 587.598 101.092C588.077 101.575 588.316 102.198 588.316 102.96C588.316 103.585 588.136 104.144 587.776 104.636C587.421 105.129 586.924 105.517 586.284 105.801C585.645 106.085 584.902 106.227 584.054 106.227C582.942 106.227 582.021 105.986 581.292 105.503C580.562 105.02 580.101 104.314 579.907 103.386L581.498 102.989C581.649 103.576 581.935 104.016 582.357 104.31C582.783 104.603 583.339 104.75 584.026 104.75C584.807 104.75 585.427 104.584 585.887 104.253C586.351 103.917 586.583 103.514 586.583 103.045C586.583 102.667 586.45 102.349 586.185 102.094C585.92 101.833 585.513 101.639 584.963 101.511L583.145 101.085C582.146 100.848 581.412 100.482 580.944 99.9844C580.48 99.4825 580.248 98.8551 580.248 98.1023C580.248 97.4867 580.42 96.9422 580.766 96.4688C581.116 95.9953 581.592 95.6236 582.194 95.3537C582.8 95.0838 583.486 94.9489 584.253 94.9489C585.333 94.9489 586.18 95.1856 586.796 95.6591C587.416 96.1326 587.856 96.7576 588.117 97.5341Z" fill="black"/>
<path d="M95.5 128.5H214.5V306C214.5 312.351 209.351 317.5 203 317.5H107C100.649 317.5 95.5 312.351 95.5 306V128.5Z" fill="white" stroke="black"/>
<path d="M423 318H667.5M423 285.191H667.5" stroke="black" stroke-width="2"/>
<path d="M487.747 249H485.986C485.882 248.493 485.699 248.048 485.439 247.665C485.183 247.281 484.871 246.959 484.501 246.699C484.137 246.434 483.732 246.235 483.287 246.102C482.842 245.97 482.378 245.903 481.895 245.903C481.014 245.903 480.216 246.126 479.501 246.571C478.791 247.016 478.225 247.672 477.804 248.538C477.387 249.405 477.179 250.468 477.179 251.727C477.179 252.987 477.387 254.05 477.804 254.916C478.225 255.783 478.791 256.438 479.501 256.884C480.216 257.329 481.014 257.551 481.895 257.551C482.378 257.551 482.842 257.485 483.287 257.352C483.732 257.22 484.137 257.023 484.501 256.763C484.871 256.498 485.183 256.173 485.439 255.79C485.699 255.402 485.882 254.956 485.986 254.455H487.747C487.615 255.198 487.373 255.863 487.023 256.45C486.672 257.037 486.237 257.537 485.716 257.949C485.195 258.356 484.61 258.666 483.962 258.879C483.318 259.092 482.629 259.199 481.895 259.199C480.654 259.199 479.551 258.896 478.585 258.29C477.619 257.684 476.859 256.822 476.305 255.705C475.751 254.587 475.474 253.261 475.474 251.727C475.474 250.193 475.751 248.867 476.305 247.75C476.859 246.633 477.619 245.771 478.585 245.165C479.551 244.559 480.654 244.256 481.895 244.256C482.629 244.256 483.318 244.362 483.962 244.575C484.61 244.788 485.195 245.101 485.716 245.513C486.237 245.92 486.672 246.417 487.023 247.004C487.373 247.587 487.615 248.252 487.747 249ZM493.576 259.256C492.885 259.256 492.258 259.125 491.694 258.865C491.131 258.6 490.683 258.219 490.352 257.722C490.02 257.22 489.855 256.614 489.855 255.903C489.855 255.278 489.978 254.772 490.224 254.384C490.47 253.991 490.799 253.683 491.211 253.46C491.623 253.238 492.078 253.072 492.575 252.963C493.077 252.849 493.581 252.759 494.088 252.693C494.751 252.608 495.288 252.544 495.7 252.501C496.117 252.454 496.42 252.376 496.609 252.267C496.803 252.158 496.9 251.969 496.9 251.699V251.642C496.9 250.941 496.708 250.397 496.325 250.009C495.946 249.62 495.371 249.426 494.599 249.426C493.799 249.426 493.172 249.601 492.717 249.952C492.262 250.302 491.943 250.676 491.758 251.074L490.167 250.506C490.451 249.843 490.83 249.327 491.304 248.957C491.782 248.583 492.303 248.323 492.866 248.176C493.434 248.025 493.993 247.949 494.542 247.949C494.893 247.949 495.295 247.991 495.75 248.077C496.209 248.157 496.652 248.325 497.078 248.581C497.509 248.837 497.866 249.223 498.15 249.739C498.434 250.255 498.576 250.946 498.576 251.812V259H496.9V257.523H496.815C496.701 257.759 496.512 258.013 496.247 258.283C495.982 258.553 495.629 258.782 495.189 258.972C494.748 259.161 494.211 259.256 493.576 259.256ZM493.832 257.75C494.495 257.75 495.054 257.62 495.508 257.359C495.967 257.099 496.313 256.763 496.545 256.351C496.782 255.939 496.9 255.506 496.9 255.051V253.517C496.829 253.602 496.673 253.68 496.431 253.751C496.195 253.818 495.92 253.877 495.608 253.929C495.3 253.976 494.999 254.019 494.706 254.057C494.417 254.09 494.182 254.118 494.002 254.142C493.567 254.199 493.16 254.291 492.781 254.419C492.407 254.542 492.104 254.729 491.872 254.98C491.645 255.226 491.531 255.562 491.531 255.989C491.531 256.571 491.746 257.011 492.177 257.31C492.613 257.603 493.164 257.75 493.832 257.75ZM503.312 244.455V259H501.636V244.455H503.312ZM508.058 244.455V259H506.382V244.455H508.058ZM511.355 259V244.455H513.031V249.824H513.173C513.296 249.634 513.467 249.393 513.685 249.099C513.907 248.801 514.224 248.536 514.636 248.304C515.053 248.067 515.616 247.949 516.327 247.949C517.245 247.949 518.055 248.179 518.756 248.638C519.456 249.097 520.003 249.748 520.396 250.591C520.789 251.434 520.986 252.428 520.986 253.574C520.986 254.729 520.789 255.731 520.396 256.578C520.003 257.421 519.459 258.074 518.763 258.538C518.067 258.998 517.264 259.227 516.355 259.227C515.654 259.227 515.093 259.111 514.672 258.879C514.25 258.643 513.926 258.375 513.699 258.077C513.472 257.774 513.296 257.523 513.173 257.324H512.974V259H511.355ZM513.003 253.545C513.003 254.369 513.124 255.096 513.365 255.726C513.607 256.351 513.959 256.841 514.423 257.196C514.887 257.546 515.455 257.722 516.128 257.722C516.829 257.722 517.413 257.537 517.882 257.168C518.356 256.794 518.711 256.292 518.947 255.662C519.189 255.027 519.31 254.322 519.31 253.545C519.31 252.778 519.191 252.087 518.955 251.472C518.723 250.851 518.37 250.361 517.896 250.001C517.428 249.637 516.838 249.455 516.128 249.455C515.446 249.455 514.873 249.627 514.409 249.973C513.945 250.314 513.595 250.792 513.358 251.408C513.121 252.018 513.003 252.731 513.003 253.545ZM526.76 259.256C526.069 259.256 525.441 259.125 524.878 258.865C524.314 258.6 523.867 258.219 523.536 257.722C523.204 257.22 523.038 256.614 523.038 255.903C523.038 255.278 523.161 254.772 523.408 254.384C523.654 253.991 523.983 253.683 524.395 253.46C524.807 253.238 525.261 253.072 525.759 252.963C526.26 252.849 526.765 252.759 527.271 252.693C527.934 252.608 528.472 252.544 528.884 252.501C529.3 252.454 529.603 252.376 529.793 252.267C529.987 252.158 530.084 251.969 530.084 251.699V251.642C530.084 250.941 529.892 250.397 529.509 250.009C529.13 249.62 528.554 249.426 527.783 249.426C526.982 249.426 526.355 249.601 525.901 249.952C525.446 250.302 525.126 250.676 524.942 251.074L523.351 250.506C523.635 249.843 524.014 249.327 524.487 248.957C524.965 248.583 525.486 248.323 526.05 248.176C526.618 248.025 527.177 247.949 527.726 247.949C528.076 247.949 528.479 247.991 528.933 248.077C529.393 248.157 529.835 248.325 530.261 248.581C530.692 248.837 531.05 249.223 531.334 249.739C531.618 250.255 531.76 250.946 531.76 251.812V259H530.084V257.523H529.999C529.885 257.759 529.696 258.013 529.43 258.283C529.165 258.553 528.813 258.782 528.372 258.972C527.932 259.161 527.394 259.256 526.76 259.256ZM527.016 257.75C527.679 257.75 528.237 257.62 528.692 257.359C529.151 257.099 529.497 256.763 529.729 256.351C529.965 255.939 530.084 255.506 530.084 255.051V253.517C530.013 253.602 529.857 253.68 529.615 253.751C529.378 253.818 529.104 253.877 528.791 253.929C528.483 253.976 528.183 254.019 527.889 254.057C527.6 254.09 527.366 254.118 527.186 254.142C526.75 254.199 526.343 254.291 525.964 254.419C525.59 254.542 525.287 254.729 525.055 254.98C524.828 255.226 524.714 255.562 524.714 255.989C524.714 256.571 524.93 257.011 525.361 257.31C525.796 257.603 526.348 257.75 527.016 257.75ZM539.251 259.227C538.228 259.227 537.348 258.986 536.609 258.503C535.87 258.02 535.302 257.355 534.904 256.507C534.507 255.66 534.308 254.691 534.308 253.602C534.308 252.494 534.511 251.517 534.919 250.669C535.331 249.817 535.904 249.152 536.637 248.673C537.376 248.19 538.238 247.949 539.223 247.949C539.99 247.949 540.681 248.091 541.297 248.375C541.912 248.659 542.416 249.057 542.809 249.568C543.202 250.08 543.446 250.676 543.541 251.358H541.865C541.737 250.861 541.453 250.42 541.012 250.037C540.577 249.649 539.99 249.455 539.251 249.455C538.598 249.455 538.025 249.625 537.532 249.966C537.045 250.302 536.663 250.778 536.389 251.393C536.119 252.004 535.984 252.722 535.984 253.545C535.984 254.388 536.117 255.122 536.382 255.747C536.652 256.372 537.03 256.857 537.518 257.203C538.011 257.549 538.588 257.722 539.251 257.722C539.687 257.722 540.082 257.646 540.437 257.494C540.792 257.343 541.093 257.125 541.339 256.841C541.585 256.557 541.761 256.216 541.865 255.818H543.541C543.446 256.462 543.212 257.042 542.838 257.558C542.468 258.07 541.978 258.477 541.368 258.78C540.761 259.078 540.056 259.227 539.251 259.227ZM547.554 255.023L547.525 252.949H547.866L552.639 248.091H554.713L549.627 253.233H549.485L547.554 255.023ZM545.991 259V244.455H547.667V259H545.991ZM552.923 259L548.662 253.602L549.855 252.438L555.054 259H552.923ZM568.006 254.455H569.938L571.558 256.585L571.984 257.153L574.398 260.364H572.467L570.876 258.233L570.478 257.693L568.006 254.455ZM574.995 251.727C574.995 253.261 574.718 254.587 574.164 255.705C573.61 256.822 572.85 257.684 571.884 258.29C570.918 258.896 569.815 259.199 568.575 259.199C567.334 259.199 566.231 258.896 565.265 258.29C564.299 257.684 563.539 256.822 562.985 255.705C562.431 254.587 562.154 253.261 562.154 251.727C562.154 250.193 562.431 248.867 562.985 247.75C563.539 246.633 564.299 245.771 565.265 245.165C566.231 244.559 567.334 244.256 568.575 244.256C569.815 244.256 570.918 244.559 571.884 245.165C572.85 245.771 573.61 246.633 574.164 247.75C574.718 248.867 574.995 250.193 574.995 251.727ZM573.29 251.727C573.29 250.468 573.08 249.405 572.658 248.538C572.242 247.672 571.676 247.016 570.961 246.571C570.251 246.126 569.455 245.903 568.575 245.903C567.694 245.903 566.896 246.126 566.181 246.571C565.471 247.016 564.905 247.672 564.484 248.538C564.067 249.405 563.859 250.468 563.859 251.727C563.859 252.987 564.067 254.05 564.484 254.916C564.905 255.783 565.471 256.438 566.181 256.884C566.896 257.329 567.694 257.551 568.575 257.551C569.455 257.551 570.251 257.329 570.961 256.884C571.676 256.438 572.242 255.783 572.658 254.916C573.08 254.05 573.29 252.987 573.29 251.727ZM584.604 254.54V248.091H586.281V259H584.604V257.153H584.491C584.235 257.707 583.837 258.179 583.298 258.567C582.758 258.95 582.076 259.142 581.252 259.142C580.57 259.142 579.964 258.993 579.434 258.695C578.904 258.392 578.487 257.937 578.184 257.331C577.881 256.72 577.729 255.951 577.729 255.023V248.091H579.406V254.909C579.406 255.705 579.628 256.339 580.073 256.812C580.523 257.286 581.096 257.523 581.792 257.523C582.209 257.523 582.632 257.416 583.063 257.203C583.499 256.99 583.863 256.663 584.157 256.223C584.455 255.783 584.604 255.222 584.604 254.54ZM593.924 259.227C592.873 259.227 591.967 258.995 591.204 258.531C590.447 258.062 589.862 257.409 589.45 256.571C589.043 255.728 588.839 254.748 588.839 253.631C588.839 252.513 589.043 251.528 589.45 250.676C589.862 249.819 590.435 249.152 591.169 248.673C591.907 248.19 592.769 247.949 593.754 247.949C594.322 247.949 594.883 248.044 595.437 248.233C595.991 248.422 596.495 248.73 596.95 249.156C597.404 249.578 597.767 250.136 598.037 250.832C598.306 251.528 598.441 252.385 598.441 253.403V254.114H590.032V252.665H596.737C596.737 252.049 596.614 251.5 596.368 251.017C596.126 250.534 595.78 250.153 595.331 249.874C594.886 249.594 594.36 249.455 593.754 249.455C593.086 249.455 592.509 249.62 592.021 249.952C591.538 250.278 591.166 250.705 590.906 251.23C590.645 251.756 590.515 252.319 590.515 252.92V253.886C590.515 254.71 590.657 255.409 590.941 255.982C591.23 256.55 591.63 256.983 592.142 257.281C592.653 257.575 593.247 257.722 593.924 257.722C594.365 257.722 594.762 257.66 595.118 257.537C595.477 257.409 595.788 257.22 596.048 256.969C596.308 256.713 596.51 256.396 596.652 256.017L598.271 256.472C598.1 257.021 597.814 257.504 597.412 257.92C597.009 258.332 596.512 258.654 595.92 258.886C595.328 259.114 594.663 259.227 593.924 259.227ZM607.866 254.54V248.091H609.542V259H607.866V257.153H607.752C607.497 257.707 607.099 258.179 606.559 258.567C606.02 258.95 605.338 259.142 604.514 259.142C603.832 259.142 603.226 258.993 602.696 258.695C602.165 258.392 601.749 257.937 601.446 257.331C601.143 256.72 600.991 255.951 600.991 255.023V248.091H602.667V254.909C602.667 255.705 602.89 256.339 603.335 256.812C603.785 257.286 604.358 257.523 605.054 257.523C605.47 257.523 605.894 257.416 606.325 257.203C606.761 256.99 607.125 256.663 607.419 256.223C607.717 255.783 607.866 255.222 607.866 254.54ZM617.186 259.227C616.135 259.227 615.228 258.995 614.466 258.531C613.708 258.062 613.124 257.409 612.712 256.571C612.304 255.728 612.101 254.748 612.101 253.631C612.101 252.513 612.304 251.528 612.712 250.676C613.124 249.819 613.696 249.152 614.43 248.673C615.169 248.19 616.031 247.949 617.016 247.949C617.584 247.949 618.145 248.044 618.699 248.233C619.253 248.422 619.757 248.73 620.212 249.156C620.666 249.578 621.028 250.136 621.298 250.832C621.568 251.528 621.703 252.385 621.703 253.403V254.114H613.294V252.665H619.999C619.999 252.049 619.875 251.5 619.629 251.017C619.388 250.534 619.042 250.153 618.592 249.874C618.147 249.594 617.622 249.455 617.016 249.455C616.348 249.455 615.77 249.62 615.283 249.952C614.8 250.278 614.428 250.705 614.168 251.23C613.907 251.756 613.777 252.319 613.777 252.92V253.886C613.777 254.71 613.919 255.409 614.203 255.982C614.492 256.55 614.892 256.983 615.403 257.281C615.915 257.575 616.509 257.722 617.186 257.722C617.626 257.722 618.024 257.66 618.379 257.537C618.739 257.409 619.049 257.22 619.31 256.969C619.57 256.713 619.771 256.396 619.913 256.017L621.533 256.472C621.362 257.021 621.076 257.504 620.673 257.92C620.271 258.332 619.774 258.654 619.182 258.886C618.59 259.114 617.925 259.227 617.186 259.227Z" fill="black"/>
<path d="M290.417 214V202.364H297.44V203.614H291.826V207.545H297.076V208.795H291.826V212.75H297.531V214H290.417ZM306.934 205.273L303.707 214H302.343L299.116 205.273H300.57L302.979 212.227H303.07L305.479 205.273H306.934ZM312.05 214.182C311.21 214.182 310.484 213.996 309.874 213.625C309.268 213.25 308.8 212.727 308.471 212.057C308.145 211.383 307.982 210.598 307.982 209.705C307.982 208.811 308.145 208.023 308.471 207.341C308.8 206.655 309.259 206.121 309.846 205.739C310.437 205.352 311.126 205.159 311.914 205.159C312.369 205.159 312.817 205.235 313.261 205.386C313.704 205.538 314.107 205.784 314.471 206.125C314.835 206.462 315.124 206.909 315.34 207.466C315.556 208.023 315.664 208.708 315.664 209.523V210.091H308.937V208.932H314.3C314.3 208.439 314.202 208 314.005 207.614C313.812 207.227 313.535 206.922 313.175 206.699C312.819 206.475 312.399 206.364 311.914 206.364C311.38 206.364 310.918 206.496 310.528 206.761C310.141 207.023 309.844 207.364 309.636 207.784C309.427 208.205 309.323 208.655 309.323 209.136V209.909C309.323 210.568 309.437 211.127 309.664 211.585C309.895 212.04 310.215 212.386 310.624 212.625C311.033 212.86 311.509 212.977 312.05 212.977C312.403 212.977 312.721 212.928 313.005 212.83C313.293 212.727 313.541 212.576 313.749 212.375C313.958 212.17 314.119 211.917 314.232 211.614L315.528 211.977C315.391 212.417 315.162 212.803 314.84 213.136C314.518 213.466 314.121 213.723 313.647 213.909C313.174 214.091 312.641 214.182 312.05 214.182ZM319.045 208.75V214H317.704V205.273H318.999V206.636H319.113C319.317 206.193 319.628 205.837 320.045 205.568C320.461 205.295 320.999 205.159 321.658 205.159C322.249 205.159 322.766 205.28 323.21 205.523C323.653 205.761 323.997 206.125 324.244 206.614C324.49 207.098 324.613 207.712 324.613 208.455V214H323.272V208.545C323.272 207.86 323.094 207.326 322.738 206.943C322.382 206.557 321.893 206.364 321.272 206.364C320.844 206.364 320.461 206.456 320.124 206.642C319.791 206.828 319.528 207.098 319.335 207.455C319.141 207.811 319.045 208.242 319.045 208.75ZM330.859 205.273V206.409H326.336V205.273H330.859ZM327.654 203.182H328.995V211.5C328.995 211.879 329.05 212.163 329.16 212.352C329.273 212.538 329.417 212.663 329.592 212.727C329.77 212.788 329.957 212.818 330.154 212.818C330.302 212.818 330.423 212.811 330.518 212.795C330.612 212.777 330.688 212.761 330.745 212.75L331.018 213.955C330.927 213.989 330.8 214.023 330.637 214.057C330.474 214.095 330.268 214.114 330.018 214.114C329.639 214.114 329.268 214.032 328.904 213.869C328.544 213.706 328.245 213.458 328.006 213.125C327.772 212.792 327.654 212.371 327.654 211.864V203.182ZM337.558 214V202.364H338.967V212.75H344.376V214H337.558ZM349.921 214.182C349.133 214.182 348.442 213.994 347.847 213.619C347.256 213.244 346.794 212.72 346.461 212.045C346.131 211.371 345.967 210.583 345.967 209.682C345.967 208.773 346.131 207.979 346.461 207.301C346.794 206.623 347.256 206.097 347.847 205.722C348.442 205.347 349.133 205.159 349.921 205.159C350.709 205.159 351.398 205.347 351.989 205.722C352.584 206.097 353.046 206.623 353.376 207.301C353.709 207.979 353.876 208.773 353.876 209.682C353.876 210.583 353.709 211.371 353.376 212.045C353.046 212.72 352.584 213.244 351.989 213.619C351.398 213.994 350.709 214.182 349.921 214.182ZM349.921 212.977C350.52 212.977 351.012 212.824 351.398 212.517C351.785 212.21 352.071 211.807 352.256 211.307C352.442 210.807 352.535 210.265 352.535 209.682C352.535 209.098 352.442 208.555 352.256 208.051C352.071 207.547 351.785 207.14 351.398 206.83C351.012 206.519 350.52 206.364 349.921 206.364C349.323 206.364 348.83 206.519 348.444 206.83C348.058 207.14 347.772 207.547 347.586 208.051C347.4 208.555 347.308 209.098 347.308 209.682C347.308 210.265 347.4 210.807 347.586 211.307C347.772 211.807 348.058 212.21 348.444 212.517C348.83 212.824 349.323 212.977 349.921 212.977ZM359.468 214.182C358.68 214.182 357.989 213.994 357.394 213.619C356.803 213.244 356.341 212.72 356.008 212.045C355.678 211.371 355.513 210.583 355.513 209.682C355.513 208.773 355.678 207.979 356.008 207.301C356.341 206.623 356.803 206.097 357.394 205.722C357.989 205.347 358.68 205.159 359.468 205.159C360.256 205.159 360.945 205.347 361.536 205.722C362.131 206.097 362.593 206.623 362.923 207.301C363.256 207.979 363.423 208.773 363.423 209.682C363.423 210.583 363.256 211.371 362.923 212.045C362.593 212.72 362.131 213.244 361.536 213.619C360.945 213.994 360.256 214.182 359.468 214.182ZM359.468 212.977C360.067 212.977 360.559 212.824 360.945 212.517C361.332 212.21 361.618 211.807 361.803 211.307C361.989 210.807 362.082 210.265 362.082 209.682C362.082 209.098 361.989 208.555 361.803 208.051C361.618 207.547 361.332 207.14 360.945 206.83C360.559 206.519 360.067 206.364 359.468 206.364C358.87 206.364 358.377 206.519 357.991 206.83C357.604 207.14 357.318 207.547 357.133 208.051C356.947 208.555 356.854 209.098 356.854 209.682C356.854 210.265 356.947 210.807 357.133 211.307C357.318 211.807 357.604 212.21 357.991 212.517C358.377 212.824 358.87 212.977 359.468 212.977ZM365.469 217.273V205.273H366.765V206.659H366.924C367.022 206.508 367.159 206.314 367.333 206.08C367.511 205.841 367.765 205.629 368.094 205.443C368.428 205.254 368.879 205.159 369.447 205.159C370.182 205.159 370.829 205.343 371.39 205.71C371.951 206.078 372.388 206.598 372.702 207.273C373.017 207.947 373.174 208.742 373.174 209.659C373.174 210.583 373.017 211.384 372.702 212.062C372.388 212.737 371.952 213.259 371.396 213.631C370.839 213.998 370.197 214.182 369.469 214.182C368.909 214.182 368.46 214.089 368.123 213.903C367.786 213.714 367.526 213.5 367.344 213.261C367.163 213.019 367.022 212.818 366.924 212.659H366.81V217.273H365.469ZM366.788 209.636C366.788 210.295 366.884 210.877 367.077 211.381C367.271 211.881 367.553 212.273 367.924 212.557C368.295 212.837 368.75 212.977 369.288 212.977C369.848 212.977 370.316 212.83 370.691 212.534C371.07 212.235 371.354 211.833 371.543 211.33C371.737 210.822 371.833 210.258 371.833 209.636C371.833 209.023 371.738 208.47 371.549 207.977C371.363 207.481 371.081 207.089 370.702 206.801C370.327 206.509 369.856 206.364 369.288 206.364C368.742 206.364 368.284 206.502 367.913 206.778C367.541 207.051 367.261 207.434 367.072 207.926C366.882 208.415 366.788 208.985 366.788 209.636Z" fill="black"/>
<path d="M356.778 230C358.422 230 360 231.275 360 233.2V250.466C360 251.72 358.983 252.735 357.728 252.735H340.458C338.528 252.735 337.25 251.159 337.25 249.516C337.25 248.731 337.542 247.93 338.194 247.279L343.542 241.937C340.197 239.199 335.974 237.601 331.535 237.601C321.093 237.601 312.593 246.085 312.593 256.512C312.593 266.94 321.088 275.419 331.531 275.419C340.2 275.419 342.132 270.885 345.174 270.885C347.364 270.885 348.963 272.665 348.963 274.667C348.963 278.814 339.292 283 331.539 283C316.912 283 305 271.107 305 256.503C305 241.899 316.916 230.039 331.543 230.039C338.015 230.039 344.131 232.452 348.896 236.579L354.538 230.942C355.19 230.291 355.996 230 356.778 230Z" fill="black"/>
<rect x="95.5" y="279.5" width="119" height="27" fill="white" stroke="black"/>
<path d="M119.765 297.179C119.281 297.179 118.842 297.088 118.448 296.906C118.053 296.72 117.74 296.453 117.508 296.105C117.276 295.754 117.16 295.33 117.16 294.832C117.16 294.395 117.246 294.04 117.419 293.768C117.591 293.493 117.821 293.278 118.11 293.122C118.398 292.966 118.716 292.85 119.064 292.774C119.416 292.695 119.769 292.632 120.123 292.585C120.587 292.526 120.964 292.481 121.252 292.451C121.544 292.418 121.756 292.363 121.888 292.287C122.024 292.211 122.092 292.078 122.092 291.889V291.849C122.092 291.359 121.958 290.978 121.689 290.706C121.424 290.434 121.022 290.298 120.481 290.298C119.921 290.298 119.482 290.421 119.164 290.666C118.846 290.911 118.622 291.173 118.493 291.452L117.379 291.054C117.578 290.59 117.843 290.229 118.174 289.97C118.509 289.708 118.874 289.526 119.268 289.423C119.666 289.317 120.057 289.264 120.441 289.264C120.687 289.264 120.968 289.294 121.287 289.354C121.608 289.41 121.918 289.528 122.216 289.707C122.518 289.886 122.768 290.156 122.967 290.517C123.166 290.878 123.265 291.362 123.265 291.969V297H122.092V295.966H122.032C121.953 296.132 121.82 296.309 121.635 296.498C121.449 296.687 121.202 296.848 120.894 296.98C120.586 297.113 120.209 297.179 119.765 297.179ZM119.944 296.125C120.408 296.125 120.799 296.034 121.118 295.852C121.439 295.669 121.681 295.434 121.843 295.146C122.009 294.857 122.092 294.554 122.092 294.236V293.162C122.042 293.222 121.933 293.276 121.764 293.326C121.598 293.372 121.406 293.414 121.187 293.45C120.972 293.483 120.761 293.513 120.556 293.54C120.354 293.563 120.19 293.583 120.064 293.599C119.759 293.639 119.474 293.704 119.209 293.793C118.947 293.879 118.735 294.01 118.572 294.186C118.413 294.358 118.334 294.594 118.334 294.892C118.334 295.3 118.484 295.608 118.786 295.817C119.091 296.022 119.477 296.125 119.944 296.125ZM126.58 292.406V297H125.407V289.364H126.54V290.557H126.64C126.819 290.169 127.091 289.857 127.455 289.622C127.82 289.384 128.29 289.264 128.867 289.264C129.384 289.264 129.837 289.37 130.224 289.582C130.612 289.791 130.914 290.109 131.129 290.537C131.345 290.961 131.452 291.498 131.452 292.148V297H130.279V292.227C130.279 291.627 130.123 291.16 129.812 290.825C129.5 290.487 129.073 290.318 128.529 290.318C128.155 290.318 127.82 290.399 127.525 290.562C127.233 290.724 127.003 290.961 126.834 291.273C126.665 291.584 126.58 291.962 126.58 292.406ZM136.699 297.159C136.009 297.159 135.404 296.995 134.884 296.667C134.367 296.339 133.963 295.88 133.671 295.29C133.383 294.7 133.238 294.01 133.238 293.222C133.238 292.426 133.383 291.732 133.671 291.138C133.963 290.545 134.367 290.085 134.884 289.756C135.404 289.428 136.009 289.264 136.699 289.264C137.388 289.264 137.991 289.428 138.508 289.756C139.029 290.085 139.433 290.545 139.721 291.138C140.013 291.732 140.159 292.426 140.159 293.222C140.159 294.01 140.013 294.7 139.721 295.29C139.433 295.88 139.029 296.339 138.508 296.667C137.991 296.995 137.388 297.159 136.699 297.159ZM136.699 296.105C137.222 296.105 137.653 295.971 137.991 295.702C138.329 295.434 138.58 295.081 138.742 294.643C138.904 294.206 138.986 293.732 138.986 293.222C138.986 292.711 138.904 292.236 138.742 291.795C138.58 291.354 138.329 290.998 137.991 290.726C137.653 290.454 137.222 290.318 136.699 290.318C136.175 290.318 135.744 290.454 135.406 290.726C135.068 290.998 134.818 291.354 134.655 291.795C134.493 292.236 134.412 292.711 134.412 293.222C134.412 293.732 134.493 294.206 134.655 294.643C134.818 295.081 135.068 295.434 135.406 295.702C135.744 295.971 136.175 296.105 136.699 296.105ZM143.123 292.406V297H141.95V289.364H143.083V290.557H143.183C143.362 290.169 143.634 289.857 143.998 289.622C144.363 289.384 144.833 289.264 145.41 289.264C145.927 289.264 146.38 289.37 146.767 289.582C147.155 289.791 147.457 290.109 147.672 290.537C147.888 290.961 147.995 291.498 147.995 292.148V297H146.822V292.227C146.822 291.627 146.666 291.16 146.355 290.825C146.043 290.487 145.616 290.318 145.072 290.318C144.697 290.318 144.363 290.399 144.068 290.562C143.776 290.724 143.546 290.961 143.377 291.273C143.208 291.584 143.123 291.962 143.123 292.406ZM150.622 299.864C150.423 299.864 150.245 299.847 150.09 299.814C149.934 299.784 149.826 299.754 149.766 299.724L150.065 298.69C150.35 298.763 150.602 298.79 150.82 298.77C151.039 298.75 151.233 298.652 151.402 298.477C151.574 298.304 151.732 298.024 151.874 297.636L152.093 297.04L149.269 289.364H150.542L152.65 295.449H152.729L154.837 289.364H156.11L152.869 298.114C152.723 298.508 152.542 298.835 152.327 299.093C152.111 299.355 151.861 299.549 151.576 299.675C151.294 299.801 150.976 299.864 150.622 299.864ZM157.659 297V289.364H158.792V290.557H158.892C159.051 290.149 159.308 289.833 159.662 289.607C160.017 289.379 160.443 289.264 160.94 289.264C161.444 289.264 161.863 289.379 162.198 289.607C162.536 289.833 162.799 290.149 162.988 290.557H163.068C163.263 290.162 163.557 289.849 163.948 289.617C164.339 289.382 164.808 289.264 165.355 289.264C166.038 289.264 166.596 289.478 167.03 289.906C167.464 290.33 167.682 290.991 167.682 291.889V297H166.508V291.889C166.508 291.326 166.354 290.923 166.046 290.681C165.738 290.439 165.375 290.318 164.957 290.318C164.42 290.318 164.004 290.481 163.709 290.805C163.414 291.127 163.267 291.535 163.267 292.028V297H162.074V291.77C162.074 291.336 161.933 290.986 161.651 290.721C161.369 290.452 161.006 290.318 160.562 290.318C160.257 290.318 159.972 290.399 159.707 290.562C159.445 290.724 159.233 290.95 159.071 291.238C158.912 291.523 158.832 291.853 158.832 292.227V297H157.659ZM172.929 297.159C172.24 297.159 171.635 296.995 171.114 296.667C170.597 296.339 170.193 295.88 169.901 295.29C169.613 294.7 169.469 294.01 169.469 293.222C169.469 292.426 169.613 291.732 169.901 291.138C170.193 290.545 170.597 290.085 171.114 289.756C171.635 289.428 172.24 289.264 172.929 289.264C173.618 289.264 174.222 289.428 174.739 289.756C175.259 290.085 175.663 290.545 175.952 291.138C176.243 291.732 176.389 292.426 176.389 293.222C176.389 294.01 176.243 294.7 175.952 295.29C175.663 295.88 175.259 296.339 174.739 296.667C174.222 296.995 173.618 297.159 172.929 297.159ZM172.929 296.105C173.453 296.105 173.884 295.971 174.222 295.702C174.56 295.434 174.81 295.081 174.972 294.643C175.135 294.206 175.216 293.732 175.216 293.222C175.216 292.711 175.135 292.236 174.972 291.795C174.81 291.354 174.56 290.998 174.222 290.726C173.884 290.454 173.453 290.318 172.929 290.318C172.405 290.318 171.975 290.454 171.636 290.726C171.298 290.998 171.048 291.354 170.886 291.795C170.723 292.236 170.642 292.711 170.642 293.222C170.642 293.732 170.723 294.206 170.886 294.643C171.048 295.081 171.298 295.434 171.636 295.702C171.975 295.971 172.405 296.105 172.929 296.105ZM182.993 293.878V289.364H184.166V297H182.993V295.707H182.913C182.734 296.095 182.456 296.425 182.078 296.697C181.7 296.965 181.223 297.099 180.646 297.099C180.169 297.099 179.745 296.995 179.373 296.786C179.002 296.574 178.711 296.256 178.498 295.832C178.286 295.404 178.18 294.866 178.18 294.216V289.364H179.354V294.136C179.354 294.693 179.509 295.137 179.821 295.469C180.136 295.8 180.537 295.966 181.024 295.966C181.316 295.966 181.612 295.891 181.914 295.742C182.219 295.593 182.474 295.364 182.68 295.056C182.888 294.748 182.993 294.355 182.993 293.878ZM191.724 291.074L190.67 291.372C190.604 291.196 190.506 291.026 190.377 290.86C190.251 290.691 190.079 290.552 189.86 290.442C189.641 290.333 189.361 290.278 189.02 290.278C188.552 290.278 188.163 290.386 187.851 290.602C187.543 290.814 187.389 291.084 187.389 291.412C187.389 291.704 187.495 291.934 187.707 292.103C187.919 292.272 188.251 292.413 188.701 292.526L189.835 292.804C190.518 292.97 191.026 293.223 191.361 293.565C191.696 293.903 191.863 294.339 191.863 294.872C191.863 295.31 191.737 295.701 191.486 296.045C191.237 296.39 190.889 296.662 190.441 296.861C189.994 297.06 189.474 297.159 188.88 297.159C188.102 297.159 187.457 296.99 186.946 296.652C186.436 296.314 186.113 295.82 185.977 295.17L187.091 294.892C187.197 295.303 187.397 295.611 187.692 295.817C187.991 296.022 188.38 296.125 188.861 296.125C189.407 296.125 189.842 296.009 190.163 295.777C190.488 295.542 190.65 295.26 190.65 294.932C190.65 294.667 190.557 294.445 190.372 294.266C190.186 294.083 189.901 293.947 189.517 293.858L188.244 293.56C187.545 293.394 187.031 293.137 186.703 292.789C186.378 292.438 186.216 291.999 186.216 291.472C186.216 291.041 186.337 290.66 186.579 290.328C186.824 289.997 187.157 289.737 187.578 289.548C188.002 289.359 188.483 289.264 189.02 289.264C189.775 289.264 190.369 289.43 190.799 289.761C191.234 290.093 191.542 290.53 191.724 291.074Z" fill="black"/>
<rect x="95.5" y="253.5" width="119" height="27" fill="white" stroke="black"/>
<path d="M105.738 271.136C105.124 271.136 104.596 270.991 104.153 270.702C103.709 270.412 103.368 270.013 103.13 269.504C102.891 268.996 102.772 268.415 102.772 267.761C102.772 267.097 102.894 266.51 103.138 266.001C103.385 265.49 103.729 265.091 104.17 264.804C104.613 264.514 105.13 264.369 105.721 264.369C106.181 264.369 106.596 264.455 106.965 264.625C107.334 264.795 107.637 265.034 107.873 265.341C108.108 265.648 108.255 266.006 108.312 266.415H107.306C107.229 266.116 107.059 265.852 106.795 265.622C106.533 265.389 106.181 265.273 105.738 265.273C105.346 265.273 105.002 265.375 104.706 265.58C104.414 265.781 104.185 266.067 104.02 266.436C103.858 266.803 103.778 267.233 103.778 267.727C103.778 268.233 103.857 268.673 104.016 269.048C104.178 269.423 104.405 269.714 104.698 269.922C104.993 270.129 105.34 270.233 105.738 270.233C105.999 270.233 106.236 270.188 106.449 270.097C106.662 270.006 106.843 269.875 106.991 269.705C107.138 269.534 107.243 269.33 107.306 269.091H108.312C108.255 269.477 108.114 269.825 107.89 270.135C107.668 270.442 107.374 270.686 107.008 270.868C106.644 271.047 106.221 271.136 105.738 271.136ZM112.441 271.136C111.85 271.136 111.331 270.996 110.885 270.714C110.442 270.433 110.096 270.04 109.846 269.534C109.599 269.028 109.475 268.437 109.475 267.761C109.475 267.08 109.599 266.484 109.846 265.976C110.096 265.467 110.442 265.072 110.885 264.791C111.331 264.51 111.85 264.369 112.441 264.369C113.032 264.369 113.549 264.51 113.992 264.791C114.438 265.072 114.785 265.467 115.032 265.976C115.282 266.484 115.407 267.08 115.407 267.761C115.407 268.437 115.282 269.028 115.032 269.534C114.785 270.04 114.438 270.433 113.992 270.714C113.549 270.996 113.032 271.136 112.441 271.136ZM112.441 270.233C112.89 270.233 113.259 270.118 113.549 269.888C113.839 269.658 114.053 269.355 114.192 268.98C114.331 268.605 114.401 268.199 114.401 267.761C114.401 267.324 114.331 266.916 114.192 266.538C114.053 266.161 113.839 265.855 113.549 265.622C113.259 265.389 112.89 265.273 112.441 265.273C111.992 265.273 111.623 265.389 111.333 265.622C111.043 265.855 110.829 266.161 110.689 266.538C110.55 266.916 110.481 267.324 110.481 267.761C110.481 268.199 110.55 268.605 110.689 268.98C110.829 269.355 111.043 269.658 111.333 269.888C111.623 270.118 111.992 270.233 112.441 270.233ZM117.948 267.062V271H116.942V264.455H117.914V265.477H117.999C118.152 265.145 118.385 264.878 118.698 264.676C119.01 264.472 119.414 264.369 119.908 264.369C120.351 264.369 120.739 264.46 121.071 264.642C121.404 264.821 121.662 265.094 121.847 265.46C122.031 265.824 122.124 266.284 122.124 266.841V271H121.118V266.909C121.118 266.395 120.985 265.994 120.718 265.707C120.45 265.418 120.084 265.273 119.618 265.273C119.297 265.273 119.01 265.342 118.757 265.482C118.507 265.621 118.31 265.824 118.165 266.091C118.02 266.358 117.948 266.682 117.948 267.062ZM128.598 265.92L127.694 266.176C127.638 266.026 127.554 265.879 127.443 265.737C127.335 265.592 127.187 265.473 127 265.379C126.812 265.286 126.572 265.239 126.28 265.239C125.879 265.239 125.545 265.331 125.278 265.516C125.014 265.697 124.882 265.929 124.882 266.21C124.882 266.46 124.973 266.658 125.155 266.803C125.336 266.947 125.621 267.068 126.007 267.165L126.979 267.403C127.564 267.545 128 267.763 128.287 268.055C128.574 268.345 128.717 268.719 128.717 269.176C128.717 269.551 128.609 269.886 128.393 270.182C128.18 270.477 127.882 270.71 127.498 270.881C127.115 271.051 126.669 271.136 126.16 271.136C125.493 271.136 124.94 270.991 124.503 270.702C124.065 270.412 123.788 269.989 123.672 269.432L124.626 269.193C124.717 269.545 124.889 269.81 125.142 269.986C125.398 270.162 125.731 270.25 126.143 270.25C126.612 270.25 126.984 270.151 127.26 269.952C127.538 269.75 127.677 269.509 127.677 269.227C127.677 269 127.598 268.81 127.439 268.656C127.28 268.5 127.035 268.384 126.706 268.307L125.615 268.051C125.015 267.909 124.575 267.689 124.294 267.391C124.015 267.089 123.876 266.713 123.876 266.261C123.876 265.892 123.98 265.565 124.187 265.281C124.398 264.997 124.683 264.774 125.044 264.612C125.407 264.45 125.819 264.369 126.28 264.369C126.927 264.369 127.436 264.511 127.805 264.795C128.177 265.08 128.442 265.455 128.598 265.92ZM132.89 271.136C132.299 271.136 131.781 270.996 131.335 270.714C130.892 270.433 130.545 270.04 130.295 269.534C130.048 269.028 129.924 268.437 129.924 267.761C129.924 267.08 130.048 266.484 130.295 265.976C130.545 265.467 130.892 265.072 131.335 264.791C131.781 264.51 132.299 264.369 132.89 264.369C133.481 264.369 133.998 264.51 134.441 264.791C134.887 265.072 135.234 265.467 135.481 265.976C135.731 266.484 135.856 267.08 135.856 267.761C135.856 268.437 135.731 269.028 135.481 269.534C135.234 270.04 134.887 270.433 134.441 270.714C133.998 270.996 133.481 271.136 132.89 271.136ZM132.89 270.233C133.339 270.233 133.708 270.118 133.998 269.888C134.288 269.658 134.502 269.355 134.642 268.98C134.781 268.605 134.85 268.199 134.85 267.761C134.85 267.324 134.781 266.916 134.642 266.538C134.502 266.161 134.288 265.855 133.998 265.622C133.708 265.389 133.339 265.273 132.89 265.273C132.441 265.273 132.072 265.389 131.782 265.622C131.492 265.855 131.278 266.161 131.139 266.538C130.999 266.916 130.93 267.324 130.93 267.761C130.93 268.199 130.999 268.605 131.139 268.98C131.278 269.355 131.492 269.658 131.782 269.888C132.072 270.118 132.441 270.233 132.89 270.233ZM138.397 262.273V271H137.391V262.273H138.397ZM142.983 271.136C142.352 271.136 141.808 270.997 141.351 270.719C140.896 270.438 140.546 270.045 140.298 269.543C140.054 269.037 139.932 268.449 139.932 267.778C139.932 267.108 140.054 266.517 140.298 266.006C140.546 265.491 140.889 265.091 141.33 264.804C141.773 264.514 142.29 264.369 142.881 264.369C143.222 264.369 143.558 264.426 143.891 264.54C144.223 264.653 144.526 264.838 144.798 265.094C145.071 265.347 145.289 265.682 145.45 266.099C145.612 266.517 145.693 267.031 145.693 267.642V268.068H140.648V267.199H144.671C144.671 266.83 144.597 266.5 144.449 266.21C144.304 265.92 144.097 265.692 143.827 265.524C143.56 265.357 143.244 265.273 142.881 265.273C142.48 265.273 142.134 265.372 141.841 265.571C141.551 265.767 141.328 266.023 141.172 266.338C141.016 266.653 140.938 266.991 140.938 267.352V267.932C140.938 268.426 141.023 268.845 141.193 269.189C141.367 269.53 141.607 269.79 141.914 269.969C142.22 270.145 142.577 270.233 142.983 270.233C143.247 270.233 143.486 270.196 143.699 270.122C143.915 270.045 144.101 269.932 144.257 269.781C144.414 269.628 144.534 269.437 144.619 269.21L145.591 269.483C145.489 269.812 145.317 270.102 145.075 270.352C144.834 270.599 144.536 270.793 144.181 270.932C143.825 271.068 143.426 271.136 142.983 271.136ZM147.956 271.068C147.746 271.068 147.566 270.993 147.415 270.842C147.264 270.692 147.189 270.511 147.189 270.301C147.189 270.091 147.264 269.911 147.415 269.76C147.566 269.609 147.746 269.534 147.956 269.534C148.166 269.534 148.347 269.609 148.497 269.76C148.648 269.911 148.723 270.091 148.723 270.301C148.723 270.44 148.688 270.568 148.617 270.685C148.548 270.801 148.456 270.895 148.34 270.966C148.226 271.034 148.098 271.068 147.956 271.068ZM151.534 262.273V271H150.528V262.273H151.534ZM156.035 271.136C155.444 271.136 154.925 270.996 154.479 270.714C154.036 270.433 153.689 270.04 153.439 269.534C153.192 269.028 153.069 268.437 153.069 267.761C153.069 267.08 153.192 266.484 153.439 265.976C153.689 265.467 154.036 265.072 154.479 264.791C154.925 264.51 155.444 264.369 156.035 264.369C156.626 264.369 157.143 264.51 157.586 264.791C158.032 265.072 158.378 265.467 158.626 265.976C158.876 266.484 159.001 267.08 159.001 267.761C159.001 268.437 158.876 269.028 158.626 269.534C158.378 270.04 158.032 270.433 157.586 270.714C157.143 270.996 156.626 271.136 156.035 271.136ZM156.035 270.233C156.483 270.233 156.853 270.118 157.143 269.888C157.432 269.658 157.647 269.355 157.786 268.98C157.925 268.605 157.995 268.199 157.995 267.761C157.995 267.324 157.925 266.916 157.786 266.538C157.647 266.161 157.432 265.855 157.143 265.622C156.853 265.389 156.483 265.273 156.035 265.273C155.586 265.273 155.216 265.389 154.927 265.622C154.637 265.855 154.422 266.161 154.283 266.538C154.144 266.916 154.074 267.324 154.074 267.761C154.074 268.199 154.144 268.605 154.283 268.98C154.422 269.355 154.637 269.658 154.927 269.888C155.216 270.118 155.586 270.233 156.035 270.233ZM163.178 273.591C162.692 273.591 162.274 273.528 161.925 273.403C161.575 273.281 161.284 273.119 161.051 272.918C160.821 272.719 160.638 272.506 160.502 272.278L161.303 271.716C161.394 271.835 161.509 271.972 161.648 272.125C161.787 272.281 161.977 272.416 162.219 272.53C162.463 272.646 162.783 272.705 163.178 272.705C163.706 272.705 164.142 272.577 164.486 272.321C164.83 272.065 165.002 271.665 165.002 271.119V269.79H164.916C164.843 269.909 164.737 270.057 164.601 270.233C164.468 270.406 164.274 270.561 164.021 270.697C163.771 270.831 163.433 270.898 163.007 270.898C162.479 270.898 162.004 270.773 161.584 270.523C161.166 270.273 160.835 269.909 160.591 269.432C160.35 268.955 160.229 268.375 160.229 267.693C160.229 267.023 160.347 266.439 160.583 265.942C160.818 265.442 161.146 265.055 161.567 264.783C161.987 264.507 162.473 264.369 163.024 264.369C163.45 264.369 163.789 264.44 164.039 264.582C164.291 264.722 164.485 264.881 164.618 265.06C164.754 265.236 164.86 265.381 164.933 265.494H165.036V264.455H166.007V271.188C166.007 271.75 165.879 272.207 165.624 272.56C165.371 272.915 165.03 273.175 164.601 273.339C164.175 273.507 163.7 273.591 163.178 273.591ZM163.144 269.994C163.547 269.994 163.888 269.902 164.166 269.717C164.445 269.533 164.656 269.267 164.801 268.92C164.946 268.574 165.019 268.159 165.019 267.676C165.019 267.205 164.948 266.788 164.806 266.428C164.664 266.067 164.453 265.784 164.175 265.58C163.896 265.375 163.553 265.273 163.144 265.273C162.718 265.273 162.362 265.381 162.078 265.597C161.797 265.812 161.585 266.102 161.443 266.466C161.304 266.83 161.235 267.233 161.235 267.676C161.235 268.131 161.306 268.533 161.448 268.882C161.593 269.229 161.806 269.501 162.087 269.7C162.371 269.896 162.723 269.994 163.144 269.994ZM168.206 267.318C168.206 266.244 168.345 265.257 168.624 264.357C168.905 263.453 169.306 262.622 169.825 261.864H170.712C170.507 262.145 170.316 262.491 170.137 262.903C169.96 263.312 169.806 263.763 169.672 264.254C169.539 264.743 169.433 265.249 169.357 265.771C169.283 266.294 169.246 266.81 169.246 267.318C169.246 267.994 169.311 268.68 169.442 269.376C169.573 270.072 169.749 270.719 169.97 271.315C170.192 271.912 170.439 272.398 170.712 272.773H169.825C169.306 272.014 168.905 271.185 168.624 270.284C168.345 269.381 168.206 268.392 168.206 267.318ZM171.855 265V264.233C171.855 264 171.896 263.753 171.979 263.491C172.064 263.227 172.186 262.973 172.345 262.729C172.507 262.482 172.702 262.267 172.929 262.085L173.474 262.528C173.295 262.784 173.139 263.051 173.006 263.33C172.875 263.605 172.809 263.901 172.809 264.216V265H171.855ZM174.037 265V264.233C174.037 264 174.078 263.753 174.16 263.491C174.246 263.227 174.368 262.973 174.527 262.729C174.689 262.482 174.883 262.267 175.111 262.085L175.656 262.528C175.477 262.784 175.321 263.051 175.187 263.33C175.057 263.605 174.991 263.901 174.991 264.216V265H174.037ZM179.302 262.024V263.968C179.302 266.02 177.994 268.096 176.386 268.864L176.998 269.68C178.774 268.78 180.118 266.464 180.118 263.968V262.024H179.302ZM179.47 262.024V263.968C179.47 266.38 180.826 268.612 182.59 269.476L183.19 268.684C181.582 267.94 180.286 265.948 180.286 263.968V262.024H179.47ZM184.318 261.076V271.948H185.314V261.076H184.318ZM190.149 262.204V263.08C190.149 264.628 189.069 266.02 187.425 266.596L187.953 267.376C189.765 266.728 190.965 265.072 190.965 263.08V262.204H190.149ZM190.329 262.204V263.068C190.329 264.94 191.481 266.536 193.269 267.16L193.785 266.38C192.189 265.84 191.145 264.508 191.145 263.068V262.204H190.329ZM187.737 261.844V262.66H193.533V261.844H187.737ZM194.901 261.088V267.616H195.897V261.088H194.901ZM195.621 263.944V264.772H197.505V263.944H195.621ZM188.853 268.192V269.02H194.901V271.936H195.897V268.192H188.853ZM199.731 262.273V263.04C199.731 263.273 199.688 263.521 199.603 263.786C199.52 264.047 199.398 264.301 199.236 264.548C199.077 264.793 198.884 265.006 198.657 265.188L198.111 264.744C198.29 264.489 198.445 264.223 198.576 263.947C198.709 263.669 198.776 263.372 198.776 263.057V262.273H199.731ZM201.912 262.273V263.04C201.912 263.273 201.87 263.521 201.785 263.786C201.702 264.047 201.58 264.301 201.418 264.548C201.259 264.793 201.066 265.006 200.839 265.188L200.293 264.744C200.472 264.489 200.627 264.223 200.758 263.947C200.891 263.669 200.958 263.372 200.958 263.057V262.273H201.912ZM205.562 267.318C205.562 268.392 205.422 269.381 205.14 270.284C204.862 271.185 204.463 272.014 203.943 272.773H203.057C203.261 272.491 203.452 272.145 203.628 271.733C203.807 271.324 203.963 270.875 204.096 270.386C204.23 269.895 204.334 269.388 204.407 268.865C204.484 268.339 204.523 267.824 204.523 267.318C204.523 266.642 204.457 265.956 204.327 265.26C204.196 264.564 204.02 263.918 203.798 263.321C203.577 262.724 203.329 262.239 203.057 261.864H203.943C204.463 262.622 204.862 263.453 205.14 264.357C205.422 265.257 205.562 266.244 205.562 267.318Z" fill="black"/>
</svg>
