<svg width="719" height="418" viewBox="0 0 719 418" fill="none" xmlns="http://www.w3.org/2000/svg">
<rect x="0.5" y="0.5" width="718" height="417" fill="white" stroke="black"/>
<path d="M121.327 92H119.566C119.462 91.4934 119.279 91.0483 119.019 90.6648C118.763 90.2812 118.451 89.9593 118.081 89.6989C117.717 89.4337 117.312 89.2348 116.867 89.1023C116.422 88.9697 115.958 88.9034 115.475 88.9034C114.594 88.9034 113.796 89.1259 113.081 89.571C112.371 90.0161 111.805 90.6719 111.384 91.5384C110.967 92.4048 110.759 93.4678 110.759 94.7273C110.759 95.9867 110.967 97.0497 111.384 97.9162C111.805 98.7827 112.371 99.4384 113.081 99.8835C113.796 100.329 114.594 100.551 115.475 100.551C115.958 100.551 116.422 100.485 116.867 100.352C117.312 100.22 117.717 100.023 118.081 99.7628C118.451 99.4976 118.763 99.1733 119.019 98.7898C119.279 98.4015 119.462 97.9564 119.566 97.4545H121.327C121.195 98.1979 120.953 98.8632 120.603 99.4503C120.252 100.037 119.817 100.537 119.296 100.949C118.775 101.356 118.19 101.666 117.542 101.879C116.898 102.092 116.209 102.199 115.475 102.199C114.234 102.199 113.131 101.896 112.165 101.29C111.199 100.684 110.439 99.822 109.885 98.7045C109.331 97.5871 109.055 96.2614 109.055 94.7273C109.055 93.1932 109.331 91.8674 109.885 90.75C110.439 89.6326 111.199 88.7708 112.165 88.1648C113.131 87.5587 114.234 87.2557 115.475 87.2557C116.209 87.2557 116.898 87.3622 117.542 87.5753C118.19 87.7884 118.775 88.1009 119.296 88.5128C119.817 88.92 120.252 89.4171 120.603 90.0043C120.953 90.5866 121.195 91.2519 121.327 92ZM127.156 102.256C126.465 102.256 125.838 102.125 125.274 101.865C124.711 101.6 124.263 101.219 123.932 100.722C123.601 100.22 123.435 99.6136 123.435 98.9034C123.435 98.2784 123.558 97.7718 123.804 97.3835C124.05 96.9905 124.379 96.6828 124.791 96.4602C125.203 96.2377 125.658 96.072 126.155 95.9631C126.657 95.8494 127.161 95.7595 127.668 95.6932C128.331 95.608 128.868 95.544 129.28 95.5014C129.697 95.4541 130 95.3759 130.189 95.267C130.383 95.1581 130.48 94.9687 130.48 94.6989V94.642C130.48 93.9413 130.289 93.3968 129.905 93.0085C129.526 92.6203 128.951 92.4261 128.179 92.4261C127.379 92.4261 126.752 92.6013 126.297 92.9517C125.843 93.3021 125.523 93.6761 125.338 94.0739L123.747 93.5057C124.031 92.8428 124.41 92.3267 124.884 91.9574C125.362 91.5833 125.883 91.3229 126.446 91.1761C127.014 91.0246 127.573 90.9489 128.122 90.9489C128.473 90.9489 128.875 90.9915 129.33 91.0767C129.789 91.1572 130.232 91.3253 130.658 91.581C131.089 91.8366 131.446 92.2225 131.73 92.7386C132.014 93.2547 132.156 93.946 132.156 94.8125V102H130.48V100.523H130.395C130.281 100.759 130.092 101.013 129.827 101.283C129.562 101.553 129.209 101.782 128.769 101.972C128.328 102.161 127.791 102.256 127.156 102.256ZM127.412 100.75C128.075 100.75 128.634 100.62 129.088 100.359C129.548 100.099 129.893 99.7628 130.125 99.3509C130.362 98.9389 130.48 98.5057 130.48 98.0511V96.517C130.409 96.6023 130.253 96.6804 130.012 96.7514C129.775 96.8177 129.5 96.8769 129.188 96.929C128.88 96.9763 128.579 97.0189 128.286 97.0568C127.997 97.09 127.762 97.1184 127.583 97.142C127.147 97.1989 126.74 97.2912 126.361 97.419C125.987 97.5421 125.684 97.7292 125.452 97.9801C125.225 98.2263 125.111 98.5625 125.111 98.9886C125.111 99.571 125.326 100.011 125.757 100.31C126.193 100.603 126.744 100.75 127.412 100.75ZM136.892 87.4545V102H135.216V87.4545H136.892ZM141.638 87.4545V102H139.962V87.4545H141.638ZM158.515 91.0909C158.43 90.3712 158.084 89.8125 157.478 89.4148C156.872 89.017 156.128 88.8182 155.248 88.8182C154.604 88.8182 154.04 88.9223 153.557 89.1307C153.079 89.339 152.705 89.6255 152.435 89.9901C152.17 90.3546 152.037 90.7689 152.037 91.233C152.037 91.6212 152.13 91.955 152.314 92.2344C152.504 92.509 152.745 92.7386 153.039 92.9233C153.332 93.1032 153.64 93.2524 153.962 93.3707C154.284 93.4844 154.58 93.5767 154.85 93.6477L156.327 94.0455C156.706 94.1449 157.127 94.2822 157.591 94.4574C158.06 94.6326 158.508 94.8717 158.934 95.1747C159.365 95.473 159.72 95.8565 159.999 96.3253C160.278 96.794 160.418 97.3693 160.418 98.0511C160.418 98.8371 160.212 99.5473 159.8 100.182C159.393 100.816 158.796 101.321 158.01 101.695C157.229 102.069 156.28 102.256 155.162 102.256C154.121 102.256 153.219 102.088 152.456 101.751C151.699 101.415 151.102 100.946 150.667 100.345C150.236 99.7438 149.992 99.0455 149.935 98.25H151.753C151.801 98.7992 151.985 99.2538 152.307 99.6136C152.634 99.9687 153.046 100.234 153.543 100.409C154.045 100.58 154.585 100.665 155.162 100.665C155.835 100.665 156.439 100.556 156.974 100.338C157.509 100.116 157.932 99.8078 158.245 99.4148C158.557 99.017 158.714 98.553 158.714 98.0227C158.714 97.5398 158.579 97.1468 158.309 96.8438C158.039 96.5407 157.684 96.2945 157.243 96.1051C156.803 95.9157 156.327 95.75 155.816 95.608L154.026 95.0966C152.89 94.7699 151.99 94.3035 151.327 93.6974C150.664 93.0914 150.333 92.2983 150.333 91.3182C150.333 90.5038 150.553 89.7936 150.993 89.1875C151.439 88.5767 152.035 88.1032 152.783 87.767C153.536 87.4261 154.376 87.2557 155.305 87.2557C156.242 87.2557 157.075 87.4238 157.805 87.7599C158.534 88.0914 159.111 88.5459 159.537 89.1236C159.968 89.7012 160.196 90.357 160.219 91.0909H158.515ZM167.831 91.0909V92.5114H162.178V91.0909H167.831ZM163.825 88.4773H165.502V98.875C165.502 99.3485 165.57 99.7036 165.708 99.9403C165.85 100.172 166.03 100.329 166.247 100.409C166.47 100.485 166.704 100.523 166.95 100.523C167.135 100.523 167.287 100.513 167.405 100.494C167.523 100.471 167.618 100.452 167.689 100.438L168.03 101.943C167.916 101.986 167.758 102.028 167.554 102.071C167.351 102.118 167.093 102.142 166.78 102.142C166.307 102.142 165.843 102.04 165.388 101.837C164.938 101.633 164.564 101.323 164.266 100.906C163.972 100.49 163.825 99.964 163.825 99.3295V88.4773ZM173.563 102.256C172.871 102.256 172.244 102.125 171.681 101.865C171.117 101.6 170.67 101.219 170.338 100.722C170.007 100.22 169.841 99.6136 169.841 98.9034C169.841 98.2784 169.964 97.7718 170.21 97.3835C170.457 96.9905 170.786 96.6828 171.198 96.4602C171.61 96.2377 172.064 96.072 172.561 95.9631C173.063 95.8494 173.567 95.7595 174.074 95.6932C174.737 95.608 175.274 95.544 175.686 95.5014C176.103 95.4541 176.406 95.3759 176.595 95.267C176.789 95.1581 176.887 94.9687 176.887 94.6989V94.642C176.887 93.9413 176.695 93.3968 176.311 93.0085C175.932 92.6203 175.357 92.4261 174.585 92.4261C173.785 92.4261 173.158 92.6013 172.703 92.9517C172.249 93.3021 171.929 93.6761 171.744 94.0739L170.154 93.5057C170.438 92.8428 170.816 92.3267 171.29 91.9574C171.768 91.5833 172.289 91.3229 172.852 91.1761C173.421 91.0246 173.979 90.9489 174.529 90.9489C174.879 90.9489 175.281 90.9915 175.736 91.0767C176.195 91.1572 176.638 91.3253 177.064 91.581C177.495 91.8366 177.852 92.2225 178.137 92.7386C178.421 93.2547 178.563 93.946 178.563 94.8125V102H176.887V100.523H176.801C176.688 100.759 176.498 101.013 176.233 101.283C175.968 101.553 175.615 101.782 175.175 101.972C174.735 102.161 174.197 102.256 173.563 102.256ZM173.818 100.75C174.481 100.75 175.04 100.62 175.494 100.359C175.954 100.099 176.299 99.7628 176.531 99.3509C176.768 98.9389 176.887 98.5057 176.887 98.0511V96.517C176.816 96.6023 176.659 96.6804 176.418 96.7514C176.181 96.8177 175.906 96.8769 175.594 96.929C175.286 96.9763 174.985 97.0189 174.692 97.0568C174.403 97.09 174.169 97.1184 173.989 97.142C173.553 97.1989 173.146 97.2912 172.767 97.419C172.393 97.5421 172.09 97.7292 171.858 97.9801C171.631 98.2263 171.517 98.5625 171.517 98.9886C171.517 99.571 171.733 100.011 172.164 100.31C172.599 100.603 173.151 100.75 173.818 100.75ZM186.054 102.227C185.031 102.227 184.15 101.986 183.412 101.503C182.673 101.02 182.105 100.355 181.707 99.5071C181.309 98.6596 181.111 97.6913 181.111 96.6023C181.111 95.4943 181.314 94.5166 181.721 93.669C182.133 92.8168 182.706 92.1515 183.44 91.6733C184.179 91.1903 185.041 90.9489 186.025 90.9489C186.792 90.9489 187.484 91.0909 188.099 91.375C188.715 91.6591 189.219 92.0568 189.612 92.5682C190.005 93.0795 190.249 93.6761 190.344 94.358H188.667C188.54 93.8608 188.256 93.4205 187.815 93.0369C187.38 92.6487 186.792 92.4545 186.054 92.4545C185.4 92.4545 184.827 92.625 184.335 92.9659C183.847 93.3021 183.466 93.7779 183.192 94.3935C182.922 95.0043 182.787 95.7216 182.787 96.5455C182.787 97.3883 182.919 98.1222 183.184 98.7472C183.454 99.3722 183.833 99.8575 184.321 100.203C184.813 100.549 185.391 100.722 186.054 100.722C186.489 100.722 186.885 100.646 187.24 100.494C187.595 100.343 187.896 100.125 188.142 99.8409C188.388 99.5568 188.563 99.2159 188.667 98.8182H190.344C190.249 99.4621 190.015 100.042 189.64 100.558C189.271 101.07 188.781 101.477 188.17 101.78C187.564 102.078 186.859 102.227 186.054 102.227ZM194.356 98.0227L194.328 95.9489H194.669L199.442 91.0909H201.515L196.43 96.233H196.288L194.356 98.0227ZM192.794 102V87.4545H194.47V102H192.794ZM199.726 102L195.464 96.6023L196.657 95.4375L201.856 102H199.726Z" fill="black"/>
<rect x="436.5" y="124.5" width="216" height="43" fill="white" stroke="black"/>
<path d="M504.099 106L500.121 91.4545H501.911L504.951 103.301H505.093L508.19 91.4545H510.178L513.275 103.301H513.417L516.457 91.4545H518.246L514.269 106H512.451L509.241 94.4091H509.127L505.917 106H504.099ZM523.772 106.227C522.721 106.227 521.814 105.995 521.052 105.531C520.294 105.062 519.71 104.409 519.298 103.571C518.89 102.728 518.687 101.748 518.687 100.631C518.687 99.5133 518.89 98.5284 519.298 97.6761C519.71 96.8191 520.282 96.1515 521.016 95.6733C521.755 95.1903 522.617 94.9489 523.602 94.9489C524.17 94.9489 524.731 95.0436 525.285 95.233C525.839 95.4223 526.343 95.7301 526.798 96.1562C527.252 96.5777 527.614 97.1364 527.884 97.8324C528.154 98.5284 528.289 99.3854 528.289 100.403V101.114H519.88V99.6648H526.585C526.585 99.0492 526.461 98.5 526.215 98.017C525.974 97.5341 525.628 97.1529 525.178 96.8736C524.733 96.5942 524.208 96.4545 523.602 96.4545C522.934 96.4545 522.356 96.6203 521.869 96.9517C521.386 97.2784 521.014 97.7045 520.754 98.2301C520.493 98.7557 520.363 99.3191 520.363 99.9205V100.886C520.363 101.71 520.505 102.409 520.789 102.982C521.078 103.55 521.478 103.983 521.989 104.281C522.501 104.575 523.095 104.722 523.772 104.722C524.212 104.722 524.61 104.66 524.965 104.537C525.325 104.409 525.635 104.22 525.896 103.969C526.156 103.713 526.357 103.396 526.499 103.017L528.119 103.472C527.948 104.021 527.662 104.504 527.259 104.92C526.857 105.332 526.36 105.654 525.768 105.886C525.176 106.114 524.511 106.227 523.772 106.227ZM531.066 106V91.4545H532.742V96.8239H532.884C533.007 96.6345 533.178 96.393 533.396 96.0994C533.618 95.8011 533.935 95.536 534.347 95.304C534.764 95.0672 535.327 94.9489 536.038 94.9489C536.956 94.9489 537.766 95.1785 538.467 95.6378C539.167 96.0971 539.714 96.7481 540.107 97.5909C540.5 98.4337 540.697 99.428 540.697 100.574C540.697 101.729 540.5 102.731 540.107 103.578C539.714 104.421 539.17 105.074 538.474 105.538C537.778 105.998 536.975 106.227 536.066 106.227C535.365 106.227 534.804 106.111 534.383 105.879C533.961 105.643 533.637 105.375 533.41 105.077C533.183 104.774 533.007 104.523 532.884 104.324H532.685V106H531.066ZM532.714 100.545C532.714 101.369 532.835 102.096 533.076 102.726C533.317 103.351 533.67 103.841 534.134 104.196C534.598 104.546 535.166 104.722 535.839 104.722C536.54 104.722 537.124 104.537 537.593 104.168C538.067 103.794 538.422 103.292 538.658 102.662C538.9 102.027 539.021 101.322 539.021 100.545C539.021 99.7784 538.902 99.0871 538.665 98.4716C538.433 97.8513 538.081 97.3613 537.607 97.0014C537.138 96.6368 536.549 96.4545 535.839 96.4545C535.157 96.4545 534.584 96.6274 534.12 96.973C533.656 97.3139 533.306 97.7921 533.069 98.4077C532.832 99.0185 532.714 99.7311 532.714 100.545ZM549.71 106H547.863L553.204 91.4545H555.022L560.363 106H558.516L554.17 93.7557H554.056L549.71 106ZM550.391 100.318H557.835V101.881H550.391V100.318ZM562.629 106V91.4545H567.543C568.684 91.4545 569.617 91.6605 570.342 92.0724C571.071 92.4796 571.611 93.0312 571.961 93.7273C572.311 94.4233 572.487 95.1998 572.487 96.0568C572.487 96.9138 572.311 97.6927 571.961 98.3935C571.615 99.0942 571.08 99.6529 570.356 100.07C569.631 100.482 568.703 100.688 567.572 100.688H564.049V99.125H567.515C568.296 99.125 568.924 98.9901 569.397 98.7202C569.871 98.4503 570.214 98.0857 570.427 97.6264C570.645 97.1624 570.754 96.6392 570.754 96.0568C570.754 95.4744 570.645 94.9536 570.427 94.4943C570.214 94.035 569.868 93.6752 569.39 93.4148C568.912 93.1496 568.277 93.017 567.487 93.017H564.39V106H562.629ZM577.085 91.4545V106H575.324V91.4545H577.085ZM588.117 97.5341L586.611 97.9602C586.516 97.7093 586.377 97.4654 586.192 97.2287C586.012 96.9872 585.766 96.7884 585.453 96.6321C585.141 96.4759 584.741 96.3977 584.253 96.3977C583.586 96.3977 583.029 96.5516 582.584 96.8594C582.144 97.1624 581.924 97.5483 581.924 98.017C581.924 98.4337 582.075 98.7628 582.378 99.0043C582.681 99.2457 583.155 99.447 583.799 99.608L585.418 100.006C586.393 100.242 587.12 100.605 587.598 101.092C588.077 101.575 588.316 102.198 588.316 102.96C588.316 103.585 588.136 104.144 587.776 104.636C587.421 105.129 586.924 105.517 586.284 105.801C585.645 106.085 584.902 106.227 584.054 106.227C582.942 106.227 582.021 105.986 581.292 105.503C580.562 105.02 580.101 104.314 579.907 103.386L581.498 102.989C581.649 103.576 581.935 104.016 582.357 104.31C582.783 104.603 583.339 104.75 584.026 104.75C584.807 104.75 585.427 104.584 585.887 104.253C586.351 103.917 586.583 103.514 586.583 103.045C586.583 102.667 586.45 102.349 586.185 102.094C585.92 101.833 585.513 101.639 584.963 101.511L583.145 101.085C582.146 100.848 581.412 100.482 580.944 99.9844C580.48 99.4825 580.248 98.8551 580.248 98.1023C580.248 97.4867 580.42 96.9422 580.766 96.4688C581.116 95.9953 581.592 95.6236 582.194 95.3537C582.8 95.0838 583.486 94.9489 584.253 94.9489C585.333 94.9489 586.18 95.1856 586.796 95.6591C587.416 96.1326 587.856 96.7576 588.117 97.5341Z" fill="black"/>
<path d="M95.5 128.5H214.5V306C214.5 312.351 209.351 317.5 203 317.5H107C100.649 317.5 95.5 312.351 95.5 306V128.5Z" fill="white" stroke="black"/>
<path d="M423 318H667.5M423 285.19H667.5" stroke="black" stroke-width="2"/>
<path d="M487.747 249H485.986C485.882 248.493 485.699 248.048 485.439 247.665C485.183 247.281 484.871 246.959 484.501 246.699C484.137 246.434 483.732 246.235 483.287 246.102C482.842 245.97 482.378 245.903 481.895 245.903C481.014 245.903 480.216 246.126 479.501 246.571C478.791 247.016 478.225 247.672 477.804 248.538C477.387 249.405 477.179 250.468 477.179 251.727C477.179 252.987 477.387 254.05 477.804 254.916C478.225 255.783 478.791 256.438 479.501 256.884C480.216 257.329 481.014 257.551 481.895 257.551C482.378 257.551 482.842 257.485 483.287 257.352C483.732 257.22 484.137 257.023 484.501 256.763C484.871 256.498 485.183 256.173 485.439 255.79C485.699 255.402 485.882 254.956 485.986 254.455H487.747C487.615 255.198 487.373 255.863 487.023 256.45C486.672 257.037 486.237 257.537 485.716 257.949C485.195 258.356 484.61 258.666 483.962 258.879C483.318 259.092 482.629 259.199 481.895 259.199C480.654 259.199 479.551 258.896 478.585 258.29C477.619 257.684 476.859 256.822 476.305 255.705C475.751 254.587 475.474 253.261 475.474 251.727C475.474 250.193 475.751 248.867 476.305 247.75C476.859 246.633 477.619 245.771 478.585 245.165C479.551 244.559 480.654 244.256 481.895 244.256C482.629 244.256 483.318 244.362 483.962 244.575C484.61 244.788 485.195 245.101 485.716 245.513C486.237 245.92 486.672 246.417 487.023 247.004C487.373 247.587 487.615 248.252 487.747 249ZM493.576 259.256C492.885 259.256 492.258 259.125 491.694 258.865C491.131 258.6 490.683 258.219 490.352 257.722C490.02 257.22 489.855 256.614 489.855 255.903C489.855 255.278 489.978 254.772 490.224 254.384C490.47 253.991 490.799 253.683 491.211 253.46C491.623 253.238 492.078 253.072 492.575 252.963C493.077 252.849 493.581 252.759 494.088 252.693C494.751 252.608 495.288 252.544 495.7 252.501C496.117 252.454 496.42 252.376 496.609 252.267C496.803 252.158 496.9 251.969 496.9 251.699V251.642C496.9 250.941 496.708 250.397 496.325 250.009C495.946 249.62 495.371 249.426 494.599 249.426C493.799 249.426 493.172 249.601 492.717 249.952C492.262 250.302 491.943 250.676 491.758 251.074L490.167 250.506C490.451 249.843 490.83 249.327 491.304 248.957C491.782 248.583 492.303 248.323 492.866 248.176C493.434 248.025 493.993 247.949 494.542 247.949C494.893 247.949 495.295 247.991 495.75 248.077C496.209 248.157 496.652 248.325 497.078 248.581C497.509 248.837 497.866 249.223 498.15 249.739C498.434 250.255 498.576 250.946 498.576 251.812V259H496.9V257.523H496.815C496.701 257.759 496.512 258.013 496.247 258.283C495.982 258.553 495.629 258.782 495.189 258.972C494.748 259.161 494.211 259.256 493.576 259.256ZM493.832 257.75C494.495 257.75 495.054 257.62 495.508 257.359C495.967 257.099 496.313 256.763 496.545 256.351C496.782 255.939 496.9 255.506 496.9 255.051V253.517C496.829 253.602 496.673 253.68 496.431 253.751C496.195 253.818 495.92 253.877 495.608 253.929C495.3 253.976 494.999 254.019 494.706 254.057C494.417 254.09 494.182 254.118 494.002 254.142C493.567 254.199 493.16 254.291 492.781 254.419C492.407 254.542 492.104 254.729 491.872 254.98C491.645 255.226 491.531 255.562 491.531 255.989C491.531 256.571 491.746 257.011 492.177 257.31C492.613 257.603 493.164 257.75 493.832 257.75ZM503.312 244.455V259H501.636V244.455H503.312ZM508.058 244.455V259H506.382V244.455H508.058ZM511.355 259V244.455H513.031V249.824H513.173C513.296 249.634 513.467 249.393 513.685 249.099C513.907 248.801 514.224 248.536 514.636 248.304C515.053 248.067 515.616 247.949 516.327 247.949C517.245 247.949 518.055 248.179 518.756 248.638C519.456 249.097 520.003 249.748 520.396 250.591C520.789 251.434 520.986 252.428 520.986 253.574C520.986 254.729 520.789 255.731 520.396 256.578C520.003 257.421 519.459 258.074 518.763 258.538C518.067 258.998 517.264 259.227 516.355 259.227C515.654 259.227 515.093 259.111 514.672 258.879C514.25 258.643 513.926 258.375 513.699 258.077C513.472 257.774 513.296 257.523 513.173 257.324H512.974V259H511.355ZM513.003 253.545C513.003 254.369 513.124 255.096 513.365 255.726C513.607 256.351 513.959 256.841 514.423 257.196C514.887 257.546 515.455 257.722 516.128 257.722C516.829 257.722 517.413 257.537 517.882 257.168C518.356 256.794 518.711 256.292 518.947 255.662C519.189 255.027 519.31 254.322 519.31 253.545C519.31 252.778 519.191 252.087 518.955 251.472C518.723 250.851 518.37 250.361 517.896 250.001C517.428 249.637 516.838 249.455 516.128 249.455C515.446 249.455 514.873 249.627 514.409 249.973C513.945 250.314 513.595 250.792 513.358 251.408C513.121 252.018 513.003 252.731 513.003 253.545ZM526.76 259.256C526.069 259.256 525.441 259.125 524.878 258.865C524.314 258.6 523.867 258.219 523.536 257.722C523.204 257.22 523.038 256.614 523.038 255.903C523.038 255.278 523.161 254.772 523.408 254.384C523.654 253.991 523.983 253.683 524.395 253.46C524.807 253.238 525.261 253.072 525.759 252.963C526.26 252.849 526.765 252.759 527.271 252.693C527.934 252.608 528.472 252.544 528.884 252.501C529.3 252.454 529.603 252.376 529.793 252.267C529.987 252.158 530.084 251.969 530.084 251.699V251.642C530.084 250.941 529.892 250.397 529.509 250.009C529.13 249.62 528.554 249.426 527.783 249.426C526.982 249.426 526.355 249.601 525.901 249.952C525.446 250.302 525.126 250.676 524.942 251.074L523.351 250.506C523.635 249.843 524.014 249.327 524.487 248.957C524.965 248.583 525.486 248.323 526.05 248.176C526.618 248.025 527.177 247.949 527.726 247.949C528.076 247.949 528.479 247.991 528.933 248.077C529.393 248.157 529.835 248.325 530.261 248.581C530.692 248.837 531.05 249.223 531.334 249.739C531.618 250.255 531.76 250.946 531.76 251.812V259H530.084V257.523H529.999C529.885 257.759 529.696 258.013 529.43 258.283C529.165 258.553 528.813 258.782 528.372 258.972C527.932 259.161 527.394 259.256 526.76 259.256ZM527.016 257.75C527.679 257.75 528.237 257.62 528.692 257.359C529.151 257.099 529.497 256.763 529.729 256.351C529.965 255.939 530.084 255.506 530.084 255.051V253.517C530.013 253.602 529.857 253.68 529.615 253.751C529.378 253.818 529.104 253.877 528.791 253.929C528.483 253.976 528.183 254.019 527.889 254.057C527.6 254.09 527.366 254.118 527.186 254.142C526.75 254.199 526.343 254.291 525.964 254.419C525.59 254.542 525.287 254.729 525.055 254.98C524.828 255.226 524.714 255.562 524.714 255.989C524.714 256.571 524.93 257.011 525.361 257.31C525.796 257.603 526.348 257.75 527.016 257.75ZM539.251 259.227C538.228 259.227 537.348 258.986 536.609 258.503C535.87 258.02 535.302 257.355 534.904 256.507C534.507 255.66 534.308 254.691 534.308 253.602C534.308 252.494 534.511 251.517 534.919 250.669C535.331 249.817 535.904 249.152 536.637 248.673C537.376 248.19 538.238 247.949 539.223 247.949C539.99 247.949 540.681 248.091 541.297 248.375C541.912 248.659 542.416 249.057 542.809 249.568C543.202 250.08 543.446 250.676 543.541 251.358H541.865C541.737 250.861 541.453 250.42 541.012 250.037C540.577 249.649 539.99 249.455 539.251 249.455C538.598 249.455 538.025 249.625 537.532 249.966C537.045 250.302 536.663 250.778 536.389 251.393C536.119 252.004 535.984 252.722 535.984 253.545C535.984 254.388 536.117 255.122 536.382 255.747C536.652 256.372 537.03 256.857 537.518 257.203C538.011 257.549 538.588 257.722 539.251 257.722C539.687 257.722 540.082 257.646 540.437 257.494C540.792 257.343 541.093 257.125 541.339 256.841C541.585 256.557 541.761 256.216 541.865 255.818H543.541C543.446 256.462 543.212 257.042 542.838 257.558C542.468 258.07 541.978 258.477 541.368 258.78C540.761 259.078 540.056 259.227 539.251 259.227ZM547.554 255.023L547.525 252.949H547.866L552.639 248.091H554.713L549.627 253.233H549.485L547.554 255.023ZM545.991 259V244.455H547.667V259H545.991ZM552.923 259L548.662 253.602L549.855 252.438L555.054 259H552.923ZM568.006 254.455H569.938L571.558 256.585L571.984 257.153L574.398 260.364H572.467L570.876 258.233L570.478 257.693L568.006 254.455ZM574.995 251.727C574.995 253.261 574.718 254.587 574.164 255.705C573.61 256.822 572.85 257.684 571.884 258.29C570.918 258.896 569.815 259.199 568.575 259.199C567.334 259.199 566.231 258.896 565.265 258.29C564.299 257.684 563.539 256.822 562.985 255.705C562.431 254.587 562.154 253.261 562.154 251.727C562.154 250.193 562.431 248.867 562.985 247.75C563.539 246.633 564.299 245.771 565.265 245.165C566.231 244.559 567.334 244.256 568.575 244.256C569.815 244.256 570.918 244.559 571.884 245.165C572.85 245.771 573.61 246.633 574.164 247.75C574.718 248.867 574.995 250.193 574.995 251.727ZM573.29 251.727C573.29 250.468 573.08 249.405 572.658 248.538C572.242 247.672 571.676 247.016 570.961 246.571C570.251 246.126 569.455 245.903 568.575 245.903C567.694 245.903 566.896 246.126 566.181 246.571C565.471 247.016 564.905 247.672 564.484 248.538C564.067 249.405 563.859 250.468 563.859 251.727C563.859 252.987 564.067 254.05 564.484 254.916C564.905 255.783 565.471 256.438 566.181 256.884C566.896 257.329 567.694 257.551 568.575 257.551C569.455 257.551 570.251 257.329 570.961 256.884C571.676 256.438 572.242 255.783 572.658 254.916C573.08 254.05 573.29 252.987 573.29 251.727ZM584.604 254.54V248.091H586.281V259H584.604V257.153H584.491C584.235 257.707 583.837 258.179 583.298 258.567C582.758 258.95 582.076 259.142 581.252 259.142C580.57 259.142 579.964 258.993 579.434 258.695C578.904 258.392 578.487 257.937 578.184 257.331C577.881 256.72 577.729 255.951 577.729 255.023V248.091H579.406V254.909C579.406 255.705 579.628 256.339 580.073 256.812C580.523 257.286 581.096 257.523 581.792 257.523C582.209 257.523 582.632 257.416 583.063 257.203C583.499 256.99 583.863 256.663 584.157 256.223C584.455 255.783 584.604 255.222 584.604 254.54ZM593.924 259.227C592.873 259.227 591.967 258.995 591.204 258.531C590.447 258.062 589.862 257.409 589.45 256.571C589.043 255.728 588.839 254.748 588.839 253.631C588.839 252.513 589.043 251.528 589.45 250.676C589.862 249.819 590.435 249.152 591.169 248.673C591.907 248.19 592.769 247.949 593.754 247.949C594.322 247.949 594.883 248.044 595.437 248.233C595.991 248.422 596.495 248.73 596.95 249.156C597.404 249.578 597.767 250.136 598.037 250.832C598.306 251.528 598.441 252.385 598.441 253.403V254.114H590.032V252.665H596.737C596.737 252.049 596.614 251.5 596.368 251.017C596.126 250.534 595.78 250.153 595.331 249.874C594.886 249.594 594.36 249.455 593.754 249.455C593.086 249.455 592.509 249.62 592.021 249.952C591.538 250.278 591.166 250.705 590.906 251.23C590.645 251.756 590.515 252.319 590.515 252.92V253.886C590.515 254.71 590.657 255.409 590.941 255.982C591.23 256.55 591.63 256.983 592.142 257.281C592.653 257.575 593.247 257.722 593.924 257.722C594.365 257.722 594.762 257.66 595.118 257.537C595.477 257.409 595.788 257.22 596.048 256.969C596.308 256.713 596.51 256.396 596.652 256.017L598.271 256.472C598.1 257.021 597.814 257.504 597.412 257.92C597.009 258.332 596.512 258.654 595.92 258.886C595.328 259.114 594.663 259.227 593.924 259.227ZM607.866 254.54V248.091H609.542V259H607.866V257.153H607.752C607.497 257.707 607.099 258.179 606.559 258.567C606.02 258.95 605.338 259.142 604.514 259.142C603.832 259.142 603.226 258.993 602.696 258.695C602.165 258.392 601.749 257.937 601.446 257.331C601.143 256.72 600.991 255.951 600.991 255.023V248.091H602.667V254.909C602.667 255.705 602.89 256.339 603.335 256.812C603.785 257.286 604.358 257.523 605.054 257.523C605.47 257.523 605.894 257.416 606.325 257.203C606.761 256.99 607.125 256.663 607.419 256.223C607.717 255.783 607.866 255.222 607.866 254.54ZM617.186 259.227C616.135 259.227 615.228 258.995 614.466 258.531C613.708 258.062 613.124 257.409 612.712 256.571C612.304 255.728 612.101 254.748 612.101 253.631C612.101 252.513 612.304 251.528 612.712 250.676C613.124 249.819 613.696 249.152 614.43 248.673C615.169 248.19 616.031 247.949 617.016 247.949C617.584 247.949 618.145 248.044 618.699 248.233C619.253 248.422 619.757 248.73 620.212 249.156C620.666 249.578 621.028 250.136 621.298 250.832C621.568 251.528 621.703 252.385 621.703 253.403V254.114H613.294V252.665H619.999C619.999 252.049 619.875 251.5 619.629 251.017C619.388 250.534 619.042 250.153 618.592 249.874C618.147 249.594 617.622 249.455 617.016 249.455C616.348 249.455 615.77 249.62 615.283 249.952C614.8 250.278 614.428 250.705 614.168 251.23C613.907 251.756 613.777 252.319 613.777 252.92V253.886C613.777 254.71 613.919 255.409 614.203 255.982C614.492 256.55 614.892 256.983 615.403 257.281C615.915 257.575 616.509 257.722 617.186 257.722C617.626 257.722 618.024 257.66 618.379 257.537C618.739 257.409 619.049 257.22 619.31 256.969C619.57 256.713 619.771 256.396 619.913 256.017L621.533 256.472C621.362 257.021 621.076 257.504 620.673 257.92C620.271 258.332 619.774 258.654 619.182 258.886C618.59 259.114 617.925 259.227 617.186 259.227Z" fill="black"/>
<path d="M290.417 214V202.364H297.44V203.614H291.826V207.545H297.076V208.795H291.826V212.75H297.531V214H290.417ZM306.934 205.273L303.707 214H302.343L299.116 205.273H300.57L302.979 212.227H303.07L305.479 205.273H306.934ZM312.05 214.182C311.21 214.182 310.484 213.996 309.874 213.625C309.268 213.25 308.8 212.727 308.471 212.057C308.145 211.383 307.982 210.598 307.982 209.705C307.982 208.811 308.145 208.023 308.471 207.341C308.8 206.655 309.259 206.121 309.846 205.739C310.437 205.352 311.126 205.159 311.914 205.159C312.369 205.159 312.817 205.235 313.261 205.386C313.704 205.538 314.107 205.784 314.471 206.125C314.835 206.462 315.124 206.909 315.34 207.466C315.556 208.023 315.664 208.708 315.664 209.523V210.091H308.937V208.932H314.3C314.3 208.439 314.202 208 314.005 207.614C313.812 207.227 313.535 206.922 313.175 206.699C312.819 206.475 312.399 206.364 311.914 206.364C311.38 206.364 310.918 206.496 310.528 206.761C310.141 207.023 309.844 207.364 309.636 207.784C309.427 208.205 309.323 208.655 309.323 209.136V209.909C309.323 210.568 309.437 211.127 309.664 211.585C309.895 212.04 310.215 212.386 310.624 212.625C311.033 212.86 311.509 212.977 312.05 212.977C312.403 212.977 312.721 212.928 313.005 212.83C313.293 212.727 313.541 212.576 313.749 212.375C313.958 212.17 314.119 211.917 314.232 211.614L315.528 211.977C315.391 212.417 315.162 212.803 314.84 213.136C314.518 213.466 314.121 213.723 313.647 213.909C313.174 214.091 312.641 214.182 312.05 214.182ZM319.045 208.75V214H317.704V205.273H318.999V206.636H319.113C319.317 206.193 319.628 205.837 320.045 205.568C320.461 205.295 320.999 205.159 321.658 205.159C322.249 205.159 322.766 205.28 323.21 205.523C323.653 205.761 323.997 206.125 324.244 206.614C324.49 207.098 324.613 207.712 324.613 208.455V214H323.272V208.545C323.272 207.86 323.094 207.326 322.738 206.943C322.382 206.557 321.893 206.364 321.272 206.364C320.844 206.364 320.461 206.456 320.124 206.642C319.791 206.828 319.528 207.098 319.335 207.455C319.141 207.811 319.045 208.242 319.045 208.75ZM330.859 205.273V206.409H326.336V205.273H330.859ZM327.654 203.182H328.995V211.5C328.995 211.879 329.05 212.163 329.16 212.352C329.273 212.538 329.417 212.663 329.592 212.727C329.77 212.788 329.957 212.818 330.154 212.818C330.302 212.818 330.423 212.811 330.518 212.795C330.612 212.777 330.688 212.761 330.745 212.75L331.018 213.955C330.927 213.989 330.8 214.023 330.637 214.057C330.474 214.095 330.268 214.114 330.018 214.114C329.639 214.114 329.268 214.032 328.904 213.869C328.544 213.706 328.245 213.458 328.006 213.125C327.772 212.792 327.654 212.371 327.654 211.864V203.182ZM337.558 214V202.364H338.967V212.75H344.376V214H337.558ZM349.921 214.182C349.133 214.182 348.442 213.994 347.847 213.619C347.256 213.244 346.794 212.72 346.461 212.045C346.131 211.371 345.967 210.583 345.967 209.682C345.967 208.773 346.131 207.979 346.461 207.301C346.794 206.623 347.256 206.097 347.847 205.722C348.442 205.347 349.133 205.159 349.921 205.159C350.709 205.159 351.398 205.347 351.989 205.722C352.584 206.097 353.046 206.623 353.376 207.301C353.709 207.979 353.876 208.773 353.876 209.682C353.876 210.583 353.709 211.371 353.376 212.045C353.046 212.72 352.584 213.244 351.989 213.619C351.398 213.994 350.709 214.182 349.921 214.182ZM349.921 212.977C350.52 212.977 351.012 212.824 351.398 212.517C351.785 212.21 352.071 211.807 352.256 211.307C352.442 210.807 352.535 210.265 352.535 209.682C352.535 209.098 352.442 208.555 352.256 208.051C352.071 207.547 351.785 207.14 351.398 206.83C351.012 206.519 350.52 206.364 349.921 206.364C349.323 206.364 348.83 206.519 348.444 206.83C348.058 207.14 347.772 207.547 347.586 208.051C347.4 208.555 347.308 209.098 347.308 209.682C347.308 210.265 347.4 210.807 347.586 211.307C347.772 211.807 348.058 212.21 348.444 212.517C348.83 212.824 349.323 212.977 349.921 212.977ZM359.468 214.182C358.68 214.182 357.989 213.994 357.394 213.619C356.803 213.244 356.341 212.72 356.008 212.045C355.678 211.371 355.513 210.583 355.513 209.682C355.513 208.773 355.678 207.979 356.008 207.301C356.341 206.623 356.803 206.097 357.394 205.722C357.989 205.347 358.68 205.159 359.468 205.159C360.256 205.159 360.945 205.347 361.536 205.722C362.131 206.097 362.593 206.623 362.923 207.301C363.256 207.979 363.423 208.773 363.423 209.682C363.423 210.583 363.256 211.371 362.923 212.045C362.593 212.72 362.131 213.244 361.536 213.619C360.945 213.994 360.256 214.182 359.468 214.182ZM359.468 212.977C360.067 212.977 360.559 212.824 360.945 212.517C361.332 212.21 361.618 211.807 361.803 211.307C361.989 210.807 362.082 210.265 362.082 209.682C362.082 209.098 361.989 208.555 361.803 208.051C361.618 207.547 361.332 207.14 360.945 206.83C360.559 206.519 360.067 206.364 359.468 206.364C358.87 206.364 358.377 206.519 357.991 206.83C357.604 207.14 357.318 207.547 357.133 208.051C356.947 208.555 356.854 209.098 356.854 209.682C356.854 210.265 356.947 210.807 357.133 211.307C357.318 211.807 357.604 212.21 357.991 212.517C358.377 212.824 358.87 212.977 359.468 212.977ZM365.469 217.273V205.273H366.765V206.659H366.924C367.022 206.508 367.159 206.314 367.333 206.08C367.511 205.841 367.765 205.629 368.094 205.443C368.428 205.254 368.879 205.159 369.447 205.159C370.182 205.159 370.829 205.343 371.39 205.71C371.951 206.078 372.388 206.598 372.702 207.273C373.017 207.947 373.174 208.742 373.174 209.659C373.174 210.583 373.017 211.384 372.702 212.062C372.388 212.737 371.952 213.259 371.396 213.631C370.839 213.998 370.197 214.182 369.469 214.182C368.909 214.182 368.46 214.089 368.123 213.903C367.786 213.714 367.526 213.5 367.344 213.261C367.163 213.019 367.022 212.818 366.924 212.659H366.81V217.273H365.469ZM366.788 209.636C366.788 210.295 366.884 210.877 367.077 211.381C367.271 211.881 367.553 212.273 367.924 212.557C368.295 212.837 368.75 212.977 369.288 212.977C369.848 212.977 370.316 212.83 370.691 212.534C371.07 212.235 371.354 211.833 371.543 211.33C371.737 210.822 371.833 210.258 371.833 209.636C371.833 209.023 371.738 208.47 371.549 207.977C371.363 207.481 371.081 207.089 370.702 206.801C370.327 206.509 369.856 206.364 369.288 206.364C368.742 206.364 368.284 206.502 367.913 206.778C367.541 207.051 367.261 207.434 367.072 207.926C366.882 208.415 366.788 208.985 366.788 209.636Z" fill="black"/>
<path d="M356.778 230C358.422 230 360 231.275 360 233.2V250.466C360 251.72 358.983 252.735 357.728 252.735H340.458C338.528 252.735 337.25 251.159 337.25 249.516C337.25 248.731 337.542 247.93 338.194 247.279L343.542 241.937C340.197 239.199 335.974 237.601 331.535 237.601C321.093 237.601 312.593 246.085 312.593 256.512C312.593 266.94 321.088 275.419 331.531 275.419C340.2 275.419 342.132 270.885 345.174 270.885C347.364 270.885 348.963 272.665 348.963 274.667C348.963 278.814 339.292 283 331.539 283C316.912 283 305 271.107 305 256.503C305 241.899 316.916 230.039 331.543 230.039C338.015 230.039 344.131 232.452 348.896 236.579L354.538 230.942C355.19 230.291 355.996 230 356.778 230Z" fill="black"/>
<rect x="95.5" y="279.5" width="119" height="27" fill="white" stroke="black"/>
<path d="M119.765 297.179C119.281 297.179 118.842 297.088 118.448 296.906C118.053 296.72 117.74 296.453 117.508 296.105C117.276 295.754 117.16 295.33 117.16 294.832C117.16 294.395 117.246 294.04 117.419 293.768C117.591 293.493 117.821 293.278 118.11 293.122C118.398 292.966 118.716 292.85 119.064 292.774C119.416 292.695 119.769 292.632 120.123 292.585C120.587 292.526 120.964 292.481 121.252 292.451C121.544 292.418 121.756 292.363 121.888 292.287C122.024 292.211 122.092 292.078 122.092 291.889V291.849C122.092 291.359 121.958 290.978 121.689 290.706C121.424 290.434 121.022 290.298 120.481 290.298C119.921 290.298 119.482 290.421 119.164 290.666C118.846 290.911 118.622 291.173 118.493 291.452L117.379 291.054C117.578 290.59 117.843 290.229 118.174 289.97C118.509 289.708 118.874 289.526 119.268 289.423C119.666 289.317 120.057 289.264 120.441 289.264C120.687 289.264 120.968 289.294 121.287 289.354C121.608 289.41 121.918 289.528 122.216 289.707C122.518 289.886 122.768 290.156 122.967 290.517C123.166 290.878 123.265 291.362 123.265 291.969V297H122.092V295.966H122.032C121.953 296.132 121.82 296.309 121.635 296.498C121.449 296.687 121.202 296.848 120.894 296.98C120.586 297.113 120.209 297.179 119.765 297.179ZM119.944 296.125C120.408 296.125 120.799 296.034 121.118 295.852C121.439 295.669 121.681 295.434 121.843 295.146C122.009 294.857 122.092 294.554 122.092 294.236V293.162C122.042 293.222 121.933 293.276 121.764 293.326C121.598 293.372 121.406 293.414 121.187 293.45C120.972 293.483 120.761 293.513 120.556 293.54C120.354 293.563 120.19 293.583 120.064 293.599C119.759 293.639 119.474 293.704 119.209 293.793C118.947 293.879 118.735 294.01 118.572 294.186C118.413 294.358 118.334 294.594 118.334 294.892C118.334 295.3 118.484 295.608 118.786 295.817C119.091 296.022 119.477 296.125 119.944 296.125ZM126.58 292.406V297H125.407V289.364H126.54V290.557H126.64C126.819 290.169 127.091 289.857 127.455 289.622C127.82 289.384 128.29 289.264 128.867 289.264C129.384 289.264 129.837 289.37 130.224 289.582C130.612 289.791 130.914 290.109 131.129 290.537C131.345 290.961 131.452 291.498 131.452 292.148V297H130.279V292.227C130.279 291.627 130.123 291.16 129.812 290.825C129.5 290.487 129.073 290.318 128.529 290.318C128.155 290.318 127.82 290.399 127.525 290.562C127.233 290.724 127.003 290.961 126.834 291.273C126.665 291.584 126.58 291.962 126.58 292.406ZM136.699 297.159C136.009 297.159 135.404 296.995 134.884 296.667C134.367 296.339 133.963 295.88 133.671 295.29C133.383 294.7 133.238 294.01 133.238 293.222C133.238 292.426 133.383 291.732 133.671 291.138C133.963 290.545 134.367 290.085 134.884 289.756C135.404 289.428 136.009 289.264 136.699 289.264C137.388 289.264 137.991 289.428 138.508 289.756C139.029 290.085 139.433 290.545 139.721 291.138C140.013 291.732 140.159 292.426 140.159 293.222C140.159 294.01 140.013 294.7 139.721 295.29C139.433 295.88 139.029 296.339 138.508 296.667C137.991 296.995 137.388 297.159 136.699 297.159ZM136.699 296.105C137.222 296.105 137.653 295.971 137.991 295.702C138.329 295.434 138.58 295.081 138.742 294.643C138.904 294.206 138.986 293.732 138.986 293.222C138.986 292.711 138.904 292.236 138.742 291.795C138.58 291.354 138.329 290.998 137.991 290.726C137.653 290.454 137.222 290.318 136.699 290.318C136.175 290.318 135.744 290.454 135.406 290.726C135.068 290.998 134.818 291.354 134.655 291.795C134.493 292.236 134.412 292.711 134.412 293.222C134.412 293.732 134.493 294.206 134.655 294.643C134.818 295.081 135.068 295.434 135.406 295.702C135.744 295.971 136.175 296.105 136.699 296.105ZM143.123 292.406V297H141.95V289.364H143.083V290.557H143.183C143.362 290.169 143.634 289.857 143.998 289.622C144.363 289.384 144.833 289.264 145.41 289.264C145.927 289.264 146.38 289.37 146.767 289.582C147.155 289.791 147.457 290.109 147.672 290.537C147.888 290.961 147.995 291.498 147.995 292.148V297H146.822V292.227C146.822 291.627 146.666 291.16 146.355 290.825C146.043 290.487 145.616 290.318 145.072 290.318C144.697 290.318 144.363 290.399 144.068 290.562C143.776 290.724 143.546 290.961 143.377 291.273C143.208 291.584 143.123 291.962 143.123 292.406ZM150.622 299.864C150.423 299.864 150.245 299.847 150.09 299.814C149.934 299.784 149.826 299.754 149.766 299.724L150.065 298.69C150.35 298.763 150.602 298.79 150.82 298.77C151.039 298.75 151.233 298.652 151.402 298.477C151.574 298.304 151.732 298.024 151.874 297.636L152.093 297.04L149.269 289.364H150.542L152.65 295.449H152.729L154.837 289.364H156.11L152.869 298.114C152.723 298.508 152.542 298.835 152.327 299.093C152.111 299.355 151.861 299.549 151.576 299.675C151.294 299.801 150.976 299.864 150.622 299.864ZM157.659 297V289.364H158.792V290.557H158.892C159.051 290.149 159.308 289.833 159.662 289.607C160.017 289.379 160.443 289.264 160.94 289.264C161.444 289.264 161.863 289.379 162.198 289.607C162.536 289.833 162.799 290.149 162.988 290.557H163.068C163.263 290.162 163.557 289.849 163.948 289.617C164.339 289.382 164.808 289.264 165.355 289.264C166.038 289.264 166.596 289.478 167.03 289.906C167.464 290.33 167.682 290.991 167.682 291.889V297H166.508V291.889C166.508 291.326 166.354 290.923 166.046 290.681C165.738 290.439 165.375 290.318 164.957 290.318C164.42 290.318 164.004 290.481 163.709 290.805C163.414 291.127 163.267 291.535 163.267 292.028V297H162.074V291.77C162.074 291.336 161.933 290.986 161.651 290.721C161.369 290.452 161.006 290.318 160.562 290.318C160.257 290.318 159.972 290.399 159.707 290.562C159.445 290.724 159.233 290.95 159.071 291.238C158.912 291.523 158.832 291.853 158.832 292.227V297H157.659ZM172.929 297.159C172.24 297.159 171.635 296.995 171.114 296.667C170.597 296.339 170.193 295.88 169.901 295.29C169.613 294.7 169.469 294.01 169.469 293.222C169.469 292.426 169.613 291.732 169.901 291.138C170.193 290.545 170.597 290.085 171.114 289.756C171.635 289.428 172.24 289.264 172.929 289.264C173.618 289.264 174.222 289.428 174.739 289.756C175.259 290.085 175.663 290.545 175.952 291.138C176.243 291.732 176.389 292.426 176.389 293.222C176.389 294.01 176.243 294.7 175.952 295.29C175.663 295.88 175.259 296.339 174.739 296.667C174.222 296.995 173.618 297.159 172.929 297.159ZM172.929 296.105C173.453 296.105 173.884 295.971 174.222 295.702C174.56 295.434 174.81 295.081 174.972 294.643C175.135 294.206 175.216 293.732 175.216 293.222C175.216 292.711 175.135 292.236 174.972 291.795C174.81 291.354 174.56 290.998 174.222 290.726C173.884 290.454 173.453 290.318 172.929 290.318C172.405 290.318 171.975 290.454 171.636 290.726C171.298 290.998 171.048 291.354 170.886 291.795C170.723 292.236 170.642 292.711 170.642 293.222C170.642 293.732 170.723 294.206 170.886 294.643C171.048 295.081 171.298 295.434 171.636 295.702C171.975 295.971 172.405 296.105 172.929 296.105ZM182.993 293.878V289.364H184.166V297H182.993V295.707H182.913C182.734 296.095 182.456 296.425 182.078 296.697C181.7 296.965 181.223 297.099 180.646 297.099C180.169 297.099 179.745 296.995 179.373 296.786C179.002 296.574 178.711 296.256 178.498 295.832C178.286 295.404 178.18 294.866 178.18 294.216V289.364H179.354V294.136C179.354 294.693 179.509 295.137 179.821 295.469C180.136 295.8 180.537 295.966 181.024 295.966C181.316 295.966 181.612 295.891 181.914 295.742C182.219 295.593 182.474 295.364 182.68 295.056C182.888 294.748 182.993 294.355 182.993 293.878ZM191.724 291.074L190.67 291.372C190.604 291.196 190.506 291.026 190.377 290.86C190.251 290.691 190.079 290.552 189.86 290.442C189.641 290.333 189.361 290.278 189.02 290.278C188.552 290.278 188.163 290.386 187.851 290.602C187.543 290.814 187.389 291.084 187.389 291.412C187.389 291.704 187.495 291.934 187.707 292.103C187.919 292.272 188.251 292.413 188.701 292.526L189.835 292.804C190.518 292.97 191.026 293.223 191.361 293.565C191.696 293.903 191.863 294.339 191.863 294.872C191.863 295.31 191.737 295.701 191.486 296.045C191.237 296.39 190.889 296.662 190.441 296.861C189.994 297.06 189.474 297.159 188.88 297.159C188.102 297.159 187.457 296.99 186.946 296.652C186.436 296.314 186.113 295.82 185.977 295.17L187.091 294.892C187.197 295.303 187.397 295.611 187.692 295.817C187.991 296.022 188.38 296.125 188.861 296.125C189.407 296.125 189.842 296.009 190.163 295.777C190.488 295.542 190.65 295.26 190.65 294.932C190.65 294.667 190.557 294.445 190.372 294.266C190.186 294.083 189.901 293.947 189.517 293.858L188.244 293.56C187.545 293.394 187.031 293.137 186.703 292.789C186.378 292.438 186.216 291.999 186.216 291.472C186.216 291.041 186.337 290.66 186.579 290.328C186.824 289.997 187.157 289.737 187.578 289.548C188.002 289.359 188.483 289.264 189.02 289.264C189.775 289.264 190.369 289.43 190.799 289.761C191.234 290.093 191.542 290.53 191.724 291.074Z" fill="black"/>
<rect x="95.5" y="253.5" width="119" height="27" fill="white" stroke="black"/>
<path d="M110.757 271.136C110.144 271.136 109.615 270.991 109.172 270.702C108.729 270.412 108.388 270.013 108.149 269.504C107.911 268.996 107.791 268.415 107.791 267.761C107.791 267.097 107.914 266.51 108.158 266.001C108.405 265.49 108.749 265.091 109.189 264.804C109.632 264.514 110.149 264.369 110.74 264.369C111.2 264.369 111.615 264.455 111.985 264.625C112.354 264.795 112.656 265.034 112.892 265.341C113.128 265.648 113.274 266.006 113.331 266.415H112.325C112.249 266.116 112.078 265.852 111.814 265.622C111.553 265.389 111.2 265.273 110.757 265.273C110.365 265.273 110.021 265.375 109.726 265.58C109.433 265.781 109.205 266.067 109.04 266.436C108.878 266.803 108.797 267.233 108.797 267.727C108.797 268.233 108.877 268.673 109.036 269.048C109.198 269.423 109.425 269.714 109.718 269.922C110.013 270.129 110.36 270.233 110.757 270.233C111.019 270.233 111.256 270.188 111.469 270.097C111.682 270.006 111.862 269.875 112.01 269.705C112.158 269.534 112.263 269.33 112.325 269.091H113.331C113.274 269.477 113.134 269.825 112.909 270.135C112.688 270.442 112.394 270.686 112.027 270.868C111.664 271.047 111.24 271.136 110.757 271.136ZM117.46 271.136C116.869 271.136 116.351 270.996 115.905 270.714C115.462 270.433 115.115 270.04 114.865 269.534C114.618 269.028 114.494 268.437 114.494 267.761C114.494 267.08 114.618 266.484 114.865 265.976C115.115 265.467 115.462 265.072 115.905 264.791C116.351 264.51 116.869 264.369 117.46 264.369C118.051 264.369 118.568 264.51 119.012 264.791C119.458 265.072 119.804 265.467 120.051 265.976C120.301 266.484 120.426 267.08 120.426 267.761C120.426 268.437 120.301 269.028 120.051 269.534C119.804 270.04 119.458 270.433 119.012 270.714C118.568 270.996 118.051 271.136 117.46 271.136ZM117.46 270.233C117.909 270.233 118.279 270.118 118.568 269.888C118.858 269.658 119.073 269.355 119.212 268.98C119.351 268.605 119.421 268.199 119.421 267.761C119.421 267.324 119.351 266.916 119.212 266.538C119.073 266.161 118.858 265.855 118.568 265.622C118.279 265.389 117.909 265.273 117.46 265.273C117.012 265.273 116.642 265.389 116.352 265.622C116.063 265.855 115.848 266.161 115.709 266.538C115.57 266.916 115.5 267.324 115.5 267.761C115.5 268.199 115.57 268.605 115.709 268.98C115.848 269.355 116.063 269.658 116.352 269.888C116.642 270.118 117.012 270.233 117.46 270.233ZM122.967 267.062V271H121.961V264.455H122.933V265.477H123.018C123.172 265.145 123.405 264.878 123.717 264.676C124.03 264.472 124.433 264.369 124.927 264.369C125.371 264.369 125.758 264.46 126.091 264.642C126.423 264.821 126.682 265.094 126.866 265.46C127.051 265.824 127.143 266.284 127.143 266.841V271H126.138V266.909C126.138 266.395 126.004 265.994 125.737 265.707C125.47 265.418 125.104 265.273 124.638 265.273C124.317 265.273 124.03 265.342 123.777 265.482C123.527 265.621 123.329 265.824 123.184 266.091C123.04 266.358 122.967 266.682 122.967 267.062ZM133.617 265.92L132.714 266.176C132.657 266.026 132.573 265.879 132.463 265.737C132.355 265.592 132.207 265.473 132.019 265.379C131.832 265.286 131.592 265.239 131.299 265.239C130.899 265.239 130.565 265.331 130.298 265.516C130.034 265.697 129.901 265.929 129.901 266.21C129.901 266.46 129.992 266.658 130.174 266.803C130.356 266.947 130.64 267.068 131.026 267.165L131.998 267.403C132.583 267.545 133.019 267.763 133.306 268.055C133.593 268.345 133.737 268.719 133.737 269.176C133.737 269.551 133.629 269.886 133.413 270.182C133.2 270.477 132.901 270.71 132.518 270.881C132.134 271.051 131.688 271.136 131.18 271.136C130.512 271.136 129.96 270.991 129.522 270.702C129.085 270.412 128.808 269.989 128.691 269.432L129.646 269.193C129.737 269.545 129.909 269.81 130.161 269.986C130.417 270.162 130.751 270.25 131.163 270.25C131.632 270.25 132.004 270.151 132.279 269.952C132.558 269.75 132.697 269.509 132.697 269.227C132.697 269 132.617 268.81 132.458 268.656C132.299 268.5 132.055 268.384 131.725 268.307L130.634 268.051C130.035 267.909 129.595 267.689 129.313 267.391C129.035 267.089 128.896 266.713 128.896 266.261C128.896 265.892 128.999 265.565 129.207 265.281C129.417 264.997 129.703 264.774 130.063 264.612C130.427 264.45 130.839 264.369 131.299 264.369C131.947 264.369 132.455 264.511 132.825 264.795C133.197 265.08 133.461 265.455 133.617 265.92ZM137.91 271.136C137.319 271.136 136.8 270.996 136.354 270.714C135.911 270.433 135.564 270.04 135.314 269.534C135.067 269.028 134.944 268.437 134.944 267.761C134.944 267.08 135.067 266.484 135.314 265.976C135.564 265.467 135.911 265.072 136.354 264.791C136.8 264.51 137.319 264.369 137.91 264.369C138.501 264.369 139.018 264.51 139.461 264.791C139.907 265.072 140.253 265.467 140.501 265.976C140.751 266.484 140.876 267.08 140.876 267.761C140.876 268.437 140.751 269.028 140.501 269.534C140.253 270.04 139.907 270.433 139.461 270.714C139.018 270.996 138.501 271.136 137.91 271.136ZM137.91 270.233C138.358 270.233 138.728 270.118 139.018 269.888C139.307 269.658 139.522 269.355 139.661 268.98C139.8 268.605 139.87 268.199 139.87 267.761C139.87 267.324 139.8 266.916 139.661 266.538C139.522 266.161 139.307 265.855 139.018 265.622C138.728 265.389 138.358 265.273 137.91 265.273C137.461 265.273 137.091 265.389 136.802 265.622C136.512 265.855 136.297 266.161 136.158 266.538C136.019 266.916 135.949 267.324 135.949 267.761C135.949 268.199 136.019 268.605 136.158 268.98C136.297 269.355 136.512 269.658 136.802 269.888C137.091 270.118 137.461 270.233 137.91 270.233ZM143.416 262.273V271H142.411V262.273H143.416ZM148.003 271.136C147.372 271.136 146.828 270.997 146.371 270.719C145.916 270.438 145.565 270.045 145.318 269.543C145.074 269.037 144.952 268.449 144.952 267.778C144.952 267.108 145.074 266.517 145.318 266.006C145.565 265.491 145.909 265.091 146.349 264.804C146.792 264.514 147.309 264.369 147.9 264.369C148.241 264.369 148.578 264.426 148.91 264.54C149.243 264.653 149.545 264.838 149.818 265.094C150.091 265.347 150.308 265.682 150.47 266.099C150.632 266.517 150.713 267.031 150.713 267.642V268.068H145.667V267.199H149.69C149.69 266.83 149.616 266.5 149.469 266.21C149.324 265.92 149.116 265.692 148.846 265.524C148.579 265.357 148.264 265.273 147.9 265.273C147.5 265.273 147.153 265.372 146.861 265.571C146.571 265.767 146.348 266.023 146.192 266.338C146.035 266.653 145.957 266.991 145.957 267.352V267.932C145.957 268.426 146.042 268.845 146.213 269.189C146.386 269.53 146.626 269.79 146.933 269.969C147.24 270.145 147.596 270.233 148.003 270.233C148.267 270.233 148.506 270.196 148.719 270.122C148.934 270.045 149.121 269.932 149.277 269.781C149.433 269.628 149.554 269.437 149.639 269.21L150.611 269.483C150.508 269.812 150.336 270.102 150.095 270.352C149.854 270.599 149.555 270.793 149.2 270.932C148.845 271.068 148.446 271.136 148.003 271.136ZM152.976 271.068C152.765 271.068 152.585 270.993 152.434 270.842C152.284 270.692 152.209 270.511 152.209 270.301C152.209 270.091 152.284 269.911 152.434 269.76C152.585 269.609 152.765 269.534 152.976 269.534C153.186 269.534 153.366 269.609 153.517 269.76C153.667 269.911 153.743 270.091 153.743 270.301C153.743 270.44 153.707 270.568 153.636 270.685C153.568 270.801 153.476 270.895 153.359 270.966C153.246 271.034 153.118 271.068 152.976 271.068ZM156.553 262.273V271H155.547V262.273H156.553ZM161.054 271.136C160.463 271.136 159.945 270.996 159.499 270.714C159.056 270.433 158.709 270.04 158.459 269.534C158.212 269.028 158.088 268.437 158.088 267.761C158.088 267.08 158.212 266.484 158.459 265.976C158.709 265.467 159.056 265.072 159.499 264.791C159.945 264.51 160.463 264.369 161.054 264.369C161.645 264.369 162.162 264.51 162.605 264.791C163.051 265.072 163.398 265.467 163.645 265.976C163.895 266.484 164.02 267.08 164.02 267.761C164.02 268.437 163.895 269.028 163.645 269.534C163.398 270.04 163.051 270.433 162.605 270.714C162.162 270.996 161.645 271.136 161.054 271.136ZM161.054 270.233C161.503 270.233 161.872 270.118 162.162 269.888C162.452 269.658 162.666 269.355 162.806 268.98C162.945 268.605 163.014 268.199 163.014 267.761C163.014 267.324 162.945 266.916 162.806 266.538C162.666 266.161 162.452 265.855 162.162 265.622C161.872 265.389 161.503 265.273 161.054 265.273C160.605 265.273 160.236 265.389 159.946 265.622C159.656 265.855 159.442 266.161 159.303 266.538C159.164 266.916 159.094 267.324 159.094 267.761C159.094 268.199 159.164 268.605 159.303 268.98C159.442 269.355 159.656 269.658 159.946 269.888C160.236 270.118 160.605 270.233 161.054 270.233ZM168.197 273.591C167.711 273.591 167.294 273.528 166.944 273.403C166.595 273.281 166.304 273.119 166.071 272.918C165.841 272.719 165.657 272.506 165.521 272.278L166.322 271.716C166.413 271.835 166.528 271.972 166.667 272.125C166.807 272.281 166.997 272.416 167.238 272.53C167.483 272.646 167.802 272.705 168.197 272.705C168.726 272.705 169.162 272.577 169.506 272.321C169.849 272.065 170.021 271.665 170.021 271.119V269.79H169.936C169.862 269.909 169.757 270.057 169.621 270.233C169.487 270.406 169.294 270.561 169.041 270.697C168.791 270.831 168.453 270.898 168.027 270.898C167.498 270.898 167.024 270.773 166.604 270.523C166.186 270.273 165.855 269.909 165.611 269.432C165.369 268.955 165.248 268.375 165.248 267.693C165.248 267.023 165.366 266.439 165.602 265.942C165.838 265.442 166.166 265.055 166.586 264.783C167.007 264.507 167.493 264.369 168.044 264.369C168.47 264.369 168.808 264.44 169.058 264.582C169.311 264.722 169.504 264.881 169.638 265.06C169.774 265.236 169.879 265.381 169.953 265.494H170.055V264.455H171.027V271.188C171.027 271.75 170.899 272.207 170.643 272.56C170.39 272.915 170.05 273.175 169.621 273.339C169.194 273.507 168.72 273.591 168.197 273.591ZM168.163 269.994C168.567 269.994 168.907 269.902 169.186 269.717C169.464 269.533 169.676 269.267 169.821 268.92C169.966 268.574 170.038 268.159 170.038 267.676C170.038 267.205 169.967 266.788 169.825 266.428C169.683 266.067 169.473 265.784 169.194 265.58C168.916 265.375 168.572 265.273 168.163 265.273C167.737 265.273 167.382 265.381 167.098 265.597C166.817 265.812 166.605 266.102 166.463 266.466C166.324 266.83 166.254 267.233 166.254 267.676C166.254 268.131 166.325 268.533 166.467 268.882C166.612 269.229 166.825 269.501 167.106 269.7C167.39 269.896 167.743 269.994 168.163 269.994ZM173.226 267.318C173.226 266.244 173.365 265.257 173.643 264.357C173.925 263.453 174.325 262.622 174.845 261.864H175.731C175.527 262.145 175.335 262.491 175.156 262.903C174.98 263.312 174.825 263.763 174.692 264.254C174.558 264.743 174.453 265.249 174.376 265.771C174.302 266.294 174.265 266.81 174.265 267.318C174.265 267.994 174.331 268.68 174.461 269.376C174.592 270.072 174.768 270.719 174.99 271.315C175.211 271.912 175.459 272.398 175.731 272.773H174.845C174.325 272.014 173.925 271.185 173.643 270.284C173.365 269.381 173.226 268.392 173.226 267.318ZM176.874 265V264.233C176.874 264 176.916 263.753 176.998 263.491C177.083 263.227 177.205 262.973 177.365 262.729C177.526 262.482 177.721 262.267 177.948 262.085L178.494 262.528C178.315 262.784 178.159 263.051 178.025 263.33C177.894 263.605 177.829 263.901 177.829 264.216V265H176.874ZM179.056 265V264.233C179.056 264 179.097 263.753 179.18 263.491C179.265 263.227 179.387 262.973 179.546 262.729C179.708 262.482 179.903 262.267 180.13 262.085L180.676 262.528C180.497 262.784 180.34 263.051 180.207 263.33C180.076 263.605 180.011 263.901 180.011 264.216V265H179.056ZM181.453 265.264V266.068H191.293V265.264H181.453ZM182.365 261.508V262.312H185.245V261.508H182.365ZM184.909 261.508V261.82C184.909 262.444 184.909 263.644 184.405 265.444L185.377 265.564C185.881 263.752 185.881 262.42 185.881 261.82V261.508H184.909ZM186.613 261.508V262.312H189.541V261.508H186.613ZM189.097 261.508V261.976C189.097 262.672 189.097 263.812 188.665 265.468L189.637 265.612C190.069 263.92 190.069 262.684 190.069 261.976V261.508H189.097ZM182.689 267.208V271.228H183.685V267.976H190.093V267.208H182.689ZM182.689 271.024V271.792H190.165V271.024H182.689ZM183.265 269.104V269.848H189.817V269.104H183.265ZM193.711 262.273V263.04C193.711 263.273 193.669 263.521 193.583 263.786C193.501 264.047 193.379 264.301 193.217 264.548C193.058 264.793 192.865 265.006 192.637 265.188L192.092 264.744C192.271 264.489 192.426 264.223 192.556 263.947C192.69 263.669 192.757 263.372 192.757 263.057V262.273H193.711ZM195.893 262.273V263.04C195.893 263.273 195.85 263.521 195.765 263.786C195.683 264.047 195.561 264.301 195.399 264.548C195.24 264.793 195.046 265.006 194.819 265.188L194.274 264.744C194.453 264.489 194.607 264.223 194.738 263.947C194.872 263.669 194.938 263.372 194.938 263.057V262.273H195.893ZM199.543 267.318C199.543 268.392 199.402 269.381 199.121 270.284C198.843 271.185 198.443 272.014 197.923 272.773H197.037C197.242 272.491 197.432 272.145 197.608 271.733C197.787 271.324 197.943 270.875 198.077 270.386C198.21 269.895 198.314 269.388 198.388 268.865C198.465 268.339 198.503 267.824 198.503 267.318C198.503 266.642 198.438 265.956 198.307 265.26C198.176 264.564 198 263.918 197.779 263.321C197.557 262.724 197.31 262.239 197.037 261.864H197.923C198.443 262.622 198.843 263.453 199.121 264.357C199.402 265.257 199.543 266.244 199.543 267.318Z" fill="black"/>
<path d="M493.468 144.534L491.963 144.96C491.868 144.709 491.728 144.465 491.544 144.229C491.364 143.987 491.118 143.788 490.805 143.632C490.493 143.476 490.092 143.398 489.605 143.398C488.937 143.398 488.381 143.552 487.936 143.859C487.495 144.162 487.275 144.548 487.275 145.017C487.275 145.434 487.427 145.763 487.73 146.004C488.033 146.246 488.506 146.447 489.15 146.608L490.77 147.006C491.745 147.242 492.472 147.605 492.95 148.092C493.428 148.575 493.667 149.198 493.667 149.96C493.667 150.585 493.487 151.144 493.127 151.636C492.772 152.129 492.275 152.517 491.636 152.801C490.997 153.085 490.253 153.227 489.406 153.227C488.293 153.227 487.372 152.986 486.643 152.503C485.914 152.02 485.452 151.314 485.258 150.386L486.849 149.989C487.001 150.576 487.287 151.016 487.708 151.31C488.135 151.603 488.691 151.75 489.377 151.75C490.159 151.75 490.779 151.584 491.238 151.253C491.702 150.917 491.934 150.514 491.934 150.045C491.934 149.667 491.802 149.349 491.537 149.094C491.271 148.833 490.864 148.639 490.315 148.511L488.497 148.085C487.498 147.848 486.764 147.482 486.295 146.984C485.831 146.482 485.599 145.855 485.599 145.102C485.599 144.487 485.772 143.942 486.118 143.469C486.468 142.995 486.944 142.624 487.545 142.354C488.151 142.084 488.838 141.949 489.605 141.949C490.684 141.949 491.532 142.186 492.147 142.659C492.768 143.133 493.208 143.758 493.468 144.534ZM500.764 153.227C499.713 153.227 498.806 152.995 498.044 152.531C497.286 152.062 496.702 151.409 496.29 150.571C495.883 149.728 495.679 148.748 495.679 147.631C495.679 146.513 495.883 145.528 496.29 144.676C496.702 143.819 497.275 143.152 498.009 142.673C498.747 142.19 499.609 141.949 500.594 141.949C501.162 141.949 501.723 142.044 502.277 142.233C502.831 142.422 503.335 142.73 503.79 143.156C504.244 143.578 504.607 144.136 504.876 144.832C505.146 145.528 505.281 146.385 505.281 147.403V148.114H496.872V146.665H503.577C503.577 146.049 503.454 145.5 503.207 145.017C502.966 144.534 502.62 144.153 502.17 143.874C501.725 143.594 501.2 143.455 500.594 143.455C499.926 143.455 499.348 143.62 498.861 143.952C498.378 144.278 498.006 144.705 497.746 145.23C497.485 145.756 497.355 146.319 497.355 146.92V147.886C497.355 148.71 497.497 149.409 497.781 149.982C498.07 150.55 498.47 150.983 498.982 151.281C499.493 151.575 500.087 151.722 500.764 151.722C501.205 151.722 501.602 151.66 501.957 151.537C502.317 151.409 502.627 151.22 502.888 150.969C503.148 150.713 503.349 150.396 503.491 150.017L505.111 150.472C504.94 151.021 504.654 151.504 504.251 151.92C503.849 152.332 503.352 152.654 502.76 152.886C502.168 153.114 501.503 153.227 500.764 153.227ZM512.575 142.091V143.511H506.922V142.091H512.575ZM508.57 139.477H510.246V149.875C510.246 150.348 510.314 150.704 510.452 150.94C510.594 151.172 510.774 151.329 510.991 151.409C511.214 151.485 511.448 151.523 511.695 151.523C511.879 151.523 512.031 151.513 512.149 151.494C512.268 151.471 512.362 151.452 512.433 151.438L512.774 152.943C512.661 152.986 512.502 153.028 512.298 153.071C512.095 153.118 511.837 153.142 511.524 153.142C511.051 153.142 510.587 153.04 510.132 152.837C509.682 152.633 509.308 152.323 509.01 151.906C508.716 151.49 508.57 150.964 508.57 150.33V139.477ZM513.845 140.017V138.455H524.754V140.017H520.18V153H518.419V140.017H513.845ZM527.245 153V142.091H528.921V153H527.245ZM528.097 140.273C527.771 140.273 527.489 140.161 527.252 139.939C527.02 139.716 526.904 139.449 526.904 139.136C526.904 138.824 527.02 138.556 527.252 138.334C527.489 138.111 527.771 138 528.097 138C528.424 138 528.703 138.111 528.935 138.334C529.172 138.556 529.29 138.824 529.29 139.136C529.29 139.449 529.172 139.716 528.935 139.939C528.703 140.161 528.424 140.273 528.097 140.273ZM531.991 153V142.091H533.61V143.795H533.752C533.98 143.213 534.347 142.761 534.853 142.439C535.36 142.112 535.968 141.949 536.679 141.949C537.398 141.949 537.997 142.112 538.475 142.439C538.958 142.761 539.335 143.213 539.605 143.795H539.718C539.998 143.232 540.417 142.785 540.975 142.453C541.534 142.117 542.204 141.949 542.985 141.949C543.961 141.949 544.759 142.254 545.379 142.865C545.999 143.471 546.309 144.416 546.309 145.699V153H544.633V145.699C544.633 144.894 544.413 144.319 543.973 143.973C543.532 143.627 543.014 143.455 542.417 143.455C541.65 143.455 541.056 143.687 540.635 144.151C540.213 144.61 540.002 145.192 540.002 145.898V153H538.298V145.528C538.298 144.908 538.097 144.409 537.694 144.03C537.292 143.646 536.773 143.455 536.139 143.455C535.703 143.455 535.296 143.571 534.917 143.803C534.543 144.035 534.24 144.357 534.008 144.768C533.781 145.176 533.667 145.647 533.667 146.182V153H531.991ZM553.948 153.227C552.897 153.227 551.99 152.995 551.228 152.531C550.47 152.062 549.885 151.409 549.473 150.571C549.066 149.728 548.863 148.748 548.863 147.631C548.863 146.513 549.066 145.528 549.473 144.676C549.885 143.819 550.458 143.152 551.192 142.673C551.931 142.19 552.792 141.949 553.777 141.949C554.346 141.949 554.907 142.044 555.461 142.233C556.015 142.422 556.519 142.73 556.973 143.156C557.428 143.578 557.79 144.136 558.06 144.832C558.33 145.528 558.465 146.385 558.465 147.403V148.114H550.056V146.665H556.76C556.76 146.049 556.637 145.5 556.391 145.017C556.15 144.534 555.804 144.153 555.354 143.874C554.909 143.594 554.383 143.455 553.777 143.455C553.11 143.455 552.532 143.62 552.044 143.952C551.561 144.278 551.19 144.705 550.929 145.23C550.669 145.756 550.539 146.319 550.539 146.92V147.886C550.539 148.71 550.681 149.409 550.965 149.982C551.254 150.55 551.654 150.983 552.165 151.281C552.676 151.575 553.271 151.722 553.948 151.722C554.388 151.722 554.786 151.66 555.141 151.537C555.501 151.409 555.811 151.22 556.071 150.969C556.332 150.713 556.533 150.396 556.675 150.017L558.294 150.472C558.124 151.021 557.837 151.504 557.435 151.92C557.033 152.332 556.535 152.654 555.944 152.886C555.352 153.114 554.686 153.227 553.948 153.227ZM565.446 153.227C564.462 153.227 563.597 152.993 562.854 152.524C562.115 152.055 561.538 151.4 561.121 150.557C560.709 149.714 560.503 148.729 560.503 147.602C560.503 146.466 560.709 145.474 561.121 144.626C561.538 143.779 562.115 143.121 562.854 142.652C563.597 142.183 564.462 141.949 565.446 141.949C566.431 141.949 567.293 142.183 568.032 142.652C568.775 143.121 569.353 143.779 569.765 144.626C570.181 145.474 570.39 146.466 570.39 147.602C570.39 148.729 570.181 149.714 569.765 150.557C569.353 151.4 568.775 152.055 568.032 152.524C567.293 152.993 566.431 153.227 565.446 153.227ZM565.446 151.722C566.194 151.722 566.81 151.53 567.293 151.146C567.776 150.763 568.133 150.259 568.365 149.634C568.597 149.009 568.713 148.331 568.713 147.602C568.713 146.873 568.597 146.194 568.365 145.564C568.133 144.934 567.776 144.425 567.293 144.037C566.81 143.649 566.194 143.455 565.446 143.455C564.698 143.455 564.083 143.649 563.6 144.037C563.117 144.425 562.759 144.934 562.527 145.564C562.295 146.194 562.179 146.873 562.179 147.602C562.179 148.331 562.295 149.009 562.527 149.634C562.759 150.259 563.117 150.763 563.6 151.146C564.083 151.53 564.698 151.722 565.446 151.722ZM579.823 148.54V142.091H581.499V153H579.823V151.153H579.71C579.454 151.707 579.056 152.179 578.516 152.567C577.977 152.95 577.295 153.142 576.471 153.142C575.789 153.142 575.183 152.993 574.653 152.695C574.122 152.392 573.706 151.937 573.403 151.331C573.1 150.72 572.948 149.951 572.948 149.023V142.091H574.624V148.909C574.624 149.705 574.847 150.339 575.292 150.812C575.742 151.286 576.315 151.523 577.011 151.523C577.427 151.523 577.851 151.416 578.282 151.203C578.718 150.99 579.082 150.663 579.376 150.223C579.674 149.783 579.823 149.222 579.823 148.54ZM589.314 142.091V143.511H583.66V142.091H589.314ZM585.308 139.477H586.984V149.875C586.984 150.348 587.053 150.704 587.19 150.94C587.332 151.172 587.512 151.329 587.73 151.409C587.952 151.485 588.187 151.523 588.433 151.523C588.618 151.523 588.769 151.513 588.887 151.494C589.006 151.471 589.1 151.452 589.172 151.438L589.512 152.943C589.399 152.986 589.24 153.028 589.037 153.071C588.833 153.118 588.575 153.142 588.262 153.142C587.789 153.142 587.325 153.04 586.87 152.837C586.421 152.633 586.047 152.323 585.748 151.906C585.455 151.49 585.308 150.964 585.308 150.33V139.477ZM592.431 146.864C592.431 145.074 592.663 143.429 593.127 141.928C593.596 140.422 594.264 139.037 595.13 137.773H596.608C596.267 138.241 595.947 138.819 595.649 139.506C595.355 140.187 595.097 140.938 594.875 141.757C594.652 142.571 594.477 143.414 594.349 144.286C594.226 145.157 594.164 146.016 594.164 146.864C594.164 147.991 594.273 149.134 594.491 150.294C594.709 151.454 595.002 152.531 595.372 153.526C595.741 154.52 596.153 155.33 596.608 155.955H595.13C594.264 154.69 593.596 153.308 593.127 151.807C592.663 150.301 592.431 148.653 592.431 146.864ZM602.661 146.864C602.661 148.653 602.426 150.301 601.957 151.807C601.493 153.308 600.828 154.69 599.962 155.955H598.484C598.825 155.486 599.143 154.908 599.436 154.222C599.734 153.54 599.995 152.792 600.217 151.977C600.44 151.158 600.613 150.313 600.736 149.442C600.864 148.566 600.928 147.706 600.928 146.864C600.928 145.737 600.819 144.593 600.601 143.433C600.383 142.273 600.089 141.196 599.72 140.202C599.351 139.207 598.939 138.398 598.484 137.773H599.962C600.828 139.037 601.493 140.422 601.957 141.928C602.426 143.429 602.661 145.074 602.661 146.864Z" fill="black"/>
</svg>
