<svg width="719" height="418" viewBox="0 0 719 418" fill="none" xmlns="http://www.w3.org/2000/svg">
<rect x="0.5" y="0.5" width="718" height="417" fill="white" stroke="black"/>
<path d="M121.327 92H119.566C119.462 91.4934 119.279 91.0483 119.019 90.6648C118.763 90.2812 118.451 89.9593 118.081 89.6989C117.717 89.4337 117.312 89.2348 116.867 89.1023C116.422 88.9697 115.958 88.9034 115.475 88.9034C114.594 88.9034 113.796 89.1259 113.081 89.571C112.371 90.0161 111.805 90.6719 111.384 91.5384C110.967 92.4048 110.759 93.4678 110.759 94.7273C110.759 95.9867 110.967 97.0497 111.384 97.9162C111.805 98.7827 112.371 99.4384 113.081 99.8835C113.796 100.329 114.594 100.551 115.475 100.551C115.958 100.551 116.422 100.485 116.867 100.352C117.312 100.22 117.717 100.023 118.081 99.7628C118.451 99.4976 118.763 99.1733 119.019 98.7898C119.279 98.4015 119.462 97.9564 119.566 97.4545H121.327C121.195 98.1979 120.953 98.8632 120.603 99.4503C120.252 100.037 119.817 100.537 119.296 100.949C118.775 101.356 118.19 101.666 117.542 101.879C116.898 102.092 116.209 102.199 115.475 102.199C114.234 102.199 113.131 101.896 112.165 101.29C111.199 100.684 110.439 99.822 109.885 98.7045C109.331 97.5871 109.055 96.2614 109.055 94.7273C109.055 93.1932 109.331 91.8674 109.885 90.75C110.439 89.6326 111.199 88.7708 112.165 88.1648C113.131 87.5587 114.234 87.2557 115.475 87.2557C116.209 87.2557 116.898 87.3622 117.542 87.5753C118.19 87.7884 118.775 88.1009 119.296 88.5128C119.817 88.92 120.252 89.4171 120.603 90.0043C120.953 90.5866 121.195 91.2519 121.327 92ZM127.156 102.256C126.465 102.256 125.838 102.125 125.274 101.865C124.711 101.6 124.263 101.219 123.932 100.722C123.601 100.22 123.435 99.6136 123.435 98.9034C123.435 98.2784 123.558 97.7718 123.804 97.3835C124.05 96.9905 124.379 96.6828 124.791 96.4602C125.203 96.2377 125.658 96.072 126.155 95.9631C126.657 95.8494 127.161 95.7595 127.668 95.6932C128.331 95.608 128.868 95.544 129.28 95.5014C129.697 95.4541 130 95.3759 130.189 95.267C130.383 95.1581 130.48 94.9687 130.48 94.6989V94.642C130.48 93.9413 130.289 93.3968 129.905 93.0085C129.526 92.6203 128.951 92.4261 128.179 92.4261C127.379 92.4261 126.752 92.6013 126.297 92.9517C125.843 93.3021 125.523 93.6761 125.338 94.0739L123.747 93.5057C124.031 92.8428 124.41 92.3267 124.884 91.9574C125.362 91.5833 125.883 91.3229 126.446 91.1761C127.014 91.0246 127.573 90.9489 128.122 90.9489C128.473 90.9489 128.875 90.9915 129.33 91.0767C129.789 91.1572 130.232 91.3253 130.658 91.581C131.089 91.8366 131.446 92.2225 131.73 92.7386C132.014 93.2547 132.156 93.946 132.156 94.8125V102H130.48V100.523H130.395C130.281 100.759 130.092 101.013 129.827 101.283C129.562 101.553 129.209 101.782 128.769 101.972C128.328 102.161 127.791 102.256 127.156 102.256ZM127.412 100.75C128.075 100.75 128.634 100.62 129.088 100.359C129.548 100.099 129.893 99.7628 130.125 99.3509C130.362 98.9389 130.48 98.5057 130.48 98.0511V96.517C130.409 96.6023 130.253 96.6804 130.012 96.7514C129.775 96.8177 129.5 96.8769 129.188 96.929C128.88 96.9763 128.579 97.0189 128.286 97.0568C127.997 97.09 127.762 97.1184 127.583 97.142C127.147 97.1989 126.74 97.2912 126.361 97.419C125.987 97.5421 125.684 97.7292 125.452 97.9801C125.225 98.2263 125.111 98.5625 125.111 98.9886C125.111 99.571 125.326 100.011 125.757 100.31C126.193 100.603 126.744 100.75 127.412 100.75ZM136.892 87.4545V102H135.216V87.4545H136.892ZM141.638 87.4545V102H139.962V87.4545H141.638ZM158.515 91.0909C158.43 90.3712 158.084 89.8125 157.478 89.4148C156.872 89.017 156.128 88.8182 155.248 88.8182C154.604 88.8182 154.04 88.9223 153.557 89.1307C153.079 89.339 152.705 89.6255 152.435 89.9901C152.17 90.3546 152.037 90.7689 152.037 91.233C152.037 91.6212 152.13 91.955 152.314 92.2344C152.504 92.509 152.745 92.7386 153.039 92.9233C153.332 93.1032 153.64 93.2524 153.962 93.3707C154.284 93.4844 154.58 93.5767 154.85 93.6477L156.327 94.0455C156.706 94.1449 157.127 94.2822 157.591 94.4574C158.06 94.6326 158.508 94.8717 158.934 95.1747C159.365 95.473 159.72 95.8565 159.999 96.3253C160.278 96.794 160.418 97.3693 160.418 98.0511C160.418 98.8371 160.212 99.5473 159.8 100.182C159.393 100.816 158.796 101.321 158.01 101.695C157.229 102.069 156.28 102.256 155.162 102.256C154.121 102.256 153.219 102.088 152.456 101.751C151.699 101.415 151.102 100.946 150.667 100.345C150.236 99.7438 149.992 99.0455 149.935 98.25H151.753C151.801 98.7992 151.985 99.2538 152.307 99.6136C152.634 99.9687 153.046 100.234 153.543 100.409C154.045 100.58 154.585 100.665 155.162 100.665C155.835 100.665 156.439 100.556 156.974 100.338C157.509 100.116 157.932 99.8078 158.245 99.4148C158.557 99.017 158.714 98.553 158.714 98.0227C158.714 97.5398 158.579 97.1468 158.309 96.8438C158.039 96.5407 157.684 96.2945 157.243 96.1051C156.803 95.9157 156.327 95.75 155.816 95.608L154.026 95.0966C152.89 94.7699 151.99 94.3035 151.327 93.6974C150.664 93.0914 150.333 92.2983 150.333 91.3182C150.333 90.5038 150.553 89.7936 150.993 89.1875C151.439 88.5767 152.035 88.1032 152.783 87.767C153.536 87.4261 154.376 87.2557 155.305 87.2557C156.242 87.2557 157.075 87.4238 157.805 87.7599C158.534 88.0914 159.111 88.5459 159.537 89.1236C159.968 89.7012 160.196 90.357 160.219 91.0909H158.515ZM167.831 91.0909V92.5114H162.178V91.0909H167.831ZM163.825 88.4773H165.502V98.875C165.502 99.3485 165.57 99.7036 165.708 99.9403C165.85 100.172 166.03 100.329 166.247 100.409C166.47 100.485 166.704 100.523 166.95 100.523C167.135 100.523 167.287 100.513 167.405 100.494C167.523 100.471 167.618 100.452 167.689 100.438L168.03 101.943C167.916 101.986 167.758 102.028 167.554 102.071C167.351 102.118 167.093 102.142 166.78 102.142C166.307 102.142 165.843 102.04 165.388 101.837C164.938 101.633 164.564 101.323 164.266 100.906C163.972 100.49 163.825 99.964 163.825 99.3295V88.4773ZM173.563 102.256C172.871 102.256 172.244 102.125 171.681 101.865C171.117 101.6 170.67 101.219 170.338 100.722C170.007 100.22 169.841 99.6136 169.841 98.9034C169.841 98.2784 169.964 97.7718 170.21 97.3835C170.457 96.9905 170.786 96.6828 171.198 96.4602C171.61 96.2377 172.064 96.072 172.561 95.9631C173.063 95.8494 173.567 95.7595 174.074 95.6932C174.737 95.608 175.274 95.544 175.686 95.5014C176.103 95.4541 176.406 95.3759 176.595 95.267C176.789 95.1581 176.887 94.9687 176.887 94.6989V94.642C176.887 93.9413 176.695 93.3968 176.311 93.0085C175.932 92.6203 175.357 92.4261 174.585 92.4261C173.785 92.4261 173.158 92.6013 172.703 92.9517C172.249 93.3021 171.929 93.6761 171.744 94.0739L170.154 93.5057C170.438 92.8428 170.816 92.3267 171.29 91.9574C171.768 91.5833 172.289 91.3229 172.852 91.1761C173.421 91.0246 173.979 90.9489 174.529 90.9489C174.879 90.9489 175.281 90.9915 175.736 91.0767C176.195 91.1572 176.638 91.3253 177.064 91.581C177.495 91.8366 177.852 92.2225 178.137 92.7386C178.421 93.2547 178.563 93.946 178.563 94.8125V102H176.887V100.523H176.801C176.688 100.759 176.498 101.013 176.233 101.283C175.968 101.553 175.615 101.782 175.175 101.972C174.735 102.161 174.197 102.256 173.563 102.256ZM173.818 100.75C174.481 100.75 175.04 100.62 175.494 100.359C175.954 100.099 176.299 99.7628 176.531 99.3509C176.768 98.9389 176.887 98.5057 176.887 98.0511V96.517C176.816 96.6023 176.659 96.6804 176.418 96.7514C176.181 96.8177 175.906 96.8769 175.594 96.929C175.286 96.9763 174.985 97.0189 174.692 97.0568C174.403 97.09 174.169 97.1184 173.989 97.142C173.553 97.1989 173.146 97.2912 172.767 97.419C172.393 97.5421 172.09 97.7292 171.858 97.9801C171.631 98.2263 171.517 98.5625 171.517 98.9886C171.517 99.571 171.733 100.011 172.164 100.31C172.599 100.603 173.151 100.75 173.818 100.75ZM186.054 102.227C185.031 102.227 184.15 101.986 183.412 101.503C182.673 101.02 182.105 100.355 181.707 99.5071C181.309 98.6596 181.111 97.6913 181.111 96.6023C181.111 95.4943 181.314 94.5166 181.721 93.669C182.133 92.8168 182.706 92.1515 183.44 91.6733C184.179 91.1903 185.041 90.9489 186.025 90.9489C186.792 90.9489 187.484 91.0909 188.099 91.375C188.715 91.6591 189.219 92.0568 189.612 92.5682C190.005 93.0795 190.249 93.6761 190.344 94.358H188.667C188.54 93.8608 188.256 93.4205 187.815 93.0369C187.38 92.6487 186.792 92.4545 186.054 92.4545C185.4 92.4545 184.827 92.625 184.335 92.9659C183.847 93.3021 183.466 93.7779 183.192 94.3935C182.922 95.0043 182.787 95.7216 182.787 96.5455C182.787 97.3883 182.919 98.1222 183.184 98.7472C183.454 99.3722 183.833 99.8575 184.321 100.203C184.813 100.549 185.391 100.722 186.054 100.722C186.489 100.722 186.885 100.646 187.24 100.494C187.595 100.343 187.896 100.125 188.142 99.8409C188.388 99.5568 188.563 99.2159 188.667 98.8182H190.344C190.249 99.4621 190.015 100.042 189.64 100.558C189.271 101.07 188.781 101.477 188.17 101.78C187.564 102.078 186.859 102.227 186.054 102.227ZM194.356 98.0227L194.328 95.9489H194.669L199.442 91.0909H201.515L196.43 96.233H196.288L194.356 98.0227ZM192.794 102V87.4545H194.47V102H192.794ZM199.726 102L195.464 96.6023L196.657 95.4375L201.856 102H199.726Z" fill="black"/>
<rect x="436.5" y="124.5" width="216" height="43" fill="white" stroke="black"/>
<path d="M504.099 106L500.121 91.4545H501.911L504.951 103.301H505.093L508.19 91.4545H510.178L513.275 103.301H513.417L516.457 91.4545H518.246L514.269 106H512.451L509.241 94.4091H509.127L505.917 106H504.099ZM523.772 106.227C522.721 106.227 521.814 105.995 521.052 105.531C520.294 105.062 519.71 104.409 519.298 103.571C518.89 102.728 518.687 101.748 518.687 100.631C518.687 99.5133 518.89 98.5284 519.298 97.6761C519.71 96.8191 520.282 96.1515 521.016 95.6733C521.755 95.1903 522.617 94.9489 523.602 94.9489C524.17 94.9489 524.731 95.0436 525.285 95.233C525.839 95.4223 526.343 95.7301 526.798 96.1562C527.252 96.5777 527.614 97.1364 527.884 97.8324C528.154 98.5284 528.289 99.3854 528.289 100.403V101.114H519.88V99.6648H526.585C526.585 99.0492 526.461 98.5 526.215 98.017C525.974 97.5341 525.628 97.1529 525.178 96.8736C524.733 96.5942 524.208 96.4545 523.602 96.4545C522.934 96.4545 522.356 96.6203 521.869 96.9517C521.386 97.2784 521.014 97.7045 520.754 98.2301C520.493 98.7557 520.363 99.3191 520.363 99.9205V100.886C520.363 101.71 520.505 102.409 520.789 102.982C521.078 103.55 521.478 103.983 521.989 104.281C522.501 104.575 523.095 104.722 523.772 104.722C524.212 104.722 524.61 104.66 524.965 104.537C525.325 104.409 525.635 104.22 525.896 103.969C526.156 103.713 526.357 103.396 526.499 103.017L528.119 103.472C527.948 104.021 527.662 104.504 527.259 104.92C526.857 105.332 526.36 105.654 525.768 105.886C525.176 106.114 524.511 106.227 523.772 106.227ZM531.066 106V91.4545H532.742V96.8239H532.884C533.007 96.6345 533.178 96.393 533.396 96.0994C533.618 95.8011 533.935 95.536 534.347 95.304C534.764 95.0672 535.327 94.9489 536.038 94.9489C536.956 94.9489 537.766 95.1785 538.467 95.6378C539.167 96.0971 539.714 96.7481 540.107 97.5909C540.5 98.4337 540.697 99.428 540.697 100.574C540.697 101.729 540.5 102.731 540.107 103.578C539.714 104.421 539.17 105.074 538.474 105.538C537.778 105.998 536.975 106.227 536.066 106.227C535.365 106.227 534.804 106.111 534.383 105.879C533.961 105.643 533.637 105.375 533.41 105.077C533.183 104.774 533.007 104.523 532.884 104.324H532.685V106H531.066ZM532.714 100.545C532.714 101.369 532.835 102.096 533.076 102.726C533.317 103.351 533.67 103.841 534.134 104.196C534.598 104.546 535.166 104.722 535.839 104.722C536.54 104.722 537.124 104.537 537.593 104.168C538.067 103.794 538.422 103.292 538.658 102.662C538.9 102.027 539.021 101.322 539.021 100.545C539.021 99.7784 538.902 99.0871 538.665 98.4716C538.433 97.8513 538.081 97.3613 537.607 97.0014C537.138 96.6368 536.549 96.4545 535.839 96.4545C535.157 96.4545 534.584 96.6274 534.12 96.973C533.656 97.3139 533.306 97.7921 533.069 98.4077C532.832 99.0185 532.714 99.7311 532.714 100.545ZM549.71 106H547.863L553.204 91.4545H555.022L560.363 106H558.516L554.17 93.7557H554.056L549.71 106ZM550.391 100.318H557.835V101.881H550.391V100.318ZM562.629 106V91.4545H567.543C568.684 91.4545 569.617 91.6605 570.342 92.0724C571.071 92.4796 571.611 93.0312 571.961 93.7273C572.311 94.4233 572.487 95.1998 572.487 96.0568C572.487 96.9138 572.311 97.6927 571.961 98.3935C571.615 99.0942 571.08 99.6529 570.356 100.07C569.631 100.482 568.703 100.688 567.572 100.688H564.049V99.125H567.515C568.296 99.125 568.924 98.9901 569.397 98.7202C569.871 98.4503 570.214 98.0857 570.427 97.6264C570.645 97.1624 570.754 96.6392 570.754 96.0568C570.754 95.4744 570.645 94.9536 570.427 94.4943C570.214 94.035 569.868 93.6752 569.39 93.4148C568.912 93.1496 568.277 93.017 567.487 93.017H564.39V106H562.629ZM577.085 91.4545V106H575.324V91.4545H577.085ZM588.117 97.5341L586.611 97.9602C586.516 97.7093 586.377 97.4654 586.192 97.2287C586.012 96.9872 585.766 96.7884 585.453 96.6321C585.141 96.4759 584.741 96.3977 584.253 96.3977C583.586 96.3977 583.029 96.5516 582.584 96.8594C582.144 97.1624 581.924 97.5483 581.924 98.017C581.924 98.4337 582.075 98.7628 582.378 99.0043C582.681 99.2457 583.155 99.447 583.799 99.608L585.418 100.006C586.393 100.242 587.12 100.605 587.598 101.092C588.077 101.575 588.316 102.198 588.316 102.96C588.316 103.585 588.136 104.144 587.776 104.636C587.421 105.129 586.924 105.517 586.284 105.801C585.645 106.085 584.902 106.227 584.054 106.227C582.942 106.227 582.021 105.986 581.292 105.503C580.562 105.02 580.101 104.314 579.907 103.386L581.498 102.989C581.649 103.576 581.935 104.016 582.357 104.31C582.783 104.603 583.339 104.75 584.026 104.75C584.807 104.75 585.427 104.584 585.887 104.253C586.351 103.917 586.583 103.514 586.583 103.045C586.583 102.667 586.45 102.349 586.185 102.094C585.92 101.833 585.513 101.639 584.963 101.511L583.145 101.085C582.146 100.848 581.412 100.482 580.944 99.9844C580.48 99.4825 580.248 98.8551 580.248 98.1023C580.248 97.4867 580.42 96.9422 580.766 96.4688C581.116 95.9953 581.592 95.6236 582.194 95.3537C582.8 95.0838 583.486 94.9489 584.253 94.9489C585.333 94.9489 586.18 95.1856 586.796 95.6591C587.416 96.1326 587.856 96.7576 588.117 97.5341Z" fill="black"/>
<path d="M423 318H667.5M423 285.19H667.5" stroke="black" stroke-width="2"/>
<path d="M487.747 249H485.986C485.882 248.493 485.699 248.048 485.439 247.665C485.183 247.281 484.871 246.959 484.501 246.699C484.137 246.434 483.732 246.235 483.287 246.102C482.842 245.97 482.378 245.903 481.895 245.903C481.014 245.903 480.216 246.126 479.501 246.571C478.791 247.016 478.225 247.672 477.804 248.538C477.387 249.405 477.179 250.468 477.179 251.727C477.179 252.987 477.387 254.05 477.804 254.916C478.225 255.783 478.791 256.438 479.501 256.884C480.216 257.329 481.014 257.551 481.895 257.551C482.378 257.551 482.842 257.485 483.287 257.352C483.732 257.22 484.137 257.023 484.501 256.763C484.871 256.498 485.183 256.173 485.439 255.79C485.699 255.402 485.882 254.956 485.986 254.455H487.747C487.615 255.198 487.373 255.863 487.023 256.45C486.672 257.037 486.237 257.537 485.716 257.949C485.195 258.356 484.61 258.666 483.962 258.879C483.318 259.092 482.629 259.199 481.895 259.199C480.654 259.199 479.551 258.896 478.585 258.29C477.619 257.684 476.859 256.822 476.305 255.705C475.751 254.587 475.474 253.261 475.474 251.727C475.474 250.193 475.751 248.867 476.305 247.75C476.859 246.633 477.619 245.771 478.585 245.165C479.551 244.559 480.654 244.256 481.895 244.256C482.629 244.256 483.318 244.362 483.962 244.575C484.61 244.788 485.195 245.101 485.716 245.513C486.237 245.92 486.672 246.417 487.023 247.004C487.373 247.587 487.615 248.252 487.747 249ZM493.576 259.256C492.885 259.256 492.258 259.125 491.694 258.865C491.131 258.6 490.683 258.219 490.352 257.722C490.02 257.22 489.855 256.614 489.855 255.903C489.855 255.278 489.978 254.772 490.224 254.384C490.47 253.991 490.799 253.683 491.211 253.46C491.623 253.238 492.078 253.072 492.575 252.963C493.077 252.849 493.581 252.759 494.088 252.693C494.751 252.608 495.288 252.544 495.7 252.501C496.117 252.454 496.42 252.376 496.609 252.267C496.803 252.158 496.9 251.969 496.9 251.699V251.642C496.9 250.941 496.708 250.397 496.325 250.009C495.946 249.62 495.371 249.426 494.599 249.426C493.799 249.426 493.172 249.601 492.717 249.952C492.262 250.302 491.943 250.676 491.758 251.074L490.167 250.506C490.451 249.843 490.83 249.327 491.304 248.957C491.782 248.583 492.303 248.323 492.866 248.176C493.434 248.025 493.993 247.949 494.542 247.949C494.893 247.949 495.295 247.991 495.75 248.077C496.209 248.157 496.652 248.325 497.078 248.581C497.509 248.837 497.866 249.223 498.15 249.739C498.434 250.255 498.576 250.946 498.576 251.812V259H496.9V257.523H496.815C496.701 257.759 496.512 258.013 496.247 258.283C495.982 258.553 495.629 258.782 495.189 258.972C494.748 259.161 494.211 259.256 493.576 259.256ZM493.832 257.75C494.495 257.75 495.054 257.62 495.508 257.359C495.967 257.099 496.313 256.763 496.545 256.351C496.782 255.939 496.9 255.506 496.9 255.051V253.517C496.829 253.602 496.673 253.68 496.431 253.751C496.195 253.818 495.92 253.877 495.608 253.929C495.3 253.976 494.999 254.019 494.706 254.057C494.417 254.09 494.182 254.118 494.002 254.142C493.567 254.199 493.16 254.291 492.781 254.419C492.407 254.542 492.104 254.729 491.872 254.98C491.645 255.226 491.531 255.562 491.531 255.989C491.531 256.571 491.746 257.011 492.177 257.31C492.613 257.603 493.164 257.75 493.832 257.75ZM503.312 244.455V259H501.636V244.455H503.312ZM508.058 244.455V259H506.382V244.455H508.058ZM511.355 259V244.455H513.031V249.824H513.173C513.296 249.634 513.467 249.393 513.685 249.099C513.907 248.801 514.224 248.536 514.636 248.304C515.053 248.067 515.616 247.949 516.327 247.949C517.245 247.949 518.055 248.179 518.756 248.638C519.456 249.097 520.003 249.748 520.396 250.591C520.789 251.434 520.986 252.428 520.986 253.574C520.986 254.729 520.789 255.731 520.396 256.578C520.003 257.421 519.459 258.074 518.763 258.538C518.067 258.998 517.264 259.227 516.355 259.227C515.654 259.227 515.093 259.111 514.672 258.879C514.25 258.643 513.926 258.375 513.699 258.077C513.472 257.774 513.296 257.523 513.173 257.324H512.974V259H511.355ZM513.003 253.545C513.003 254.369 513.124 255.096 513.365 255.726C513.607 256.351 513.959 256.841 514.423 257.196C514.887 257.546 515.455 257.722 516.128 257.722C516.829 257.722 517.413 257.537 517.882 257.168C518.356 256.794 518.711 256.292 518.947 255.662C519.189 255.027 519.31 254.322 519.31 253.545C519.31 252.778 519.191 252.087 518.955 251.472C518.723 250.851 518.37 250.361 517.896 250.001C517.428 249.637 516.838 249.455 516.128 249.455C515.446 249.455 514.873 249.627 514.409 249.973C513.945 250.314 513.595 250.792 513.358 251.408C513.121 252.018 513.003 252.731 513.003 253.545ZM526.76 259.256C526.069 259.256 525.441 259.125 524.878 258.865C524.314 258.6 523.867 258.219 523.536 257.722C523.204 257.22 523.038 256.614 523.038 255.903C523.038 255.278 523.161 254.772 523.408 254.384C523.654 253.991 523.983 253.683 524.395 253.46C524.807 253.238 525.261 253.072 525.759 252.963C526.26 252.849 526.765 252.759 527.271 252.693C527.934 252.608 528.472 252.544 528.884 252.501C529.3 252.454 529.603 252.376 529.793 252.267C529.987 252.158 530.084 251.969 530.084 251.699V251.642C530.084 250.941 529.892 250.397 529.509 250.009C529.13 249.62 528.554 249.426 527.783 249.426C526.982 249.426 526.355 249.601 525.901 249.952C525.446 250.302 525.126 250.676 524.942 251.074L523.351 250.506C523.635 249.843 524.014 249.327 524.487 248.957C524.965 248.583 525.486 248.323 526.05 248.176C526.618 248.025 527.177 247.949 527.726 247.949C528.076 247.949 528.479 247.991 528.933 248.077C529.393 248.157 529.835 248.325 530.261 248.581C530.692 248.837 531.05 249.223 531.334 249.739C531.618 250.255 531.76 250.946 531.76 251.812V259H530.084V257.523H529.999C529.885 257.759 529.696 258.013 529.43 258.283C529.165 258.553 528.813 258.782 528.372 258.972C527.932 259.161 527.394 259.256 526.76 259.256ZM527.016 257.75C527.679 257.75 528.237 257.62 528.692 257.359C529.151 257.099 529.497 256.763 529.729 256.351C529.965 255.939 530.084 255.506 530.084 255.051V253.517C530.013 253.602 529.857 253.68 529.615 253.751C529.378 253.818 529.104 253.877 528.791 253.929C528.483 253.976 528.183 254.019 527.889 254.057C527.6 254.09 527.366 254.118 527.186 254.142C526.75 254.199 526.343 254.291 525.964 254.419C525.59 254.542 525.287 254.729 525.055 254.98C524.828 255.226 524.714 255.562 524.714 255.989C524.714 256.571 524.93 257.011 525.361 257.31C525.796 257.603 526.348 257.75 527.016 257.75ZM539.251 259.227C538.228 259.227 537.348 258.986 536.609 258.503C535.87 258.02 535.302 257.355 534.904 256.507C534.507 255.66 534.308 254.691 534.308 253.602C534.308 252.494 534.511 251.517 534.919 250.669C535.331 249.817 535.904 249.152 536.637 248.673C537.376 248.19 538.238 247.949 539.223 247.949C539.99 247.949 540.681 248.091 541.297 248.375C541.912 248.659 542.416 249.057 542.809 249.568C543.202 250.08 543.446 250.676 543.541 251.358H541.865C541.737 250.861 541.453 250.42 541.012 250.037C540.577 249.649 539.99 249.455 539.251 249.455C538.598 249.455 538.025 249.625 537.532 249.966C537.045 250.302 536.663 250.778 536.389 251.393C536.119 252.004 535.984 252.722 535.984 253.545C535.984 254.388 536.117 255.122 536.382 255.747C536.652 256.372 537.03 256.857 537.518 257.203C538.011 257.549 538.588 257.722 539.251 257.722C539.687 257.722 540.082 257.646 540.437 257.494C540.792 257.343 541.093 257.125 541.339 256.841C541.585 256.557 541.761 256.216 541.865 255.818H543.541C543.446 256.462 543.212 257.042 542.838 257.558C542.468 258.07 541.978 258.477 541.368 258.78C540.761 259.078 540.056 259.227 539.251 259.227ZM547.554 255.023L547.525 252.949H547.866L552.639 248.091H554.713L549.627 253.233H549.485L547.554 255.023ZM545.991 259V244.455H547.667V259H545.991ZM552.923 259L548.662 253.602L549.855 252.438L555.054 259H552.923ZM568.006 254.455H569.938L571.558 256.585L571.984 257.153L574.398 260.364H572.467L570.876 258.233L570.478 257.693L568.006 254.455ZM574.995 251.727C574.995 253.261 574.718 254.587 574.164 255.705C573.61 256.822 572.85 257.684 571.884 258.29C570.918 258.896 569.815 259.199 568.575 259.199C567.334 259.199 566.231 258.896 565.265 258.29C564.299 257.684 563.539 256.822 562.985 255.705C562.431 254.587 562.154 253.261 562.154 251.727C562.154 250.193 562.431 248.867 562.985 247.75C563.539 246.633 564.299 245.771 565.265 245.165C566.231 244.559 567.334 244.256 568.575 244.256C569.815 244.256 570.918 244.559 571.884 245.165C572.85 245.771 573.61 246.633 574.164 247.75C574.718 248.867 574.995 250.193 574.995 251.727ZM573.29 251.727C573.29 250.468 573.08 249.405 572.658 248.538C572.242 247.672 571.676 247.016 570.961 246.571C570.251 246.126 569.455 245.903 568.575 245.903C567.694 245.903 566.896 246.126 566.181 246.571C565.471 247.016 564.905 247.672 564.484 248.538C564.067 249.405 563.859 250.468 563.859 251.727C563.859 252.987 564.067 254.05 564.484 254.916C564.905 255.783 565.471 256.438 566.181 256.884C566.896 257.329 567.694 257.551 568.575 257.551C569.455 257.551 570.251 257.329 570.961 256.884C571.676 256.438 572.242 255.783 572.658 254.916C573.08 254.05 573.29 252.987 573.29 251.727ZM584.604 254.54V248.091H586.281V259H584.604V257.153H584.491C584.235 257.707 583.837 258.179 583.298 258.567C582.758 258.95 582.076 259.142 581.252 259.142C580.57 259.142 579.964 258.993 579.434 258.695C578.904 258.392 578.487 257.937 578.184 257.331C577.881 256.72 577.729 255.951 577.729 255.023V248.091H579.406V254.909C579.406 255.705 579.628 256.339 580.073 256.812C580.523 257.286 581.096 257.523 581.792 257.523C582.209 257.523 582.632 257.416 583.063 257.203C583.499 256.99 583.863 256.663 584.157 256.223C584.455 255.783 584.604 255.222 584.604 254.54ZM593.924 259.227C592.873 259.227 591.967 258.995 591.204 258.531C590.447 258.062 589.862 257.409 589.45 256.571C589.043 255.728 588.839 254.748 588.839 253.631C588.839 252.513 589.043 251.528 589.45 250.676C589.862 249.819 590.435 249.152 591.169 248.673C591.907 248.19 592.769 247.949 593.754 247.949C594.322 247.949 594.883 248.044 595.437 248.233C595.991 248.422 596.495 248.73 596.95 249.156C597.404 249.578 597.767 250.136 598.037 250.832C598.306 251.528 598.441 252.385 598.441 253.403V254.114H590.032V252.665H596.737C596.737 252.049 596.614 251.5 596.368 251.017C596.126 250.534 595.78 250.153 595.331 249.874C594.886 249.594 594.36 249.455 593.754 249.455C593.086 249.455 592.509 249.62 592.021 249.952C591.538 250.278 591.166 250.705 590.906 251.23C590.645 251.756 590.515 252.319 590.515 252.92V253.886C590.515 254.71 590.657 255.409 590.941 255.982C591.23 256.55 591.63 256.983 592.142 257.281C592.653 257.575 593.247 257.722 593.924 257.722C594.365 257.722 594.762 257.66 595.118 257.537C595.477 257.409 595.788 257.22 596.048 256.969C596.308 256.713 596.51 256.396 596.652 256.017L598.271 256.472C598.1 257.021 597.814 257.504 597.412 257.92C597.009 258.332 596.512 258.654 595.92 258.886C595.328 259.114 594.663 259.227 593.924 259.227ZM607.866 254.54V248.091H609.542V259H607.866V257.153H607.752C607.497 257.707 607.099 258.179 606.559 258.567C606.02 258.95 605.338 259.142 604.514 259.142C603.832 259.142 603.226 258.993 602.696 258.695C602.165 258.392 601.749 257.937 601.446 257.331C601.143 256.72 600.991 255.951 600.991 255.023V248.091H602.667V254.909C602.667 255.705 602.89 256.339 603.335 256.812C603.785 257.286 604.358 257.523 605.054 257.523C605.47 257.523 605.894 257.416 606.325 257.203C606.761 256.99 607.125 256.663 607.419 256.223C607.717 255.783 607.866 255.222 607.866 254.54ZM617.186 259.227C616.135 259.227 615.228 258.995 614.466 258.531C613.708 258.062 613.124 257.409 612.712 256.571C612.304 255.728 612.101 254.748 612.101 253.631C612.101 252.513 612.304 251.528 612.712 250.676C613.124 249.819 613.696 249.152 614.43 248.673C615.169 248.19 616.031 247.949 617.016 247.949C617.584 247.949 618.145 248.044 618.699 248.233C619.253 248.422 619.757 248.73 620.212 249.156C620.666 249.578 621.028 250.136 621.298 250.832C621.568 251.528 621.703 252.385 621.703 253.403V254.114H613.294V252.665H619.999C619.999 252.049 619.875 251.5 619.629 251.017C619.388 250.534 619.042 250.153 618.592 249.874C618.147 249.594 617.622 249.455 617.016 249.455C616.348 249.455 615.77 249.62 615.283 249.952C614.8 250.278 614.428 250.705 614.168 251.23C613.907 251.756 613.777 252.319 613.777 252.92V253.886C613.777 254.71 613.919 255.409 614.203 255.982C614.492 256.55 614.892 256.983 615.403 257.281C615.915 257.575 616.509 257.722 617.186 257.722C617.626 257.722 618.024 257.66 618.379 257.537C618.739 257.409 619.049 257.22 619.31 256.969C619.57 256.713 619.771 256.396 619.913 256.017L621.533 256.472C621.362 257.021 621.076 257.504 620.673 257.92C620.271 258.332 619.774 258.654 619.182 258.886C618.59 259.114 617.925 259.227 617.186 259.227Z" fill="black"/>
<path d="M290.417 214V202.364H297.44V203.614H291.826V207.545H297.076V208.795H291.826V212.75H297.531V214H290.417ZM306.934 205.273L303.707 214H302.343L299.116 205.273H300.57L302.979 212.227H303.07L305.479 205.273H306.934ZM312.05 214.182C311.21 214.182 310.484 213.996 309.874 213.625C309.268 213.25 308.8 212.727 308.471 212.057C308.145 211.383 307.982 210.598 307.982 209.705C307.982 208.811 308.145 208.023 308.471 207.341C308.8 206.655 309.259 206.121 309.846 205.739C310.437 205.352 311.126 205.159 311.914 205.159C312.369 205.159 312.817 205.235 313.261 205.386C313.704 205.538 314.107 205.784 314.471 206.125C314.835 206.462 315.124 206.909 315.34 207.466C315.556 208.023 315.664 208.708 315.664 209.523V210.091H308.937V208.932H314.3C314.3 208.439 314.202 208 314.005 207.614C313.812 207.227 313.535 206.922 313.175 206.699C312.819 206.475 312.399 206.364 311.914 206.364C311.38 206.364 310.918 206.496 310.528 206.761C310.141 207.023 309.844 207.364 309.636 207.784C309.427 208.205 309.323 208.655 309.323 209.136V209.909C309.323 210.568 309.437 211.127 309.664 211.585C309.895 212.04 310.215 212.386 310.624 212.625C311.033 212.86 311.509 212.977 312.05 212.977C312.403 212.977 312.721 212.928 313.005 212.83C313.293 212.727 313.541 212.576 313.749 212.375C313.958 212.17 314.119 211.917 314.232 211.614L315.528 211.977C315.391 212.417 315.162 212.803 314.84 213.136C314.518 213.466 314.121 213.723 313.647 213.909C313.174 214.091 312.641 214.182 312.05 214.182ZM319.045 208.75V214H317.704V205.273H318.999V206.636H319.113C319.317 206.193 319.628 205.837 320.045 205.568C320.461 205.295 320.999 205.159 321.658 205.159C322.249 205.159 322.766 205.28 323.21 205.523C323.653 205.761 323.997 206.125 324.244 206.614C324.49 207.098 324.613 207.712 324.613 208.455V214H323.272V208.545C323.272 207.86 323.094 207.326 322.738 206.943C322.382 206.557 321.893 206.364 321.272 206.364C320.844 206.364 320.461 206.456 320.124 206.642C319.791 206.828 319.528 207.098 319.335 207.455C319.141 207.811 319.045 208.242 319.045 208.75ZM330.859 205.273V206.409H326.336V205.273H330.859ZM327.654 203.182H328.995V211.5C328.995 211.879 329.05 212.163 329.16 212.352C329.273 212.538 329.417 212.663 329.592 212.727C329.77 212.788 329.957 212.818 330.154 212.818C330.302 212.818 330.423 212.811 330.518 212.795C330.612 212.777 330.688 212.761 330.745 212.75L331.018 213.955C330.927 213.989 330.8 214.023 330.637 214.057C330.474 214.095 330.268 214.114 330.018 214.114C329.639 214.114 329.268 214.032 328.904 213.869C328.544 213.706 328.245 213.458 328.006 213.125C327.772 212.792 327.654 212.371 327.654 211.864V203.182ZM337.558 214V202.364H338.967V212.75H344.376V214H337.558ZM349.921 214.182C349.133 214.182 348.442 213.994 347.847 213.619C347.256 213.244 346.794 212.72 346.461 212.045C346.131 211.371 345.967 210.583 345.967 209.682C345.967 208.773 346.131 207.979 346.461 207.301C346.794 206.623 347.256 206.097 347.847 205.722C348.442 205.347 349.133 205.159 349.921 205.159C350.709 205.159 351.398 205.347 351.989 205.722C352.584 206.097 353.046 206.623 353.376 207.301C353.709 207.979 353.876 208.773 353.876 209.682C353.876 210.583 353.709 211.371 353.376 212.045C353.046 212.72 352.584 213.244 351.989 213.619C351.398 213.994 350.709 214.182 349.921 214.182ZM349.921 212.977C350.52 212.977 351.012 212.824 351.398 212.517C351.785 212.21 352.071 211.807 352.256 211.307C352.442 210.807 352.535 210.265 352.535 209.682C352.535 209.098 352.442 208.555 352.256 208.051C352.071 207.547 351.785 207.14 351.398 206.83C351.012 206.519 350.52 206.364 349.921 206.364C349.323 206.364 348.83 206.519 348.444 206.83C348.058 207.14 347.772 207.547 347.586 208.051C347.4 208.555 347.308 209.098 347.308 209.682C347.308 210.265 347.4 210.807 347.586 211.307C347.772 211.807 348.058 212.21 348.444 212.517C348.83 212.824 349.323 212.977 349.921 212.977ZM359.468 214.182C358.68 214.182 357.989 213.994 357.394 213.619C356.803 213.244 356.341 212.72 356.008 212.045C355.678 211.371 355.513 210.583 355.513 209.682C355.513 208.773 355.678 207.979 356.008 207.301C356.341 206.623 356.803 206.097 357.394 205.722C357.989 205.347 358.68 205.159 359.468 205.159C360.256 205.159 360.945 205.347 361.536 205.722C362.131 206.097 362.593 206.623 362.923 207.301C363.256 207.979 363.423 208.773 363.423 209.682C363.423 210.583 363.256 211.371 362.923 212.045C362.593 212.72 362.131 213.244 361.536 213.619C360.945 213.994 360.256 214.182 359.468 214.182ZM359.468 212.977C360.067 212.977 360.559 212.824 360.945 212.517C361.332 212.21 361.618 211.807 361.803 211.307C361.989 210.807 362.082 210.265 362.082 209.682C362.082 209.098 361.989 208.555 361.803 208.051C361.618 207.547 361.332 207.14 360.945 206.83C360.559 206.519 360.067 206.364 359.468 206.364C358.87 206.364 358.377 206.519 357.991 206.83C357.604 207.14 357.318 207.547 357.133 208.051C356.947 208.555 356.854 209.098 356.854 209.682C356.854 210.265 356.947 210.807 357.133 211.307C357.318 211.807 357.604 212.21 357.991 212.517C358.377 212.824 358.87 212.977 359.468 212.977ZM365.469 217.273V205.273H366.765V206.659H366.924C367.022 206.508 367.159 206.314 367.333 206.08C367.511 205.841 367.765 205.629 368.094 205.443C368.428 205.254 368.879 205.159 369.447 205.159C370.182 205.159 370.829 205.343 371.39 205.71C371.951 206.078 372.388 206.598 372.702 207.273C373.017 207.947 373.174 208.742 373.174 209.659C373.174 210.583 373.017 211.384 372.702 212.062C372.388 212.737 371.952 213.259 371.396 213.631C370.839 213.998 370.197 214.182 369.469 214.182C368.909 214.182 368.46 214.089 368.123 213.903C367.786 213.714 367.526 213.5 367.344 213.261C367.163 213.019 367.022 212.818 366.924 212.659H366.81V217.273H365.469ZM366.788 209.636C366.788 210.295 366.884 210.877 367.077 211.381C367.271 211.881 367.553 212.273 367.924 212.557C368.295 212.837 368.75 212.977 369.288 212.977C369.848 212.977 370.316 212.83 370.691 212.534C371.07 212.235 371.354 211.833 371.543 211.33C371.737 210.822 371.833 210.258 371.833 209.636C371.833 209.023 371.738 208.47 371.549 207.977C371.363 207.481 371.081 207.089 370.702 206.801C370.327 206.509 369.856 206.364 369.288 206.364C368.742 206.364 368.284 206.502 367.913 206.778C367.541 207.051 367.261 207.434 367.072 207.926C366.882 208.415 366.788 208.985 366.788 209.636Z" fill="black"/>
<path d="M356.778 230C358.422 230 360 231.275 360 233.2V250.466C360 251.72 358.983 252.735 357.728 252.735H340.458C338.528 252.735 337.25 251.159 337.25 249.516C337.25 248.731 337.542 247.93 338.194 247.279L343.542 241.937C340.197 239.199 335.974 237.601 331.535 237.601C321.093 237.601 312.593 246.085 312.593 256.512C312.593 266.94 321.088 275.419 331.531 275.419C340.2 275.419 342.132 270.885 345.174 270.885C347.364 270.885 348.963 272.665 348.963 274.667C348.963 278.814 339.292 283 331.539 283C316.912 283 305 271.107 305 256.503C305 241.899 316.916 230.039 331.543 230.039C338.015 230.039 344.131 232.452 348.896 236.579L354.538 230.942C355.19 230.291 355.996 230 356.778 230Z" fill="black"/>
<path d="M95.5 128.5H214.5V306C214.5 312.351 209.351 317.5 203 317.5H107C100.649 317.5 95.5 312.351 95.5 306V128.5Z" fill="white" stroke="black"/>
<rect x="95.5" y="277.5" width="119" height="27" fill="white" stroke="black"/>
<path d="M115.46 290.19L114.783 290.382C114.74 290.269 114.677 290.159 114.594 290.053C114.513 289.944 114.402 289.855 114.262 289.784C114.121 289.714 113.941 289.679 113.722 289.679C113.421 289.679 113.171 289.748 112.971 289.887C112.772 290.023 112.673 290.197 112.673 290.408C112.673 290.595 112.742 290.743 112.878 290.852C113.014 290.961 113.227 291.051 113.517 291.124L114.246 291.303C114.685 291.409 115.012 291.572 115.227 291.792C115.442 292.009 115.55 292.289 115.55 292.632C115.55 292.913 115.469 293.165 115.307 293.386C115.147 293.608 114.923 293.783 114.636 293.911C114.348 294.038 114.014 294.102 113.632 294.102C113.131 294.102 112.717 293.994 112.389 293.776C112.061 293.559 111.853 293.241 111.766 292.824L112.482 292.645C112.55 292.909 112.679 293.107 112.868 293.239C113.06 293.371 113.31 293.438 113.619 293.438C113.971 293.438 114.25 293.363 114.457 293.214C114.666 293.062 114.77 292.881 114.77 292.67C114.77 292.5 114.71 292.357 114.591 292.242C114.472 292.125 114.288 292.038 114.041 291.98L113.223 291.788C112.773 291.682 112.443 291.517 112.232 291.293C112.023 291.067 111.919 290.785 111.919 290.446C111.919 290.169 111.997 289.924 112.152 289.711C112.31 289.498 112.524 289.331 112.795 289.209C113.068 289.088 113.376 289.027 113.722 289.027C114.207 289.027 114.589 289.134 114.866 289.347C115.145 289.56 115.343 289.841 115.46 290.19ZM118.743 294.102C118.27 294.102 117.862 293.998 117.519 293.789C117.178 293.578 116.915 293.284 116.73 292.907C116.547 292.528 116.455 292.087 116.455 291.584C116.455 291.081 116.547 290.638 116.73 290.254C116.915 289.869 117.173 289.568 117.503 289.353C117.836 289.136 118.223 289.027 118.667 289.027C118.922 289.027 119.175 289.07 119.424 289.155C119.673 289.24 119.9 289.379 120.105 289.57C120.309 289.76 120.472 290.011 120.594 290.325C120.715 290.638 120.776 291.023 120.776 291.482V291.801H116.992V291.149H120.009C120.009 290.872 119.954 290.625 119.843 290.408C119.734 290.19 119.579 290.019 119.376 289.893C119.176 289.767 118.939 289.705 118.667 289.705C118.366 289.705 118.106 289.779 117.887 289.928C117.67 290.075 117.502 290.267 117.385 290.504C117.268 290.74 117.209 290.994 117.209 291.264V291.699C117.209 292.07 117.273 292.384 117.401 292.642C117.531 292.897 117.711 293.092 117.941 293.227C118.171 293.359 118.439 293.425 118.743 293.425C118.942 293.425 119.121 293.397 119.28 293.342C119.442 293.284 119.582 293.199 119.699 293.086C119.816 292.971 119.907 292.828 119.971 292.658L120.699 292.862C120.623 293.109 120.494 293.327 120.313 293.514C120.132 293.7 119.908 293.844 119.641 293.949C119.375 294.051 119.076 294.102 118.743 294.102ZM124.058 289.091V289.73H121.514V289.091H124.058ZM122.256 287.915H123.01V292.594C123.01 292.807 123.041 292.967 123.103 293.073C123.167 293.178 123.248 293.248 123.346 293.284C123.446 293.318 123.551 293.335 123.662 293.335C123.745 293.335 123.813 293.331 123.867 293.322C123.92 293.312 123.962 293.303 123.994 293.297L124.148 293.974C124.097 293.994 124.025 294.013 123.934 294.032C123.842 294.053 123.726 294.064 123.585 294.064C123.372 294.064 123.163 294.018 122.959 293.926C122.757 293.835 122.588 293.695 122.454 293.508C122.322 293.32 122.256 293.084 122.256 292.798V287.915ZM124.63 288.158V287.455H129.539V288.158H127.48V294H126.688V288.158H124.63ZM130.66 294V289.091H131.414V294H130.66ZM131.043 288.273C130.896 288.273 130.769 288.223 130.663 288.123C130.559 288.022 130.506 287.902 130.506 287.761C130.506 287.621 130.559 287.5 130.663 287.4C130.769 287.3 130.896 287.25 131.043 287.25C131.19 287.25 131.316 287.3 131.42 287.4C131.527 287.5 131.58 287.621 131.58 287.761C131.58 287.902 131.527 288.022 131.42 288.123C131.316 288.223 131.19 288.273 131.043 288.273ZM132.795 294V289.091H133.524V289.858H133.588C133.69 289.596 133.855 289.392 134.083 289.248C134.311 289.1 134.585 289.027 134.905 289.027C135.229 289.027 135.498 289.1 135.713 289.248C135.931 289.392 136.1 289.596 136.222 289.858H136.273C136.398 289.604 136.587 289.403 136.838 289.254C137.09 289.103 137.391 289.027 137.743 289.027C138.182 289.027 138.541 289.164 138.82 289.439C139.099 289.712 139.239 290.137 139.239 290.714V294H138.484V290.714C138.484 290.352 138.385 290.093 138.187 289.938C137.989 289.782 137.756 289.705 137.487 289.705C137.142 289.705 136.875 289.809 136.685 290.018C136.495 290.224 136.401 290.487 136.401 290.804V294H135.634V290.638C135.634 290.359 135.543 290.134 135.362 289.963C135.181 289.791 134.947 289.705 134.662 289.705C134.466 289.705 134.283 289.757 134.112 289.861C133.944 289.966 133.808 290.11 133.703 290.296C133.601 290.479 133.55 290.691 133.55 290.932V294H132.795ZM142.676 294.102C142.203 294.102 141.795 293.998 141.452 293.789C141.111 293.578 140.848 293.284 140.662 292.907C140.479 292.528 140.388 292.087 140.388 291.584C140.388 291.081 140.479 290.638 140.662 290.254C140.848 289.869 141.106 289.568 141.436 289.353C141.768 289.136 142.156 289.027 142.599 289.027C142.855 289.027 143.107 289.07 143.357 289.155C143.606 289.24 143.833 289.379 144.037 289.57C144.242 289.76 144.405 290.011 144.526 290.325C144.648 290.638 144.709 291.023 144.709 291.482V291.801H140.925V291.149H143.942C143.942 290.872 143.886 290.625 143.775 290.408C143.667 290.19 143.511 290.019 143.309 289.893C143.109 289.767 142.872 289.705 142.599 289.705C142.299 289.705 142.039 289.779 141.819 289.928C141.602 290.075 141.435 290.267 141.318 290.504C141.2 290.74 141.142 290.994 141.142 291.264V291.699C141.142 292.07 141.206 292.384 141.334 292.642C141.464 292.897 141.644 293.092 141.874 293.227C142.104 293.359 142.371 293.425 142.676 293.425C142.874 293.425 143.053 293.397 143.213 293.342C143.375 293.284 143.514 293.199 143.632 293.086C143.749 292.971 143.839 292.828 143.903 292.658L144.632 292.862C144.555 293.109 144.426 293.327 144.245 293.514C144.064 293.7 143.84 293.844 143.574 293.949C143.308 294.051 143.008 294.102 142.676 294.102ZM147.85 294.102C147.407 294.102 147.018 293.997 146.684 293.786C146.351 293.575 146.091 293.28 145.904 292.901C145.719 292.521 145.626 292.078 145.626 291.571C145.626 291.06 145.719 290.613 145.904 290.232C146.091 289.85 146.351 289.554 146.684 289.343C147.018 289.132 147.407 289.027 147.85 289.027C148.294 289.027 148.681 289.132 149.014 289.343C149.348 289.554 149.608 289.85 149.794 290.232C149.981 290.613 150.075 291.06 150.075 291.571C150.075 292.078 149.981 292.521 149.794 292.901C149.608 293.28 149.348 293.575 149.014 293.786C148.681 293.997 148.294 294.102 147.85 294.102ZM147.85 293.425C148.187 293.425 148.464 293.338 148.681 293.166C148.899 292.993 149.06 292.766 149.164 292.485C149.268 292.204 149.321 291.899 149.321 291.571C149.321 291.243 149.268 290.937 149.164 290.654C149.06 290.37 148.899 290.141 148.681 289.967C148.464 289.792 148.187 289.705 147.85 289.705C147.514 289.705 147.237 289.792 147.019 289.967C146.802 290.141 146.641 290.37 146.537 290.654C146.432 290.937 146.38 291.243 146.38 291.571C146.38 291.899 146.432 292.204 146.537 292.485C146.641 292.766 146.802 292.993 147.019 293.166C147.237 293.338 147.514 293.425 147.85 293.425ZM154.32 291.993V289.091H155.074V294H154.32V293.169H154.269C154.154 293.418 153.975 293.63 153.732 293.805C153.489 293.978 153.182 294.064 152.811 294.064C152.505 294.064 152.232 293.997 151.993 293.863C151.755 293.726 151.567 293.522 151.431 293.249C151.294 292.974 151.226 292.628 151.226 292.21V289.091H151.98V292.159C151.98 292.517 152.081 292.803 152.281 293.016C152.483 293.229 152.741 293.335 153.054 293.335C153.242 293.335 153.432 293.287 153.626 293.191C153.822 293.096 153.986 292.949 154.119 292.75C154.253 292.552 154.32 292.3 154.32 291.993ZM158.591 289.091V289.73H156.047V289.091H158.591ZM156.788 287.915H157.542V292.594C157.542 292.807 157.573 292.967 157.635 293.073C157.699 293.178 157.78 293.248 157.878 293.284C157.978 293.318 158.083 293.335 158.194 293.335C158.277 293.335 158.346 293.331 158.399 293.322C158.452 293.312 158.495 293.303 158.527 293.297L158.68 293.974C158.629 293.994 158.558 294.013 158.466 294.032C158.374 294.053 158.258 294.064 158.118 294.064C157.905 294.064 157.696 294.018 157.491 293.926C157.289 293.835 157.12 293.695 156.986 293.508C156.854 293.32 156.788 293.084 156.788 292.798V287.915ZM167.626 289.5H166.833C166.786 289.272 166.704 289.072 166.587 288.899C166.472 288.727 166.331 288.582 166.165 288.464C166.001 288.345 165.819 288.256 165.619 288.196C165.418 288.136 165.21 288.107 164.992 288.107C164.596 288.107 164.237 288.207 163.915 288.407C163.596 288.607 163.341 288.902 163.151 289.292C162.964 289.682 162.87 290.161 162.87 290.727C162.87 291.294 162.964 291.772 163.151 292.162C163.341 292.552 163.596 292.847 163.915 293.048C164.237 293.248 164.596 293.348 164.992 293.348C165.21 293.348 165.418 293.318 165.619 293.259C165.819 293.199 166.001 293.11 166.165 292.993C166.331 292.874 166.472 292.728 166.587 292.555C166.704 292.381 166.786 292.18 166.833 291.955H167.626C167.566 292.289 167.457 292.588 167.3 292.853C167.142 293.117 166.946 293.342 166.712 293.527C166.477 293.71 166.214 293.85 165.922 293.946C165.632 294.042 165.322 294.089 164.992 294.089C164.434 294.089 163.938 293.953 163.503 293.68C163.068 293.408 162.726 293.02 162.477 292.517C162.228 292.014 162.103 291.418 162.103 290.727C162.103 290.037 162.228 289.44 162.477 288.938C162.726 288.435 163.068 288.047 163.503 287.774C163.938 287.501 164.434 287.365 164.992 287.365C165.322 287.365 165.632 287.413 165.922 287.509C166.214 287.605 166.477 287.745 166.712 287.931C166.946 288.114 167.142 288.338 167.3 288.602C167.457 288.864 167.566 289.163 167.626 289.5ZM170.249 294.115C169.938 294.115 169.655 294.056 169.402 293.939C169.148 293.82 168.947 293.648 168.798 293.425C168.649 293.199 168.574 292.926 168.574 292.607C168.574 292.325 168.63 292.097 168.74 291.923C168.851 291.746 168.999 291.607 169.185 291.507C169.37 291.407 169.575 291.332 169.798 291.283C170.024 291.232 170.251 291.192 170.479 291.162C170.777 291.124 171.019 291.095 171.204 291.076C171.392 291.054 171.528 291.019 171.614 290.97C171.701 290.921 171.745 290.836 171.745 290.714V290.689C171.745 290.374 171.658 290.129 171.486 289.954C171.315 289.779 171.056 289.692 170.709 289.692C170.349 289.692 170.067 289.771 169.862 289.928C169.658 290.086 169.514 290.254 169.431 290.433L168.715 290.178C168.843 289.879 169.013 289.647 169.226 289.481C169.441 289.312 169.676 289.195 169.929 289.129C170.185 289.061 170.436 289.027 170.684 289.027C170.841 289.027 171.022 289.046 171.227 289.085C171.434 289.121 171.633 289.196 171.825 289.311C172.018 289.426 172.179 289.6 172.307 289.832C172.435 290.065 172.499 290.376 172.499 290.766V294H171.745V293.335H171.706C171.655 293.442 171.57 293.556 171.451 293.677C171.331 293.799 171.173 293.902 170.974 293.987C170.776 294.072 170.534 294.115 170.249 294.115ZM170.364 293.438C170.662 293.438 170.914 293.379 171.118 293.262C171.325 293.145 171.48 292.993 171.585 292.808C171.691 292.623 171.745 292.428 171.745 292.223V291.533C171.713 291.571 171.642 291.606 171.534 291.638C171.427 291.668 171.304 291.695 171.163 291.718C171.024 291.739 170.889 291.759 170.757 291.776C170.627 291.79 170.522 291.803 170.441 291.814C170.245 291.839 170.061 291.881 169.891 291.939C169.723 291.994 169.586 292.078 169.482 292.191C169.38 292.302 169.328 292.453 169.328 292.645C169.328 292.907 169.425 293.105 169.619 293.239C169.815 293.371 170.064 293.438 170.364 293.438ZM174.63 287.455V294H173.876V287.455H174.63ZM176.766 287.455V294H176.011V287.455H176.766ZM178.249 294V287.455H179.004V289.871H179.068C179.123 289.786 179.2 289.677 179.298 289.545C179.398 289.411 179.541 289.291 179.726 289.187C179.913 289.08 180.167 289.027 180.487 289.027C180.9 289.027 181.264 289.13 181.58 289.337C181.895 289.544 182.141 289.837 182.318 290.216C182.495 290.595 182.583 291.043 182.583 291.558C182.583 292.078 182.495 292.529 182.318 292.91C182.141 293.289 181.896 293.583 181.583 293.792C181.27 293.999 180.908 294.102 180.499 294.102C180.184 294.102 179.931 294.05 179.742 293.946C179.552 293.839 179.406 293.719 179.304 293.585C179.202 293.448 179.123 293.335 179.068 293.246H178.978V294H178.249ZM178.991 291.545C178.991 291.916 179.045 292.243 179.154 292.527C179.262 292.808 179.421 293.028 179.63 293.188C179.839 293.346 180.094 293.425 180.397 293.425C180.712 293.425 180.976 293.342 181.186 293.175C181.4 293.007 181.559 292.781 181.666 292.498C181.775 292.212 181.829 291.895 181.829 291.545C181.829 291.2 181.776 290.889 181.669 290.612C181.565 290.333 181.406 290.113 181.193 289.951C180.982 289.787 180.717 289.705 180.397 289.705C180.09 289.705 179.832 289.782 179.624 289.938C179.415 290.091 179.257 290.306 179.151 290.583C179.044 290.858 178.991 291.179 178.991 291.545ZM185.181 294.115C184.87 294.115 184.588 294.056 184.335 293.939C184.081 293.82 183.88 293.648 183.731 293.425C183.581 293.199 183.507 292.926 183.507 292.607C183.507 292.325 183.562 292.097 183.673 291.923C183.784 291.746 183.932 291.607 184.117 291.507C184.303 291.407 184.507 291.332 184.731 291.283C184.957 291.232 185.184 291.192 185.412 291.162C185.71 291.124 185.952 291.095 186.137 291.076C186.325 291.054 186.461 291.019 186.546 290.97C186.634 290.921 186.677 290.836 186.677 290.714V290.689C186.677 290.374 186.591 290.129 186.418 289.954C186.248 289.779 185.989 289.692 185.642 289.692C185.282 289.692 184.999 289.771 184.795 289.928C184.59 290.086 184.446 290.254 184.363 290.433L183.647 290.178C183.775 289.879 183.946 289.647 184.159 289.481C184.374 289.312 184.608 289.195 184.862 289.129C185.118 289.061 185.369 289.027 185.616 289.027C185.774 289.027 185.955 289.046 186.159 289.085C186.366 289.121 186.565 289.196 186.757 289.311C186.951 289.426 187.112 289.6 187.24 289.832C187.368 290.065 187.431 290.376 187.431 290.766V294H186.677V293.335H186.639C186.588 293.442 186.503 293.556 186.383 293.677C186.264 293.799 186.105 293.902 185.907 293.987C185.709 294.072 185.467 294.115 185.181 294.115ZM185.297 293.438C185.595 293.438 185.846 293.379 186.051 293.262C186.257 293.145 186.413 292.993 186.517 292.808C186.624 292.623 186.677 292.428 186.677 292.223V291.533C186.645 291.571 186.575 291.606 186.466 291.638C186.36 291.668 186.236 291.695 186.096 291.718C185.957 291.739 185.822 291.759 185.69 291.776C185.56 291.79 185.454 291.803 185.373 291.814C185.177 291.839 184.994 291.881 184.824 291.939C184.655 291.994 184.519 292.078 184.414 292.191C184.312 292.302 184.261 292.453 184.261 292.645C184.261 292.907 184.358 293.105 184.552 293.239C184.748 293.371 184.996 293.438 185.297 293.438ZM190.803 294.102C190.342 294.102 189.946 293.994 189.614 293.776C189.281 293.559 189.026 293.26 188.847 292.878C188.668 292.497 188.578 292.061 188.578 291.571C188.578 291.072 188.67 290.632 188.853 290.251C189.038 289.868 189.296 289.568 189.626 289.353C189.959 289.136 190.347 289.027 190.79 289.027C191.135 289.027 191.446 289.091 191.723 289.219C192 289.347 192.227 289.526 192.404 289.756C192.581 289.986 192.69 290.254 192.733 290.561H191.979C191.921 290.337 191.793 290.139 191.595 289.967C191.399 289.792 191.135 289.705 190.803 289.705C190.508 289.705 190.251 289.781 190.029 289.935C189.81 290.086 189.638 290.3 189.515 290.577C189.393 290.852 189.332 291.175 189.332 291.545C189.332 291.925 189.392 292.255 189.511 292.536C189.633 292.817 189.803 293.036 190.023 293.191C190.244 293.347 190.504 293.425 190.803 293.425C190.999 293.425 191.176 293.391 191.336 293.322C191.496 293.254 191.631 293.156 191.742 293.028C191.853 292.901 191.932 292.747 191.979 292.568H192.733C192.69 292.858 192.585 293.119 192.416 293.351C192.25 293.581 192.03 293.765 191.755 293.901C191.482 294.035 191.165 294.102 190.803 294.102ZM194.539 292.21L194.526 291.277H194.679L196.827 289.091H197.76L195.472 291.405H195.408L194.539 292.21ZM193.836 294V287.455H194.59V294H193.836ZM196.955 294L195.037 291.571L195.574 291.047L197.914 294H196.955Z" fill="black"/>
</svg>
